<?xml version="1.0" encoding="UTF-8" standalone="no"?>
<!DOCTYPE svg PUBLIC "-//W3C//DTD SVG 1.1//EN"
 "http://www.w3.org/Graphics/SVG/1.1/DTD/svg11.dtd">
<!-- Generated by graphviz version 14.1.0 (0)
 -->
<!-- Title: AnomalyDetectionPipeline Pages: 1 -->
<svg width="2355pt" height="1492pt"
 viewBox="0.00 0.00 2355.00 1492.00" xmlns="http://www.w3.org/2000/svg" xmlns:xlink="http://www.w3.org/1999/xlink">
<g id="graph0" class="graph" transform="scale(1 1) rotate(0) translate(4 1488)">
<title>AnomalyDetectionPipeline</title>
<polygon fill="white" stroke="none" points="-4,4 -4,-1488 2350.93,-1488 2350.93,4 -4,4"/>
<g id="clust1" class="cluster">
<title>cluster_leiden</title>
<polygon fill="lightblue" stroke="lightblue" points="8,-1078 8,-1315 556.09,-1315 556.09,-1078 8,-1078"/>
<text xml:space="preserve" text-anchor="middle" x="282.05" y="-1298.4" font-family="Times,serif" font-size="14.00">Leiden Community Detection</text>
</g>
<g id="clust2" class="cluster">
<title>cluster_fastRP</title>
<polygon fill="lightpink" stroke="lightpink" points="265.86,-418 265.86,-672 928.47,-672 928.47,-418 265.86,-418"/>
<text xml:space="preserve" text-anchor="middle" x="597.16" y="-655.4" font-family="Times,serif" font-size="14.00">Fast Random Projection (FastRP)</text>
</g>
<g id="clust3" class="cluster">
<title>cluster_UMAP</title>
<polygon fill="lightgrey" stroke="lightgrey" points="971.34,-493 971.34,-587 1326.54,-587 1326.54,-493 971.34,-493"/>
<text xml:space="preserve" text-anchor="middle" x="1148.94" y="-570.4" font-family="Times,serif" font-size="14.00">Uniform Manifold Approximation and Projection (UMAP)</text>
<text xml:space="preserve" text-anchor="middle" x="1148.94" y="-553.6" font-family="Times,serif" font-size="14.00">Dimensionality Reduction for Visualization</text>
</g>
<g id="clust4" class="cluster">
<title>cluster_hdbscan</title>
<polygon fill="#eedd82" stroke="#eedd82" points="685.39,-1020 685.39,-1476 1297.93,-1476 1297.93,-1020 685.39,-1020"/>
<text xml:space="preserve" text-anchor="middle" x="991.66" y="-1459.4" font-family="Times,serif" font-size="14.00">Hierarchical Density&#45;Based Spatial Clustering (HDBSCAN)</text>
</g>
<g id="clust5" class="cluster">
<title>cluster_graph_features</title>
<polygon fill="lightcyan" stroke="lightcyan" points="1127.35,-8 1127.35,-455 1300.42,-455 1300.42,-8 1127.35,-8"/>
<text xml:space="preserve" text-anchor="middle" x="1213.88" y="-438.4" font-family="Times,serif" font-size="14.00">Graph (Algorithm) Features</text>
</g>
<g id="clust6" class="cluster">
<title>cluster_anomaly</title>
<polygon fill="lightgreen" stroke="green" stroke-width="4" points="1135.65,-595 1135.65,-978 2019.69,-978 2019.69,-595 1135.65,-595"/>
<text xml:space="preserve" text-anchor="middle" x="1577.67" y="-961.4" font-family="Times,serif" font-size="14.00">Anomaly Detection Model</text>
</g>
<g id="clust7" class="cluster">
<title>cluster_explainability</title>
<polygon fill="lavender" stroke="lavender" points="2038.69,-738 2038.69,-932 2338.93,-932 2338.93,-738 2038.69,-738"/>
<text xml:space="preserve" text-anchor="middle" x="2188.81" y="-915.4" font-family="Times,serif" font-size="14.00">Explainable AI (SHAP)</text>
</g>
<!-- Tuning_Leiden -->
<g id="node1" class="node">
<title>Tuning_Leiden</title>
<polygon fill="white" stroke="black" points="71.46,-1203 16,-1203 16,-1167 71.46,-1167 71.46,-1203"/>
<text xml:space="preserve" text-anchor="middle" x="43.73" y="-1188" font-family="Helvetica,sans-Serif" font-size="10.00">Tuning</text>
<text xml:space="preserve" text-anchor="middle" x="43.73" y="-1176" font-family="Helvetica,sans-Serif" font-size="10.00">(Optuna)</text>
</g>
<!-- Leiden_Gamma -->
<g id="node2" class="node">
<title>Leiden_Gamma</title>
<polygon fill="white" stroke="black" points="150.43,-1122 108.46,-1104 150.43,-1086 192.39,-1104 150.43,-1122"/>
<text xml:space="preserve" text-anchor="middle" x="150.43" y="-1101" font-family="Helvetica,sans-Serif" font-size="10.00">gamma</text>
</g>
<!-- Tuning_Leiden&#45;&gt;Leiden_Gamma -->
<g id="edge1" class="edge">
<title>Tuning_Leiden&#45;&gt;Leiden_Gamma</title>
<path fill="none" stroke="black" d="M65.17,-1166.6C77.42,-1155.84 93.49,-1142.21 108.46,-1131 113,-1127.6 117.94,-1124.15 122.77,-1120.9"/>
<polygon fill="black" stroke="black" points="124.67,-1123.84 131.11,-1115.42 120.83,-1117.99 124.67,-1123.84"/>
</g>
<!-- Leiden_Theta -->
<g id="node3" class="node">
<title>Leiden_Theta</title>
<polygon fill="white" stroke="black" points="150.43,-1176 117.91,-1158 150.43,-1140 182.95,-1158 150.43,-1176"/>
<text xml:space="preserve" text-anchor="middle" x="150.43" y="-1155" font-family="Helvetica,sans-Serif" font-size="10.00">theta</text>
</g>
<!-- Tuning_Leiden&#45;&gt;Leiden_Theta -->
<g id="edge2" class="edge">
<title>Tuning_Leiden&#45;&gt;Leiden_Theta</title>
<path fill="none" stroke="black" d="M71.69,-1178.05C85.37,-1174.52 102.09,-1170.21 116.51,-1166.49"/>
<polygon fill="black" stroke="black" points="117.21,-1169.92 126.02,-1164.04 115.47,-1163.14 117.21,-1169.92"/>
</g>
<!-- Leiden_Algorithm -->
<g id="node4" class="node">
<title>Leiden_Algorithm</title>
<polygon fill="white" stroke="black" points="373.79,-1203 229.39,-1203 229.39,-1167 373.79,-1167 373.79,-1203"/>
<text xml:space="preserve" text-anchor="middle" x="301.59" y="-1182" font-family="Helvetica,sans-Serif" font-size="10.00">Leiden Community Detection</text>
</g>
<!-- Leiden_Gamma&#45;&gt;Leiden_Algorithm -->
<g id="edge3" class="edge">
<title>Leiden_Gamma&#45;&gt;Leiden_Algorithm</title>
<path fill="none" stroke="black" d="M170.02,-1114.09C191.6,-1125.82 227.94,-1145.55 256.81,-1161.22"/>
<polygon fill="black" stroke="black" points="254.88,-1164.16 265.34,-1165.86 258.22,-1158.01 254.88,-1164.16"/>
</g>
<!-- Leiden_Theta&#45;&gt;Leiden_Algorithm -->
<g id="edge4" class="edge">
<title>Leiden_Theta&#45;&gt;Leiden_Algorithm</title>
<path fill="none" stroke="black" d="M175.72,-1162.4C187.48,-1164.53 202.36,-1167.22 217.72,-1170"/>
<polygon fill="black" stroke="black" points="216.99,-1173.42 227.45,-1171.76 218.23,-1166.54 216.99,-1173.42"/>
</g>
<!-- Leiden_Algorithm&#45;&gt;Tuning_Leiden -->
<g id="edge5" class="edge">
<title>Leiden_Algorithm&#45;&gt;Tuning_Leiden</title>
<path fill="none" stroke="black" stroke-dasharray="5,2" d="M228.95,-1185C181.65,-1185 121.52,-1185 83.07,-1185"/>
<polygon fill="black" stroke="black" points="83.14,-1181.5 73.14,-1185 83.14,-1188.5 83.14,-1181.5"/>
<text xml:space="preserve" text-anchor="middle" x="150.43" y="-1189.2" font-family="Times,serif" font-size="14.00">modularity</text>
</g>
<!-- Leiden_Algorithm&#45;&gt;Tuning_Leiden -->
<g id="edge6" class="edge">
<title>Leiden_Algorithm&#45;&gt;Tuning_Leiden</title>
<path fill="none" stroke="black" stroke-dasharray="5,2" d="M229.19,-1201.89C192.92,-1208.17 148.22,-1212.38 108.46,-1206 99.91,-1204.63 90.94,-1202.28 82.52,-1199.64"/>
<polygon fill="black" stroke="black" points="83.89,-1196.4 73.3,-1196.54 81.66,-1203.04 83.89,-1196.4"/>
<text xml:space="preserve" text-anchor="middle" x="150.43" y="-1213.37" font-family="Times,serif" font-size="14.00">size</text>
</g>
<!-- CommunityId -->
<g id="node5" class="node">
<title>CommunityId</title>
<ellipse fill="white" stroke="black" cx="508.06" cy="-1185" rx="40.03" ry="18"/>
<text xml:space="preserve" text-anchor="middle" x="508.06" y="-1182" font-family="Helvetica,sans-Serif" font-size="10.00">Community</text>
</g>
<!-- Leiden_Algorithm&#45;&gt;CommunityId -->
<g id="edge7" class="edge">
<title>Leiden_Algorithm&#45;&gt;CommunityId</title>
<path fill="none" stroke="black" d="M374.1,-1185C401.25,-1185 431.57,-1185 456.4,-1185"/>
<polygon fill="black" stroke="black" points="456.23,-1188.5 466.23,-1185 456.23,-1181.5 456.23,-1188.5"/>
</g>
<!-- Tuning_HDBSCAN -->
<g id="node14" class="node">
<title>Tuning_HDBSCAN</title>
<polygon fill="white" stroke="black" points="748.86,-1203 693.39,-1203 693.39,-1167 748.86,-1167 748.86,-1203"/>
<text xml:space="preserve" text-anchor="middle" x="721.12" y="-1188" font-family="Helvetica,sans-Serif" font-size="10.00">Tuning</text>
<text xml:space="preserve" text-anchor="middle" x="721.12" y="-1176" font-family="Helvetica,sans-Serif" font-size="10.00">(Optuna)</text>
</g>
<!-- CommunityId&#45;&gt;Tuning_HDBSCAN -->
<g id="edge18" class="edge">
<title>CommunityId&#45;&gt;Tuning_HDBSCAN</title>
<path fill="none" stroke="black" d="M548.27,-1185C586.51,-1185 644.3,-1185 682.13,-1185"/>
<polygon fill="black" stroke="black" points="681.67,-1188.5 691.67,-1185 681.67,-1181.5 681.67,-1188.5"/>
<text xml:space="preserve" text-anchor="middle" x="649.37" y="-1189.2" font-family="Times,serif" font-size="14.00">reference</text>
</g>
<!-- Tuning_FastRP -->
<g id="node6" class="node">
<title>Tuning_FastRP</title>
<polygon fill="white" stroke="black" points="329.32,-543 273.86,-543 273.86,-507 329.32,-507 329.32,-543"/>
<text xml:space="preserve" text-anchor="middle" x="301.59" y="-528" font-family="Helvetica,sans-Serif" font-size="10.00">Tuning</text>
<text xml:space="preserve" text-anchor="middle" x="301.59" y="-516" font-family="Helvetica,sans-Serif" font-size="10.00">(Optuna)</text>
</g>
<!-- FastRP_Dimension -->
<g id="node7" class="node">
<title>FastRP_Dimension</title>
<polygon fill="white" stroke="black" points="508.06,-462 455.69,-444 508.06,-426 560.43,-444 508.06,-462"/>
<text xml:space="preserve" text-anchor="middle" x="508.06" y="-441" font-family="Helvetica,sans-Serif" font-size="10.00">dimension</text>
</g>
<!-- Tuning_FastRP&#45;&gt;FastRP_Dimension -->
<g id="edge8" class="edge">
<title>Tuning_FastRP&#45;&gt;FastRP_Dimension</title>
<path fill="none" stroke="black" d="M329.51,-509.77C351.02,-498.04 382.19,-482.03 410.79,-471 428.06,-464.34 447.65,-458.54 464.63,-454.04"/>
<polygon fill="black" stroke="black" points="465.08,-457.54 473.89,-451.66 463.33,-450.76 465.08,-457.54"/>
</g>
<!-- FastRP_Normalization_Strength -->
<g id="node8" class="node">
<title>FastRP_Normalization_Strength</title>
<polygon fill="white" stroke="black" points="508.06,-516 410.79,-498 508.06,-480 605.34,-498 508.06,-516"/>
<text xml:space="preserve" text-anchor="middle" x="508.06" y="-495" font-family="Helvetica,sans-Serif" font-size="10.00">normalization strength</text>
</g>
<!-- Tuning_FastRP&#45;&gt;FastRP_Normalization_Strength -->
<g id="edge9" class="edge">
<title>Tuning_FastRP&#45;&gt;FastRP_Normalization_Strength</title>
<path fill="none" stroke="black" d="M329.74,-521.41C357.31,-517.77 401.1,-511.99 438.27,-507.08"/>
<polygon fill="black" stroke="black" points="438.61,-510.57 448.07,-505.79 437.7,-503.63 438.61,-510.57"/>
</g>
<!-- FastRP_Forth_Iteration_Weight -->
<g id="node9" class="node">
<title>FastRP_Forth_Iteration_Weight</title>
<polygon fill="white" stroke="black" points="508.06,-570 417.88,-552 508.06,-534 598.25,-552 508.06,-570"/>
<text xml:space="preserve" text-anchor="middle" x="508.06" y="-549" font-family="Helvetica,sans-Serif" font-size="10.00">forth iteration weight</text>
</g>
<!-- Tuning_FastRP&#45;&gt;FastRP_Forth_Iteration_Weight -->
<g id="edge10" class="edge">
<title>Tuning_FastRP&#45;&gt;FastRP_Forth_Iteration_Weight</title>
<path fill="none" stroke="black" d="M329.74,-528.59C358.02,-532.32 403.38,-538.31 441.14,-543.3"/>
<polygon fill="black" stroke="black" points="440.2,-546.7 450.58,-544.54 441.12,-539.76 440.2,-546.7"/>
</g>
<!-- FastRP_Algorithm -->
<g id="node10" class="node">
<title>FastRP_Algorithm</title>
<polygon fill="white" stroke="black" points="748.12,-537 694.12,-537 694.12,-501 748.12,-501 748.12,-537"/>
<text xml:space="preserve" text-anchor="middle" x="721.12" y="-516" font-family="Helvetica,sans-Serif" font-size="10.00">FastRP</text>
</g>
<!-- FastRP_Dimension&#45;&gt;FastRP_Algorithm -->
<g id="edge11" class="edge">
<title>FastRP_Dimension&#45;&gt;FastRP_Algorithm</title>
<path fill="none" stroke="black" d="M539.71,-451.57C558.78,-456.53 583.7,-463.47 605.34,-471 631.99,-480.27 661.33,-492.58 683.67,-502.41"/>
<polygon fill="black" stroke="black" points="682.09,-505.54 692.65,-506.4 684.94,-499.14 682.09,-505.54"/>
</g>
<!-- FastRP_Normalization_Strength&#45;&gt;FastRP_Algorithm -->
<g id="edge12" class="edge">
<title>FastRP_Normalization_Strength&#45;&gt;FastRP_Algorithm</title>
<path fill="none" stroke="black" d="M573.25,-504.39C608.9,-507.93 652.03,-512.23 682.3,-515.24"/>
<polygon fill="black" stroke="black" points="681.83,-518.71 692.12,-516.21 682.52,-511.74 681.83,-518.71"/>
</g>
<!-- FastRP_Forth_Iteration_Weight&#45;&gt;FastRP_Algorithm -->
<g id="edge13" class="edge">
<title>FastRP_Forth_Iteration_Weight&#45;&gt;FastRP_Algorithm</title>
<path fill="none" stroke="black" d="M560.42,-543.97C598.08,-538.08 648.36,-530.22 682.37,-524.9"/>
<polygon fill="black" stroke="black" points="682.84,-528.37 692.18,-523.37 681.76,-521.46 682.84,-528.37"/>
</g>
<!-- FastRP_Algorithm&#45;&gt;Tuning_FastRP -->
<g id="edge14" class="edge">
<title>FastRP_Algorithm&#45;&gt;Tuning_FastRP</title>
<path fill="none" stroke="black" stroke-dasharray="5,2" d="M693.78,-537.5C671.42,-551.99 637.88,-571.01 605.34,-579 521.37,-599.62 494.95,-598.83 410.79,-579 385.62,-573.07 359.62,-560.34 339.41,-548.73"/>
<polygon fill="black" stroke="black" points="341.39,-545.84 331,-543.75 337.83,-551.86 341.39,-545.84"/>
<text xml:space="preserve" text-anchor="middle" x="508.06" y="-615.17" font-family="Times,serif" font-size="14.00">adjusted mutual info score</text>
<text xml:space="preserve" text-anchor="middle" x="508.06" y="-598.37" font-family="Times,serif" font-size="14.00">(incl. preview clustering)</text>
</g>
<!-- NodeEmbeddings -->
<g id="node11" class="node">
<title>NodeEmbeddings</title>
<ellipse fill="white" stroke="black" cx="861.37" cy="-519" rx="59.1" ry="18"/>
<text xml:space="preserve" text-anchor="middle" x="861.37" y="-516" font-family="Helvetica,sans-Serif" font-size="10.00">Node Embeddings</text>
</g>
<!-- FastRP_Algorithm&#45;&gt;NodeEmbeddings -->
<g id="edge15" class="edge">
<title>FastRP_Algorithm&#45;&gt;NodeEmbeddings</title>
<path fill="none" stroke="black" d="M748.45,-519C760.5,-519 775.41,-519 790.37,-519"/>
<polygon fill="black" stroke="black" points="790.27,-522.5 800.27,-519 790.27,-515.5 790.27,-522.5"/>
</g>
<!-- UMAP_Algorithm -->
<g id="node12" class="node">
<title>UMAP_Algorithm</title>
<polygon fill="white" stroke="black" points="1086.09,-537 1032.09,-537 1032.09,-501 1086.09,-501 1086.09,-537"/>
<text xml:space="preserve" text-anchor="middle" x="1059.09" y="-516" font-family="Helvetica,sans-Serif" font-size="10.00">UMAP</text>
</g>
<!-- NodeEmbeddings&#45;&gt;UMAP_Algorithm -->
<g id="edge16" class="edge">
<title>NodeEmbeddings&#45;&gt;UMAP_Algorithm</title>
<path fill="none" stroke="black" d="M920.83,-519C953.06,-519 992.13,-519 1020.33,-519"/>
<polygon fill="black" stroke="black" points="1020.19,-522.5 1030.19,-519 1020.19,-515.5 1020.19,-522.5"/>
</g>
<!-- HDBSCAN_Node -->
<g id="node15" class="node">
<title>HDBSCAN_Node</title>
<polygon fill="white" stroke="black" points="1091.53,-1203 1026.64,-1203 1026.64,-1167 1091.53,-1167 1091.53,-1203"/>
<text xml:space="preserve" text-anchor="middle" x="1059.09" y="-1182" font-family="Helvetica,sans-Serif" font-size="10.00">HDBSCAN</text>
</g>
<!-- NodeEmbeddings&#45;&gt;HDBSCAN_Node -->
<g id="edge19" class="edge">
<title>NodeEmbeddings&#45;&gt;HDBSCAN_Node</title>
<path fill="none" stroke="black" d="M867.71,-537.16C894.66,-628.88 1015.85,-1041.28 1049.43,-1155.56"/>
<polygon fill="black" stroke="black" points="1046.06,-1156.48 1052.23,-1165.09 1052.77,-1154.51 1046.06,-1156.48"/>
</g>
<!-- AnomalyPCA -->
<g id="node38" class="node">
<title>AnomalyPCA</title>
<polygon fill="white" stroke="black" points="1485.47,-735 1376.64,-735 1376.64,-699 1485.47,-699 1485.47,-735"/>
<text xml:space="preserve" text-anchor="middle" x="1431.05" y="-720" font-family="Helvetica,sans-Serif" font-size="10.00">Principal Component</text>
<text xml:space="preserve" text-anchor="middle" x="1431.05" y="-708" font-family="Helvetica,sans-Serif" font-size="10.00">Analysis (PCA)</text>
</g>
<!-- NodeEmbeddings&#45;&gt;AnomalyPCA -->
<g id="edge32" class="edge">
<title>NodeEmbeddings&#45;&gt;AnomalyPCA</title>
<path fill="none" stroke="black" d="M901.69,-505.42C922.18,-499.06 947.81,-492.18 971.34,-489 1049.56,-478.43 1266.87,-437.32 1326.54,-489 1394.77,-548.09 1298.56,-620 1355.54,-690 1358.62,-693.78 1362.27,-697.03 1366.28,-699.83"/>
<polygon fill="black" stroke="black" points="1364.47,-702.82 1374.88,-704.81 1367.98,-696.77 1364.47,-702.82"/>
</g>
<!-- UMAP_Coordinates -->
<g id="node13" class="node">
<title>UMAP_Coordinates</title>
<ellipse fill="white" stroke="black" cx="1213.38" cy="-519" rx="51.4" ry="18"/>
<text xml:space="preserve" text-anchor="middle" x="1213.38" y="-516" font-family="Helvetica,sans-Serif" font-size="10.00">2D Coordinates</text>
</g>
<!-- UMAP_Algorithm&#45;&gt;UMAP_Coordinates -->
<g id="edge17" class="edge">
<title>UMAP_Algorithm&#45;&gt;UMAP_Coordinates</title>
<path fill="none" stroke="black" d="M1086.27,-519C1103.87,-519 1127.84,-519 1150.16,-519"/>
<polygon fill="black" stroke="black" points="1150.13,-522.5 1160.13,-519 1150.13,-515.5 1150.13,-522.5"/>
</g>
<!-- HDBSCAN_Min_Cluster_Size -->
<g id="node16" class="node">
<title>HDBSCAN_Min_Cluster_Size</title>
<polygon fill="white" stroke="black" points="861.37,-1203 785.86,-1185 861.37,-1167 936.89,-1185 861.37,-1203"/>
<text xml:space="preserve" text-anchor="middle" x="861.37" y="-1182" font-family="Helvetica,sans-Serif" font-size="10.00">Min Cluster Size</text>
</g>
<!-- Tuning_HDBSCAN&#45;&gt;HDBSCAN_Min_Cluster_Size -->
<g id="edge20" class="edge">
<title>Tuning_HDBSCAN&#45;&gt;HDBSCAN_Min_Cluster_Size</title>
<path fill="none" stroke="black" d="M749.11,-1185C756.08,-1185 763.97,-1185 772.26,-1185"/>
<polygon fill="black" stroke="black" points="772.24,-1188.5 782.24,-1185 772.24,-1181.5 772.24,-1188.5"/>
</g>
<!-- HDBSCAN_Min_Samples -->
<g id="node17" class="node">
<title>HDBSCAN_Min_Samples</title>
<polygon fill="white" stroke="black" points="861.37,-1257 798.61,-1239 861.37,-1221 924.13,-1239 861.37,-1257"/>
<text xml:space="preserve" text-anchor="middle" x="861.37" y="-1236" font-family="Helvetica,sans-Serif" font-size="10.00">Min Samples</text>
</g>
<!-- Tuning_HDBSCAN&#45;&gt;HDBSCAN_Min_Samples -->
<g id="edge21" class="edge">
<title>Tuning_HDBSCAN&#45;&gt;HDBSCAN_Min_Samples</title>
<path fill="none" stroke="black" d="M749.29,-1196.88C760.55,-1201.71 773.78,-1207.26 785.86,-1212 797.31,-1216.5 809.85,-1221.15 821.33,-1225.29"/>
<polygon fill="black" stroke="black" points="819.91,-1228.5 830.51,-1228.58 822.27,-1221.92 819.91,-1228.5"/>
</g>
<!-- HDBSCAN_Node&#45;&gt;Tuning_HDBSCAN -->
<g id="edge24" class="edge">
<title>HDBSCAN_Node&#45;&gt;Tuning_HDBSCAN</title>
<path fill="none" stroke="black" stroke-dasharray="5,2" d="M1026.26,-1170.05C1002.29,-1159.65 968.29,-1146.7 936.89,-1141.2 870.77,-1129.62 849.96,-1121.3 785.86,-1141.2 773.39,-1145.07 761.2,-1152.32 750.87,-1159.82"/>
<polygon fill="black" stroke="black" points="748.94,-1156.89 743.16,-1165.77 753.21,-1162.44 748.94,-1156.89"/>
<text xml:space="preserve" text-anchor="middle" x="861.37" y="-1145.4" font-family="Times,serif" font-size="14.00">adjusted mutual info score</text>
</g>
<!-- ClusterLabel -->
<g id="node18" class="node">
<title>ClusterLabel</title>
<ellipse fill="white" stroke="black" cx="1213.38" cy="-1228" rx="27" ry="18"/>
<text xml:space="preserve" text-anchor="middle" x="1213.38" y="-1225" font-family="Helvetica,sans-Serif" font-size="10.00">Label</text>
</g>
<!-- HDBSCAN_Node&#45;&gt;ClusterLabel -->
<g id="edge25" class="edge">
<title>HDBSCAN_Node&#45;&gt;ClusterLabel</title>
<path fill="none" stroke="black" d="M1092.01,-1194.01C1116.93,-1201.05 1151.53,-1210.82 1177.24,-1218.08"/>
<polygon fill="black" stroke="black" points="1175.97,-1221.36 1186.55,-1220.71 1177.88,-1214.62 1175.97,-1221.36"/>
</g>
<!-- ClusterRadius -->
<g id="node19" class="node">
<title>ClusterRadius</title>
<ellipse fill="white" stroke="black" cx="1213.38" cy="-1169" rx="42.75" ry="22.63"/>
<text xml:space="preserve" text-anchor="middle" x="1213.38" y="-1172" font-family="Helvetica,sans-Serif" font-size="10.00">Radius</text>
<text xml:space="preserve" text-anchor="middle" x="1213.38" y="-1160" font-family="Helvetica,sans-Serif" font-size="10.00">(avg,max)</text>
</g>
<!-- HDBSCAN_Node&#45;&gt;ClusterRadius -->
<g id="edge27" class="edge">
<title>HDBSCAN_Node&#45;&gt;ClusterRadius</title>
<path fill="none" stroke="black" d="M1092.01,-1181.65C1111.55,-1179.59 1137.02,-1176.92 1159.51,-1174.56"/>
<polygon fill="black" stroke="black" points="1159.86,-1178.04 1169.44,-1173.51 1159.13,-1171.08 1159.86,-1178.04"/>
</g>
<!-- ClusterSize -->
<g id="node20" class="node">
<title>ClusterSize</title>
<ellipse fill="white" stroke="black" cx="1213.38" cy="-1362" rx="27" ry="18"/>
<text xml:space="preserve" text-anchor="middle" x="1213.38" y="-1359" font-family="Helvetica,sans-Serif" font-size="10.00">Size</text>
</g>
<!-- HDBSCAN_Node&#45;&gt;ClusterSize -->
<g id="edge28" class="edge">
<title>HDBSCAN_Node&#45;&gt;ClusterSize</title>
<path fill="none" stroke="black" d="M1063.22,-1203.07C1069.62,-1234.45 1087.1,-1299.09 1127.35,-1335 1140.59,-1346.81 1159.01,-1353.46 1175.32,-1357.2"/>
<polygon fill="black" stroke="black" points="1174.22,-1360.55 1184.7,-1359.06 1175.58,-1353.68 1174.22,-1360.55"/>
</g>
<!-- NormDistToMedoid -->
<g id="node21" class="node">
<title>NormDistToMedoid</title>
<ellipse fill="white" stroke="black" cx="1213.38" cy="-1421" rx="76.55" ry="22.63"/>
<text xml:space="preserve" text-anchor="middle" x="1213.38" y="-1424" font-family="Helvetica,sans-Serif" font-size="10.00">Normalized Distance</text>
<text xml:space="preserve" text-anchor="middle" x="1213.38" y="-1412" font-family="Helvetica,sans-Serif" font-size="10.00">To Medoid</text>
</g>
<!-- HDBSCAN_Node&#45;&gt;NormDistToMedoid -->
<g id="edge29" class="edge">
<title>HDBSCAN_Node&#45;&gt;NormDistToMedoid</title>
<path fill="none" stroke="black" d="M1061.01,-1203.46C1063.95,-1242.82 1076.23,-1335.72 1127.35,-1389 1131.97,-1393.81 1137.38,-1397.91 1143.2,-1401.39"/>
<polygon fill="black" stroke="black" points="1141.48,-1404.45 1151.96,-1405.99 1144.74,-1398.25 1141.48,-1404.45"/>
</g>
<!-- ClusterNoise -->
<g id="node22" class="node">
<title>ClusterNoise</title>
<ellipse fill="white" stroke="black" cx="1213.38" cy="-1051" rx="41.38" ry="22.63"/>
<text xml:space="preserve" text-anchor="middle" x="1213.38" y="-1054" font-family="Helvetica,sans-Serif" font-size="10.00">Noise</text>
<text xml:space="preserve" text-anchor="middle" x="1213.38" y="-1042" font-family="Helvetica,sans-Serif" font-size="10.00">(label=&#45;1)</text>
</g>
<!-- HDBSCAN_Node&#45;&gt;ClusterNoise -->
<g id="edge26" class="edge">
<title>HDBSCAN_Node&#45;&gt;ClusterNoise</title>
<path fill="none" stroke="black" d="M1067.85,-1166.61C1078.28,-1143.99 1098.84,-1105.77 1127.35,-1083 1138.04,-1074.46 1151.24,-1068.04 1164.03,-1063.28"/>
<polygon fill="black" stroke="black" points="1164.86,-1066.69 1173.18,-1060.14 1162.59,-1060.07 1164.86,-1066.69"/>
</g>
<!-- ClusterProbability -->
<g id="node23" class="node">
<title>ClusterProbability</title>
<ellipse fill="white" stroke="black" cx="1213.38" cy="-1110" rx="37.7" ry="18"/>
<text xml:space="preserve" text-anchor="middle" x="1213.38" y="-1107" font-family="Helvetica,sans-Serif" font-size="10.00">Probability</text>
</g>
<!-- HDBSCAN_Node&#45;&gt;ClusterProbability -->
<g id="edge30" class="edge">
<title>HDBSCAN_Node&#45;&gt;ClusterProbability</title>
<path fill="none" stroke="black" d="M1082,-1166.69C1094.63,-1156.84 1111.18,-1145.08 1127.35,-1137 1140.12,-1130.61 1154.72,-1125.33 1168.18,-1121.17"/>
<polygon fill="black" stroke="black" points="1169.09,-1124.56 1177.69,-1118.38 1167.11,-1117.84 1169.09,-1124.56"/>
</g>
<!-- ClusterApproximationOutlierScore -->
<g id="node24" class="node">
<title>ClusterApproximationOutlierScore</title>
<ellipse fill="white" stroke="black" cx="1213.38" cy="-1295" rx="65.35" ry="31.11"/>
<text xml:space="preserve" text-anchor="middle" x="1213.38" y="-1304" font-family="Helvetica,sans-Serif" font-size="10.00">Approximation</text>
<text xml:space="preserve" text-anchor="middle" x="1213.38" y="-1292" font-family="Helvetica,sans-Serif" font-size="10.00">OutlierScore</text>
<text xml:space="preserve" text-anchor="middle" x="1213.38" y="-1280" font-family="Helvetica,sans-Serif" font-size="10.00">(= 1 &#45; Probability)</text>
</g>
<!-- HDBSCAN_Node&#45;&gt;ClusterApproximationOutlierScore -->
<g id="edge31" class="edge">
<title>HDBSCAN_Node&#45;&gt;ClusterApproximationOutlierScore</title>
<path fill="none" stroke="black" d="M1074.57,-1203.48C1087.25,-1218.76 1106.81,-1240.26 1127.35,-1255 1135.07,-1260.54 1143.67,-1265.63 1152.36,-1270.18"/>
<polygon fill="black" stroke="black" points="1150.69,-1273.26 1161.2,-1274.6 1153.82,-1267 1150.69,-1273.26"/>
</g>
<!-- HDBSCAN_Min_Cluster_Size&#45;&gt;HDBSCAN_Node -->
<g id="edge22" class="edge">
<title>HDBSCAN_Min_Cluster_Size&#45;&gt;HDBSCAN_Node</title>
<path fill="none" stroke="black" d="M938.88,-1185C964.69,-1185 992.58,-1185 1014.89,-1185"/>
<polygon fill="black" stroke="black" points="1014.82,-1188.5 1024.82,-1185 1014.82,-1181.5 1014.82,-1188.5"/>
</g>
<!-- HDBSCAN_Min_Samples&#45;&gt;HDBSCAN_Node -->
<g id="edge23" class="edge">
<title>HDBSCAN_Min_Samples&#45;&gt;HDBSCAN_Node</title>
<path fill="none" stroke="black" d="M894.69,-1230.08C927.75,-1220.96 979.28,-1206.74 1015.62,-1196.72"/>
<polygon fill="black" stroke="black" points="1016.2,-1200.19 1024.91,-1194.15 1014.34,-1193.44 1016.2,-1200.19"/>
</g>
<!-- AnomalyStandardizer -->
<g id="node37" class="node">
<title>AnomalyStandardizer</title>
<polygon fill="white" stroke="black" points="1467.4,-681 1394.7,-681 1394.7,-645 1467.4,-645 1467.4,-681"/>
<text xml:space="preserve" text-anchor="middle" x="1431.05" y="-660" font-family="Helvetica,sans-Serif" font-size="10.00">Standardizer</text>
</g>
<!-- ClusterRadius&#45;&gt;AnomalyStandardizer -->
<g id="edge33" class="edge">
<title>ClusterRadius&#45;&gt;AnomalyStandardizer</title>
<path fill="none" stroke="black" d="M1256.58,-1168.33C1280.91,-1165.54 1309.88,-1157.64 1326.54,-1137 1389.04,-1059.53 1295.78,-769.61 1355.54,-690 1362.42,-680.84 1372.7,-674.78 1383.45,-670.78"/>
<polygon fill="black" stroke="black" points="1384.29,-674.18 1392.8,-667.87 1382.21,-667.5 1384.29,-674.18"/>
</g>
<!-- NormDistToMedoid&#45;&gt;AnomalyStandardizer -->
<g id="edge34" class="edge">
<title>NormDistToMedoid&#45;&gt;AnomalyStandardizer</title>
<path fill="none" stroke="black" d="M1286.63,-1414.07C1301.92,-1409.22 1316.46,-1401.42 1326.54,-1389 1375.53,-1328.65 1309.86,-752.9 1355.54,-690 1362.33,-680.65 1372.69,-674.53 1383.54,-670.52"/>
<polygon fill="black" stroke="black" points="1384.46,-673.9 1393,-667.63 1382.41,-667.21 1384.46,-673.9"/>
</g>
<!-- ClusterApproximationOutlierScore&#45;&gt;AnomalyStandardizer -->
<g id="edge35" class="edge">
<title>ClusterApproximationOutlierScore&#45;&gt;AnomalyStandardizer</title>
<path fill="none" stroke="black" d="M1276.58,-1286.49C1295.57,-1280.73 1314.57,-1271.09 1326.54,-1255 1364.07,-1204.57 1318.14,-740.52 1355.54,-690 1362.42,-680.71 1372.8,-674.61 1383.65,-670.61"/>
<polygon fill="black" stroke="black" points="1384.57,-673.99 1393.1,-667.7 1382.52,-667.29 1384.57,-673.99"/>
</g>
<!-- ArticleRank -->
<g id="node25" class="node">
<title>ArticleRank</title>
<ellipse fill="white" stroke="black" cx="1213.38" cy="-152" rx="40.37" ry="18"/>
<text xml:space="preserve" text-anchor="middle" x="1213.38" y="-149" font-family="Helvetica,sans-Serif" font-size="10.00">ArticleRank</text>
</g>
<!-- ArticleRank&#45;&gt;AnomalyStandardizer -->
<g id="edge36" class="edge">
<title>ArticleRank&#45;&gt;AnomalyStandardizer</title>
<path fill="none" stroke="black" d="M1254.03,-151.48C1278.18,-153.33 1307.88,-159.85 1326.54,-179 1390.68,-244.8 1419.9,-538.48 1427.78,-633.34"/>
<polygon fill="black" stroke="black" points="1424.27,-633.44 1428.57,-643.13 1431.25,-632.88 1424.27,-633.44"/>
</g>
<!-- PageRank -->
<g id="node26" class="node">
<title>PageRank</title>
<ellipse fill="white" stroke="black" cx="1213.38" cy="-98" rx="37.7" ry="18"/>
<text xml:space="preserve" text-anchor="middle" x="1213.38" y="-95" font-family="Helvetica,sans-Serif" font-size="10.00">PageRank</text>
</g>
<!-- PageRank&#45;&gt;AnomalyStandardizer -->
<g id="edge37" class="edge">
<title>PageRank&#45;&gt;AnomalyStandardizer</title>
<path fill="none" stroke="black" d="M1251.47,-97.16C1276.13,-98.68 1307.38,-104.94 1326.54,-125 1397.55,-199.37 1422.45,-531.88 1428.48,-633.44"/>
<polygon fill="black" stroke="black" points="1424.97,-633.35 1429.03,-643.14 1431.95,-632.95 1424.97,-633.35"/>
</g>
<!-- PageRank_minus_ArticleRank -->
<g id="node27" class="node">
<title>PageRank_minus_ArticleRank</title>
<ellipse fill="white" stroke="black" cx="1213.38" cy="-39" rx="48.65" ry="22.63"/>
<text xml:space="preserve" text-anchor="middle" x="1213.38" y="-42" font-family="Helvetica,sans-Serif" font-size="10.00">PageRank &#45;</text>
<text xml:space="preserve" text-anchor="middle" x="1213.38" y="-30" font-family="Helvetica,sans-Serif" font-size="10.00">ArticleRank</text>
</g>
<!-- PageRank_minus_ArticleRank&#45;&gt;AnomalyStandardizer -->
<g id="edge38" class="edge">
<title>PageRank_minus_ArticleRank&#45;&gt;AnomalyStandardizer</title>
<path fill="none" stroke="black" d="M1262.23,-41.25C1284.84,-44.85 1310.35,-53.02 1326.54,-71 1402.67,-155.56 1424.21,-525.71 1428.92,-633.47"/>
<polygon fill="black" stroke="black" points="1425.42,-633.37 1429.33,-643.21 1432.41,-633.08 1425.42,-633.37"/>
</g>
<!-- BetweennessCentrality -->
<g id="node28" class="node">
<title>BetweennessCentrality</title>
<ellipse fill="white" stroke="black" cx="1213.38" cy="-400" rx="53.77" ry="22.63"/>
<text xml:space="preserve" text-anchor="middle" x="1213.38" y="-403" font-family="Helvetica,sans-Serif" font-size="10.00">Betweenness</text>
<text xml:space="preserve" text-anchor="middle" x="1213.38" y="-391" font-family="Helvetica,sans-Serif" font-size="10.00">Centrality</text>
</g>
<!-- BetweennessCentrality&#45;&gt;AnomalyStandardizer -->
<g id="edge39" class="edge">
<title>BetweennessCentrality&#45;&gt;AnomalyStandardizer</title>
<path fill="none" stroke="black" d="M1258.55,-412.7C1284.31,-421.99 1315.89,-436.89 1337.54,-459 1386.66,-509.16 1412.51,-590.02 1423.48,-633.34"/>
<polygon fill="black" stroke="black" points="1420.07,-634.14 1425.83,-643.04 1426.88,-632.49 1420.07,-634.14"/>
</g>
<!-- LocalClusteringCoefficient -->
<g id="node29" class="node">
<title>LocalClusteringCoefficient</title>
<ellipse fill="white" stroke="black" cx="1213.38" cy="-337" rx="62.02" ry="22.63"/>
<text xml:space="preserve" text-anchor="middle" x="1213.38" y="-340" font-family="Helvetica,sans-Serif" font-size="10.00">Local Clustering</text>
<text xml:space="preserve" text-anchor="middle" x="1213.38" y="-328" font-family="Helvetica,sans-Serif" font-size="10.00">Coefficient</text>
</g>
<!-- LocalClusteringCoefficient&#45;&gt;AnomalyStandardizer -->
<g id="edge40" class="edge">
<title>LocalClusteringCoefficient&#45;&gt;AnomalyStandardizer</title>
<path fill="none" stroke="black" d="M1273.87,-342.54C1292.65,-346.93 1312.22,-354.62 1326.54,-368 1404.08,-440.46 1423.56,-574.32 1428.44,-633.52"/>
<polygon fill="black" stroke="black" points="1424.92,-633.42 1429.14,-643.14 1431.9,-632.91 1424.92,-633.42"/>
</g>
<!-- Degree -->
<g id="node30" class="node">
<title>Degree</title>
<ellipse fill="white" stroke="black" cx="1213.38" cy="-274" rx="52.57" ry="22.63"/>
<text xml:space="preserve" text-anchor="middle" x="1213.38" y="-277" font-family="Helvetica,sans-Serif" font-size="10.00">Degree</text>
<text xml:space="preserve" text-anchor="middle" x="1213.38" y="-265" font-family="Helvetica,sans-Serif" font-size="10.00">(in, out, sum)</text>
</g>
<!-- Degree&#45;&gt;AnomalyStandardizer -->
<g id="edge41" class="edge">
<title>Degree&#45;&gt;AnomalyStandardizer</title>
<path fill="none" stroke="black" d="M1265.65,-277.29C1286.97,-281.17 1310.45,-289.1 1326.54,-305 1419.22,-396.6 1430.14,-565.66 1430.58,-633.6"/>
<polygon fill="black" stroke="black" points="1427.08,-633.18 1430.57,-643.19 1434.08,-633.2 1427.08,-633.18"/>
</g>
<!-- Abstractness -->
<g id="node31" class="node">
<title>Abstractness</title>
<ellipse fill="white" stroke="black" cx="1213.38" cy="-211" rx="67.89" ry="22.63"/>
<text xml:space="preserve" text-anchor="middle" x="1213.38" y="-214" font-family="Helvetica,sans-Serif" font-size="10.00">Abstractness</text>
<text xml:space="preserve" text-anchor="middle" x="1213.38" y="-202" font-family="Helvetica,sans-Serif" font-size="10.00">(Robert C. Martin)</text>
</g>
<!-- Abstractness&#45;&gt;AnomalyStandardizer -->
<g id="edge42" class="edge">
<title>Abstractness&#45;&gt;AnomalyStandardizer</title>
<path fill="none" stroke="black" d="M1279.3,-216.9C1296.64,-221.43 1314.01,-229.11 1326.54,-242 1381.84,-298.91 1416.27,-547.68 1426.69,-633.65"/>
<polygon fill="black" stroke="black" points="1423.19,-633.87 1427.85,-643.39 1430.14,-633.04 1423.19,-633.87"/>
</g>
<!-- TuningAnomaly -->
<g id="node32" class="node">
<title>TuningAnomaly</title>
<polygon fill="white" stroke="black" points="1241.12,-880 1185.65,-880 1185.65,-844 1241.12,-844 1241.12,-880"/>
<text xml:space="preserve" text-anchor="middle" x="1213.38" y="-865" font-family="Helvetica,sans-Serif" font-size="10.00">Tuning</text>
<text xml:space="preserve" text-anchor="middle" x="1213.38" y="-853" font-family="Helvetica,sans-Serif" font-size="10.00">(Optuna)</text>
</g>
<!-- IsolationMinCluster -->
<g id="node33" class="node">
<title>IsolationMinCluster</title>
<polygon fill="white" stroke="black" points="1431.05,-789 1355.54,-771 1431.05,-753 1506.57,-771 1431.05,-789"/>
<text xml:space="preserve" text-anchor="middle" x="1431.05" y="-768" font-family="Helvetica,sans-Serif" font-size="10.00">Min Cluster Size</text>
</g>
<!-- TuningAnomaly&#45;&gt;IsolationMinCluster -->
<g id="edge43" class="edge">
<title>TuningAnomaly&#45;&gt;IsolationMinCluster</title>
<path fill="none" stroke="black" d="M1241.43,-848.97C1269.65,-835.57 1315.29,-814.39 1355.54,-798 1365.94,-793.76 1377.29,-789.48 1387.92,-785.62"/>
<polygon fill="black" stroke="black" points="1389.01,-788.94 1397.24,-782.27 1386.65,-782.36 1389.01,-788.94"/>
</g>
<!-- IsolationEstimators -->
<g id="node34" class="node">
<title>IsolationEstimators</title>
<polygon fill="white" stroke="black" points="1431.05,-843 1371.13,-825 1431.05,-807 1490.98,-825 1431.05,-843"/>
<text xml:space="preserve" text-anchor="middle" x="1431.05" y="-822" font-family="Helvetica,sans-Serif" font-size="10.00">n estimators</text>
</g>
<!-- TuningAnomaly&#45;&gt;IsolationEstimators -->
<g id="edge44" class="edge">
<title>TuningAnomaly&#45;&gt;IsolationEstimators</title>
<path fill="none" stroke="black" d="M1241.26,-857.39C1275.99,-851.43 1337.11,-840.95 1380.39,-833.52"/>
<polygon fill="black" stroke="black" points="1380.77,-837.01 1390.04,-831.87 1379.59,-830.11 1380.77,-837.01"/>
</g>
<!-- ProxyEstimators -->
<g id="node35" class="node">
<title>ProxyEstimators</title>
<polygon fill="white" stroke="black" points="1584.49,-903 1524.57,-885 1584.49,-867 1644.42,-885 1584.49,-903"/>
<text xml:space="preserve" text-anchor="middle" x="1584.49" y="-882" font-family="Helvetica,sans-Serif" font-size="10.00">n estimators</text>
</g>
<!-- TuningAnomaly&#45;&gt;ProxyEstimators -->
<g id="edge47" class="edge">
<title>TuningAnomaly&#45;&gt;ProxyEstimators</title>
<path fill="none" stroke="black" d="M1241.31,-869.14C1265.9,-875.28 1303.37,-883.64 1336.54,-887 1411.72,-894.61 1431.01,-887.98 1506.57,-887 1510,-886.96 1513.51,-886.9 1517.06,-886.84"/>
<polygon fill="black" stroke="black" points="1517.01,-890.34 1526.94,-886.64 1516.87,-883.34 1517.01,-890.34"/>
</g>
<!-- ProxyMaxDepth -->
<g id="node36" class="node">
<title>ProxyMaxDepth</title>
<polygon fill="white" stroke="black" points="1584.49,-805 1531.18,-787 1584.49,-769 1637.81,-787 1584.49,-805"/>
<text xml:space="preserve" text-anchor="middle" x="1584.49" y="-784" font-family="Helvetica,sans-Serif" font-size="10.00">max depth</text>
</g>
<!-- TuningAnomaly&#45;&gt;ProxyMaxDepth -->
<g id="edge48" class="edge">
<title>TuningAnomaly&#45;&gt;ProxyMaxDepth</title>
<path fill="none" stroke="black" d="M1241.32,-864.66C1305.29,-870.41 1464.18,-881.27 1506.57,-852 1523.62,-840.23 1509.64,-823.36 1524.57,-809 1529.05,-804.7 1534.44,-801.22 1540.13,-798.41"/>
<polygon fill="black" stroke="black" points="1541.27,-801.73 1549.14,-794.64 1538.57,-795.27 1541.27,-801.73"/>
</g>
<!-- IsolationForest -->
<g id="node39" class="node">
<title>IsolationForest</title>
<polygon fill="white" stroke="black" points="1799.49,-788.8 1662.42,-788.8 1662.42,-707.2 1799.49,-707.2 1799.49,-788.8"/>
<text xml:space="preserve" text-anchor="middle" x="1730.95" y="-751" font-family="Helvetica,sans-Serif" font-size="10.00">Isolation Forest</text>
<text xml:space="preserve" text-anchor="middle" x="1730.95" y="-739" font-family="Helvetica,sans-Serif" font-size="10.00">Anomaly Detector</text>
</g>
<!-- IsolationMinCluster&#45;&gt;IsolationForest -->
<g id="edge45" class="edge">
<title>IsolationMinCluster&#45;&gt;IsolationForest</title>
<path fill="none" stroke="black" d="M1483.4,-765.04C1496.79,-763.6 1511.21,-762.14 1524.57,-761 1566.37,-757.42 1613.02,-754.39 1651.3,-752.16"/>
<polygon fill="black" stroke="black" points="1651.08,-755.68 1660.86,-751.61 1650.67,-748.69 1651.08,-755.68"/>
</g>
<!-- IsolationEstimators&#45;&gt;IsolationForest -->
<g id="edge46" class="edge">
<title>IsolationEstimators&#45;&gt;IsolationForest</title>
<path fill="none" stroke="black" d="M1467.61,-817.49C1480.88,-813.38 1495.42,-807.19 1506.57,-798 1518.57,-788.11 1511.37,-776.22 1524.57,-768 1547.26,-753.88 1617.82,-760.66 1644.42,-758 1646.59,-757.78 1648.8,-757.56 1651.02,-757.32"/>
<polygon fill="black" stroke="black" points="1651.2,-760.83 1660.77,-756.28 1650.45,-753.87 1651.2,-760.83"/>
</g>
<!-- ProxyRandomForest -->
<g id="node40" class="node">
<title>ProxyRandomForest</title>
<polygon fill="white" stroke="black" points="1969.69,-836 1887.55,-836 1887.55,-800 1969.69,-800 1969.69,-836"/>
<text xml:space="preserve" text-anchor="middle" x="1928.62" y="-821" font-family="Helvetica,sans-Serif" font-size="10.00">RandomForest</text>
<text xml:space="preserve" text-anchor="middle" x="1928.62" y="-809" font-family="Helvetica,sans-Serif" font-size="10.00">(Proxy)</text>
</g>
<!-- ProxyEstimators&#45;&gt;ProxyRandomForest -->
<g id="edge49" class="edge">
<title>ProxyEstimators&#45;&gt;ProxyRandomForest</title>
<path fill="none" stroke="black" d="M1624.73,-878.73C1679.69,-869.74 1782.65,-852.15 1869.55,-833 1871.68,-832.53 1873.86,-832.04 1876.06,-831.52"/>
<polygon fill="black" stroke="black" points="1876.72,-834.96 1885.62,-829.22 1875.08,-828.16 1876.72,-834.96"/>
</g>
<!-- ProxyMaxDepth&#45;&gt;ProxyRandomForest -->
<g id="edge50" class="edge">
<title>ProxyMaxDepth&#45;&gt;ProxyRandomForest</title>
<path fill="none" stroke="black" d="M1622.21,-792.76C1634.92,-794.62 1649.27,-796.57 1662.42,-798 1736.4,-806.07 1822.34,-811.91 1875.86,-815.12"/>
<polygon fill="black" stroke="black" points="1875.4,-818.6 1885.59,-815.7 1875.82,-811.61 1875.4,-818.6"/>
</g>
<!-- AnomalyStandardizer&#45;&gt;IsolationForest -->
<g id="edge51" class="edge">
<title>AnomalyStandardizer&#45;&gt;IsolationForest</title>
<path fill="none" stroke="black" d="M1467.78,-672.99C1510,-684.82 1582.37,-705.17 1644.42,-723 1646.68,-723.65 1648.98,-724.31 1651.3,-724.98"/>
<polygon fill="black" stroke="black" points="1650.23,-728.32 1660.81,-727.74 1652.18,-721.59 1650.23,-728.32"/>
</g>
<!-- AnomalyPCA&#45;&gt;IsolationForest -->
<g id="edge52" class="edge">
<title>AnomalyPCA&#45;&gt;IsolationForest</title>
<path fill="none" stroke="black" d="M1485.66,-722.58C1531.7,-727.37 1598.7,-734.34 1650.9,-739.77"/>
<polygon fill="black" stroke="black" points="1650.32,-743.23 1660.63,-740.79 1651.04,-736.27 1650.32,-743.23"/>
</g>
<!-- IsolationForest&#45;&gt;ProxyRandomForest -->
<g id="edge53" class="edge">
<title>IsolationForest&#45;&gt;ProxyRandomForest</title>
<path fill="none" stroke="black" stroke-dasharray="5,2" d="M1799.82,-763.52C1822.38,-769.55 1847.38,-777.19 1869.55,-786.2 1875.34,-788.55 1881.29,-791.34 1887.07,-794.27"/>
<polygon fill="black" stroke="black" points="1885.41,-797.35 1895.88,-798.94 1888.68,-791.17 1885.41,-797.35"/>
<text xml:space="preserve" text-anchor="middle" x="1843.52" y="-790.4" font-family="Times,serif" font-size="14.00">reference</text>
</g>
<!-- AnomalyScore -->
<g id="node41" class="node">
<title>AnomalyScore</title>
<ellipse fill="white" stroke="black" cx="1928.62" cy="-707" rx="27" ry="18"/>
<text xml:space="preserve" text-anchor="middle" x="1928.62" y="-704" font-family="Helvetica,sans-Serif" font-size="10.00">Score</text>
</g>
<!-- IsolationForest&#45;&gt;AnomalyScore -->
<g id="edge56" class="edge">
<title>IsolationForest&#45;&gt;AnomalyScore</title>
<path fill="none" stroke="black" d="M1799.84,-733.78C1830.66,-727.32 1865.87,-719.94 1891.51,-714.57"/>
<polygon fill="black" stroke="black" points="1892.02,-718.04 1901.09,-712.56 1890.58,-711.18 1892.02,-718.04"/>
</g>
<!-- AnomalyLabel -->
<g id="node42" class="node">
<title>AnomalyLabel</title>
<ellipse fill="white" stroke="black" cx="1928.62" cy="-761" rx="27" ry="18"/>
<text xml:space="preserve" text-anchor="middle" x="1928.62" y="-758" font-family="Helvetica,sans-Serif" font-size="10.00">Label</text>
</g>
<!-- IsolationForest&#45;&gt;AnomalyLabel -->
<g id="edge55" class="edge">
<title>IsolationForest&#45;&gt;AnomalyLabel</title>
<path fill="none" stroke="black" d="M1799.84,-752.39C1822.06,-753.84 1846.86,-755.48 1869.55,-757 1876.12,-757.44 1883.11,-757.92 1889.88,-758.38"/>
<polygon fill="black" stroke="black" points="1889.59,-761.87 1899.8,-759.06 1890.07,-754.89 1889.59,-761.87"/>
</g>
<!-- ProxyRandomForest&#45;&gt;TuningAnomaly -->
<g id="edge54" class="edge">
<title>ProxyRandomForest&#45;&gt;TuningAnomaly</title>
<path fill="none" stroke="black" stroke-dasharray="5,2" d="M1887.26,-818.06C1786.61,-818.3 1532.01,-819.38 1524.57,-824.4 1507.53,-835.89 1523.39,-855.19 1506.57,-867 1475.78,-888.61 1375.14,-875 1337.54,-876 1308.89,-876.76 1276.71,-872.94 1252.43,-869.1"/>
<polygon fill="black" stroke="black" points="1253.13,-865.67 1242.69,-867.48 1251.98,-872.57 1253.13,-865.67"/>
<text xml:space="preserve" text-anchor="middle" x="1584.49" y="-845.4" font-family="Times,serif" font-size="14.00">f1 score</text>
<text xml:space="preserve" text-anchor="middle" x="1584.49" y="-828.6" font-family="Times,serif" font-size="14.00">(cross validation)</text>
</g>
<!-- SHAP -->
<g id="node43" class="node">
<title>SHAP</title>
<polygon fill="white" stroke="black" points="2148.95,-836 2046.69,-836 2046.69,-800 2154.95,-800 2154.95,-830 2148.95,-836"/>
<polyline fill="none" stroke="black" points="2148.95,-836 2148.95,-830"/>
<polyline fill="none" stroke="black" points="2154.95,-830 2148.95,-830"/>
<text xml:space="preserve" text-anchor="middle" x="2100.82" y="-815" font-family="Helvetica,sans-Serif" font-size="10.00">SHAP TreeExplainer</text>
</g>
<!-- ProxyRandomForest&#45;&gt;SHAP -->
<g id="edge57" class="edge">
<title>ProxyRandomForest&#45;&gt;SHAP</title>
<path fill="none" stroke="black" d="M1969.95,-818C1989.37,-818 2013.14,-818 2035.01,-818"/>
<polygon fill="black" stroke="black" points="2034.73,-821.5 2044.73,-818 2034.73,-814.5 2034.73,-821.5"/>
</g>
<!-- SHAP_Values -->
<g id="node44" class="node">
<title>SHAP_Values</title>
<ellipse fill="white" stroke="black" cx="2261.44" cy="-764" rx="58.09" ry="18"/>
<text xml:space="preserve" text-anchor="middle" x="2261.44" y="-761" font-family="Helvetica,sans-Serif" font-size="10.00">Top SHAP Values</text>
</g>
<!-- SHAP&#45;&gt;SHAP_Values -->
<g id="edge58" class="edge">
<title>SHAP&#45;&gt;SHAP_Values</title>
<path fill="none" stroke="black" d="M2155.08,-799.87C2172.96,-793.78 2192.84,-787.01 2210.47,-781.01"/>
<polygon fill="black" stroke="black" points="2211.34,-784.41 2219.68,-777.88 2209.09,-777.78 2211.34,-784.41"/>
</g>
<!-- SHAP_Features -->
<g id="node45" class="node">
<title>SHAP_Features</title>
<ellipse fill="white" stroke="black" cx="2261.44" cy="-818" rx="45.38" ry="18"/>
<text xml:space="preserve" text-anchor="middle" x="2261.44" y="-815" font-family="Helvetica,sans-Serif" font-size="10.00">Top Features</text>
</g>
<!-- SHAP&#45;&gt;SHAP_Features -->
<g id="edge59" class="edge">
<title>SHAP&#45;&gt;SHAP_Features</title>
<path fill="none" stroke="black" d="M2155.08,-818C2170.94,-818 2188.36,-818 2204.4,-818"/>
<polygon fill="black" stroke="black" points="2204.27,-821.5 2214.27,-818 2204.27,-814.5 2204.27,-821.5"/>
</g>
<!-- SHAP_Embedding_Sum -->
<g id="node46" class="node">
<title>SHAP_Embedding_Sum</title>
<ellipse fill="white" stroke="black" cx="2261.44" cy="-877" rx="69.49" ry="22.63"/>
<text xml:space="preserve" text-anchor="middle" x="2261.44" y="-880" font-family="Helvetica,sans-Serif" font-size="10.00">Node Embeddings</text>
<text xml:space="preserve" text-anchor="middle" x="2261.44" y="-868" font-family="Helvetica,sans-Serif" font-size="10.00">SHAP Sum</text>
</g>
<!-- SHAP&#45;&gt;SHAP_Embedding_Sum -->
<g id="edge60" class="edge">
<title>SHAP&#45;&gt;SHAP_Embedding_Sum</title>
<path fill="none" stroke="black" d="M2151.14,-836.34C2167.93,-842.59 2186.83,-849.62 2204.13,-856.06"/>
<polygon fill="black" stroke="black" points="2202.65,-859.24 2213.24,-859.45 2205.09,-852.68 2202.65,-859.24"/>
</g>
</g>
</svg>

