<?xml version="1.0" encoding="UTF-8" standalone="no"?>
<!DOCTYPE svg PUBLIC "-//W3C//DTD SVG 1.1//EN"
 "http://www.w3.org/Graphics/SVG/1.1/DTD/svg11.dtd">
<!-- Generated by graphviz version 14.1.0 (0)
 -->
<!-- Title: AnomalyDetectionPipeline Pages: 1 -->
<svg width="2538pt" height="1618pt"
 viewBox="0.00 0.00 2538.00 1618.00" xmlns="http://www.w3.org/2000/svg" xmlns:xlink="http://www.w3.org/1999/xlink">
<g id="graph0" class="graph" transform="scale(1 1) rotate(0) translate(4 1614)">
<title>AnomalyDetectionPipeline</title>
<polygon fill="white" stroke="none" points="-4,4 -4,-1614 2534.23,-1614 2534.23,4 -4,4"/>
<g id="clust1" class="cluster">
<title>cluster_leiden</title>
<polygon fill="lightblue" stroke="lightblue" points="8,-1221 8,-1458 556.09,-1458 556.09,-1221 8,-1221"/>
<text xml:space="preserve" text-anchor="middle" x="282.05" y="-1441.4" font-family="Times,serif" font-size="14.00">Leiden Community Detection</text>
</g>
<g id="clust2" class="cluster">
<title>cluster_fastRP</title>
<polygon fill="lightpink" stroke="lightpink" points="265.86,-546 265.86,-801 928.47,-801 928.47,-546 265.86,-546"/>
<text xml:space="preserve" text-anchor="middle" x="597.16" y="-784.4" font-family="Times,serif" font-size="14.00">Fast Random Projection (FastRP)</text>
</g>
<g id="clust3" class="cluster">
<title>cluster_UMAP</title>
<polygon fill="lightgrey" stroke="lightgrey" points="1050.44,-619 1050.44,-713 1427.32,-713 1427.32,-619 1050.44,-619"/>
<text xml:space="preserve" text-anchor="middle" x="1238.88" y="-696.4" font-family="Times,serif" font-size="14.00">Uniform Manifold Approximation and Projection (UMAP)</text>
<text xml:space="preserve" text-anchor="middle" x="1238.88" y="-679.6" font-family="Times,serif" font-size="14.00">Dimensionality Reduction for Visualization</text>
</g>
<g id="clust4" class="cluster">
<title>cluster_hdbscan</title>
<polygon fill="#eedd82" stroke="#eedd82" points="685.39,-1146 685.39,-1602 1452.46,-1602 1452.46,-1146 685.39,-1146"/>
<text xml:space="preserve" text-anchor="middle" x="1068.93" y="-1585.4" font-family="Times,serif" font-size="14.00">Hierarchical Density&#45;Based Spatial Clustering (HDBSCAN)</text>
</g>
<g id="clust5" class="cluster">
<title>cluster_graph_features</title>
<polygon fill="lightcyan" stroke="lightcyan" points="965.89,-8 965.89,-581 1509.84,-581 1509.84,-8 965.89,-8"/>
<text xml:space="preserve" text-anchor="middle" x="1237.86" y="-564.4" font-family="Times,serif" font-size="14.00">Graph (Algorithm) Features</text>
</g>
<g id="clust6" class="cluster">
<title>cluster_anomaly</title>
<polygon fill="lightgreen" stroke="green" stroke-width="4" points="1290.18,-721 1290.18,-1104 2202.99,-1104 2202.99,-721 1290.18,-721"/>
<text xml:space="preserve" text-anchor="middle" x="1746.58" y="-1087.4" font-family="Times,serif" font-size="14.00">Anomaly Detection Model</text>
</g>
<g id="clust7" class="cluster">
<title>cluster_explainability</title>
<polygon fill="lavender" stroke="lavender" points="2221.99,-852 2221.99,-1046 2522.23,-1046 2522.23,-852 2221.99,-852"/>
<text xml:space="preserve" text-anchor="middle" x="2372.11" y="-1029.4" font-family="Times,serif" font-size="14.00">Explainable AI (SHAP)</text>
</g>
<!-- Tuning_Leiden -->
<g id="node1" class="node">
<title>Tuning_Leiden</title>
<polygon fill="white" stroke="black" points="71.46,-1358 16,-1358 16,-1322 71.46,-1322 71.46,-1358"/>
<text xml:space="preserve" text-anchor="middle" x="43.73" y="-1343" font-family="Helvetica,sans-Serif" font-size="10.00">Tuning</text>
<text xml:space="preserve" text-anchor="middle" x="43.73" y="-1331" font-family="Helvetica,sans-Serif" font-size="10.00">(Optuna)</text>
</g>
<!-- Leiden_Gamma -->
<g id="node2" class="node">
<title>Leiden_Gamma</title>
<polygon fill="white" stroke="black" points="150.43,-1265 108.46,-1247 150.43,-1229 192.39,-1247 150.43,-1265"/>
<text xml:space="preserve" text-anchor="middle" x="150.43" y="-1244" font-family="Helvetica,sans-Serif" font-size="10.00">gamma</text>
</g>
<!-- Tuning_Leiden&#45;&gt;Leiden_Gamma -->
<g id="edge1" class="edge">
<title>Tuning_Leiden&#45;&gt;Leiden_Gamma</title>
<path fill="none" stroke="black" d="M60.52,-1321.57C72.86,-1307.7 90.81,-1288.65 108.46,-1274 112.74,-1270.45 117.51,-1266.95 122.23,-1263.71"/>
<polygon fill="black" stroke="black" points="123.99,-1266.74 130.42,-1258.32 120.14,-1260.89 123.99,-1266.74"/>
</g>
<!-- Leiden_Theta -->
<g id="node3" class="node">
<title>Leiden_Theta</title>
<polygon fill="white" stroke="black" points="150.43,-1319 117.91,-1301 150.43,-1283 182.95,-1301 150.43,-1319"/>
<text xml:space="preserve" text-anchor="middle" x="150.43" y="-1298" font-family="Helvetica,sans-Serif" font-size="10.00">theta</text>
</g>
<!-- Tuning_Leiden&#45;&gt;Leiden_Theta -->
<g id="edge2" class="edge">
<title>Tuning_Leiden&#45;&gt;Leiden_Theta</title>
<path fill="none" stroke="black" d="M71.69,-1329.96C86.42,-1324.47 104.68,-1317.67 119.8,-1312.04"/>
<polygon fill="black" stroke="black" points="120.59,-1315.48 128.74,-1308.71 118.15,-1308.92 120.59,-1315.48"/>
</g>
<!-- Leiden_Algorithm -->
<g id="node4" class="node">
<title>Leiden_Algorithm</title>
<polygon fill="white" stroke="black" points="373.79,-1346 229.39,-1346 229.39,-1310 373.79,-1310 373.79,-1346"/>
<text xml:space="preserve" text-anchor="middle" x="301.59" y="-1325" font-family="Helvetica,sans-Serif" font-size="10.00">Leiden Community Detection</text>
</g>
<!-- Leiden_Gamma&#45;&gt;Leiden_Algorithm -->
<g id="edge3" class="edge">
<title>Leiden_Gamma&#45;&gt;Leiden_Algorithm</title>
<path fill="none" stroke="black" d="M170.02,-1257.09C191.6,-1268.82 227.94,-1288.55 256.81,-1304.22"/>
<polygon fill="black" stroke="black" points="254.88,-1307.16 265.34,-1308.86 258.22,-1301.01 254.88,-1307.16"/>
</g>
<!-- Leiden_Theta&#45;&gt;Leiden_Algorithm -->
<g id="edge4" class="edge">
<title>Leiden_Theta&#45;&gt;Leiden_Algorithm</title>
<path fill="none" stroke="black" d="M175.72,-1305.4C187.48,-1307.53 202.36,-1310.22 217.72,-1313"/>
<polygon fill="black" stroke="black" points="216.99,-1316.42 227.45,-1314.76 218.23,-1309.54 216.99,-1316.42"/>
</g>
<!-- Leiden_Algorithm&#45;&gt;Tuning_Leiden -->
<g id="edge5" class="edge">
<title>Leiden_Algorithm&#45;&gt;Tuning_Leiden</title>
<path fill="none" stroke="black" stroke-dasharray="5,2" d="M228.95,-1331.36C181.65,-1333.58 121.52,-1336.4 83.07,-1338.2"/>
<polygon fill="black" stroke="black" points="82.97,-1334.7 73.14,-1338.67 83.29,-1341.7 82.97,-1334.7"/>
<text xml:space="preserve" text-anchor="middle" x="150.43" y="-1341.09" font-family="Times,serif" font-size="14.00">modularity</text>
</g>
<!-- Leiden_Algorithm&#45;&gt;Tuning_Leiden -->
<g id="edge6" class="edge">
<title>Leiden_Algorithm&#45;&gt;Tuning_Leiden</title>
<path fill="none" stroke="black" stroke-dasharray="5,2" d="M245.03,-1346.5C228.31,-1351.22 209.77,-1355.63 192.39,-1358 155.43,-1363.03 145.41,-1363.12 108.46,-1358 100.01,-1356.83 91.09,-1354.82 82.7,-1352.56"/>
<polygon fill="black" stroke="black" points="83.7,-1349.21 73.13,-1349.8 81.77,-1355.94 83.7,-1349.21"/>
<text xml:space="preserve" text-anchor="middle" x="150.43" y="-1366.01" font-family="Times,serif" font-size="14.00">size</text>
</g>
<!-- CommunityId -->
<g id="node5" class="node">
<title>CommunityId</title>
<ellipse fill="white" stroke="black" cx="508.06" cy="-1328" rx="40.03" ry="18"/>
<text xml:space="preserve" text-anchor="middle" x="508.06" y="-1325" font-family="Helvetica,sans-Serif" font-size="10.00">Community</text>
</g>
<!-- Leiden_Algorithm&#45;&gt;CommunityId -->
<g id="edge7" class="edge">
<title>Leiden_Algorithm&#45;&gt;CommunityId</title>
<path fill="none" stroke="black" d="M374.1,-1328C401.25,-1328 431.57,-1328 456.4,-1328"/>
<polygon fill="black" stroke="black" points="456.23,-1331.5 466.23,-1328 456.23,-1324.5 456.23,-1331.5"/>
</g>
<!-- Tuning_HDBSCAN -->
<g id="node14" class="node">
<title>Tuning_HDBSCAN</title>
<polygon fill="white" stroke="black" points="748.86,-1346 693.39,-1346 693.39,-1310 748.86,-1310 748.86,-1346"/>
<text xml:space="preserve" text-anchor="middle" x="721.12" y="-1331" font-family="Helvetica,sans-Serif" font-size="10.00">Tuning</text>
<text xml:space="preserve" text-anchor="middle" x="721.12" y="-1319" font-family="Helvetica,sans-Serif" font-size="10.00">(Optuna)</text>
</g>
<!-- CommunityId&#45;&gt;Tuning_HDBSCAN -->
<g id="edge18" class="edge">
<title>CommunityId&#45;&gt;Tuning_HDBSCAN</title>
<path fill="none" stroke="black" d="M548.27,-1328C586.51,-1328 644.3,-1328 682.13,-1328"/>
<polygon fill="black" stroke="black" points="681.67,-1331.5 691.67,-1328 681.67,-1324.5 681.67,-1331.5"/>
<text xml:space="preserve" text-anchor="middle" x="649.37" y="-1332.2" font-family="Times,serif" font-size="14.00">reference</text>
</g>
<!-- Tuning_FastRP -->
<g id="node6" class="node">
<title>Tuning_FastRP</title>
<polygon fill="white" stroke="black" points="329.32,-663 273.86,-663 273.86,-627 329.32,-627 329.32,-663"/>
<text xml:space="preserve" text-anchor="middle" x="301.59" y="-648" font-family="Helvetica,sans-Serif" font-size="10.00">Tuning</text>
<text xml:space="preserve" text-anchor="middle" x="301.59" y="-636" font-family="Helvetica,sans-Serif" font-size="10.00">(Optuna)</text>
</g>
<!-- FastRP_Dimension -->
<g id="node7" class="node">
<title>FastRP_Dimension</title>
<polygon fill="white" stroke="black" points="508.06,-714 455.69,-696 508.06,-678 560.43,-696 508.06,-714"/>
<text xml:space="preserve" text-anchor="middle" x="508.06" y="-693" font-family="Helvetica,sans-Serif" font-size="10.00">dimension</text>
</g>
<!-- Tuning_FastRP&#45;&gt;FastRP_Dimension -->
<g id="edge8" class="edge">
<title>Tuning_FastRP&#45;&gt;FastRP_Dimension</title>
<path fill="none" stroke="black" d="M329.74,-651.77C364.42,-660.42 424.79,-675.48 465.33,-685.59"/>
<polygon fill="black" stroke="black" points="464.44,-688.98 474.99,-688 466.14,-682.18 464.44,-688.98"/>
</g>
<!-- FastRP_Normalization_Strength -->
<g id="node8" class="node">
<title>FastRP_Normalization_Strength</title>
<polygon fill="white" stroke="black" points="508.06,-768 410.79,-750 508.06,-732 605.34,-750 508.06,-768"/>
<text xml:space="preserve" text-anchor="middle" x="508.06" y="-747" font-family="Helvetica,sans-Serif" font-size="10.00">normalization strength</text>
</g>
<!-- Tuning_FastRP&#45;&gt;FastRP_Normalization_Strength -->
<g id="edge9" class="edge">
<title>Tuning_FastRP&#45;&gt;FastRP_Normalization_Strength</title>
<path fill="none" stroke="black" d="M323.13,-663.23C343.91,-680.8 377.62,-707.02 410.79,-723 422.88,-728.83 436.46,-733.6 449.51,-737.42"/>
<polygon fill="black" stroke="black" points="448.29,-740.71 458.86,-740 450.15,-733.96 448.29,-740.71"/>
</g>
<!-- FastRP_Forth_Iteration_Weight -->
<g id="node9" class="node">
<title>FastRP_Forth_Iteration_Weight</title>
<polygon fill="white" stroke="black" points="508.06,-590 417.88,-572 508.06,-554 598.25,-572 508.06,-590"/>
<text xml:space="preserve" text-anchor="middle" x="508.06" y="-569" font-family="Helvetica,sans-Serif" font-size="10.00">forth iteration weight</text>
</g>
<!-- Tuning_FastRP&#45;&gt;FastRP_Forth_Iteration_Weight -->
<g id="edge10" class="edge">
<title>Tuning_FastRP&#45;&gt;FastRP_Forth_Iteration_Weight</title>
<path fill="none" stroke="black" d="M329.6,-634.41C351.42,-625.94 382.97,-613.89 410.79,-604 427.24,-598.15 445.38,-592.04 461.45,-586.73"/>
<polygon fill="black" stroke="black" points="462.34,-590.12 470.75,-583.68 460.16,-583.47 462.34,-590.12"/>
</g>
<!-- FastRP_Algorithm -->
<g id="node10" class="node">
<title>FastRP_Algorithm</title>
<polygon fill="white" stroke="black" points="748.12,-663 694.12,-663 694.12,-627 748.12,-627 748.12,-663"/>
<text xml:space="preserve" text-anchor="middle" x="721.12" y="-642" font-family="Helvetica,sans-Serif" font-size="10.00">FastRP</text>
</g>
<!-- FastRP_Dimension&#45;&gt;FastRP_Algorithm -->
<g id="edge11" class="edge">
<title>FastRP_Dimension&#45;&gt;FastRP_Algorithm</title>
<path fill="none" stroke="black" d="M539.75,-688.58C577.61,-679.44 641.93,-663.89 682.66,-654.05"/>
<polygon fill="black" stroke="black" points="683.36,-657.48 692.26,-651.73 681.72,-650.68 683.36,-657.48"/>
</g>
<!-- FastRP_Normalization_Strength&#45;&gt;FastRP_Algorithm -->
<g id="edge12" class="edge">
<title>FastRP_Normalization_Strength&#45;&gt;FastRP_Algorithm</title>
<path fill="none" stroke="black" d="M555.21,-740.29C571.46,-736.04 589.6,-730.32 605.34,-723 635.54,-708.96 666.6,-687.34 688.78,-670.41"/>
<polygon fill="black" stroke="black" points="690.76,-673.31 696.52,-664.41 686.47,-667.78 690.76,-673.31"/>
</g>
<!-- FastRP_Forth_Iteration_Weight&#45;&gt;FastRP_Algorithm -->
<g id="edge13" class="edge">
<title>FastRP_Forth_Iteration_Weight&#45;&gt;FastRP_Algorithm</title>
<path fill="none" stroke="black" d="M551.23,-581.86C585.36,-590.44 634.32,-604.14 675.39,-621 678.2,-622.15 681.06,-623.43 683.91,-624.78"/>
<polygon fill="black" stroke="black" points="682.21,-627.84 692.72,-629.18 685.34,-621.58 682.21,-627.84"/>
</g>
<!-- FastRP_Algorithm&#45;&gt;Tuning_FastRP -->
<g id="edge14" class="edge">
<title>FastRP_Algorithm&#45;&gt;Tuning_FastRP</title>
<path fill="none" stroke="black" stroke-dasharray="5,2" d="M693.72,-642.16C670.48,-639.81 635.71,-636.67 605.34,-635.4 518.95,-631.79 497.17,-631.58 410.79,-635.4 387.53,-636.43 361.54,-638.7 340.86,-640.77"/>
<polygon fill="black" stroke="black" points="340.76,-637.26 331.18,-641.77 341.48,-644.23 340.76,-637.26"/>
<text xml:space="preserve" text-anchor="middle" x="508.06" y="-656.4" font-family="Times,serif" font-size="14.00">adjusted mutual info score</text>
<text xml:space="preserve" text-anchor="middle" x="508.06" y="-639.6" font-family="Times,serif" font-size="14.00">(incl. preview clustering)</text>
</g>
<!-- NodeEmbeddings -->
<g id="node11" class="node">
<title>NodeEmbeddings</title>
<ellipse fill="white" stroke="black" cx="861.37" cy="-645" rx="59.1" ry="18"/>
<text xml:space="preserve" text-anchor="middle" x="861.37" y="-642" font-family="Helvetica,sans-Serif" font-size="10.00">Node Embeddings</text>
</g>
<!-- FastRP_Algorithm&#45;&gt;NodeEmbeddings -->
<g id="edge15" class="edge">
<title>FastRP_Algorithm&#45;&gt;NodeEmbeddings</title>
<path fill="none" stroke="black" d="M748.45,-645C760.5,-645 775.41,-645 790.37,-645"/>
<polygon fill="black" stroke="black" points="790.27,-648.5 800.27,-645 790.27,-641.5 790.27,-648.5"/>
</g>
<!-- UMAP_Algorithm -->
<g id="node12" class="node">
<title>UMAP_Algorithm</title>
<polygon fill="white" stroke="black" points="1112.44,-663 1058.44,-663 1058.44,-627 1112.44,-627 1112.44,-663"/>
<text xml:space="preserve" text-anchor="middle" x="1085.44" y="-642" font-family="Helvetica,sans-Serif" font-size="10.00">UMAP</text>
</g>
<!-- NodeEmbeddings&#45;&gt;UMAP_Algorithm -->
<g id="edge16" class="edge">
<title>NodeEmbeddings&#45;&gt;UMAP_Algorithm</title>
<path fill="none" stroke="black" d="M920.72,-645C960.49,-645 1012,-645 1046.53,-645"/>
<polygon fill="black" stroke="black" points="1046.47,-648.5 1056.47,-645 1046.47,-641.5 1046.47,-648.5"/>
</g>
<!-- HDBSCAN_Node -->
<g id="node15" class="node">
<title>HDBSCAN_Node</title>
<polygon fill="white" stroke="black" points="1117.88,-1346 1052.99,-1346 1052.99,-1310 1117.88,-1310 1117.88,-1346"/>
<text xml:space="preserve" text-anchor="middle" x="1085.44" y="-1325" font-family="Helvetica,sans-Serif" font-size="10.00">HDBSCAN</text>
</g>
<!-- NodeEmbeddings&#45;&gt;HDBSCAN_Node -->
<g id="edge19" class="edge">
<title>NodeEmbeddings&#45;&gt;HDBSCAN_Node</title>
<path fill="none" stroke="black" d="M868.31,-663.27C898.75,-756.9 1037.3,-1183.03 1074.96,-1298.86"/>
<polygon fill="black" stroke="black" points="1071.59,-1299.81 1078.01,-1308.24 1078.25,-1297.64 1071.59,-1299.81"/>
</g>
<!-- AnomalyPCA -->
<g id="node41" class="node">
<title>AnomalyPCA</title>
<polygon fill="white" stroke="black" points="1668.77,-861 1559.94,-861 1559.94,-825 1668.77,-825 1668.77,-861"/>
<text xml:space="preserve" text-anchor="middle" x="1614.36" y="-846" font-family="Helvetica,sans-Serif" font-size="10.00">Principal Component</text>
<text xml:space="preserve" text-anchor="middle" x="1614.36" y="-834" font-family="Helvetica,sans-Serif" font-size="10.00">Analysis (PCA)</text>
</g>
<!-- NodeEmbeddings&#45;&gt;AnomalyPCA -->
<g id="edge33" class="edge">
<title>NodeEmbeddings&#45;&gt;AnomalyPCA</title>
<path fill="none" stroke="black" d="M900.64,-631.11C919.92,-624.83 943.84,-618.13 965.89,-615 1025.73,-606.5 1464.15,-575.43 1509.84,-615 1578.07,-674.09 1481.86,-746 1538.84,-816 1541.92,-819.78 1545.57,-823.03 1549.58,-825.83"/>
<polygon fill="black" stroke="black" points="1547.77,-828.82 1558.18,-830.81 1551.28,-822.77 1547.77,-828.82"/>
</g>
<!-- UMAP_Coordinates -->
<g id="node13" class="node">
<title>UMAP_Coordinates</title>
<ellipse fill="white" stroke="black" cx="1367.91" cy="-645" rx="51.4" ry="18"/>
<text xml:space="preserve" text-anchor="middle" x="1367.91" y="-642" font-family="Helvetica,sans-Serif" font-size="10.00">2D Coordinates</text>
</g>
<!-- UMAP_Algorithm&#45;&gt;UMAP_Coordinates -->
<g id="edge17" class="edge">
<title>UMAP_Algorithm&#45;&gt;UMAP_Coordinates</title>
<path fill="none" stroke="black" d="M1112.82,-645C1156.44,-645 1244.74,-645 1304.86,-645"/>
<polygon fill="black" stroke="black" points="1304.6,-648.5 1314.6,-645 1304.6,-641.5 1304.6,-648.5"/>
</g>
<!-- HDBSCAN_Min_Cluster_Size -->
<g id="node16" class="node">
<title>HDBSCAN_Min_Cluster_Size</title>
<polygon fill="white" stroke="black" points="861.37,-1292 785.86,-1274 861.37,-1256 936.89,-1274 861.37,-1292"/>
<text xml:space="preserve" text-anchor="middle" x="861.37" y="-1271" font-family="Helvetica,sans-Serif" font-size="10.00">Min Cluster Size</text>
</g>
<!-- Tuning_HDBSCAN&#45;&gt;HDBSCAN_Min_Cluster_Size -->
<g id="edge20" class="edge">
<title>Tuning_HDBSCAN&#45;&gt;HDBSCAN_Min_Cluster_Size</title>
<path fill="none" stroke="black" d="M749.29,-1316.12C760.55,-1311.29 773.78,-1305.74 785.86,-1301 796.41,-1296.86 807.88,-1292.58 818.6,-1288.69"/>
<polygon fill="black" stroke="black" points="819.77,-1291.99 827.99,-1285.31 817.4,-1285.41 819.77,-1291.99"/>
</g>
<!-- HDBSCAN_Min_Samples -->
<g id="node17" class="node">
<title>HDBSCAN_Min_Samples</title>
<polygon fill="white" stroke="black" points="861.37,-1346 798.61,-1328 861.37,-1310 924.13,-1328 861.37,-1346"/>
<text xml:space="preserve" text-anchor="middle" x="861.37" y="-1325" font-family="Helvetica,sans-Serif" font-size="10.00">Min Samples</text>
</g>
<!-- Tuning_HDBSCAN&#45;&gt;HDBSCAN_Min_Samples -->
<g id="edge21" class="edge">
<title>Tuning_HDBSCAN&#45;&gt;HDBSCAN_Min_Samples</title>
<path fill="none" stroke="black" d="M749.11,-1328C759.68,-1328 772.39,-1328 785.37,-1328"/>
<polygon fill="black" stroke="black" points="785.29,-1331.5 795.29,-1328 785.29,-1324.5 785.29,-1331.5"/>
</g>
<!-- HDBSCAN_Node&#45;&gt;Tuning_HDBSCAN -->
<g id="edge24" class="edge">
<title>HDBSCAN_Node&#45;&gt;Tuning_HDBSCAN</title>
<path fill="none" stroke="black" stroke-dasharray="5,2" d="M1052.72,-1336.83C997.82,-1350.78 881.75,-1374.47 785.86,-1355 777.08,-1353.22 768.01,-1350.18 759.56,-1346.78"/>
<polygon fill="black" stroke="black" points="761.23,-1343.68 750.66,-1342.93 758.45,-1350.11 761.23,-1343.68"/>
<text xml:space="preserve" text-anchor="middle" x="861.37" y="-1366.58" font-family="Times,serif" font-size="14.00">adjusted mutual info score</text>
</g>
<!-- ClusterLabel -->
<g id="node18" class="node">
<title>ClusterLabel</title>
<ellipse fill="white" stroke="black" cx="1367.91" cy="-1551" rx="27" ry="18"/>
<text xml:space="preserve" text-anchor="middle" x="1367.91" y="-1548" font-family="Helvetica,sans-Serif" font-size="10.00">Label</text>
</g>
<!-- HDBSCAN_Node&#45;&gt;ClusterLabel -->
<g id="edge25" class="edge">
<title>HDBSCAN_Node&#45;&gt;ClusterLabel</title>
<path fill="none" stroke="black" d="M1094.6,-1346.39C1113.15,-1385.89 1162.48,-1478.88 1233.98,-1524 1262.65,-1542.09 1301.1,-1548.37 1329.28,-1550.41"/>
<polygon fill="black" stroke="black" points="1328.97,-1553.9 1339.15,-1550.96 1329.36,-1546.91 1328.97,-1553.9"/>
</g>
<!-- ClusterRadius -->
<g id="node19" class="node">
<title>ClusterRadius</title>
<ellipse fill="white" stroke="black" cx="1367.91" cy="-1492" rx="42.75" ry="22.63"/>
<text xml:space="preserve" text-anchor="middle" x="1367.91" y="-1495" font-family="Helvetica,sans-Serif" font-size="10.00">Radius</text>
<text xml:space="preserve" text-anchor="middle" x="1367.91" y="-1483" font-family="Helvetica,sans-Serif" font-size="10.00">(avg,max)</text>
</g>
<!-- HDBSCAN_Node&#45;&gt;ClusterRadius -->
<g id="edge27" class="edge">
<title>HDBSCAN_Node&#45;&gt;ClusterRadius</title>
<path fill="none" stroke="black" d="M1101.59,-1346.48C1126.26,-1375.29 1177.98,-1430.63 1233.98,-1460 1258.87,-1473.05 1289.16,-1480.87 1314.54,-1485.51"/>
<polygon fill="black" stroke="black" points="1313.88,-1488.95 1324.32,-1487.18 1315.05,-1482.05 1313.88,-1488.95"/>
</g>
<!-- ClusterSize -->
<g id="node20" class="node">
<title>ClusterSize</title>
<ellipse fill="white" stroke="black" cx="1367.91" cy="-1252" rx="27" ry="18"/>
<text xml:space="preserve" text-anchor="middle" x="1367.91" y="-1249" font-family="Helvetica,sans-Serif" font-size="10.00">Size</text>
</g>
<!-- HDBSCAN_Node&#45;&gt;ClusterSize -->
<g id="edge28" class="edge">
<title>HDBSCAN_Node&#45;&gt;ClusterSize</title>
<path fill="none" stroke="black" d="M1118.34,-1316.17C1148,-1305.47 1193.56,-1289.78 1233.98,-1279 1266.09,-1270.44 1303.2,-1263.11 1330.03,-1258.26"/>
<polygon fill="black" stroke="black" points="1330.49,-1261.73 1339.73,-1256.54 1329.27,-1254.84 1330.49,-1261.73"/>
</g>
<!-- NormDistToMedoid -->
<g id="node21" class="node">
<title>NormDistToMedoid</title>
<ellipse fill="white" stroke="black" cx="1367.91" cy="-1311" rx="76.55" ry="22.63"/>
<text xml:space="preserve" text-anchor="middle" x="1367.91" y="-1314" font-family="Helvetica,sans-Serif" font-size="10.00">Normalized Distance</text>
<text xml:space="preserve" text-anchor="middle" x="1367.91" y="-1302" font-family="Helvetica,sans-Serif" font-size="10.00">To Medoid</text>
</g>
<!-- HDBSCAN_Node&#45;&gt;NormDistToMedoid -->
<g id="edge29" class="edge">
<title>HDBSCAN_Node&#45;&gt;NormDistToMedoid</title>
<path fill="none" stroke="black" d="M1118.34,-1326.07C1157.69,-1323.68 1226.16,-1319.53 1281.28,-1316.19"/>
<polygon fill="black" stroke="black" points="1281.19,-1319.7 1290.96,-1315.6 1280.77,-1312.71 1281.19,-1319.7"/>
</g>
<!-- ClusterNoise -->
<g id="node22" class="node">
<title>ClusterNoise</title>
<ellipse fill="white" stroke="black" cx="1367.91" cy="-1374" rx="41.38" ry="22.63"/>
<text xml:space="preserve" text-anchor="middle" x="1367.91" y="-1377" font-family="Helvetica,sans-Serif" font-size="10.00">Noise</text>
<text xml:space="preserve" text-anchor="middle" x="1367.91" y="-1365" font-family="Helvetica,sans-Serif" font-size="10.00">(label=&#45;1)</text>
</g>
<!-- HDBSCAN_Node&#45;&gt;ClusterNoise -->
<g id="edge26" class="edge">
<title>HDBSCAN_Node&#45;&gt;ClusterNoise</title>
<path fill="none" stroke="black" d="M1118.34,-1333.23C1166.79,-1341.18 1259.38,-1356.36 1316.86,-1365.79"/>
<polygon fill="black" stroke="black" points="1315.93,-1369.19 1326.37,-1367.35 1317.07,-1362.28 1315.93,-1369.19"/>
</g>
<!-- ClusterProbability -->
<g id="node23" class="node">
<title>ClusterProbability</title>
<ellipse fill="white" stroke="black" cx="1367.91" cy="-1433" rx="37.7" ry="18"/>
<text xml:space="preserve" text-anchor="middle" x="1367.91" y="-1430" font-family="Helvetica,sans-Serif" font-size="10.00">Probability</text>
</g>
<!-- HDBSCAN_Node&#45;&gt;ClusterProbability -->
<g id="edge30" class="edge">
<title>HDBSCAN_Node&#45;&gt;ClusterProbability</title>
<path fill="none" stroke="black" d="M1115.25,-1346.43C1144.19,-1364.16 1190.6,-1390.49 1233.98,-1406 1261.58,-1415.87 1293.75,-1422.52 1319.54,-1426.75"/>
<polygon fill="black" stroke="black" points="1318.98,-1430.21 1329.4,-1428.3 1320.06,-1423.29 1318.98,-1430.21"/>
</g>
<!-- ClusterApproximationOutlierScore -->
<g id="node24" class="node">
<title>ClusterApproximationOutlierScore</title>
<ellipse fill="white" stroke="black" cx="1367.91" cy="-1185" rx="65.35" ry="31.11"/>
<text xml:space="preserve" text-anchor="middle" x="1367.91" y="-1194" font-family="Helvetica,sans-Serif" font-size="10.00">Approximation</text>
<text xml:space="preserve" text-anchor="middle" x="1367.91" y="-1182" font-family="Helvetica,sans-Serif" font-size="10.00">OutlierScore</text>
<text xml:space="preserve" text-anchor="middle" x="1367.91" y="-1170" font-family="Helvetica,sans-Serif" font-size="10.00">(= 1 &#45; Probability)</text>
</g>
<!-- HDBSCAN_Node&#45;&gt;ClusterApproximationOutlierScore -->
<g id="edge31" class="edge">
<title>HDBSCAN_Node&#45;&gt;ClusterApproximationOutlierScore</title>
<path fill="none" stroke="black" d="M1108.05,-1309.57C1135.64,-1286.86 1185.62,-1248.41 1233.98,-1225 1253.93,-1215.34 1276.7,-1207.46 1297.7,-1201.33"/>
<polygon fill="black" stroke="black" points="1298.36,-1204.78 1307.03,-1198.69 1296.46,-1198.04 1298.36,-1204.78"/>
</g>
<!-- HDBSCAN_Min_Cluster_Size&#45;&gt;HDBSCAN_Node -->
<g id="edge22" class="edge">
<title>HDBSCAN_Min_Cluster_Size&#45;&gt;HDBSCAN_Node</title>
<path fill="none" stroke="black" d="M900.29,-1283.22C939.58,-1292.78 1000.86,-1307.68 1041.81,-1317.63"/>
<polygon fill="black" stroke="black" points="1040.77,-1320.98 1051.31,-1319.95 1042.42,-1314.18 1040.77,-1320.98"/>
</g>
<!-- HDBSCAN_Min_Samples&#45;&gt;HDBSCAN_Node -->
<g id="edge23" class="edge">
<title>HDBSCAN_Min_Samples&#45;&gt;HDBSCAN_Node</title>
<path fill="none" stroke="black" d="M925.71,-1328C962.7,-1328 1008.41,-1328 1041.27,-1328"/>
<polygon fill="black" stroke="black" points="1041.24,-1331.5 1051.24,-1328 1041.24,-1324.5 1041.24,-1331.5"/>
</g>
<!-- AnomalyStandardizer -->
<g id="node40" class="node">
<title>AnomalyStandardizer</title>
<polygon fill="white" stroke="black" points="1650.71,-807 1578.01,-807 1578.01,-771 1650.71,-771 1650.71,-807"/>
<text xml:space="preserve" text-anchor="middle" x="1614.36" y="-786" font-family="Helvetica,sans-Serif" font-size="10.00">Standardizer</text>
</g>
<!-- ClusterRadius&#45;&gt;AnomalyStandardizer -->
<g id="edge34" class="edge">
<title>ClusterRadius&#45;&gt;AnomalyStandardizer</title>
<path fill="none" stroke="black" d="M1410.54,-1494.87C1442.82,-1494.6 1485.97,-1488.28 1509.84,-1460 1556.04,-1405.26 1496.53,-873.8 1538.84,-816 1545.67,-806.67 1556.04,-800.56 1566.89,-796.56"/>
<polygon fill="black" stroke="black" points="1567.81,-799.94 1576.34,-793.66 1565.76,-793.24 1567.81,-799.94"/>
</g>
<!-- NormDistToMedoid&#45;&gt;AnomalyStandardizer -->
<g id="edge35" class="edge">
<title>NormDistToMedoid&#45;&gt;AnomalyStandardizer</title>
<path fill="none" stroke="black" d="M1444.75,-1311C1469.02,-1306.99 1493.74,-1297.92 1509.84,-1279 1543.24,-1239.74 1507.94,-857.26 1538.84,-816 1545.71,-806.83 1555.99,-800.77 1566.74,-796.77"/>
<polygon fill="black" stroke="black" points="1567.58,-800.17 1576.09,-793.86 1565.5,-793.49 1567.58,-800.17"/>
</g>
<!-- ClusterApproximationOutlierScore&#45;&gt;AnomalyStandardizer -->
<g id="edge36" class="edge">
<title>ClusterApproximationOutlierScore&#45;&gt;AnomalyStandardizer</title>
<path fill="none" stroke="black" d="M1424.24,-1168.95C1454.63,-1157.16 1490.06,-1137.87 1509.84,-1108 1581.84,-999.26 1458.77,-918.94 1538.84,-816 1545.87,-806.96 1556.21,-800.94 1566.96,-796.94"/>
<polygon fill="black" stroke="black" points="1567.8,-800.35 1576.3,-794.02 1565.71,-793.66 1567.8,-800.35"/>
</g>
<!-- ArticleRank -->
<g id="node25" class="node">
<title>ArticleRank</title>
<ellipse fill="white" stroke="black" cx="1085.44" cy="-467" rx="40.37" ry="18"/>
<text xml:space="preserve" text-anchor="middle" x="1085.44" y="-464" font-family="Helvetica,sans-Serif" font-size="10.00">ArticleRank</text>
</g>
<!-- ArticleRank&#45;&gt;AnomalyStandardizer -->
<g id="edge37" class="edge">
<title>ArticleRank&#45;&gt;AnomalyStandardizer</title>
<path fill="none" stroke="black" d="M1123.26,-460.38C1214.73,-444.79 1449.24,-410.34 1509.84,-455 1560.07,-492.02 1596.37,-684.93 1608.73,-759.52"/>
<polygon fill="black" stroke="black" points="1605.27,-760.03 1610.33,-769.33 1612.18,-758.9 1605.27,-760.03"/>
</g>
<!-- PageRank -->
<g id="node26" class="node">
<title>PageRank</title>
<ellipse fill="white" stroke="black" cx="1085.44" cy="-413" rx="37.7" ry="18"/>
<text xml:space="preserve" text-anchor="middle" x="1085.44" y="-410" font-family="Helvetica,sans-Serif" font-size="10.00">PageRank</text>
</g>
<!-- PageRank&#45;&gt;AnomalyStandardizer -->
<g id="edge38" class="edge">
<title>PageRank&#45;&gt;AnomalyStandardizer</title>
<path fill="none" stroke="black" d="M1122.61,-409.33C1213.64,-400.87 1449.23,-383.99 1509.84,-429 1564.1,-469.29 1598.48,-681.43 1609.5,-759.84"/>
<polygon fill="black" stroke="black" points="1605.98,-759.89 1610.81,-769.32 1612.91,-758.93 1605.98,-759.89"/>
</g>
<!-- PageRank_minus_ArticleRank -->
<g id="node27" class="node">
<title>PageRank_minus_ArticleRank</title>
<ellipse fill="white" stroke="black" cx="1085.44" cy="-354" rx="48.65" ry="22.63"/>
<text xml:space="preserve" text-anchor="middle" x="1085.44" y="-357" font-family="Helvetica,sans-Serif" font-size="10.00">PageRank &#45;</text>
<text xml:space="preserve" text-anchor="middle" x="1085.44" y="-345" font-family="Helvetica,sans-Serif" font-size="10.00">ArticleRank</text>
</g>
<!-- PageRank_minus_ArticleRank&#45;&gt;AnomalyStandardizer -->
<g id="edge39" class="edge">
<title>PageRank_minus_ArticleRank&#45;&gt;AnomalyStandardizer</title>
<path fill="none" stroke="black" d="M1129.3,-343.88C1213.1,-326.84 1400.07,-302.64 1509.84,-395 1566.52,-442.69 1599.75,-676.13 1609.96,-759.41"/>
<polygon fill="black" stroke="black" points="1606.48,-759.77 1611.14,-769.29 1613.43,-758.94 1606.48,-759.77"/>
</g>
<!-- BetweennessCentrality -->
<g id="node28" class="node">
<title>BetweennessCentrality</title>
<ellipse fill="white" stroke="black" cx="1085.44" cy="-291" rx="53.77" ry="22.63"/>
<text xml:space="preserve" text-anchor="middle" x="1085.44" y="-294" font-family="Helvetica,sans-Serif" font-size="10.00">Betweenness</text>
<text xml:space="preserve" text-anchor="middle" x="1085.44" y="-282" font-family="Helvetica,sans-Serif" font-size="10.00">Centrality</text>
</g>
<!-- BetweennessCentrality&#45;&gt;AnomalyStandardizer -->
<g id="edge40" class="edge">
<title>BetweennessCentrality&#45;&gt;AnomalyStandardizer</title>
<path fill="none" stroke="black" d="M1139.01,-287.64C1239.97,-282.36 1455.76,-277.06 1509.84,-324 1576.42,-381.78 1603.89,-665.78 1611.22,-759.17"/>
<polygon fill="black" stroke="black" points="1607.73,-759.35 1611.98,-769.05 1614.71,-758.81 1607.73,-759.35"/>
</g>
<!-- LocalClusteringCoefficient -->
<g id="node29" class="node">
<title>LocalClusteringCoefficient</title>
<ellipse fill="white" stroke="black" cx="1085.44" cy="-228" rx="62.02" ry="22.63"/>
<text xml:space="preserve" text-anchor="middle" x="1085.44" y="-231" font-family="Helvetica,sans-Serif" font-size="10.00">Local Clustering</text>
<text xml:space="preserve" text-anchor="middle" x="1085.44" y="-219" font-family="Helvetica,sans-Serif" font-size="10.00">Coefficient</text>
</g>
<!-- LocalClusteringCoefficient&#45;&gt;AnomalyStandardizer -->
<g id="edge41" class="edge">
<title>LocalClusteringCoefficient&#45;&gt;AnomalyStandardizer</title>
<path fill="none" stroke="black" d="M1147.64,-227.12C1252.01,-226.95 1458.17,-232.79 1509.84,-280 1581.43,-345.4 1605.79,-660.11 1611.75,-759.12"/>
<polygon fill="black" stroke="black" points="1608.26,-759.31 1612.33,-769.09 1615.25,-758.9 1608.26,-759.31"/>
</g>
<!-- Degree -->
<g id="node30" class="node">
<title>Degree</title>
<ellipse fill="white" stroke="black" cx="1085.44" cy="-165" rx="52.57" ry="22.63"/>
<text xml:space="preserve" text-anchor="middle" x="1085.44" y="-168" font-family="Helvetica,sans-Serif" font-size="10.00">Degree</text>
<text xml:space="preserve" text-anchor="middle" x="1085.44" y="-156" font-family="Helvetica,sans-Serif" font-size="10.00">(in, out, sum)</text>
</g>
<!-- Degree&#45;&gt;AnomalyStandardizer -->
<g id="edge42" class="edge">
<title>Degree&#45;&gt;AnomalyStandardizer</title>
<path fill="none" stroke="black" d="M1138.2,-165.06C1239.29,-166.3 1457.62,-174.87 1509.84,-225 1587.9,-299.94 1608.03,-654.32 1612.33,-759.5"/>
<polygon fill="black" stroke="black" points="1608.82,-759.42 1612.71,-769.28 1615.82,-759.15 1608.82,-759.42"/>
</g>
<!-- Abstractness -->
<g id="node31" class="node">
<title>Abstractness</title>
<ellipse fill="white" stroke="black" cx="1085.44" cy="-102" rx="67.89" ry="22.63"/>
<text xml:space="preserve" text-anchor="middle" x="1085.44" y="-105" font-family="Helvetica,sans-Serif" font-size="10.00">Abstractness</text>
<text xml:space="preserve" text-anchor="middle" x="1085.44" y="-93" font-family="Helvetica,sans-Serif" font-size="10.00">(Robert C. Martin)</text>
</g>
<!-- Abstractness&#45;&gt;AnomalyStandardizer -->
<g id="edge43" class="edge">
<title>Abstractness&#45;&gt;AnomalyStandardizer</title>
<path fill="none" stroke="black" d="M1153.46,-102.53C1259.9,-104.83 1460.6,-115.67 1509.84,-164 1595.9,-248.47 1610.48,-646.79 1612.89,-759.33"/>
<polygon fill="black" stroke="black" points="1609.39,-759.3 1613.08,-769.23 1616.39,-759.16 1609.39,-759.3"/>
</g>
<!-- StronglyConnectedComponents -->
<g id="node32" class="node">
<title>StronglyConnectedComponents</title>
<ellipse fill="white" stroke="black" cx="1085.44" cy="-526" rx="111.55" ry="22.63"/>
<text xml:space="preserve" text-anchor="middle" x="1085.44" y="-529" font-family="Helvetica,sans-Serif" font-size="10.00">StronglyConnectedComponents</text>
<text xml:space="preserve" text-anchor="middle" x="1085.44" y="-517" font-family="Helvetica,sans-Serif" font-size="10.00">(member count)</text>
</g>
<!-- TopologicalSort -->
<g id="node34" class="node">
<title>TopologicalSort</title>
<ellipse fill="white" stroke="black" cx="1367.91" cy="-526" rx="133.93" ry="22.63"/>
<text xml:space="preserve" text-anchor="middle" x="1367.91" y="-529" font-family="Helvetica,sans-Serif" font-size="10.00">TopologicalSort</text>
<text xml:space="preserve" text-anchor="middle" x="1367.91" y="-517" font-family="Helvetica,sans-Serif" font-size="10.00">(max component distance from source)</text>
</g>
<!-- StronglyConnectedComponents&#45;&gt;TopologicalSort -->
<g id="edge32" class="edge">
<title>StronglyConnectedComponents&#45;&gt;TopologicalSort</title>
<path fill="none" stroke="black" d="M1197.29,-526C1205.5,-526 1213.85,-526 1222.22,-526"/>
<polygon fill="black" stroke="black" points="1222.13,-529.5 1232.13,-526 1222.13,-522.5 1222.13,-529.5"/>
</g>
<!-- StronglyConnectedComponents&#45;&gt;AnomalyStandardizer -->
<g id="edge44" class="edge">
<title>StronglyConnectedComponents&#45;&gt;AnomalyStandardizer</title>
<path fill="none" stroke="black" d="M1155,-507.95C1179.71,-502.29 1207.92,-496.79 1233.98,-494 1355.89,-480.93 1409.82,-423.1 1509.84,-494 1597.22,-555.94 1611.4,-697.69 1613.31,-759.39"/>
<polygon fill="black" stroke="black" points="1609.8,-759.18 1613.51,-769.1 1616.8,-759.03 1609.8,-759.18"/>
</g>
<!-- WeaklyConnectedComponents -->
<g id="node33" class="node">
<title>WeaklyConnectedComponents</title>
<ellipse fill="white" stroke="black" cx="1085.44" cy="-39" rx="108.79" ry="22.63"/>
<text xml:space="preserve" text-anchor="middle" x="1085.44" y="-42" font-family="Helvetica,sans-Serif" font-size="10.00">WeaklyConnectedComponents</text>
<text xml:space="preserve" text-anchor="middle" x="1085.44" y="-30" font-family="Helvetica,sans-Serif" font-size="10.00">(median members size)</text>
</g>
<!-- WeaklyConnectedComponents&#45;&gt;AnomalyStandardizer -->
<g id="edge45" class="edge">
<title>WeaklyConnectedComponents&#45;&gt;AnomalyStandardizer</title>
<path fill="none" stroke="black" d="M1172,-24.91C1267.93,-14.42 1421.59,-14.47 1509.84,-102 1604.44,-195.83 1612.86,-639.38 1613.39,-759.14"/>
<polygon fill="black" stroke="black" points="1609.89,-759.1 1613.41,-769.09 1616.89,-759.08 1609.89,-759.1"/>
</g>
<!-- TopologicalSort&#45;&gt;AnomalyStandardizer -->
<g id="edge46" class="edge">
<title>TopologicalSort&#45;&gt;AnomalyStandardizer</title>
<path fill="none" stroke="black" d="M1449.25,-544.32C1474.54,-553.23 1501.01,-566.23 1520.84,-585 1572.2,-633.6 1597.28,-716.07 1607.49,-759.79"/>
<polygon fill="black" stroke="black" points="1604.02,-760.3 1609.61,-769.3 1610.85,-758.78 1604.02,-760.3"/>
</g>
<!-- TuningAnomaly -->
<g id="node35" class="node">
<title>TuningAnomaly</title>
<polygon fill="white" stroke="black" points="1395.64,-1006 1340.18,-1006 1340.18,-970 1395.64,-970 1395.64,-1006"/>
<text xml:space="preserve" text-anchor="middle" x="1367.91" y="-991" font-family="Helvetica,sans-Serif" font-size="10.00">Tuning</text>
<text xml:space="preserve" text-anchor="middle" x="1367.91" y="-979" font-family="Helvetica,sans-Serif" font-size="10.00">(Optuna)</text>
</g>
<!-- IsolationMinCluster -->
<g id="node36" class="node">
<title>IsolationMinCluster</title>
<polygon fill="white" stroke="black" points="1614.36,-915 1538.84,-897 1614.36,-879 1689.87,-897 1614.36,-915"/>
<text xml:space="preserve" text-anchor="middle" x="1614.36" y="-894" font-family="Helvetica,sans-Serif" font-size="10.00">Min Cluster Size</text>
</g>
<!-- TuningAnomaly&#45;&gt;IsolationMinCluster -->
<g id="edge47" class="edge">
<title>TuningAnomaly&#45;&gt;IsolationMinCluster</title>
<path fill="none" stroke="black" d="M1395.95,-977.7C1429.44,-964.96 1488.27,-942.68 1538.84,-924 1549.68,-919.99 1561.43,-915.71 1572.33,-911.76"/>
<polygon fill="black" stroke="black" points="1573.23,-915.16 1581.45,-908.46 1570.85,-908.57 1573.23,-915.16"/>
</g>
<!-- IsolationEstimators -->
<g id="node37" class="node">
<title>IsolationEstimators</title>
<polygon fill="white" stroke="black" points="1614.36,-969 1554.43,-951 1614.36,-933 1674.28,-951 1614.36,-969"/>
<text xml:space="preserve" text-anchor="middle" x="1614.36" y="-948" font-family="Helvetica,sans-Serif" font-size="10.00">n estimators</text>
</g>
<!-- TuningAnomaly&#45;&gt;IsolationEstimators -->
<g id="edge48" class="edge">
<title>TuningAnomaly&#45;&gt;IsolationEstimators</title>
<path fill="none" stroke="black" d="M1396.01,-983.9C1435.91,-977.86 1511.21,-966.46 1561.84,-958.8"/>
<polygon fill="black" stroke="black" points="1562.33,-962.26 1571.7,-957.31 1561.28,-955.34 1562.33,-962.26"/>
</g>
<!-- ProxyEstimators -->
<g id="node38" class="node">
<title>ProxyEstimators</title>
<polygon fill="white" stroke="black" points="1767.79,-988 1707.87,-970 1767.79,-952 1827.72,-970 1767.79,-988"/>
<text xml:space="preserve" text-anchor="middle" x="1767.79" y="-967" font-family="Helvetica,sans-Serif" font-size="10.00">n estimators</text>
</g>
<!-- TuningAnomaly&#45;&gt;ProxyEstimators -->
<g id="edge51" class="edge">
<title>TuningAnomaly&#45;&gt;ProxyEstimators</title>
<path fill="none" stroke="black" d="M1395.73,-991.3C1451.07,-997.48 1581.79,-1008.81 1689.87,-993 1702.96,-991.08 1716.93,-987.43 1729.31,-983.58"/>
<polygon fill="black" stroke="black" points="1730.31,-986.94 1738.73,-980.51 1728.14,-980.28 1730.31,-986.94"/>
</g>
<!-- ProxyMaxDepth -->
<g id="node39" class="node">
<title>ProxyMaxDepth</title>
<polygon fill="white" stroke="black" points="1767.79,-1029 1714.48,-1011 1767.79,-993 1821.11,-1011 1767.79,-1029"/>
<text xml:space="preserve" text-anchor="middle" x="1767.79" y="-1008" font-family="Helvetica,sans-Serif" font-size="10.00">max depth</text>
</g>
<!-- TuningAnomaly&#45;&gt;ProxyMaxDepth -->
<g id="edge52" class="edge">
<title>TuningAnomaly&#45;&gt;ProxyMaxDepth</title>
<path fill="none" stroke="black" d="M1396.11,-991.79C1426.28,-995.83 1476.43,-1002.03 1519.84,-1005 1581.57,-1009.22 1652.15,-1010.59 1702,-1010.98"/>
<polygon fill="black" stroke="black" points="1701.72,-1014.48 1711.75,-1011.04 1701.77,-1007.48 1701.72,-1014.48"/>
</g>
<!-- IsolationForest -->
<g id="node42" class="node">
<title>IsolationForest</title>
<polygon fill="white" stroke="black" points="1982.79,-893.8 1845.72,-893.8 1845.72,-812.2 1982.79,-812.2 1982.79,-893.8"/>
<text xml:space="preserve" text-anchor="middle" x="1914.26" y="-856" font-family="Helvetica,sans-Serif" font-size="10.00">Isolation Forest</text>
<text xml:space="preserve" text-anchor="middle" x="1914.26" y="-844" font-family="Helvetica,sans-Serif" font-size="10.00">Anomaly Detector</text>
</g>
<!-- IsolationMinCluster&#45;&gt;IsolationForest -->
<g id="edge49" class="edge">
<title>IsolationMinCluster&#45;&gt;IsolationForest</title>
<path fill="none" stroke="black" d="M1648.91,-886.94C1666.35,-882.06 1688.1,-876.5 1707.87,-873 1749.29,-865.66 1795.92,-860.84 1834.26,-857.78"/>
<polygon fill="black" stroke="black" points="1834.15,-861.3 1843.86,-857.04 1833.62,-854.32 1834.15,-861.3"/>
</g>
<!-- IsolationEstimators&#45;&gt;IsolationForest -->
<g id="edge50" class="edge">
<title>IsolationEstimators&#45;&gt;IsolationForest</title>
<path fill="none" stroke="black" d="M1651.11,-943.72C1664.4,-939.65 1678.91,-933.41 1689.87,-924 1702.55,-913.12 1694.26,-900.69 1707.87,-891 1751.87,-859.69 1774.65,-881.01 1827.72,-871 1829.9,-870.59 1832.11,-870.17 1834.34,-869.73"/>
<polygon fill="black" stroke="black" points="1834.99,-873.17 1844.12,-867.8 1833.63,-866.31 1834.99,-873.17"/>
</g>
<!-- ProxyRandomForest -->
<g id="node43" class="node">
<title>ProxyRandomForest</title>
<polygon fill="white" stroke="black" points="2152.99,-950 2070.85,-950 2070.85,-914 2152.99,-914 2152.99,-950"/>
<text xml:space="preserve" text-anchor="middle" x="2111.92" y="-935" font-family="Helvetica,sans-Serif" font-size="10.00">RandomForest</text>
<text xml:space="preserve" text-anchor="middle" x="2111.92" y="-923" font-family="Helvetica,sans-Serif" font-size="10.00">(Proxy)</text>
</g>
<!-- ProxyEstimators&#45;&gt;ProxyRandomForest -->
<g id="edge53" class="edge">
<title>ProxyEstimators&#45;&gt;ProxyRandomForest</title>
<path fill="none" stroke="black" d="M1812.82,-965.11C1876.03,-958.09 1992.25,-945.18 2059.38,-937.72"/>
<polygon fill="black" stroke="black" points="2059.46,-941.24 2069.02,-936.65 2058.69,-934.28 2059.46,-941.24"/>
</g>
<!-- ProxyMaxDepth&#45;&gt;ProxyRandomForest -->
<g id="edge54" class="edge">
<title>ProxyMaxDepth&#45;&gt;ProxyRandomForest</title>
<path fill="none" stroke="black" d="M1800.77,-1003.81C1853.39,-991.95 1961.49,-967.46 2052.85,-946 2055.1,-945.47 2057.39,-944.93 2059.71,-944.38"/>
<polygon fill="black" stroke="black" points="2060.25,-947.85 2069.16,-942.13 2058.62,-941.04 2060.25,-947.85"/>
</g>
<!-- AnomalyStandardizer&#45;&gt;IsolationForest -->
<g id="edge55" class="edge">
<title>AnomalyStandardizer&#45;&gt;IsolationForest</title>
<path fill="none" stroke="black" d="M1650.99,-796.66C1695.97,-806.32 1774.63,-823.22 1834.11,-836"/>
<polygon fill="black" stroke="black" points="1833.36,-839.42 1843.88,-838.09 1834.83,-832.57 1833.36,-839.42"/>
</g>
<!-- AnomalyPCA&#45;&gt;IsolationForest -->
<g id="edge56" class="edge">
<title>AnomalyPCA&#45;&gt;IsolationForest</title>
<path fill="none" stroke="black" d="M1668.96,-844.8C1715,-846.34 1782,-848.59 1834.2,-850.35"/>
<polygon fill="black" stroke="black" points="1833.81,-853.84 1843.92,-850.67 1834.04,-846.84 1833.81,-853.84"/>
</g>
<!-- IsolationForest&#45;&gt;ProxyRandomForest -->
<g id="edge57" class="edge">
<title>IsolationForest&#45;&gt;ProxyRandomForest</title>
<path fill="none" stroke="black" stroke-dasharray="5,2" d="M1983.05,-866.92C2005.83,-872.87 2031,-880.87 2052.85,-891.2 2058.17,-893.71 2067.6,-900.03 2077.33,-906.96"/>
<polygon fill="black" stroke="black" points="2075.25,-909.78 2085.41,-912.8 2079.36,-904.1 2075.25,-909.78"/>
<text xml:space="preserve" text-anchor="middle" x="2026.82" y="-895.4" font-family="Times,serif" font-size="14.00">reference</text>
</g>
<!-- AnomalyScore -->
<g id="node44" class="node">
<title>AnomalyScore</title>
<ellipse fill="white" stroke="black" cx="2111.92" cy="-821" rx="27" ry="18"/>
<text xml:space="preserve" text-anchor="middle" x="2111.92" y="-818" font-family="Helvetica,sans-Serif" font-size="10.00">Score</text>
</g>
<!-- IsolationForest&#45;&gt;AnomalyScore -->
<g id="edge60" class="edge">
<title>IsolationForest&#45;&gt;AnomalyScore</title>
<path fill="none" stroke="black" d="M1983.14,-841.9C2013.77,-836.89 2048.73,-831.17 2074.33,-826.98"/>
<polygon fill="black" stroke="black" points="2074.59,-830.49 2083.9,-825.42 2073.46,-823.58 2074.59,-830.49"/>
</g>
<!-- AnomalyLabel -->
<g id="node45" class="node">
<title>AnomalyLabel</title>
<ellipse fill="white" stroke="black" cx="2111.92" cy="-875" rx="27" ry="18"/>
<text xml:space="preserve" text-anchor="middle" x="2111.92" y="-872" font-family="Helvetica,sans-Serif" font-size="10.00">Label</text>
</g>
<!-- IsolationForest&#45;&gt;AnomalyLabel -->
<g id="edge59" class="edge">
<title>IsolationForest&#45;&gt;AnomalyLabel</title>
<path fill="none" stroke="black" d="M1982.94,-856.96C2005.26,-858.65 2030.17,-860.95 2052.85,-864 2059.91,-864.95 2067.4,-866.19 2074.58,-867.5"/>
<polygon fill="black" stroke="black" points="2073.9,-870.93 2084.38,-869.36 2075.21,-864.05 2073.9,-870.93"/>
</g>
<!-- ProxyRandomForest&#45;&gt;TuningAnomaly -->
<g id="edge58" class="edge">
<title>ProxyRandomForest&#45;&gt;TuningAnomaly</title>
<path fill="none" stroke="black" stroke-dasharray="5,2" d="M2070.65,-927.77C2015.79,-922.24 1914.46,-912.86 1827.72,-909.4 1774.49,-907.28 1750.04,-876.86 1707.87,-909.4 1682.91,-928.65 1714.53,-958.36 1689.87,-978 1668.26,-995.22 1487.64,-991.76 1407.24,-989.33"/>
<polygon fill="black" stroke="black" points="1407.76,-985.85 1397.65,-989.03 1407.54,-992.84 1407.76,-985.85"/>
<text xml:space="preserve" text-anchor="middle" x="1767.79" y="-930.4" font-family="Times,serif" font-size="14.00">f1 score</text>
<text xml:space="preserve" text-anchor="middle" x="1767.79" y="-913.6" font-family="Times,serif" font-size="14.00">(cross validation)</text>
</g>
<!-- SHAP -->
<g id="node46" class="node">
<title>SHAP</title>
<polygon fill="white" stroke="black" points="2332.25,-950 2229.99,-950 2229.99,-914 2338.25,-914 2338.25,-944 2332.25,-950"/>
<polyline fill="none" stroke="black" points="2332.25,-950 2332.25,-944"/>
<polyline fill="none" stroke="black" points="2338.25,-944 2332.25,-944"/>
<text xml:space="preserve" text-anchor="middle" x="2284.12" y="-929" font-family="Helvetica,sans-Serif" font-size="10.00">SHAP TreeExplainer</text>
</g>
<!-- ProxyRandomForest&#45;&gt;SHAP -->
<g id="edge61" class="edge">
<title>ProxyRandomForest&#45;&gt;SHAP</title>
<path fill="none" stroke="black" d="M2153.25,-932C2172.67,-932 2196.44,-932 2218.31,-932"/>
<polygon fill="black" stroke="black" points="2218.03,-935.5 2228.03,-932 2218.03,-928.5 2218.03,-935.5"/>
</g>
<!-- SHAP_Values -->
<g id="node47" class="node">
<title>SHAP_Values</title>
<ellipse fill="white" stroke="black" cx="2444.74" cy="-878" rx="58.09" ry="18"/>
<text xml:space="preserve" text-anchor="middle" x="2444.74" y="-875" font-family="Helvetica,sans-Serif" font-size="10.00">Top SHAP Values</text>
</g>
<!-- SHAP&#45;&gt;SHAP_Values -->
<g id="edge62" class="edge">
<title>SHAP&#45;&gt;SHAP_Values</title>
<path fill="none" stroke="black" d="M2338.38,-913.87C2356.27,-907.78 2376.14,-901.01 2393.77,-895.01"/>
<polygon fill="black" stroke="black" points="2394.64,-898.41 2402.98,-891.88 2392.39,-891.78 2394.64,-898.41"/>
</g>
<!-- SHAP_Features -->
<g id="node48" class="node">
<title>SHAP_Features</title>
<ellipse fill="white" stroke="black" cx="2444.74" cy="-932" rx="45.38" ry="18"/>
<text xml:space="preserve" text-anchor="middle" x="2444.74" y="-929" font-family="Helvetica,sans-Serif" font-size="10.00">Top Features</text>
</g>
<!-- SHAP&#45;&gt;SHAP_Features -->
<g id="edge63" class="edge">
<title>SHAP&#45;&gt;SHAP_Features</title>
<path fill="none" stroke="black" d="M2338.38,-932C2354.24,-932 2371.66,-932 2387.7,-932"/>
<polygon fill="black" stroke="black" points="2387.57,-935.5 2397.57,-932 2387.57,-928.5 2387.57,-935.5"/>
</g>
<!-- SHAP_Embedding_Sum -->
<g id="node49" class="node">
<title>SHAP_Embedding_Sum</title>
<ellipse fill="white" stroke="black" cx="2444.74" cy="-991" rx="69.49" ry="22.63"/>
<text xml:space="preserve" text-anchor="middle" x="2444.74" y="-994" font-family="Helvetica,sans-Serif" font-size="10.00">Node Embeddings</text>
<text xml:space="preserve" text-anchor="middle" x="2444.74" y="-982" font-family="Helvetica,sans-Serif" font-size="10.00">SHAP Sum</text>
</g>
<!-- SHAP&#45;&gt;SHAP_Embedding_Sum -->
<g id="edge64" class="edge">
<title>SHAP&#45;&gt;SHAP_Embedding_Sum</title>
<path fill="none" stroke="black" d="M2334.44,-950.34C2351.23,-956.59 2370.13,-963.62 2387.43,-970.06"/>
<polygon fill="black" stroke="black" points="2385.95,-973.24 2396.55,-973.45 2388.39,-966.68 2385.95,-973.24"/>
</g>
</g>
</svg>

