<?xml version="1.0" encoding="UTF-8" standalone="no"?>
<!DOCTYPE svg PUBLIC "-//W3C//DTD SVG 1.1//EN"
 "http://www.w3.org/Graphics/SVG/1.1/DTD/svg11.dtd">
<!-- Generated by graphviz version 14.1.0 (0)
 -->
<!-- Title: AnomalyDetectionPipeline Pages: 1 -->
<svg width="2436pt" height="1600pt"
 viewBox="0.00 0.00 2436.00 1600.00" xmlns="http://www.w3.org/2000/svg" xmlns:xlink="http://www.w3.org/1999/xlink">
<g id="graph0" class="graph" transform="scale(1 1) rotate(0) translate(4 1596)">
<title>AnomalyDetectionPipeline</title>
<polygon fill="white" stroke="none" points="-4,4 -4,-1596 2432.21,-1596 2432.21,4 -4,4"/>
<g id="clust1" class="cluster">
<title>cluster_leiden</title>
<polygon fill="lightblue" stroke="lightblue" points="8,-1186 8,-1423 556.09,-1423 556.09,-1186 8,-1186"/>
<text xml:space="preserve" text-anchor="middle" x="282.05" y="-1406.4" font-family="Times,serif" font-size="14.00">Leiden Community Detection</text>
</g>
<g id="clust2" class="cluster">
<title>cluster_fastRP</title>
<polygon fill="lightpink" stroke="lightpink" points="265.86,-524 265.86,-778 928.47,-778 928.47,-524 265.86,-524"/>
<text xml:space="preserve" text-anchor="middle" x="597.16" y="-761.4" font-family="Times,serif" font-size="14.00">Fast Random Projection (FastRP)</text>
</g>
<g id="clust3" class="cluster">
<title>cluster_UMAP</title>
<polygon fill="lightgrey" stroke="lightgrey" points="971.34,-601 971.34,-695 1318.24,-695 1318.24,-601 971.34,-601"/>
<text xml:space="preserve" text-anchor="middle" x="1144.79" y="-678.4" font-family="Times,serif" font-size="14.00">Uniform Manifold Approximation and Projection (UMAP)</text>
<text xml:space="preserve" text-anchor="middle" x="1144.79" y="-661.6" font-family="Times,serif" font-size="14.00">Dimensionality Reduction for Visualization</text>
</g>
<g id="clust4" class="cluster">
<title>cluster_hdbscan</title>
<polygon fill="#eedd82" stroke="#eedd82" points="685.39,-1128 685.39,-1584 1329.03,-1584 1329.03,-1128 685.39,-1128"/>
<text xml:space="preserve" text-anchor="middle" x="1007.21" y="-1567.4" font-family="Times,serif" font-size="14.00">Hierarchical Density&#45;Based Spatial Clustering (HDBSCAN)</text>
</g>
<g id="clust5" class="cluster">
<title>cluster_graph_features</title>
<polygon fill="lightcyan" stroke="lightcyan" points="1081.14,-8 1081.14,-563 1407.82,-563 1407.82,-8 1081.14,-8"/>
<text xml:space="preserve" text-anchor="middle" x="1244.48" y="-546.4" font-family="Times,serif" font-size="14.00">Graph (Algorithm) Features</text>
</g>
<g id="clust6" class="cluster">
<title>cluster_anomaly</title>
<polygon fill="lightgreen" stroke="green" stroke-width="4" points="1166.75,-703 1166.75,-1086 2100.97,-1086 2100.97,-703 1166.75,-703"/>
<text xml:space="preserve" text-anchor="middle" x="1633.86" y="-1069.4" font-family="Times,serif" font-size="14.00">Anomaly Detection Model</text>
</g>
<g id="clust7" class="cluster">
<title>cluster_explainability</title>
<polygon fill="lavender" stroke="lavender" points="2119.97,-847 2119.97,-1041 2420.21,-1041 2420.21,-847 2119.97,-847"/>
<text xml:space="preserve" text-anchor="middle" x="2270.09" y="-1024.4" font-family="Times,serif" font-size="14.00">Explainable AI (SHAP)</text>
</g>
<!-- Tuning_Leiden -->
<g id="node1" class="node">
<title>Tuning_Leiden</title>
<polygon fill="white" stroke="black" points="71.46,-1322 16,-1322 16,-1286 71.46,-1286 71.46,-1322"/>
<text xml:space="preserve" text-anchor="middle" x="43.73" y="-1307" font-family="Helvetica,sans-Serif" font-size="10.00">Tuning</text>
<text xml:space="preserve" text-anchor="middle" x="43.73" y="-1295" font-family="Helvetica,sans-Serif" font-size="10.00">(Optuna)</text>
</g>
<!-- Leiden_Gamma -->
<g id="node2" class="node">
<title>Leiden_Gamma</title>
<polygon fill="white" stroke="black" points="150.43,-1230 108.46,-1212 150.43,-1194 192.39,-1212 150.43,-1230"/>
<text xml:space="preserve" text-anchor="middle" x="150.43" y="-1209" font-family="Helvetica,sans-Serif" font-size="10.00">gamma</text>
</g>
<!-- Tuning_Leiden&#45;&gt;Leiden_Gamma -->
<g id="edge1" class="edge">
<title>Tuning_Leiden&#45;&gt;Leiden_Gamma</title>
<path fill="none" stroke="black" d="M60.82,-1285.59C73.18,-1271.97 91.02,-1253.37 108.46,-1239 112.83,-1235.4 117.7,-1231.85 122.51,-1228.56"/>
<polygon fill="black" stroke="black" points="124.41,-1231.5 130.85,-1223.09 120.57,-1225.65 124.41,-1231.5"/>
</g>
<!-- Leiden_Theta -->
<g id="node3" class="node">
<title>Leiden_Theta</title>
<polygon fill="white" stroke="black" points="150.43,-1284 117.91,-1266 150.43,-1248 182.95,-1266 150.43,-1284"/>
<text xml:space="preserve" text-anchor="middle" x="150.43" y="-1263" font-family="Helvetica,sans-Serif" font-size="10.00">theta</text>
</g>
<!-- Tuning_Leiden&#45;&gt;Leiden_Theta -->
<g id="edge2" class="edge">
<title>Tuning_Leiden&#45;&gt;Leiden_Theta</title>
<path fill="none" stroke="black" d="M71.69,-1294.21C86.18,-1288.96 104.08,-1282.46 119.06,-1277.02"/>
<polygon fill="black" stroke="black" points="120.2,-1280.33 128.41,-1273.63 117.81,-1273.75 120.2,-1280.33"/>
</g>
<!-- Leiden_Algorithm -->
<g id="node4" class="node">
<title>Leiden_Algorithm</title>
<polygon fill="white" stroke="black" points="373.79,-1311 229.39,-1311 229.39,-1275 373.79,-1275 373.79,-1311"/>
<text xml:space="preserve" text-anchor="middle" x="301.59" y="-1290" font-family="Helvetica,sans-Serif" font-size="10.00">Leiden Community Detection</text>
</g>
<!-- Leiden_Gamma&#45;&gt;Leiden_Algorithm -->
<g id="edge3" class="edge">
<title>Leiden_Gamma&#45;&gt;Leiden_Algorithm</title>
<path fill="none" stroke="black" d="M170.02,-1222.09C191.6,-1233.82 227.94,-1253.55 256.81,-1269.22"/>
<polygon fill="black" stroke="black" points="254.88,-1272.16 265.34,-1273.86 258.22,-1266.01 254.88,-1272.16"/>
</g>
<!-- Leiden_Theta&#45;&gt;Leiden_Algorithm -->
<g id="edge4" class="edge">
<title>Leiden_Theta&#45;&gt;Leiden_Algorithm</title>
<path fill="none" stroke="black" d="M175.72,-1270.4C187.48,-1272.53 202.36,-1275.22 217.72,-1278"/>
<polygon fill="black" stroke="black" points="216.99,-1281.42 227.45,-1279.76 218.23,-1274.54 216.99,-1281.42"/>
</g>
<!-- Leiden_Algorithm&#45;&gt;Tuning_Leiden -->
<g id="edge5" class="edge">
<title>Leiden_Algorithm&#45;&gt;Tuning_Leiden</title>
<path fill="none" stroke="black" stroke-dasharray="5,2" d="M228.95,-1296.08C181.65,-1298.11 121.52,-1300.7 83.07,-1302.35"/>
<polygon fill="black" stroke="black" points="82.98,-1298.85 73.14,-1302.78 83.28,-1305.85 82.98,-1298.85"/>
<text xml:space="preserve" text-anchor="middle" x="150.43" y="-1305.35" font-family="Times,serif" font-size="14.00">modularity</text>
</g>
<!-- Leiden_Algorithm&#45;&gt;Tuning_Leiden -->
<g id="edge6" class="edge">
<title>Leiden_Algorithm&#45;&gt;Tuning_Leiden</title>
<path fill="none" stroke="black" stroke-dasharray="5,2" d="M242.76,-1311.49C226.62,-1315.83 208.97,-1319.82 192.39,-1322 155.41,-1326.87 145.41,-1327.12 108.46,-1322 100.01,-1320.83 91.09,-1318.82 82.7,-1316.56"/>
<polygon fill="black" stroke="black" points="83.7,-1313.21 73.13,-1313.8 81.77,-1319.94 83.7,-1313.21"/>
<text xml:space="preserve" text-anchor="middle" x="150.43" y="-1329.95" font-family="Times,serif" font-size="14.00">size</text>
</g>
<!-- CommunityId -->
<g id="node5" class="node">
<title>CommunityId</title>
<ellipse fill="white" stroke="black" cx="508.06" cy="-1293" rx="40.03" ry="18"/>
<text xml:space="preserve" text-anchor="middle" x="508.06" y="-1290" font-family="Helvetica,sans-Serif" font-size="10.00">Community</text>
</g>
<!-- Leiden_Algorithm&#45;&gt;CommunityId -->
<g id="edge7" class="edge">
<title>Leiden_Algorithm&#45;&gt;CommunityId</title>
<path fill="none" stroke="black" d="M374.1,-1293C401.25,-1293 431.57,-1293 456.4,-1293"/>
<polygon fill="black" stroke="black" points="456.23,-1296.5 466.23,-1293 456.23,-1289.5 456.23,-1296.5"/>
</g>
<!-- Tuning_HDBSCAN -->
<g id="node14" class="node">
<title>Tuning_HDBSCAN</title>
<polygon fill="white" stroke="black" points="748.86,-1311 693.39,-1311 693.39,-1275 748.86,-1275 748.86,-1311"/>
<text xml:space="preserve" text-anchor="middle" x="721.12" y="-1296" font-family="Helvetica,sans-Serif" font-size="10.00">Tuning</text>
<text xml:space="preserve" text-anchor="middle" x="721.12" y="-1284" font-family="Helvetica,sans-Serif" font-size="10.00">(Optuna)</text>
</g>
<!-- CommunityId&#45;&gt;Tuning_HDBSCAN -->
<g id="edge18" class="edge">
<title>CommunityId&#45;&gt;Tuning_HDBSCAN</title>
<path fill="none" stroke="black" d="M548.27,-1293C586.51,-1293 644.3,-1293 682.13,-1293"/>
<polygon fill="black" stroke="black" points="681.67,-1296.5 691.67,-1293 681.67,-1289.5 681.67,-1296.5"/>
<text xml:space="preserve" text-anchor="middle" x="649.37" y="-1297.2" font-family="Times,serif" font-size="14.00">reference</text>
</g>
<!-- Tuning_FastRP -->
<g id="node6" class="node">
<title>Tuning_FastRP</title>
<polygon fill="white" stroke="black" points="329.32,-649 273.86,-649 273.86,-613 329.32,-613 329.32,-649"/>
<text xml:space="preserve" text-anchor="middle" x="301.59" y="-634" font-family="Helvetica,sans-Serif" font-size="10.00">Tuning</text>
<text xml:space="preserve" text-anchor="middle" x="301.59" y="-622" font-family="Helvetica,sans-Serif" font-size="10.00">(Optuna)</text>
</g>
<!-- FastRP_Dimension -->
<g id="node7" class="node">
<title>FastRP_Dimension</title>
<polygon fill="white" stroke="black" points="508.06,-568 455.69,-550 508.06,-532 560.43,-550 508.06,-568"/>
<text xml:space="preserve" text-anchor="middle" x="508.06" y="-547" font-family="Helvetica,sans-Serif" font-size="10.00">dimension</text>
</g>
<!-- Tuning_FastRP&#45;&gt;FastRP_Dimension -->
<g id="edge8" class="edge">
<title>Tuning_FastRP&#45;&gt;FastRP_Dimension</title>
<path fill="none" stroke="black" d="M329.51,-615.77C351.02,-604.04 382.19,-588.03 410.79,-577 428.06,-570.34 447.65,-564.54 464.63,-560.04"/>
<polygon fill="black" stroke="black" points="465.08,-563.54 473.89,-557.66 463.33,-556.76 465.08,-563.54"/>
</g>
<!-- FastRP_Normalization_Strength -->
<g id="node8" class="node">
<title>FastRP_Normalization_Strength</title>
<polygon fill="white" stroke="black" points="508.06,-622 410.79,-604 508.06,-586 605.34,-604 508.06,-622"/>
<text xml:space="preserve" text-anchor="middle" x="508.06" y="-601" font-family="Helvetica,sans-Serif" font-size="10.00">normalization strength</text>
</g>
<!-- Tuning_FastRP&#45;&gt;FastRP_Normalization_Strength -->
<g id="edge9" class="edge">
<title>Tuning_FastRP&#45;&gt;FastRP_Normalization_Strength</title>
<path fill="none" stroke="black" d="M329.74,-627.41C357.31,-623.77 401.1,-617.99 438.27,-613.08"/>
<polygon fill="black" stroke="black" points="438.61,-616.57 448.07,-611.79 437.7,-609.63 438.61,-616.57"/>
</g>
<!-- FastRP_Forth_Iteration_Weight -->
<g id="node9" class="node">
<title>FastRP_Forth_Iteration_Weight</title>
<polygon fill="white" stroke="black" points="508.06,-676 417.88,-658 508.06,-640 598.25,-658 508.06,-676"/>
<text xml:space="preserve" text-anchor="middle" x="508.06" y="-655" font-family="Helvetica,sans-Serif" font-size="10.00">forth iteration weight</text>
</g>
<!-- Tuning_FastRP&#45;&gt;FastRP_Forth_Iteration_Weight -->
<g id="edge10" class="edge">
<title>Tuning_FastRP&#45;&gt;FastRP_Forth_Iteration_Weight</title>
<path fill="none" stroke="black" d="M329.74,-634.59C358.02,-638.32 403.38,-644.31 441.14,-649.3"/>
<polygon fill="black" stroke="black" points="440.2,-652.7 450.58,-650.54 441.12,-645.76 440.2,-652.7"/>
</g>
<!-- FastRP_Algorithm -->
<g id="node10" class="node">
<title>FastRP_Algorithm</title>
<polygon fill="white" stroke="black" points="748.12,-645 694.12,-645 694.12,-609 748.12,-609 748.12,-645"/>
<text xml:space="preserve" text-anchor="middle" x="721.12" y="-624" font-family="Helvetica,sans-Serif" font-size="10.00">FastRP</text>
</g>
<!-- FastRP_Dimension&#45;&gt;FastRP_Algorithm -->
<g id="edge11" class="edge">
<title>FastRP_Dimension&#45;&gt;FastRP_Algorithm</title>
<path fill="none" stroke="black" d="M539.75,-557.46C558.83,-562.37 583.75,-569.31 605.34,-577 631.91,-586.46 661.04,-599.18 683.3,-609.42"/>
<polygon fill="black" stroke="black" points="681.72,-612.55 692.27,-613.59 684.67,-606.2 681.72,-612.55"/>
</g>
<!-- FastRP_Normalization_Strength&#45;&gt;FastRP_Algorithm -->
<g id="edge12" class="edge">
<title>FastRP_Normalization_Strength&#45;&gt;FastRP_Algorithm</title>
<path fill="none" stroke="black" d="M571.25,-610.78C607.37,-614.71 651.69,-619.54 682.54,-622.9"/>
<polygon fill="black" stroke="black" points="681.83,-626.35 692.15,-623.95 682.59,-619.39 681.83,-626.35"/>
</g>
<!-- FastRP_Forth_Iteration_Weight&#45;&gt;FastRP_Algorithm -->
<g id="edge13" class="edge">
<title>FastRP_Forth_Iteration_Weight&#45;&gt;FastRP_Algorithm</title>
<path fill="none" stroke="black" d="M561.78,-650.26C599.35,-644.74 648.96,-637.45 682.56,-632.52"/>
<polygon fill="black" stroke="black" points="682.85,-636.01 692.24,-631.1 681.83,-629.09 682.85,-636.01"/>
</g>
<!-- FastRP_Algorithm&#45;&gt;Tuning_FastRP -->
<g id="edge14" class="edge">
<title>FastRP_Algorithm&#45;&gt;Tuning_FastRP</title>
<path fill="none" stroke="black" stroke-dasharray="5,2" d="M693.69,-644.89C671.28,-658.91 637.7,-677.29 605.34,-685 521.23,-705.04 494.95,-704.83 410.79,-685 385.62,-679.07 359.62,-666.34 339.41,-654.73"/>
<polygon fill="black" stroke="black" points="341.39,-651.84 331,-649.75 337.83,-657.86 341.39,-651.84"/>
<text xml:space="preserve" text-anchor="middle" x="508.06" y="-720.95" font-family="Times,serif" font-size="14.00">adjusted mutual info score</text>
<text xml:space="preserve" text-anchor="middle" x="508.06" y="-704.15" font-family="Times,serif" font-size="14.00">(incl. preview clustering)</text>
</g>
<!-- NodeEmbeddings -->
<g id="node11" class="node">
<title>NodeEmbeddings</title>
<ellipse fill="white" stroke="black" cx="861.37" cy="-627" rx="59.1" ry="18"/>
<text xml:space="preserve" text-anchor="middle" x="861.37" y="-624" font-family="Helvetica,sans-Serif" font-size="10.00">Node Embeddings</text>
</g>
<!-- FastRP_Algorithm&#45;&gt;NodeEmbeddings -->
<g id="edge15" class="edge">
<title>FastRP_Algorithm&#45;&gt;NodeEmbeddings</title>
<path fill="none" stroke="black" d="M748.45,-627C760.5,-627 775.41,-627 790.37,-627"/>
<polygon fill="black" stroke="black" points="790.27,-630.5 800.27,-627 790.27,-623.5 790.27,-630.5"/>
</g>
<!-- UMAP_Algorithm -->
<g id="node12" class="node">
<title>UMAP_Algorithm</title>
<polygon fill="white" stroke="black" points="1046.69,-645 992.69,-645 992.69,-609 1046.69,-609 1046.69,-645"/>
<text xml:space="preserve" text-anchor="middle" x="1019.69" y="-624" font-family="Helvetica,sans-Serif" font-size="10.00">UMAP</text>
</g>
<!-- NodeEmbeddings&#45;&gt;UMAP_Algorithm -->
<g id="edge16" class="edge">
<title>NodeEmbeddings&#45;&gt;UMAP_Algorithm</title>
<path fill="none" stroke="black" d="M920.58,-627C940.8,-627 962.93,-627 981.05,-627"/>
<polygon fill="black" stroke="black" points="980.8,-630.5 990.8,-627 980.8,-623.5 980.8,-630.5"/>
</g>
<!-- HDBSCAN_Node -->
<g id="node15" class="node">
<title>HDBSCAN_Node</title>
<polygon fill="white" stroke="black" points="1052.14,-1311 987.24,-1311 987.24,-1275 1052.14,-1275 1052.14,-1311"/>
<text xml:space="preserve" text-anchor="middle" x="1019.69" y="-1290" font-family="Helvetica,sans-Serif" font-size="10.00">HDBSCAN</text>
</g>
<!-- NodeEmbeddings&#45;&gt;HDBSCAN_Node -->
<g id="edge19" class="edge">
<title>NodeEmbeddings&#45;&gt;HDBSCAN_Node</title>
<path fill="none" stroke="black" d="M866.63,-645.16C888.16,-736.88 984.96,-1149.28 1011.78,-1263.56"/>
<polygon fill="black" stroke="black" points="1008.32,-1264.13 1014.01,-1273.07 1015.13,-1262.53 1008.32,-1264.13"/>
</g>
<!-- AnomalyPCA -->
<g id="node40" class="node">
<title>AnomalyPCA</title>
<polygon fill="white" stroke="black" points="1566.75,-843 1457.92,-843 1457.92,-807 1566.75,-807 1566.75,-843"/>
<text xml:space="preserve" text-anchor="middle" x="1512.33" y="-828" font-family="Helvetica,sans-Serif" font-size="10.00">Principal Component</text>
<text xml:space="preserve" text-anchor="middle" x="1512.33" y="-816" font-family="Helvetica,sans-Serif" font-size="10.00">Analysis (PCA)</text>
</g>
<!-- NodeEmbeddings&#45;&gt;AnomalyPCA -->
<g id="edge32" class="edge">
<title>NodeEmbeddings&#45;&gt;AnomalyPCA</title>
<path fill="none" stroke="black" d="M901.69,-613.42C922.18,-607.06 947.81,-600.18 971.34,-597 1019.4,-590.5 1371.16,-565.25 1407.82,-597 1476.04,-656.09 1379.84,-728 1436.82,-798 1439.9,-801.78 1443.55,-805.03 1447.56,-807.83"/>
<polygon fill="black" stroke="black" points="1445.75,-810.82 1456.16,-812.81 1449.26,-804.77 1445.75,-810.82"/>
</g>
<!-- UMAP_Coordinates -->
<g id="node13" class="node">
<title>UMAP_Coordinates</title>
<ellipse fill="white" stroke="black" cx="1244.48" cy="-627" rx="51.4" ry="18"/>
<text xml:space="preserve" text-anchor="middle" x="1244.48" y="-624" font-family="Helvetica,sans-Serif" font-size="10.00">2D Coordinates</text>
</g>
<!-- UMAP_Algorithm&#45;&gt;UMAP_Coordinates -->
<g id="edge17" class="edge">
<title>UMAP_Algorithm&#45;&gt;UMAP_Coordinates</title>
<path fill="none" stroke="black" d="M1047.12,-627C1079.92,-627 1136.92,-627 1181.08,-627"/>
<polygon fill="black" stroke="black" points="1181.07,-630.5 1191.07,-627 1181.07,-623.5 1181.07,-630.5"/>
</g>
<!-- HDBSCAN_Min_Cluster_Size -->
<g id="node16" class="node">
<title>HDBSCAN_Min_Cluster_Size</title>
<polygon fill="white" stroke="black" points="861.37,-1311 785.86,-1293 861.37,-1275 936.89,-1293 861.37,-1311"/>
<text xml:space="preserve" text-anchor="middle" x="861.37" y="-1290" font-family="Helvetica,sans-Serif" font-size="10.00">Min Cluster Size</text>
</g>
<!-- Tuning_HDBSCAN&#45;&gt;HDBSCAN_Min_Cluster_Size -->
<g id="edge20" class="edge">
<title>Tuning_HDBSCAN&#45;&gt;HDBSCAN_Min_Cluster_Size</title>
<path fill="none" stroke="black" d="M749.11,-1293C756.08,-1293 763.97,-1293 772.26,-1293"/>
<polygon fill="black" stroke="black" points="772.24,-1296.5 782.24,-1293 772.24,-1289.5 772.24,-1296.5"/>
</g>
<!-- HDBSCAN_Min_Samples -->
<g id="node17" class="node">
<title>HDBSCAN_Min_Samples</title>
<polygon fill="white" stroke="black" points="861.37,-1365 798.61,-1347 861.37,-1329 924.13,-1347 861.37,-1365"/>
<text xml:space="preserve" text-anchor="middle" x="861.37" y="-1344" font-family="Helvetica,sans-Serif" font-size="10.00">Min Samples</text>
</g>
<!-- Tuning_HDBSCAN&#45;&gt;HDBSCAN_Min_Samples -->
<g id="edge21" class="edge">
<title>Tuning_HDBSCAN&#45;&gt;HDBSCAN_Min_Samples</title>
<path fill="none" stroke="black" d="M749.29,-1304.88C760.55,-1309.71 773.78,-1315.26 785.86,-1320 797.31,-1324.5 809.85,-1329.15 821.33,-1333.29"/>
<polygon fill="black" stroke="black" points="819.91,-1336.5 830.51,-1336.58 822.27,-1329.92 819.91,-1336.5"/>
</g>
<!-- HDBSCAN_Node&#45;&gt;Tuning_HDBSCAN -->
<g id="edge24" class="edge">
<title>HDBSCAN_Node&#45;&gt;Tuning_HDBSCAN</title>
<path fill="none" stroke="black" stroke-dasharray="5,2" d="M992.43,-1274.64C977.02,-1265 956.73,-1254.18 936.89,-1249.2 871.78,-1232.87 849.96,-1229.3 785.86,-1249.2 773.39,-1253.07 761.2,-1260.32 750.87,-1267.82"/>
<polygon fill="black" stroke="black" points="748.94,-1264.89 743.16,-1273.77 753.21,-1270.44 748.94,-1264.89"/>
<text xml:space="preserve" text-anchor="middle" x="861.37" y="-1253.4" font-family="Times,serif" font-size="14.00">adjusted mutual info score</text>
</g>
<!-- ClusterLabel -->
<g id="node18" class="node">
<title>ClusterLabel</title>
<ellipse fill="white" stroke="black" cx="1244.48" cy="-1336" rx="27" ry="18"/>
<text xml:space="preserve" text-anchor="middle" x="1244.48" y="-1333" font-family="Helvetica,sans-Serif" font-size="10.00">Label</text>
</g>
<!-- HDBSCAN_Node&#45;&gt;ClusterLabel -->
<g id="edge25" class="edge">
<title>HDBSCAN_Node&#45;&gt;ClusterLabel</title>
<path fill="none" stroke="black" d="M1052.55,-1302.03C1061.74,-1304.47 1071.8,-1306.99 1081.14,-1309 1123.8,-1318.17 1173.35,-1326.01 1206.37,-1330.84"/>
<polygon fill="black" stroke="black" points="1205.85,-1334.3 1216.25,-1332.27 1206.85,-1327.38 1205.85,-1334.3"/>
</g>
<!-- ClusterRadius -->
<g id="node19" class="node">
<title>ClusterRadius</title>
<ellipse fill="white" stroke="black" cx="1244.48" cy="-1277" rx="42.75" ry="22.63"/>
<text xml:space="preserve" text-anchor="middle" x="1244.48" y="-1280" font-family="Helvetica,sans-Serif" font-size="10.00">Radius</text>
<text xml:space="preserve" text-anchor="middle" x="1244.48" y="-1268" font-family="Helvetica,sans-Serif" font-size="10.00">(avg,max)</text>
</g>
<!-- HDBSCAN_Node&#45;&gt;ClusterRadius -->
<g id="edge27" class="edge">
<title>HDBSCAN_Node&#45;&gt;ClusterRadius</title>
<path fill="none" stroke="black" d="M1052.61,-1290.71C1088.54,-1288.13 1147.49,-1283.89 1190.38,-1280.81"/>
<polygon fill="black" stroke="black" points="1190.51,-1284.31 1200.23,-1280.11 1190.01,-1277.33 1190.51,-1284.31"/>
</g>
<!-- ClusterSize -->
<g id="node20" class="node">
<title>ClusterSize</title>
<ellipse fill="white" stroke="black" cx="1244.48" cy="-1470" rx="27" ry="18"/>
<text xml:space="preserve" text-anchor="middle" x="1244.48" y="-1467" font-family="Helvetica,sans-Serif" font-size="10.00">Size</text>
</g>
<!-- HDBSCAN_Node&#45;&gt;ClusterSize -->
<g id="edge28" class="edge">
<title>HDBSCAN_Node&#45;&gt;ClusterSize</title>
<path fill="none" stroke="black" d="M1022.41,-1311.37C1026.46,-1343.51 1039.64,-1409.7 1081.14,-1443 1116.47,-1471.36 1170.32,-1474.94 1206.19,-1473.57"/>
<polygon fill="black" stroke="black" points="1206.31,-1477.06 1216.1,-1473.02 1205.92,-1470.08 1206.31,-1477.06"/>
</g>
<!-- NormDistToMedoid -->
<g id="node21" class="node">
<title>NormDistToMedoid</title>
<ellipse fill="white" stroke="black" cx="1244.48" cy="-1529" rx="76.55" ry="22.63"/>
<text xml:space="preserve" text-anchor="middle" x="1244.48" y="-1532" font-family="Helvetica,sans-Serif" font-size="10.00">Normalized Distance</text>
<text xml:space="preserve" text-anchor="middle" x="1244.48" y="-1520" font-family="Helvetica,sans-Serif" font-size="10.00">To Medoid</text>
</g>
<!-- HDBSCAN_Node&#45;&gt;NormDistToMedoid -->
<g id="edge29" class="edge">
<title>HDBSCAN_Node&#45;&gt;NormDistToMedoid</title>
<path fill="none" stroke="black" d="M1020.26,-1311.48C1020.41,-1351.69 1026.79,-1447.51 1081.14,-1497 1101.58,-1515.61 1129.59,-1524.76 1156.6,-1528.92"/>
<polygon fill="black" stroke="black" points="1155.81,-1532.34 1166.18,-1530.17 1156.72,-1525.4 1155.81,-1532.34"/>
</g>
<!-- ClusterNoise -->
<g id="node22" class="node">
<title>ClusterNoise</title>
<ellipse fill="white" stroke="black" cx="1244.48" cy="-1159" rx="41.38" ry="22.63"/>
<text xml:space="preserve" text-anchor="middle" x="1244.48" y="-1162" font-family="Helvetica,sans-Serif" font-size="10.00">Noise</text>
<text xml:space="preserve" text-anchor="middle" x="1244.48" y="-1150" font-family="Helvetica,sans-Serif" font-size="10.00">(label=&#45;1)</text>
</g>
<!-- HDBSCAN_Node&#45;&gt;ClusterNoise -->
<g id="edge26" class="edge">
<title>HDBSCAN_Node&#45;&gt;ClusterNoise</title>
<path fill="none" stroke="black" d="M1026.32,-1274.67C1034.47,-1251.36 1051.89,-1211.67 1081.14,-1191 1113.28,-1168.28 1157.52,-1160.72 1191.7,-1158.59"/>
<polygon fill="black" stroke="black" points="1191.53,-1162.1 1201.36,-1158.14 1191.21,-1155.11 1191.53,-1162.1"/>
</g>
<!-- ClusterProbability -->
<g id="node23" class="node">
<title>ClusterProbability</title>
<ellipse fill="white" stroke="black" cx="1244.48" cy="-1218" rx="37.7" ry="18"/>
<text xml:space="preserve" text-anchor="middle" x="1244.48" y="-1215" font-family="Helvetica,sans-Serif" font-size="10.00">Probability</text>
</g>
<!-- HDBSCAN_Node&#45;&gt;ClusterProbability -->
<g id="edge30" class="edge">
<title>HDBSCAN_Node&#45;&gt;ClusterProbability</title>
<path fill="none" stroke="black" d="M1038.63,-1274.7C1049.88,-1264.34 1065.22,-1252.07 1081.14,-1245 1117.34,-1228.92 1161.95,-1222.34 1195.24,-1219.68"/>
<polygon fill="black" stroke="black" points="1195.27,-1223.19 1205,-1219 1194.78,-1216.21 1195.27,-1223.19"/>
</g>
<!-- ClusterApproximationOutlierScore -->
<g id="node24" class="node">
<title>ClusterApproximationOutlierScore</title>
<ellipse fill="white" stroke="black" cx="1244.48" cy="-1403" rx="65.35" ry="31.11"/>
<text xml:space="preserve" text-anchor="middle" x="1244.48" y="-1412" font-family="Helvetica,sans-Serif" font-size="10.00">Approximation</text>
<text xml:space="preserve" text-anchor="middle" x="1244.48" y="-1400" font-family="Helvetica,sans-Serif" font-size="10.00">OutlierScore</text>
<text xml:space="preserve" text-anchor="middle" x="1244.48" y="-1388" font-family="Helvetica,sans-Serif" font-size="10.00">(= 1 &#45; Probability)</text>
</g>
<!-- HDBSCAN_Node&#45;&gt;ClusterApproximationOutlierScore -->
<g id="edge31" class="edge">
<title>HDBSCAN_Node&#45;&gt;ClusterApproximationOutlierScore</title>
<path fill="none" stroke="black" d="M1031.79,-1311.33C1042.46,-1327.37 1060.06,-1350.07 1081.14,-1363 1107.58,-1379.21 1140.23,-1388.86 1169.3,-1394.6"/>
<polygon fill="black" stroke="black" points="1168.29,-1397.97 1178.75,-1396.34 1169.55,-1391.09 1168.29,-1397.97"/>
</g>
<!-- HDBSCAN_Min_Cluster_Size&#45;&gt;HDBSCAN_Node -->
<g id="edge22" class="edge">
<title>HDBSCAN_Min_Cluster_Size&#45;&gt;HDBSCAN_Node</title>
<path fill="none" stroke="black" d="M938.7,-1293C951.35,-1293 964.07,-1293 975.53,-1293"/>
<polygon fill="black" stroke="black" points="975.44,-1296.5 985.44,-1293 975.44,-1289.5 975.44,-1296.5"/>
</g>
<!-- HDBSCAN_Min_Samples&#45;&gt;HDBSCAN_Node -->
<g id="edge23" class="edge">
<title>HDBSCAN_Min_Samples&#45;&gt;HDBSCAN_Node</title>
<path fill="none" stroke="black" d="M891.04,-1337.1C914.9,-1328.85 949.21,-1317 976.26,-1307.66"/>
<polygon fill="black" stroke="black" points="977.23,-1311.02 985.54,-1304.45 974.95,-1304.41 977.23,-1311.02"/>
</g>
<!-- AnomalyStandardizer -->
<g id="node39" class="node">
<title>AnomalyStandardizer</title>
<polygon fill="white" stroke="black" points="1548.68,-789 1475.98,-789 1475.98,-753 1548.68,-753 1548.68,-789"/>
<text xml:space="preserve" text-anchor="middle" x="1512.33" y="-768" font-family="Helvetica,sans-Serif" font-size="10.00">Standardizer</text>
</g>
<!-- ClusterRadius&#45;&gt;AnomalyStandardizer -->
<g id="edge33" class="edge">
<title>ClusterRadius&#45;&gt;AnomalyStandardizer</title>
<path fill="none" stroke="black" d="M1286.54,-1281.57C1324.09,-1283.22 1378.16,-1278.78 1407.82,-1245 1473.49,-1170.2 1377.05,-877.61 1436.82,-798 1443.7,-788.84 1453.98,-782.78 1464.73,-778.78"/>
<polygon fill="black" stroke="black" points="1465.57,-782.18 1474.08,-775.87 1463.49,-775.5 1465.57,-782.18"/>
</g>
<!-- NormDistToMedoid&#45;&gt;AnomalyStandardizer -->
<g id="edge34" class="edge">
<title>NormDistToMedoid&#45;&gt;AnomalyStandardizer</title>
<path fill="none" stroke="black" d="M1320.31,-1533C1351.87,-1530.49 1386.23,-1521.43 1407.82,-1497 1459.29,-1438.75 1391.14,-860.9 1436.82,-798 1443.61,-788.65 1453.97,-782.53 1464.82,-778.52"/>
<polygon fill="black" stroke="black" points="1465.74,-781.9 1474.27,-775.62 1463.69,-775.21 1465.74,-781.9"/>
</g>
<!-- ClusterApproximationOutlierScore&#45;&gt;AnomalyStandardizer -->
<g id="edge35" class="edge">
<title>ClusterApproximationOutlierScore&#45;&gt;AnomalyStandardizer</title>
<path fill="none" stroke="black" d="M1310.13,-1404.38C1344.52,-1401.41 1384.44,-1391.31 1407.82,-1363 1447.84,-1314.53 1399.42,-848.52 1436.82,-798 1443.69,-788.71 1454.08,-782.61 1464.93,-778.61"/>
<polygon fill="black" stroke="black" points="1465.85,-781.99 1474.38,-775.7 1463.8,-775.29 1465.85,-781.99"/>
</g>
<!-- ArticleRank -->
<g id="node25" class="node">
<title>ArticleRank</title>
<ellipse fill="white" stroke="black" cx="1244.48" cy="-512" rx="40.37" ry="18"/>
<text xml:space="preserve" text-anchor="middle" x="1244.48" y="-509" font-family="Helvetica,sans-Serif" font-size="10.00">ArticleRank</text>
</g>
<!-- ArticleRank&#45;&gt;AnomalyStandardizer -->
<g id="edge36" class="edge">
<title>ArticleRank&#45;&gt;AnomalyStandardizer</title>
<path fill="none" stroke="black" d="M1284.39,-515.25C1322.78,-520.36 1381.04,-533.46 1418.82,-567 1471.69,-613.95 1496.13,-697.12 1505.85,-741.37"/>
<polygon fill="black" stroke="black" points="1502.39,-741.95 1507.86,-751.02 1509.25,-740.52 1502.39,-741.95"/>
</g>
<!-- PageRank -->
<g id="node26" class="node">
<title>PageRank</title>
<ellipse fill="white" stroke="black" cx="1244.48" cy="-458" rx="37.7" ry="18"/>
<text xml:space="preserve" text-anchor="middle" x="1244.48" y="-455" font-family="Helvetica,sans-Serif" font-size="10.00">PageRank</text>
</g>
<!-- PageRank&#45;&gt;AnomalyStandardizer -->
<g id="edge37" class="edge">
<title>PageRank&#45;&gt;AnomalyStandardizer</title>
<path fill="none" stroke="black" d="M1281.68,-454.22C1317.71,-452.5 1372.57,-455.66 1407.82,-485 1487.01,-550.92 1505.62,-682.5 1509.99,-741.35"/>
<polygon fill="black" stroke="black" points="1506.49,-741.49 1510.63,-751.25 1513.48,-741.04 1506.49,-741.49"/>
</g>
<!-- PageRank_minus_ArticleRank -->
<g id="node27" class="node">
<title>PageRank_minus_ArticleRank</title>
<ellipse fill="white" stroke="black" cx="1244.48" cy="-399" rx="48.65" ry="22.63"/>
<text xml:space="preserve" text-anchor="middle" x="1244.48" y="-402" font-family="Helvetica,sans-Serif" font-size="10.00">PageRank &#45;</text>
<text xml:space="preserve" text-anchor="middle" x="1244.48" y="-390" font-family="Helvetica,sans-Serif" font-size="10.00">ArticleRank</text>
</g>
<!-- PageRank_minus_ArticleRank&#45;&gt;AnomalyStandardizer -->
<g id="edge38" class="edge">
<title>PageRank_minus_ArticleRank&#45;&gt;AnomalyStandardizer</title>
<path fill="none" stroke="black" d="M1293.14,-396.08C1328.94,-396.51 1376.92,-403.07 1407.82,-431 1499.39,-513.77 1511.06,-674.8 1511.78,-741.24"/>
<polygon fill="black" stroke="black" points="1508.28,-741 1511.8,-750.99 1515.28,-740.98 1508.28,-741"/>
</g>
<!-- BetweennessCentrality -->
<g id="node28" class="node">
<title>BetweennessCentrality</title>
<ellipse fill="white" stroke="black" cx="1244.48" cy="-336" rx="53.77" ry="22.63"/>
<text xml:space="preserve" text-anchor="middle" x="1244.48" y="-339" font-family="Helvetica,sans-Serif" font-size="10.00">Betweenness</text>
<text xml:space="preserve" text-anchor="middle" x="1244.48" y="-327" font-family="Helvetica,sans-Serif" font-size="10.00">Centrality</text>
</g>
<!-- BetweennessCentrality&#45;&gt;AnomalyStandardizer -->
<g id="edge39" class="edge">
<title>BetweennessCentrality&#45;&gt;AnomalyStandardizer</title>
<path fill="none" stroke="black" d="M1298,-332.39C1333.39,-332.9 1378.75,-339.69 1407.82,-367 1463.14,-418.98 1497.28,-656.86 1507.83,-741.22"/>
<polygon fill="black" stroke="black" points="1504.34,-741.51 1509.03,-751.01 1511.28,-740.66 1504.34,-741.51"/>
</g>
<!-- LocalClusteringCoefficient -->
<g id="node29" class="node">
<title>LocalClusteringCoefficient</title>
<ellipse fill="white" stroke="black" cx="1244.48" cy="-273" rx="62.02" ry="22.63"/>
<text xml:space="preserve" text-anchor="middle" x="1244.48" y="-276" font-family="Helvetica,sans-Serif" font-size="10.00">Local Clustering</text>
<text xml:space="preserve" text-anchor="middle" x="1244.48" y="-264" font-family="Helvetica,sans-Serif" font-size="10.00">Coefficient</text>
</g>
<!-- LocalClusteringCoefficient&#45;&gt;AnomalyStandardizer -->
<g id="edge40" class="edge">
<title>LocalClusteringCoefficient&#45;&gt;AnomalyStandardizer</title>
<path fill="none" stroke="black" d="M1306.09,-269.28C1340.25,-270.54 1381.26,-278.22 1407.82,-304 1471.32,-365.66 1500.84,-648.46 1508.94,-741.35"/>
<polygon fill="black" stroke="black" points="1505.44,-741.5 1509.78,-751.16 1512.42,-740.9 1505.44,-741.5"/>
</g>
<!-- Degree -->
<g id="node30" class="node">
<title>Degree</title>
<ellipse fill="white" stroke="black" cx="1244.48" cy="-210" rx="52.57" ry="22.63"/>
<text xml:space="preserve" text-anchor="middle" x="1244.48" y="-213" font-family="Helvetica,sans-Serif" font-size="10.00">Degree</text>
<text xml:space="preserve" text-anchor="middle" x="1244.48" y="-201" font-family="Helvetica,sans-Serif" font-size="10.00">(in, out, sum)</text>
</g>
<!-- Degree&#45;&gt;AnomalyStandardizer -->
<g id="edge41" class="edge">
<title>Degree&#45;&gt;AnomalyStandardizer</title>
<path fill="none" stroke="black" d="M1296.59,-205.86C1332.49,-205.9 1379.05,-212.35 1407.82,-241 1479.48,-312.36 1503.88,-639.89 1509.78,-741.11"/>
<polygon fill="black" stroke="black" points="1506.28,-741.26 1510.33,-751.05 1513.27,-740.87 1506.28,-741.26"/>
</g>
<!-- Abstractness -->
<g id="node31" class="node">
<title>Abstractness</title>
<ellipse fill="white" stroke="black" cx="1244.48" cy="-147" rx="67.89" ry="22.63"/>
<text xml:space="preserve" text-anchor="middle" x="1244.48" y="-150" font-family="Helvetica,sans-Serif" font-size="10.00">Abstractness</text>
<text xml:space="preserve" text-anchor="middle" x="1244.48" y="-138" font-family="Helvetica,sans-Serif" font-size="10.00">(Robert C. Martin)</text>
</g>
<!-- Abstractness&#45;&gt;AnomalyStandardizer -->
<g id="edge42" class="edge">
<title>Abstractness&#45;&gt;AnomalyStandardizer</title>
<path fill="none" stroke="black" d="M1311.76,-143.06C1344.93,-144.77 1383.16,-152.95 1407.82,-178 1487.76,-259.22 1506.62,-632.45 1510.45,-741.19"/>
<polygon fill="black" stroke="black" points="1506.95,-741.16 1510.78,-751.04 1513.95,-740.93 1506.95,-741.16"/>
</g>
<!-- StronglyConnectedComponents -->
<g id="node32" class="node">
<title>StronglyConnectedComponents</title>
<ellipse fill="white" stroke="black" cx="1244.48" cy="-88" rx="137.3" ry="18"/>
<text xml:space="preserve" text-anchor="middle" x="1244.48" y="-85" font-family="Helvetica,sans-Serif" font-size="10.00">StronglyConnectedComponents(member count)</text>
</g>
<!-- StronglyConnectedComponents&#45;&gt;AnomalyStandardizer -->
<g id="edge43" class="edge">
<title>StronglyConnectedComponents&#45;&gt;AnomalyStandardizer</title>
<path fill="none" stroke="black" d="M1374.9,-93.7C1387.15,-98.67 1398.46,-105.57 1407.82,-115 1497.12,-205.05 1509.38,-624.74 1511.07,-741.05"/>
<polygon fill="black" stroke="black" points="1507.57,-741.05 1511.19,-751.01 1514.56,-740.97 1507.57,-741.05"/>
</g>
<!-- WeaklyConnectedComponents -->
<g id="node33" class="node">
<title>WeaklyConnectedComponents</title>
<ellipse fill="white" stroke="black" cx="1244.48" cy="-34" rx="155.34" ry="18"/>
<text xml:space="preserve" text-anchor="middle" x="1244.48" y="-31" font-family="Helvetica,sans-Serif" font-size="10.00">WeaklyConnectedComponents(median members size)</text>
</g>
<!-- WeaklyConnectedComponents&#45;&gt;AnomalyStandardizer -->
<g id="edge44" class="edge">
<title>WeaklyConnectedComponents&#45;&gt;AnomalyStandardizer</title>
<path fill="none" stroke="black" d="M1381.38,-42.76C1391.11,-47.38 1400.11,-53.35 1407.82,-61 1505.82,-158.22 1511.72,-619.29 1511.54,-741.31"/>
<polygon fill="black" stroke="black" points="1508.04,-741.13 1511.5,-751.14 1515.04,-741.16 1508.04,-741.13"/>
</g>
<!-- TuningAnomaly -->
<g id="node34" class="node">
<title>TuningAnomaly</title>
<polygon fill="white" stroke="black" points="1272.21,-988 1216.75,-988 1216.75,-952 1272.21,-952 1272.21,-988"/>
<text xml:space="preserve" text-anchor="middle" x="1244.48" y="-973" font-family="Helvetica,sans-Serif" font-size="10.00">Tuning</text>
<text xml:space="preserve" text-anchor="middle" x="1244.48" y="-961" font-family="Helvetica,sans-Serif" font-size="10.00">(Optuna)</text>
</g>
<!-- IsolationMinCluster -->
<g id="node35" class="node">
<title>IsolationMinCluster</title>
<polygon fill="white" stroke="black" points="1512.33,-897 1436.82,-879 1512.33,-861 1587.85,-879 1512.33,-897"/>
<text xml:space="preserve" text-anchor="middle" x="1512.33" y="-876" font-family="Helvetica,sans-Serif" font-size="10.00">Min Cluster Size</text>
</g>
<!-- TuningAnomaly&#45;&gt;IsolationMinCluster -->
<g id="edge45" class="edge">
<title>TuningAnomaly&#45;&gt;IsolationMinCluster</title>
<path fill="none" stroke="black" d="M1272.43,-960.77C1318.87,-944.88 1414.26,-912.23 1469.43,-893.34"/>
<polygon fill="black" stroke="black" points="1470.47,-896.69 1478.79,-890.14 1468.2,-890.06 1470.47,-896.69"/>
</g>
<!-- IsolationEstimators -->
<g id="node36" class="node">
<title>IsolationEstimators</title>
<polygon fill="white" stroke="black" points="1512.33,-951 1452.41,-933 1512.33,-915 1572.26,-933 1512.33,-951"/>
<text xml:space="preserve" text-anchor="middle" x="1512.33" y="-930" font-family="Helvetica,sans-Serif" font-size="10.00">n estimators</text>
</g>
<!-- TuningAnomaly&#45;&gt;IsolationEstimators -->
<g id="edge46" class="edge">
<title>TuningAnomaly&#45;&gt;IsolationEstimators</title>
<path fill="none" stroke="black" d="M1272.43,-966.25C1316.03,-960.18 1402.78,-948.11 1458.87,-940.3"/>
<polygon fill="black" stroke="black" points="1459.09,-943.81 1468.51,-938.96 1458.12,-936.87 1459.09,-943.81"/>
</g>
<!-- ProxyEstimators -->
<g id="node37" class="node">
<title>ProxyEstimators</title>
<polygon fill="white" stroke="black" points="1665.77,-914 1605.85,-896 1665.77,-878 1725.69,-896 1665.77,-914"/>
<text xml:space="preserve" text-anchor="middle" x="1665.77" y="-893" font-family="Helvetica,sans-Serif" font-size="10.00">n estimators</text>
</g>
<!-- TuningAnomaly&#45;&gt;ProxyEstimators -->
<g id="edge49" class="edge">
<title>TuningAnomaly&#45;&gt;ProxyEstimators</title>
<path fill="none" stroke="black" d="M1272.44,-970.86C1348.7,-973.05 1562.07,-977.54 1587.85,-960 1604.64,-948.57 1591.15,-932.01 1605.85,-918 1609.84,-914.2 1614.54,-911.04 1619.53,-908.42"/>
<polygon fill="black" stroke="black" points="1620.91,-911.63 1628.63,-904.38 1618.07,-905.24 1620.91,-911.63"/>
</g>
<!-- ProxyMaxDepth -->
<g id="node38" class="node">
<title>ProxyMaxDepth</title>
<polygon fill="white" stroke="black" points="1665.77,-955 1612.46,-937 1665.77,-919 1719.09,-937 1665.77,-955"/>
<text xml:space="preserve" text-anchor="middle" x="1665.77" y="-934" font-family="Helvetica,sans-Serif" font-size="10.00">max depth</text>
</g>
<!-- TuningAnomaly&#45;&gt;ProxyMaxDepth -->
<g id="edge50" class="edge">
<title>TuningAnomaly&#45;&gt;ProxyMaxDepth</title>
<path fill="none" stroke="black" d="M1272.39,-976.89C1331.73,-990.7 1477.27,-1017.04 1587.85,-975 1597.85,-971.2 1596.68,-964.52 1605.85,-959 1611.93,-955.34 1618.71,-952.12 1625.46,-949.36"/>
<polygon fill="black" stroke="black" points="1626.4,-952.74 1634.5,-945.92 1623.91,-946.2 1626.4,-952.74"/>
</g>
<!-- IsolationForest -->
<g id="node41" class="node">
<title>IsolationForest</title>
<polygon fill="white" stroke="black" points="1880.77,-897.8 1743.69,-897.8 1743.69,-816.2 1880.77,-816.2 1880.77,-897.8"/>
<text xml:space="preserve" text-anchor="middle" x="1812.23" y="-860" font-family="Helvetica,sans-Serif" font-size="10.00">Isolation Forest</text>
<text xml:space="preserve" text-anchor="middle" x="1812.23" y="-848" font-family="Helvetica,sans-Serif" font-size="10.00">Anomaly Detector</text>
</g>
<!-- IsolationMinCluster&#45;&gt;IsolationForest -->
<g id="edge47" class="edge">
<title>IsolationMinCluster&#45;&gt;IsolationForest</title>
<path fill="none" stroke="black" d="M1556.02,-870.92C1571.64,-868.27 1589.49,-865.6 1605.85,-864 1647.54,-859.93 1694.19,-858.12 1732.48,-857.35"/>
<polygon fill="black" stroke="black" points="1732.12,-860.86 1742.05,-857.18 1731.99,-853.86 1732.12,-860.86"/>
</g>
<!-- IsolationEstimators&#45;&gt;IsolationForest -->
<g id="edge48" class="edge">
<title>IsolationEstimators&#45;&gt;IsolationForest</title>
<path fill="none" stroke="black" d="M1549.08,-925.72C1562.38,-921.65 1576.89,-915.41 1587.85,-906 1600.52,-895.12 1591.82,-882.08 1605.85,-873 1607.23,-872.11 1674.7,-866.97 1731.93,-862.75"/>
<polygon fill="black" stroke="black" points="1731.99,-866.26 1741.71,-862.03 1731.48,-859.27 1731.99,-866.26"/>
</g>
<!-- ProxyRandomForest -->
<g id="node42" class="node">
<title>ProxyRandomForest</title>
<polygon fill="white" stroke="black" points="2050.97,-945 1968.83,-945 1968.83,-909 2050.97,-909 2050.97,-945"/>
<text xml:space="preserve" text-anchor="middle" x="2009.9" y="-930" font-family="Helvetica,sans-Serif" font-size="10.00">RandomForest</text>
<text xml:space="preserve" text-anchor="middle" x="2009.9" y="-918" font-family="Helvetica,sans-Serif" font-size="10.00">(Proxy)</text>
</g>
<!-- ProxyEstimators&#45;&gt;ProxyRandomForest -->
<g id="edge51" class="edge">
<title>ProxyEstimators&#45;&gt;ProxyRandomForest</title>
<path fill="none" stroke="black" d="M1706.63,-902.22C1718.53,-903.93 1731.62,-905.68 1743.69,-907 1817.67,-915.07 1903.62,-920.91 1957.14,-924.12"/>
<polygon fill="black" stroke="black" points="1956.68,-927.6 1966.87,-924.7 1957.1,-920.61 1956.68,-927.6"/>
</g>
<!-- ProxyMaxDepth&#45;&gt;ProxyRandomForest -->
<g id="edge52" class="edge">
<title>ProxyMaxDepth&#45;&gt;ProxyRandomForest</title>
<path fill="none" stroke="black" d="M1716.15,-935.56C1780.31,-933.68 1891.8,-930.42 1957.11,-928.51"/>
<polygon fill="black" stroke="black" points="1956.95,-932.02 1966.84,-928.23 1956.75,-925.02 1956.95,-932.02"/>
</g>
<!-- AnomalyStandardizer&#45;&gt;IsolationForest -->
<g id="edge53" class="edge">
<title>AnomalyStandardizer&#45;&gt;IsolationForest</title>
<path fill="none" stroke="black" d="M1549.09,-780.87C1591.35,-792.59 1663.75,-812.84 1725.69,-831 1727.96,-831.67 1730.27,-832.34 1732.59,-833.03"/>
<polygon fill="black" stroke="black" points="1731.53,-836.37 1742.12,-835.87 1733.53,-829.66 1731.53,-836.37"/>
</g>
<!-- AnomalyPCA&#45;&gt;IsolationForest -->
<g id="edge54" class="edge">
<title>AnomalyPCA&#45;&gt;IsolationForest</title>
<path fill="none" stroke="black" d="M1566.94,-830.76C1612.97,-835.7 1679.98,-842.9 1732.18,-848.51"/>
<polygon fill="black" stroke="black" points="1731.59,-851.96 1741.91,-849.55 1732.34,-845 1731.59,-851.96"/>
</g>
<!-- IsolationForest&#45;&gt;ProxyRandomForest -->
<g id="edge55" class="edge">
<title>IsolationForest&#45;&gt;ProxyRandomForest</title>
<path fill="none" stroke="black" stroke-dasharray="5,2" d="M1881.1,-872.52C1903.66,-878.55 1928.66,-886.19 1950.83,-895.2 1956.62,-897.55 1962.57,-900.34 1968.35,-903.27"/>
<polygon fill="black" stroke="black" points="1966.69,-906.35 1977.16,-907.94 1969.96,-900.17 1966.69,-906.35"/>
<text xml:space="preserve" text-anchor="middle" x="1924.8" y="-899.4" font-family="Times,serif" font-size="14.00">reference</text>
</g>
<!-- AnomalyScore -->
<g id="node43" class="node">
<title>AnomalyScore</title>
<ellipse fill="white" stroke="black" cx="2009.9" cy="-816" rx="27" ry="18"/>
<text xml:space="preserve" text-anchor="middle" x="2009.9" y="-813" font-family="Helvetica,sans-Serif" font-size="10.00">Score</text>
</g>
<!-- IsolationForest&#45;&gt;AnomalyScore -->
<g id="edge58" class="edge">
<title>IsolationForest&#45;&gt;AnomalyScore</title>
<path fill="none" stroke="black" d="M1881.12,-842.78C1911.94,-836.32 1947.15,-828.94 1972.79,-823.57"/>
<polygon fill="black" stroke="black" points="1973.3,-827.04 1982.37,-821.56 1971.86,-820.18 1973.3,-827.04"/>
</g>
<!-- AnomalyLabel -->
<g id="node44" class="node">
<title>AnomalyLabel</title>
<ellipse fill="white" stroke="black" cx="2009.9" cy="-870" rx="27" ry="18"/>
<text xml:space="preserve" text-anchor="middle" x="2009.9" y="-867" font-family="Helvetica,sans-Serif" font-size="10.00">Label</text>
</g>
<!-- IsolationForest&#45;&gt;AnomalyLabel -->
<g id="edge57" class="edge">
<title>IsolationForest&#45;&gt;AnomalyLabel</title>
<path fill="none" stroke="black" d="M1881.12,-861.39C1903.34,-862.84 1928.14,-864.48 1950.83,-866 1957.4,-866.44 1964.39,-866.92 1971.16,-867.38"/>
<polygon fill="black" stroke="black" points="1970.87,-870.87 1981.08,-868.06 1971.35,-863.89 1970.87,-870.87"/>
</g>
<!-- ProxyRandomForest&#45;&gt;TuningAnomaly -->
<g id="edge56" class="edge">
<title>ProxyRandomForest&#45;&gt;TuningAnomaly</title>
<path fill="none" stroke="black" stroke-dasharray="5,2" d="M1968.51,-938.25C1873,-963.53 1625.63,-1021.13 1417.82,-1002 1371.13,-997.7 1318.21,-986.99 1283.47,-979.13"/>
<polygon fill="black" stroke="black" points="1284.43,-975.76 1273.9,-976.93 1282.86,-982.58 1284.43,-975.76"/>
<text xml:space="preserve" text-anchor="middle" x="1665.77" y="-1022.31" font-family="Times,serif" font-size="14.00">f1 score</text>
<text xml:space="preserve" text-anchor="middle" x="1665.77" y="-1005.51" font-family="Times,serif" font-size="14.00">(cross validation)</text>
</g>
<!-- SHAP -->
<g id="node45" class="node">
<title>SHAP</title>
<polygon fill="white" stroke="black" points="2230.23,-945 2127.97,-945 2127.97,-909 2236.23,-909 2236.23,-939 2230.23,-945"/>
<polyline fill="none" stroke="black" points="2230.23,-945 2230.23,-939"/>
<polyline fill="none" stroke="black" points="2236.23,-939 2230.23,-939"/>
<text xml:space="preserve" text-anchor="middle" x="2182.1" y="-924" font-family="Helvetica,sans-Serif" font-size="10.00">SHAP TreeExplainer</text>
</g>
<!-- ProxyRandomForest&#45;&gt;SHAP -->
<g id="edge59" class="edge">
<title>ProxyRandomForest&#45;&gt;SHAP</title>
<path fill="none" stroke="black" d="M2051.23,-927C2070.65,-927 2094.42,-927 2116.29,-927"/>
<polygon fill="black" stroke="black" points="2116.01,-930.5 2126.01,-927 2116.01,-923.5 2116.01,-930.5"/>
</g>
<!-- SHAP_Values -->
<g id="node46" class="node">
<title>SHAP_Values</title>
<ellipse fill="white" stroke="black" cx="2342.72" cy="-873" rx="58.09" ry="18"/>
<text xml:space="preserve" text-anchor="middle" x="2342.72" y="-870" font-family="Helvetica,sans-Serif" font-size="10.00">Top SHAP Values</text>
</g>
<!-- SHAP&#45;&gt;SHAP_Values -->
<g id="edge60" class="edge">
<title>SHAP&#45;&gt;SHAP_Values</title>
<path fill="none" stroke="black" d="M2236.36,-908.87C2254.24,-902.78 2274.12,-896.01 2291.75,-890.01"/>
<polygon fill="black" stroke="black" points="2292.62,-893.41 2300.96,-886.88 2290.37,-886.78 2292.62,-893.41"/>
</g>
<!-- SHAP_Features -->
<g id="node47" class="node">
<title>SHAP_Features</title>
<ellipse fill="white" stroke="black" cx="2342.72" cy="-927" rx="45.38" ry="18"/>
<text xml:space="preserve" text-anchor="middle" x="2342.72" y="-924" font-family="Helvetica,sans-Serif" font-size="10.00">Top Features</text>
</g>
<!-- SHAP&#45;&gt;SHAP_Features -->
<g id="edge61" class="edge">
<title>SHAP&#45;&gt;SHAP_Features</title>
<path fill="none" stroke="black" d="M2236.36,-927C2252.22,-927 2269.64,-927 2285.67,-927"/>
<polygon fill="black" stroke="black" points="2285.55,-930.5 2295.55,-927 2285.55,-923.5 2285.55,-930.5"/>
</g>
<!-- SHAP_Embedding_Sum -->
<g id="node48" class="node">
<title>SHAP_Embedding_Sum</title>
<ellipse fill="white" stroke="black" cx="2342.72" cy="-986" rx="69.49" ry="22.63"/>
<text xml:space="preserve" text-anchor="middle" x="2342.72" y="-989" font-family="Helvetica,sans-Serif" font-size="10.00">Node Embeddings</text>
<text xml:space="preserve" text-anchor="middle" x="2342.72" y="-977" font-family="Helvetica,sans-Serif" font-size="10.00">SHAP Sum</text>
</g>
<!-- SHAP&#45;&gt;SHAP_Embedding_Sum -->
<g id="edge62" class="edge">
<title>SHAP&#45;&gt;SHAP_Embedding_Sum</title>
<path fill="none" stroke="black" d="M2232.42,-945.34C2249.21,-951.59 2268.11,-958.62 2285.41,-965.06"/>
<polygon fill="black" stroke="black" points="2283.93,-968.24 2294.52,-968.45 2286.37,-961.68 2283.93,-968.24"/>
</g>
</g>
</svg>

