<?xml version="1.0" encoding="UTF-8" standalone="no"?>
<!DOCTYPE svg PUBLIC "-//W3C//DTD SVG 1.1//EN"
 "http://www.w3.org/Graphics/SVG/1.1/DTD/svg11.dtd">
<!-- Generated by graphviz version 12.2.1 (0)
 -->
<!-- Title: JavaArtifactBuildLevels Pages: 1 -->
<svg width="939pt" height="755pt"
 viewBox="0.00 0.00 939.30 754.65" xmlns="http://www.w3.org/2000/svg" xmlns:xlink="http://www.w3.org/1999/xlink">
<g id="graph0" class="graph" transform="scale(1 1) rotate(0) translate(4 750.65)">
<title>JavaArtifactBuildLevels</title>
<polygon fill="white" stroke="none" points="-4,4 -4,-750.65 935.3,-750.65 935.3,4 -4,4"/>
<!-- axon&#45;server&#45;connector&#45;4.10.3\n(level 1/6) -->
<g id="node1" class="node">
<title>axon&#45;server&#45;connector&#45;4.10.3\n(level 1/6)</title>
<ellipse fill="#98dafe" stroke="#1178b2" cx="381" cy="-610.4" rx="128.41" ry="29.42"/>
<text text-anchor="middle" x="381" y="-614.6" font-family="Helvetica,Arial,sans-serif" font-size="14.00">axon&#45;server&#45;connector&#45;4.10.3</text>
<text text-anchor="middle" x="381" y="-597.8" font-family="Helvetica,Arial,sans-serif" font-size="14.00">(level 1/6)</text>
</g>
<!-- axon&#45;messaging&#45;4.10.3\n(level 6/6) -->
<g id="node2" class="node">
<title>axon&#45;messaging&#45;4.10.3\n(level 6/6)</title>
<ellipse fill="#98dafe" stroke="#1178b2" cx="273" cy="-29.42" rx="103.69" ry="29.42"/>
<text text-anchor="middle" x="273" y="-33.62" font-family="Helvetica,Arial,sans-serif" font-size="14.00">axon&#45;messaging&#45;4.10.3</text>
<text text-anchor="middle" x="273" y="-16.82" font-family="Helvetica,Arial,sans-serif" font-size="14.00">(level 6/6)</text>
</g>
<!-- axon&#45;server&#45;connector&#45;4.10.3\n(level 1/6)&#45;&gt;axon&#45;messaging&#45;4.10.3\n(level 6/6) -->
<g id="edge1" class="edge">
<title>axon&#45;server&#45;connector&#45;4.10.3\n(level 1/6)&#45;&gt;axon&#45;messaging&#45;4.10.3\n(level 6/6)</title>
<path fill="none" stroke="#1178b2" stroke-width="6" d="M293.96,-588.53C193.81,-561.93 43,-512.73 43,-457.74 43,-457.74 43,-457.74 43,-135.25 43,-79.39 99.86,-53.16 157.03,-40.91"/>
<polygon fill="#1178b2" stroke="#1178b2" stroke-width="6" points="157.96,-46.08 166.78,-39.03 155.97,-35.77 157.96,-46.08"/>
<text text-anchor="middle" x="50.5" y="-293.49" font-family="Helvetica,Arial,sans-serif" font-size="10.00">756</text>
</g>
<!-- axon&#45;modelling&#45;4.10.3\n(level 5/6) -->
<g id="node3" class="node">
<title>axon&#45;modelling&#45;4.10.3\n(level 5/6)</title>
<ellipse fill="#98dafe" stroke="#1178b2" cx="343" cy="-136.25" rx="102.04" ry="29.42"/>
<text text-anchor="middle" x="343" y="-140.45" font-family="Helvetica,Arial,sans-serif" font-size="14.00">axon&#45;modelling&#45;4.10.3</text>
<text text-anchor="middle" x="343" y="-123.65" font-family="Helvetica,Arial,sans-serif" font-size="14.00">(level 5/6)</text>
</g>
<!-- axon&#45;server&#45;connector&#45;4.10.3\n(level 1/6)&#45;&gt;axon&#45;modelling&#45;4.10.3\n(level 5/6) -->
<g id="edge24" class="edge">
<title>axon&#45;server&#45;connector&#45;4.10.3\n(level 1/6)&#45;&gt;axon&#45;modelling&#45;4.10.3\n(level 5/6)</title>
<path fill="none" stroke="#1178b2" d="M390.84,-580.84C407.49,-527.7 436.34,-410.87 403,-320.49 393.29,-294.17 373.52,-298.07 362,-272.49 348.45,-242.42 344.02,-205.09 342.79,-177.27"/>
<polygon fill="#1178b2" stroke="#1178b2" points="346.3,-177.38 342.49,-167.49 339.3,-177.59 346.3,-177.38"/>
<text text-anchor="middle" x="418.79" y="-346.91" font-family="Helvetica,Arial,sans-serif" font-size="10.00">2</text>
</g>
<!-- axon&#45;eventsourcing&#45;4.10.3\n(level 4/6) -->
<g id="node4" class="node">
<title>axon&#45;eventsourcing&#45;4.10.3\n(level 4/6)</title>
<ellipse fill="#98dafe" stroke="#1178b2" cx="488" cy="-243.08" rx="117.43" ry="29.42"/>
<text text-anchor="middle" x="488" y="-247.28" font-family="Helvetica,Arial,sans-serif" font-size="14.00">axon&#45;eventsourcing&#45;4.10.3</text>
<text text-anchor="middle" x="488" y="-230.48" font-family="Helvetica,Arial,sans-serif" font-size="14.00">(level 4/6)</text>
</g>
<!-- axon&#45;server&#45;connector&#45;4.10.3\n(level 1/6)&#45;&gt;axon&#45;eventsourcing&#45;4.10.3\n(level 4/6) -->
<g id="edge18" class="edge">
<title>axon&#45;server&#45;connector&#45;4.10.3\n(level 1/6)&#45;&gt;axon&#45;eventsourcing&#45;4.10.3\n(level 4/6)</title>
<path fill="none" stroke="#1178b2" stroke-width="1.21" d="M422.97,-582.3C429.18,-576.61 434.87,-570.13 439,-562.99 490.62,-473.69 493.33,-347.86 490.79,-284.25"/>
<polygon fill="#1178b2" stroke="#1178b2" stroke-width="1.21" points="494.3,-284.41 490.33,-274.59 487.31,-284.74 494.3,-284.41"/>
<text text-anchor="middle" x="491.9" y="-400.33" font-family="Helvetica,Arial,sans-serif" font-size="10.00">34</text>
</g>
<!-- axon&#45;configuration&#45;4.10.3\n(level 2/6) -->
<g id="node5" class="node">
<title>axon&#45;configuration&#45;4.10.3\n(level 2/6)</title>
<ellipse fill="#98dafe" stroke="#1178b2" cx="251" cy="-456.74" rx="115.23" ry="29.42"/>
<text text-anchor="middle" x="251" y="-460.94" font-family="Helvetica,Arial,sans-serif" font-size="14.00">axon&#45;configuration&#45;4.10.3</text>
<text text-anchor="middle" x="251" y="-444.14" font-family="Helvetica,Arial,sans-serif" font-size="14.00">(level 2/6)</text>
</g>
<!-- axon&#45;server&#45;connector&#45;4.10.3\n(level 1/6)&#45;&gt;axon&#45;configuration&#45;4.10.3\n(level 2/6) -->
<g id="edge16" class="edge">
<title>axon&#45;server&#45;connector&#45;4.10.3\n(level 1/6)&#45;&gt;axon&#45;configuration&#45;4.10.3\n(level 2/6)</title>
<path fill="none" stroke="#1178b2" stroke-width="1.24" d="M356.85,-581.23C335.87,-556.76 305.35,-521.14 282.46,-494.45"/>
<polygon fill="#1178b2" stroke="#1178b2" stroke-width="1.24" points="285.4,-492.5 276.24,-487.19 280.09,-497.06 285.4,-492.5"/>
<text text-anchor="middle" x="343.95" y="-530.57" font-family="Helvetica,Arial,sans-serif" font-size="10.00">38</text>
</g>
<!-- axon&#45;modelling&#45;4.10.3\n(level 5/6)&#45;&gt;axon&#45;messaging&#45;4.10.3\n(level 6/6) -->
<g id="edge2" class="edge">
<title>axon&#45;modelling&#45;4.10.3\n(level 5/6)&#45;&gt;axon&#45;messaging&#45;4.10.3\n(level 6/6)</title>
<path fill="none" stroke="#1178b2" stroke-width="5.92" d="M324.06,-106.88C316.98,-96.27 308.77,-83.99 301.05,-72.42"/>
<polygon fill="#1178b2" stroke="#1178b2" stroke-width="5.92" points="305.39,-69.6 295.53,-64.16 296.78,-75.35 305.39,-69.6"/>
<text text-anchor="middle" x="317.6" y="-79.83" font-family="Helvetica,Arial,sans-serif" font-size="10.00">744</text>
</g>
<!-- axon&#45;eventsourcing&#45;4.10.3\n(level 4/6)&#45;&gt;axon&#45;messaging&#45;4.10.3\n(level 6/6) -->
<g id="edge3" class="edge">
<title>axon&#45;eventsourcing&#45;4.10.3\n(level 4/6)&#45;&gt;axon&#45;messaging&#45;4.10.3\n(level 6/6)</title>
<path fill="none" stroke="#1178b2" stroke-width="5.3" d="M487.97,-213.36C486.45,-183.43 479.69,-136.79 454,-106.83 432.35,-81.58 400.92,-64.48 370.32,-52.98"/>
<polygon fill="#1178b2" stroke="#1178b2" stroke-width="5.3" points="371.84,-48.6 360.87,-49.69 368.79,-57.36 371.84,-48.6"/>
<text text-anchor="middle" x="488.74" y="-133.25" font-family="Helvetica,Arial,sans-serif" font-size="10.00">650</text>
</g>
<!-- axon&#45;eventsourcing&#45;4.10.3\n(level 4/6)&#45;&gt;axon&#45;modelling&#45;4.10.3\n(level 5/6) -->
<g id="edge11" class="edge">
<title>axon&#45;eventsourcing&#45;4.10.3\n(level 4/6)&#45;&gt;axon&#45;modelling&#45;4.10.3\n(level 5/6)</title>
<path fill="none" stroke="#1178b2" stroke-width="1.52" d="M450.28,-214.81C431.85,-201.48 409.48,-185.31 389.95,-171.19"/>
<polygon fill="#1178b2" stroke="#1178b2" stroke-width="1.52" points="392.05,-168.39 381.89,-165.37 387.95,-174.06 392.05,-168.39"/>
<text text-anchor="middle" x="424.85" y="-186.66" font-family="Helvetica,Arial,sans-serif" font-size="10.00">80</text>
</g>
<!-- axon&#45;configuration&#45;4.10.3\n(level 2/6)&#45;&gt;axon&#45;messaging&#45;4.10.3\n(level 6/6) -->
<g id="edge4" class="edge">
<title>axon&#45;configuration&#45;4.10.3\n(level 2/6)&#45;&gt;axon&#45;messaging&#45;4.10.3\n(level 6/6)</title>
<path fill="none" stroke="#1178b2" stroke-width="4.5" d="M172.63,-434.94C144.73,-423.35 116.23,-405.73 100,-379.33 86.31,-357.05 93.61,-345.85 100,-320.49 124.89,-221.74 195.63,-123.47 238.56,-70.48"/>
<polygon fill="#1178b2" stroke="#1178b2" stroke-width="4.5" points="241.35,-73.28 244.67,-63.06 235.27,-68.28 241.35,-73.28"/>
<text text-anchor="middle" x="149.38" y="-240.08" font-family="Helvetica,Arial,sans-serif" font-size="10.00">530</text>
</g>
<!-- axon&#45;configuration&#45;4.10.3\n(level 2/6)&#45;&gt;axon&#45;modelling&#45;4.10.3\n(level 5/6) -->
<g id="edge8" class="edge">
<title>axon&#45;configuration&#45;4.10.3\n(level 2/6)&#45;&gt;axon&#45;modelling&#45;4.10.3\n(level 5/6)</title>
<path fill="none" stroke="#1178b2" stroke-width="1.64" d="M281.87,-427.96C294.39,-414.64 307.43,-397.61 314,-379.33 322.84,-354.72 314.73,-346.63 314,-320.49 313.63,-307.16 312.01,-303.8 313,-290.49 316.57,-242.62 318.49,-230.51 329,-183.66 329.46,-181.63 329.96,-179.56 330.48,-177.47"/>
<polygon fill="#1178b2" stroke="#1178b2" stroke-width="1.64" points="333.83,-178.51 333.1,-167.94 327.08,-176.66 333.83,-178.51"/>
<text text-anchor="middle" x="318" y="-293.49" font-family="Helvetica,Arial,sans-serif" font-size="10.00">98</text>
</g>
<!-- axon&#45;configuration&#45;4.10.3\n(level 2/6)&#45;&gt;axon&#45;eventsourcing&#45;4.10.3\n(level 4/6) -->
<g id="edge13" class="edge">
<title>axon&#45;configuration&#45;4.10.3\n(level 2/6)&#45;&gt;axon&#45;eventsourcing&#45;4.10.3\n(level 4/6)</title>
<path fill="none" stroke="#1178b2" stroke-width="1.4" d="M315.18,-431.88C326.65,-425.71 337.84,-418.23 347,-409.33 378.87,-378.32 364.85,-354.91 393,-320.49 405.76,-304.89 422.18,-290.32 437.76,-278.18"/>
<polygon fill="#1178b2" stroke="#1178b2" stroke-width="1.4" points="439.77,-281.05 445.63,-272.22 435.54,-275.47 439.77,-281.05"/>
<text text-anchor="middle" x="398" y="-346.91" font-family="Helvetica,Arial,sans-serif" font-size="10.00">62</text>
</g>
<!-- axon&#45;disruptor&#45;4.10.3\n(level 3/6) -->
<g id="node8" class="node">
<title>axon&#45;disruptor&#45;4.10.3\n(level 3/6)</title>
<ellipse fill="#98dafe" stroke="#1178b2" cx="207" cy="-349.91" rx="97.64" ry="29.42"/>
<text text-anchor="middle" x="207" y="-354.11" font-family="Helvetica,Arial,sans-serif" font-size="14.00">axon&#45;disruptor&#45;4.10.3</text>
<text text-anchor="middle" x="207" y="-337.31" font-family="Helvetica,Arial,sans-serif" font-size="14.00">(level 3/6)</text>
</g>
<!-- axon&#45;configuration&#45;4.10.3\n(level 2/6)&#45;&gt;axon&#45;disruptor&#45;4.10.3\n(level 3/6) -->
<g id="edge25" class="edge">
<title>axon&#45;configuration&#45;4.10.3\n(level 2/6)&#45;&gt;axon&#45;disruptor&#45;4.10.3\n(level 3/6)</title>
<path fill="none" stroke="#1178b2" d="M238.98,-427.1C234.17,-415.65 228.57,-402.3 223.4,-389.99"/>
<polygon fill="#1178b2" stroke="#1178b2" points="226.69,-388.78 219.59,-380.92 220.24,-391.49 226.69,-388.78"/>
<text text-anchor="middle" x="232.82" y="-400.33" font-family="Helvetica,Arial,sans-serif" font-size="10.00">2</text>
</g>
<!-- axon&#45;test&#45;4.10.3\n(level 1/6) -->
<g id="node6" class="node">
<title>axon&#45;test&#45;4.10.3\n(level 1/6)</title>
<ellipse fill="#98dafe" stroke="#1178b2" cx="679" cy="-349.91" rx="75.65" ry="29.42"/>
<text text-anchor="middle" x="679" y="-354.11" font-family="Helvetica,Arial,sans-serif" font-size="14.00">axon&#45;test&#45;4.10.3</text>
<text text-anchor="middle" x="679" y="-337.31" font-family="Helvetica,Arial,sans-serif" font-size="14.00">(level 1/6)</text>
</g>
<!-- axon&#45;test&#45;4.10.3\n(level 1/6)&#45;&gt;axon&#45;messaging&#45;4.10.3\n(level 6/6) -->
<g id="edge5" class="edge">
<title>axon&#45;test&#45;4.10.3\n(level 1/6)&#45;&gt;axon&#45;messaging&#45;4.10.3\n(level 6/6)</title>
<path fill="none" stroke="#1178b2" stroke-width="3.77" d="M692.56,-320.73C694.81,-314.83 696.81,-308.56 698,-302.49 702.57,-279.26 724.87,-278.24 697,-213.66 689.4,-196.06 681.75,-194.6 666,-183.66 575.41,-120.75 545.36,-115.33 442,-76.83 418.03,-67.9 391.59,-59.84 366.87,-53.02"/>
<polygon fill="#1178b2" stroke="#1178b2" stroke-width="3.77" points="367.82,-49.66 357.25,-50.43 366,-56.41 367.82,-49.66"/>
<text text-anchor="middle" x="691.38" y="-186.66" font-family="Helvetica,Arial,sans-serif" font-size="10.00">420</text>
</g>
<!-- axon&#45;test&#45;4.10.3\n(level 1/6)&#45;&gt;axon&#45;modelling&#45;4.10.3\n(level 5/6) -->
<g id="edge9" class="edge">
<title>axon&#45;test&#45;4.10.3\n(level 1/6)&#45;&gt;axon&#45;modelling&#45;4.10.3\n(level 5/6)</title>
<path fill="none" stroke="#1178b2" stroke-width="1.64" d="M682.81,-320.05C685.95,-282.59 684.92,-217.97 647,-183.66 614.4,-154.17 493.29,-173.33 450,-165.66 442.05,-164.25 433.83,-162.54 425.65,-160.67"/>
<polygon fill="#1178b2" stroke="#1178b2" stroke-width="1.64" points="426.66,-157.31 416.12,-158.39 425.04,-164.12 426.66,-157.31"/>
<text text-anchor="middle" x="687.98" y="-240.08" font-family="Helvetica,Arial,sans-serif" font-size="10.00">98</text>
</g>
<!-- axon&#45;test&#45;4.10.3\n(level 1/6)&#45;&gt;axon&#45;eventsourcing&#45;4.10.3\n(level 4/6) -->
<g id="edge21" class="edge">
<title>axon&#45;test&#45;4.10.3\n(level 1/6)&#45;&gt;axon&#45;eventsourcing&#45;4.10.3\n(level 4/6)</title>
<path fill="none" stroke="#1178b2" stroke-width="1.13" d="M641.6,-324C624.87,-313.23 604.72,-300.76 586,-290.49 576.03,-285.03 565.32,-279.56 554.76,-274.39"/>
<polygon fill="#1178b2" stroke="#1178b2" stroke-width="1.13" points="556.36,-271.28 545.83,-270.08 553.31,-277.58 556.36,-271.28"/>
<text text-anchor="middle" x="611.88" y="-293.49" font-family="Helvetica,Arial,sans-serif" font-size="10.00">22</text>
</g>
<!-- axon&#45;spring&#45;boot&#45;autoconfigure&#45;4.10.3\n(level 0/6) -->
<g id="node7" class="node">
<title>axon&#45;spring&#45;boot&#45;autoconfigure&#45;4.10.3\n(level 0/6)</title>
<ellipse fill="#98dafe" stroke="#1178b2" cx="537" cy="-717.23" rx="165.81" ry="29.42"/>
<text text-anchor="middle" x="537" y="-721.43" font-family="Helvetica,Arial,sans-serif" font-size="14.00">axon&#45;spring&#45;boot&#45;autoconfigure&#45;4.10.3</text>
<text text-anchor="middle" x="537" y="-704.63" font-family="Helvetica,Arial,sans-serif" font-size="14.00">(level 0/6)</text>
</g>
<!-- axon&#45;spring&#45;boot&#45;autoconfigure&#45;4.10.3\n(level 0/6)&#45;&gt;axon&#45;server&#45;connector&#45;4.10.3\n(level 1/6) -->
<g id="edge10" class="edge">
<title>axon&#45;spring&#45;boot&#45;autoconfigure&#45;4.10.3\n(level 0/6)&#45;&gt;axon&#45;server&#45;connector&#45;4.10.3\n(level 1/6)</title>
<path fill="none" stroke="#1178b2" stroke-width="1.57" d="M495.6,-688.42C475.99,-675.24 452.38,-659.37 431.71,-645.48"/>
<polygon fill="#1178b2" stroke="#1178b2" stroke-width="1.57" points="433.73,-642.62 423.48,-639.95 429.83,-648.43 433.73,-642.62"/>
<text text-anchor="middle" x="468.68" y="-660.82" font-family="Helvetica,Arial,sans-serif" font-size="10.00">88</text>
</g>
<!-- axon&#45;spring&#45;boot&#45;autoconfigure&#45;4.10.3\n(level 0/6)&#45;&gt;axon&#45;messaging&#45;4.10.3\n(level 6/6) -->
<g id="edge6" class="edge">
<title>axon&#45;spring&#45;boot&#45;autoconfigure&#45;4.10.3\n(level 0/6)&#45;&gt;axon&#45;messaging&#45;4.10.3\n(level 6/6)</title>
<path fill="none" stroke="#1178b2" stroke-width="3.53" d="M371.13,-715.27C213.39,-709.72 0,-688.05 0,-611.4 0,-611.4 0,-611.4 0,-135.25 0,-98.35 26.56,-94.43 59,-76.83 89.93,-60.05 126.47,-49.34 160.51,-42.5"/>
<polygon fill="#1178b2" stroke="#1178b2" stroke-width="3.53" points="161,-45.97 170.19,-40.69 159.71,-39.09 161,-45.97"/>
<text text-anchor="middle" x="7.5" y="-346.91" font-family="Helvetica,Arial,sans-serif" font-size="10.00">384</text>
</g>
<!-- axon&#45;spring&#45;boot&#45;autoconfigure&#45;4.10.3\n(level 0/6)&#45;&gt;axon&#45;modelling&#45;4.10.3\n(level 5/6) -->
<g id="edge17" class="edge">
<title>axon&#45;spring&#45;boot&#45;autoconfigure&#45;4.10.3\n(level 0/6)&#45;&gt;axon&#45;modelling&#45;4.10.3\n(level 5/6)</title>
<path fill="none" stroke="#1178b2" stroke-width="1.23" d="M537,-687.76C537,-666.67 537,-637.25 537,-611.4 537,-611.4 537,-611.4 537,-402.33 537,-358 562.9,-352.08 594,-320.49 603.61,-310.74 612.76,-314.68 619,-302.49 629.91,-281.2 676.98,-291.47 614,-213.66 610.93,-209.87 506.3,-181.09 427.97,-159.96"/>
<polygon fill="#1178b2" stroke="#1178b2" stroke-width="1.23" points="428.98,-156.61 418.41,-157.39 427.16,-163.37 428.98,-156.61"/>
<text text-anchor="middle" x="542" y="-400.33" font-family="Helvetica,Arial,sans-serif" font-size="10.00">36</text>
</g>
<!-- axon&#45;spring&#45;boot&#45;autoconfigure&#45;4.10.3\n(level 0/6)&#45;&gt;axon&#45;eventsourcing&#45;4.10.3\n(level 4/6) -->
<g id="edge14" class="edge">
<title>axon&#45;spring&#45;boot&#45;autoconfigure&#45;4.10.3\n(level 0/6)&#45;&gt;axon&#45;eventsourcing&#45;4.10.3\n(level 4/6)</title>
<path fill="none" stroke="#1178b2" stroke-width="1.33" d="M547.07,-687.56C548.7,-681.76 550.14,-675.65 551,-669.82 568.68,-550.01 574.47,-516.14 551,-397.33 542.98,-356.73 524.09,-313.38 509.07,-283.18"/>
<polygon fill="#1178b2" stroke="#1178b2" stroke-width="1.33" points="512.29,-281.8 504.65,-274.47 506.05,-284.97 512.29,-281.8"/>
<text text-anchor="middle" x="569.69" y="-453.74" font-family="Helvetica,Arial,sans-serif" font-size="10.00">52</text>
</g>
<!-- axon&#45;spring&#45;boot&#45;autoconfigure&#45;4.10.3\n(level 0/6)&#45;&gt;axon&#45;configuration&#45;4.10.3\n(level 2/6) -->
<g id="edge12" class="edge">
<title>axon&#45;spring&#45;boot&#45;autoconfigure&#45;4.10.3\n(level 0/6)&#45;&gt;axon&#45;configuration&#45;4.10.3\n(level 2/6)</title>
<path fill="none" stroke="#1178b2" stroke-width="1.49" d="M404.8,-699.14C333.47,-686.91 255.67,-667.64 234,-639.82 202.57,-599.47 217.43,-537.8 232.76,-497.62"/>
<polygon fill="#1178b2" stroke="#1178b2" stroke-width="1.49" points="235.95,-499.07 236.43,-488.49 229.46,-496.46 235.95,-499.07"/>
<text text-anchor="middle" x="239" y="-607.4" font-family="Helvetica,Arial,sans-serif" font-size="10.00">76</text>
</g>
<!-- axon&#45;spring&#45;boot&#45;autoconfigure&#45;4.10.3\n(level 0/6)&#45;&gt;axon&#45;test&#45;4.10.3\n(level 1/6) -->
<g id="edge23" class="edge">
<title>axon&#45;spring&#45;boot&#45;autoconfigure&#45;4.10.3\n(level 0/6)&#45;&gt;axon&#45;test&#45;4.10.3\n(level 1/6)</title>
<path fill="none" stroke="#1178b2" stroke-width="1.01" d="M581.15,-688.42C587.24,-682.92 592.83,-676.69 597,-669.82 635.84,-605.86 608.26,-576.6 627,-504.16 637.21,-464.67 652.57,-420.69 663.94,-390"/>
<polygon fill="#1178b2" stroke="#1178b2" stroke-width="1.01" points="667.17,-391.36 667.4,-380.77 660.62,-388.9 667.17,-391.36"/>
<text text-anchor="middle" x="629.5" y="-530.57" font-family="Helvetica,Arial,sans-serif" font-size="10.00">4</text>
</g>
<!-- axon&#45;tracing&#45;opentelemetry&#45;4.10.3\n(level 1/6) -->
<g id="node9" class="node">
<title>axon&#45;tracing&#45;opentelemetry&#45;4.10.3\n(level 1/6)</title>
<ellipse fill="#98dafe" stroke="#1178b2" cx="782" cy="-533.57" rx="149.3" ry="29.42"/>
<text text-anchor="middle" x="782" y="-537.77" font-family="Helvetica,Arial,sans-serif" font-size="14.00">axon&#45;tracing&#45;opentelemetry&#45;4.10.3</text>
<text text-anchor="middle" x="782" y="-520.97" font-family="Helvetica,Arial,sans-serif" font-size="14.00">(level 1/6)</text>
</g>
<!-- axon&#45;spring&#45;boot&#45;autoconfigure&#45;4.10.3\n(level 0/6)&#45;&gt;axon&#45;tracing&#45;opentelemetry&#45;4.10.3\n(level 1/6) -->
<g id="edge22" class="edge">
<title>axon&#45;spring&#45;boot&#45;autoconfigure&#45;4.10.3\n(level 0/6)&#45;&gt;axon&#45;tracing&#45;opentelemetry&#45;4.10.3\n(level 1/6)</title>
<path fill="none" stroke="#1178b2" stroke-width="1.01" d="M601.17,-689.7C613.11,-683.78 625.22,-677.08 636,-669.82 678.38,-641.27 720.53,-600.57 748.56,-571.28"/>
<polygon fill="#1178b2" stroke="#1178b2" stroke-width="1.01" points="751.05,-573.74 755.38,-564.07 745.97,-568.93 751.05,-573.74"/>
<text text-anchor="middle" x="654.18" y="-660.82" font-family="Helvetica,Arial,sans-serif" font-size="10.00">4</text>
</g>
<!-- axon&#45;disruptor&#45;4.10.3\n(level 3/6)&#45;&gt;axon&#45;messaging&#45;4.10.3\n(level 6/6) -->
<g id="edge7" class="edge">
<title>axon&#45;disruptor&#45;4.10.3\n(level 3/6)&#45;&gt;axon&#45;messaging&#45;4.10.3\n(level 6/6)</title>
<path fill="none" stroke="#1178b2" stroke-width="2.23" d="M206.41,-320.25C206.24,-274.2 209.14,-181.36 232,-106.83 235.83,-94.33 241.79,-81.52 247.97,-70.05"/>
<polygon fill="#1178b2" stroke="#1178b2" stroke-width="2.23" points="250.89,-72.01 252.77,-61.58 244.8,-68.56 250.89,-72.01"/>
<text text-anchor="middle" x="222.75" y="-186.66" font-family="Helvetica,Arial,sans-serif" font-size="10.00">188</text>
</g>
<!-- axon&#45;disruptor&#45;4.10.3\n(level 3/6)&#45;&gt;axon&#45;modelling&#45;4.10.3\n(level 5/6) -->
<g id="edge15" class="edge">
<title>axon&#45;disruptor&#45;4.10.3\n(level 3/6)&#45;&gt;axon&#45;modelling&#45;4.10.3\n(level 5/6)</title>
<path fill="none" stroke="#1178b2" stroke-width="1.27" d="M217.65,-320.47C231.38,-286 257.52,-227.14 291,-183.66 293.95,-179.83 297.24,-176.07 300.7,-172.44"/>
<polygon fill="#1178b2" stroke="#1178b2" stroke-width="1.27" points="302.96,-175.13 307.62,-165.62 298.05,-170.15 302.96,-175.13"/>
<text text-anchor="middle" x="275.31" y="-240.08" font-family="Helvetica,Arial,sans-serif" font-size="10.00">42</text>
</g>
<!-- axon&#45;disruptor&#45;4.10.3\n(level 3/6)&#45;&gt;axon&#45;eventsourcing&#45;4.10.3\n(level 4/6) -->
<g id="edge19" class="edge">
<title>axon&#45;disruptor&#45;4.10.3\n(level 3/6)&#45;&gt;axon&#45;eventsourcing&#45;4.10.3\n(level 4/6)</title>
<path fill="none" stroke="#1178b2" stroke-width="1.19" d="M264.07,-325.76C291.47,-314.81 324.83,-301.71 355,-290.49 372.19,-284.1 390.73,-277.47 408.34,-271.29"/>
<polygon fill="#1178b2" stroke="#1178b2" stroke-width="1.19" points="409.48,-274.6 417.77,-268 407.17,-267.99 409.48,-274.6"/>
<text text-anchor="middle" x="360" y="-293.49" font-family="Helvetica,Arial,sans-serif" font-size="10.00">30</text>
</g>
<!-- axon&#45;tracing&#45;opentelemetry&#45;4.10.3\n(level 1/6)&#45;&gt;axon&#45;messaging&#45;4.10.3\n(level 6/6) -->
<g id="edge20" class="edge">
<title>axon&#45;tracing&#45;opentelemetry&#45;4.10.3\n(level 1/6)&#45;&gt;axon&#45;messaging&#45;4.10.3\n(level 6/6)</title>
<path fill="none" stroke="#1178b2" stroke-width="1.15" d="M782.35,-503.79C782.64,-477.8 783,-438.5 783,-404.33 783,-404.33 783,-404.33 783,-135.25 783,-55.19 538.83,-35.73 388.38,-31.34"/>
<polygon fill="#1178b2" stroke="#1178b2" stroke-width="1.15" points="388.65,-27.84 378.56,-31.07 388.46,-34.84 388.65,-27.84"/>
<text text-anchor="middle" x="788" y="-293.49" font-family="Helvetica,Arial,sans-serif" font-size="10.00">24</text>
</g>
</g>
</svg>

