<?xml version="1.0" encoding="UTF-8" standalone="no"?>
<!DOCTYPE svg PUBLIC "-//W3C//DTD SVG 1.1//EN"
 "http://www.w3.org/Graphics/SVG/1.1/DTD/svg11.dtd">
<!-- Generated by graphviz version 14.1.4 (0)
 -->
<!-- Title: ScriptDependencies Pages: 1 -->
<svg width="787pt" height="1024pt"
 viewBox="0.00 0.00 787.00 1024.00" xmlns="http://www.w3.org/2000/svg" xmlns:xlink="http://www.w3.org/1999/xlink">
<g id="graph0" class="graph" transform="scale(1 1) rotate(0) translate(4 1019.6)">
<title>ScriptDependencies</title>
<text xml:space="preserve" text-anchor="middle" x="389.75" y="-1000.8" font-family="Helvetica,sans-Serif" font-size="12.00">Analysis Script Call Dependencies (scripts/analysis/analyze.sh)</text>
<g id="clust1" class="cluster">
<title>cluster_setup</title>
<polygon fill="#f0f8ff" stroke="#4169e1" points="161.66,-760 161.66,-945 467.76,-945 467.76,-760 161.66,-760"/>
<text xml:space="preserve" text-anchor="middle" x="314.71" y="-931.1" font-family="Helvetica,sans-Serif" font-size="11.00">Setup Phase</text>
</g>
<g id="clust2" class="cluster">
<title>cluster_scan</title>
<polygon fill="#f0fff0" stroke="#228b22" points="148.86,-547 148.86,-752 737.88,-752 737.88,-547 148.86,-547"/>
<text xml:space="preserve" text-anchor="middle" x="443.37" y="-738.1" font-family="Helvetica,sans-Serif" font-size="11.00">Scan &amp; Analysis Phase</text>
</g>
<g id="clust3" class="cluster">
<title>cluster_prepare</title>
<polygon fill="#fff8f0" stroke="#ff8c00" points="164.71,-408 164.71,-539 724.53,-539 724.53,-408 164.71,-408"/>
<text xml:space="preserve" text-anchor="middle" x="444.62" y="-525.1" font-family="Helvetica,sans-Serif" font-size="11.00">Prepare Phase</text>
</g>
<g id="clust4" class="cluster">
<title>cluster_reports</title>
<polygon fill="#f0e6ff" stroke="#8b008b" points="180.83,-111 180.83,-350 491.93,-350 491.93,-111 180.83,-111"/>
<text xml:space="preserve" text-anchor="middle" x="336.38" y="-336.1" font-family="Helvetica,sans-Serif" font-size="11.00">Report Generation Phase</text>
</g>
<g id="clust5" class="cluster">
<title>cluster_domains</title>
<polygon fill="#f0e6ff" stroke="#8b008b" points="553.17,-8 553.17,-400 771.5,-400 771.5,-8 553.17,-8"/>
<text xml:space="preserve" text-anchor="middle" x="662.34" y="-386.1" font-family="Helvetica,sans-Serif" font-size="11.00">Domain Report Scripts</text>
<text xml:space="preserve" text-anchor="middle" x="662.34" y="-372.9" font-family="Helvetica,sans-Serif" font-size="11.00">(dynamically discovered &amp; sourced)</text>
</g>
<g id="clust6" class="cluster">
<title>cluster_domain_anomaly</title>
<polygon fill="#e6ccff" stroke="#663399" points="563.17,-118 563.17,-356 761.5,-356 761.5,-118 563.17,-118"/>
<text xml:space="preserve" text-anchor="middle" x="662.34" y="-343" font-family="Helvetica,sans-Serif" font-size="10.00">anomaly&#45;detection (example)</text>
</g>
<!-- analyze -->
<g id="node1" class="node">
<title>analyze</title>
<ellipse fill="#ffd700" stroke="black" cx="60.93" cy="-748" rx="60.93" ry="20.36"/>
<text xml:space="preserve" text-anchor="middle" x="60.93" y="-744.4" font-family="Helvetica,sans-Serif" font-size="12.00">analyze.sh</text>
</g>
<!-- profile -->
<g id="node2" class="node">
<title>profile</title>
<path fill="#e6f3ff" stroke="black" d="M252.1,-993.2C252.1,-993.2 211.17,-993.2 211.17,-993.2 205.17,-993.2 199.17,-987.2 199.17,-981.2 199.17,-981.2 199.17,-966.8 199.17,-966.8 199.17,-960.8 205.17,-954.8 211.17,-954.8 211.17,-954.8 252.1,-954.8 252.1,-954.8 258.1,-954.8 264.1,-960.8 264.1,-966.8 264.1,-966.8 264.1,-981.2 264.1,-981.2 264.1,-987.2 258.1,-993.2 252.1,-993.2"/>
<text xml:space="preserve" text-anchor="middle" x="231.64" y="-977" font-family="Helvetica,sans-Serif" font-size="10.00">Settings</text>
<text xml:space="preserve" text-anchor="middle" x="231.64" y="-965" font-family="Helvetica,sans-Serif" font-size="10.00">Profile</text>
</g>
<!-- analyze&#45;&gt;profile -->
<g id="edge1" class="edge">
<title>analyze&#45;&gt;profile</title>
<path fill="none" stroke="#ffd700" stroke-width="2" d="M65.03,-768.69C72.2,-809.29 93.74,-899.71 148.86,-949 158.72,-957.82 171.63,-963.53 184.27,-967.22"/>
<polygon fill="#ffd700" stroke="#ffd700" stroke-width="2" points="183.19,-971.28 195.83,-970 185.14,-963.11 183.19,-971.28"/>
</g>
<!-- setupNeo4j -->
<g id="node3" class="node">
<title>setupNeo4j</title>
<path fill="#87ceeb" stroke="black" d="M266,-914C266,-914 197.27,-914 197.27,-914 191.27,-914 185.27,-908 185.27,-902 185.27,-902 185.27,-890 185.27,-890 185.27,-884 191.27,-878 197.27,-878 197.27,-878 266,-878 266,-878 272,-878 278,-884 278,-890 278,-890 278,-902 278,-902 278,-908 272,-914 266,-914"/>
<text xml:space="preserve" text-anchor="middle" x="231.64" y="-893" font-family="Helvetica,sans-Serif" font-size="10.00">setupNeo4j.sh</text>
</g>
<!-- analyze&#45;&gt;setupNeo4j -->
<g id="edge2" class="edge">
<title>analyze&#45;&gt;setupNeo4j</title>
<path fill="none" stroke="#4169e1" stroke-width="2" d="M71.34,-768.17C84.84,-794.97 112.17,-842.06 148.86,-869 155.57,-873.93 163.23,-877.99 171.11,-881.33"/>
<polygon fill="#4169e1" stroke="#4169e1" stroke-width="2" points="169.36,-885.16 182.07,-885.39 172.28,-877.28 169.36,-885.16"/>
</g>
<!-- setupJQAssistant -->
<g id="node4" class="node">
<title>setupJQAssistant</title>
<path fill="#87ceeb" stroke="black" d="M279.61,-860C279.61,-860 183.66,-860 183.66,-860 177.66,-860 171.66,-854 171.66,-848 171.66,-848 171.66,-836 171.66,-836 171.66,-830 177.66,-824 183.66,-824 183.66,-824 279.61,-824 279.61,-824 285.61,-824 291.61,-830 291.61,-836 291.61,-836 291.61,-848 291.61,-848 291.61,-854 285.61,-860 279.61,-860"/>
<text xml:space="preserve" text-anchor="middle" x="231.64" y="-839" font-family="Helvetica,sans-Serif" font-size="10.00">setupJQAssistant.sh</text>
</g>
<!-- analyze&#45;&gt;setupJQAssistant -->
<g id="edge3" class="edge">
<title>analyze&#45;&gt;setupJQAssistant</title>
<path fill="none" stroke="#4169e1" stroke-width="2" d="M82.68,-767.26C99.47,-782 124.29,-801.96 148.86,-815 151.76,-816.54 154.76,-818.01 157.83,-819.42"/>
<polygon fill="#4169e1" stroke="#4169e1" stroke-width="2" points="156.08,-823.24 168.77,-824 159.32,-815.49 156.08,-823.24"/>
</g>
<!-- startNeo4j -->
<g id="node5" class="node">
<title>startNeo4j</title>
<path fill="#87ceeb" stroke="black" d="M263.49,-806C263.49,-806 199.78,-806 199.78,-806 193.78,-806 187.78,-800 187.78,-794 187.78,-794 187.78,-782 187.78,-782 187.78,-776 193.78,-770 199.78,-770 199.78,-770 263.49,-770 263.49,-770 269.49,-770 275.49,-776 275.49,-782 275.49,-782 275.49,-794 275.49,-794 275.49,-800 269.49,-806 263.49,-806"/>
<text xml:space="preserve" text-anchor="middle" x="231.64" y="-785" font-family="Helvetica,sans-Serif" font-size="10.00">startNeo4j.sh</text>
</g>
<!-- analyze&#45;&gt;startNeo4j -->
<g id="edge4" class="edge">
<title>analyze&#45;&gt;startNeo4j</title>
<path fill="none" stroke="#4169e1" stroke-width="2" d="M111.18,-759.68C130.5,-764.26 152.8,-769.54 172.87,-774.3"/>
<polygon fill="#4169e1" stroke="#4169e1" stroke-width="2" points="171.76,-778.36 184.4,-777.04 173.69,-770.18 171.76,-778.36"/>
</g>
<!-- resetAndScanChanged -->
<g id="node7" class="node">
<title>resetAndScanChanged</title>
<path fill="#90ee90" stroke="black" d="M292.41,-701C292.41,-701 170.86,-701 170.86,-701 164.86,-701 158.86,-695 158.86,-689 158.86,-689 158.86,-677 158.86,-677 158.86,-671 164.86,-665 170.86,-665 170.86,-665 292.41,-665 292.41,-665 298.41,-665 304.41,-671 304.41,-677 304.41,-677 304.41,-689 304.41,-689 304.41,-695 298.41,-701 292.41,-701"/>
<text xml:space="preserve" text-anchor="middle" x="231.64" y="-680" font-family="Helvetica,sans-Serif" font-size="10.00">resetAndScanChanged.sh</text>
</g>
<!-- analyze&#45;&gt;resetAndScanChanged -->
<g id="edge5" class="edge">
<title>analyze&#45;&gt;resetAndScanChanged</title>
<path fill="none" stroke="#228b22" stroke-width="2" d="M101.91,-732.6C121.91,-724.89 146.56,-715.39 168.91,-706.78"/>
<polygon fill="#228b22" stroke="#228b22" stroke-width="2" points="170.33,-710.74 180.01,-702.5 167.31,-702.9 170.33,-710.74"/>
</g>
<!-- prepareAnalysis -->
<g id="node13" class="node">
<title>prepareAnalysis</title>
<path fill="#ffb6c1" stroke="black" d="M276.56,-508C276.56,-508 186.71,-508 186.71,-508 180.71,-508 174.71,-502 174.71,-496 174.71,-496 174.71,-484 174.71,-484 174.71,-478 180.71,-472 186.71,-472 186.71,-472 276.56,-472 276.56,-472 282.56,-472 288.56,-478 288.56,-484 288.56,-484 288.56,-496 288.56,-496 288.56,-502 282.56,-508 276.56,-508"/>
<text xml:space="preserve" text-anchor="middle" x="231.64" y="-487" font-family="Helvetica,sans-Serif" font-size="10.00">prepareAnalysis.sh</text>
</g>
<!-- analyze&#45;&gt;prepareAnalysis -->
<g id="edge6" class="edge">
<title>analyze&#45;&gt;prepareAnalysis</title>
<path fill="none" stroke="#ff8c00" stroke-width="2" d="M66.42,-727.25C75.84,-687.64 100.89,-600.14 148.86,-543 157.48,-532.74 168.59,-523.75 179.83,-516.24"/>
<polygon fill="#ff8c00" stroke="#ff8c00" stroke-width="2" points="181.9,-519.89 189.87,-509.99 177.46,-512.76 181.9,-519.89"/>
</g>
<!-- reportCompilation -->
<g id="node17" class="node">
<title>reportCompilation</title>
<path fill="#dda0dd" stroke="black" d="M260.44,-266.2C260.44,-266.2 202.83,-266.2 202.83,-266.2 196.83,-266.2 190.83,-260.2 190.83,-254.2 190.83,-254.2 190.83,-239.8 190.83,-239.8 190.83,-233.8 196.83,-227.8 202.83,-227.8 202.83,-227.8 260.44,-227.8 260.44,-227.8 266.44,-227.8 272.44,-233.8 272.44,-239.8 272.44,-239.8 272.44,-254.2 272.44,-254.2 272.44,-260.2 266.44,-266.2 260.44,-266.2"/>
<text xml:space="preserve" text-anchor="middle" x="231.64" y="-250" font-family="Helvetica,sans-Serif" font-size="10.00">Report</text>
<text xml:space="preserve" text-anchor="middle" x="231.64" y="-238" font-family="Helvetica,sans-Serif" font-size="10.00">Compilation</text>
</g>
<!-- analyze&#45;&gt;reportCompilation -->
<g id="edge7" class="edge">
<title>analyze&#45;&gt;reportCompilation</title>
<path fill="none" stroke="#8b008b" stroke-width="2" d="M65.42,-727.33C74.93,-673.07 103.7,-522.59 148.86,-404 166.01,-358.97 192.83,-310.2 211.04,-279.17"/>
<polygon fill="#8b008b" stroke="#8b008b" stroke-width="2" points="214.43,-281.69 216.95,-269.23 207.21,-277.4 214.43,-281.69"/>
</g>
<!-- stopNeo4j -->
<g id="node22" class="node">
<title>stopNeo4j</title>
<path fill="#ffb6c6" stroke="black" d="M263.22,-101C263.22,-101 200.05,-101 200.05,-101 194.05,-101 188.05,-95 188.05,-89 188.05,-89 188.05,-77 188.05,-77 188.05,-71 194.05,-65 200.05,-65 200.05,-65 263.22,-65 263.22,-65 269.22,-65 275.22,-71 275.22,-77 275.22,-77 275.22,-89 275.22,-89 275.22,-95 269.22,-101 263.22,-101"/>
<text xml:space="preserve" text-anchor="middle" x="231.64" y="-80" font-family="Helvetica,sans-Serif" font-size="10.00">stopNeo4j.sh</text>
</g>
<!-- analyze&#45;&gt;stopNeo4j -->
<g id="edge8" class="edge">
<title>analyze&#45;&gt;stopNeo4j</title>
<path fill="none" stroke="#ff6b9d" stroke-width="2" d="M61.82,-727.29C61.73,-628.18 66.23,-203.13 148.86,-107 155.41,-99.39 164.23,-94.12 173.66,-90.5"/>
<polygon fill="#ff6b9d" stroke="#ff6b9d" stroke-width="2" points="174.53,-94.62 184.82,-87.15 172.12,-86.58 174.53,-94.62"/>
</g>
<!-- download -->
<g id="node6" class="node">
<title>download</title>
<path fill="#add8e6" stroke="black" d="M445.76,-860C445.76,-860 384.81,-860 384.81,-860 378.81,-860 372.81,-854 372.81,-848 372.81,-848 372.81,-836 372.81,-836 372.81,-830 378.81,-824 384.81,-824 384.81,-824 445.76,-824 445.76,-824 451.76,-824 457.76,-830 457.76,-836 457.76,-836 457.76,-848 457.76,-848 457.76,-854 451.76,-860 445.76,-860"/>
<text xml:space="preserve" text-anchor="middle" x="415.28" y="-839" font-family="Helvetica,sans-Serif" font-size="10.00">download.sh</text>
</g>
<!-- setupJQAssistant&#45;&gt;download -->
<g id="edge9" class="edge">
<title>setupJQAssistant&#45;&gt;download</title>
<path fill="none" stroke="#333333" stroke-width="1.5" d="M291.86,-842C313.23,-842 337.26,-842 358.34,-842"/>
<polygon fill="#333333" stroke="#333333" stroke-width="1.5" points="358.12,-846.2 370.12,-842 358.12,-837.8 358.12,-846.2"/>
</g>
<!-- scanTypescript -->
<g id="node8" class="node">
<title>scanTypescript</title>
<path fill="#7cfc00" stroke="black" d="M457.98,-647C457.98,-647 372.59,-647 372.59,-647 366.59,-647 360.59,-641 360.59,-635 360.59,-635 360.59,-623 360.59,-623 360.59,-617 366.59,-611 372.59,-611 372.59,-611 457.98,-611 457.98,-611 463.98,-611 469.98,-617 469.98,-623 469.98,-623 469.98,-635 469.98,-635 469.98,-641 463.98,-647 457.98,-647"/>
<text xml:space="preserve" text-anchor="middle" x="415.28" y="-626" font-family="Helvetica,sans-Serif" font-size="10.00">scanTypescript.sh</text>
</g>
<!-- resetAndScanChanged&#45;&gt;scanTypescript -->
<g id="edge10" class="edge">
<title>resetAndScanChanged&#45;&gt;scanTypescript</title>
<path fill="none" stroke="#333333" stroke-width="1.5" d="M294.64,-664.57C311.35,-659.6 329.5,-654.2 346.5,-649.15"/>
<polygon fill="#333333" stroke="#333333" stroke-width="1.5" points="347.66,-653.19 357.97,-645.74 345.27,-645.13 347.66,-653.19"/>
</g>
<!-- findPathsToScan -->
<g id="node9" class="node">
<title>findPathsToScan</title>
<path fill="#90ee90" stroke="black" d="M462.43,-701C462.43,-701 368.14,-701 368.14,-701 362.14,-701 356.14,-695 356.14,-689 356.14,-689 356.14,-677 356.14,-677 356.14,-671 362.14,-665 368.14,-665 368.14,-665 462.43,-665 462.43,-665 468.43,-665 474.43,-671 474.43,-677 474.43,-677 474.43,-689 474.43,-689 474.43,-695 468.43,-701 462.43,-701"/>
<text xml:space="preserve" text-anchor="middle" x="415.28" y="-680" font-family="Helvetica,sans-Serif" font-size="10.00">findPathsToScan.sh</text>
</g>
<!-- resetAndScanChanged&#45;&gt;findPathsToScan -->
<g id="edge11" class="edge">
<title>resetAndScanChanged&#45;&gt;findPathsToScan</title>
<path fill="none" stroke="#333333" stroke-width="1.5" d="M304.69,-683C316.86,-683 329.51,-683 341.7,-683"/>
<polygon fill="#333333" stroke="#333333" stroke-width="1.5" points="341.47,-687.2 353.47,-683 341.47,-678.8 341.47,-687.2"/>
</g>
<!-- detectChangedFiles -->
<g id="node10" class="node">
<title>detectChangedFiles</title>
<path fill="#98fb98" stroke="black" d="M715.88,-684C715.88,-684 608.79,-684 608.79,-684 602.79,-684 596.79,-678 596.79,-672 596.79,-672 596.79,-660 596.79,-660 596.79,-654 602.79,-648 608.79,-648 608.79,-648 715.88,-648 715.88,-648 721.88,-648 727.88,-654 727.88,-660 727.88,-660 727.88,-672 727.88,-672 727.88,-678 721.88,-684 715.88,-684"/>
<text xml:space="preserve" text-anchor="middle" x="662.34" y="-663" font-family="Helvetica,sans-Serif" font-size="10.00">detectChangedFiles.sh</text>
</g>
<!-- resetAndScanChanged&#45;&gt;detectChangedFiles -->
<g id="edge12" class="edge">
<title>resetAndScanChanged&#45;&gt;detectChangedFiles</title>
<path fill="none" stroke="#333333" stroke-width="1.5" d="M295.99,-701.47C310.77,-705.01 326.54,-708.18 341.41,-710 407.81,-718.12 425.57,-718.48 491.93,-710 525.26,-705.74 561.4,-696.96 591.7,-688.34"/>
<polygon fill="#333333" stroke="#333333" stroke-width="1.5" points="592.66,-692.44 603.01,-685.05 590.31,-684.38 592.66,-692.44"/>
</g>
<!-- resetAndScan -->
<g id="node11" class="node">
<title>resetAndScan</title>
<path fill="#90ee90" stroke="black" d="M455.76,-593C455.76,-593 374.81,-593 374.81,-593 368.81,-593 362.81,-587 362.81,-581 362.81,-581 362.81,-569 362.81,-569 362.81,-563 368.81,-557 374.81,-557 374.81,-557 455.76,-557 455.76,-557 461.76,-557 467.76,-563 467.76,-569 467.76,-569 467.76,-581 467.76,-581 467.76,-587 461.76,-593 455.76,-593"/>
<text xml:space="preserve" text-anchor="middle" x="415.28" y="-572" font-family="Helvetica,sans-Serif" font-size="10.00">resetAndScan.sh</text>
</g>
<!-- resetAndScanChanged&#45;&gt;resetAndScan -->
<g id="edge13" class="edge">
<title>resetAndScanChanged&#45;&gt;resetAndScan</title>
<path fill="none" stroke="#333333" stroke-width="1.5" d="M253.48,-664.62C274.52,-646.78 308.51,-619.86 341.41,-602 344.11,-600.54 346.9,-599.12 349.75,-597.75"/>
<polygon fill="#333333" stroke="#333333" stroke-width="1.5" points="351.17,-601.72 360.43,-593.01 347.76,-594.04 351.17,-601.72"/>
</g>
<!-- scanTypescript&#45;&gt;detectChangedFiles -->
<g id="edge14" class="edge">
<title>scanTypescript&#45;&gt;detectChangedFiles</title>
<path fill="none" stroke="#333333" stroke-width="1.5" stroke-dasharray="5,2" d="M470.37,-637.17C503.36,-642.15 546.11,-648.6 582.79,-654.14"/>
<polygon fill="#333333" stroke="#333333" stroke-width="1.5" points="581.78,-658.24 594.27,-655.87 583.03,-649.93 581.78,-658.24"/>
</g>
<!-- importGit -->
<g id="node12" class="node">
<title>importGit</title>
<path fill="#9acd32" stroke="black" d="M691.69,-593C691.69,-593 632.99,-593 632.99,-593 626.99,-593 620.99,-587 620.99,-581 620.99,-581 620.99,-569 620.99,-569 620.99,-563 626.99,-557 632.99,-557 632.99,-557 691.69,-557 691.69,-557 697.69,-557 703.69,-563 703.69,-569 703.69,-569 703.69,-581 703.69,-581 703.69,-587 697.69,-593 691.69,-593"/>
<text xml:space="preserve" text-anchor="middle" x="662.34" y="-572" font-family="Helvetica,sans-Serif" font-size="10.00">importGit.sh</text>
</g>
<!-- resetAndScan&#45;&gt;importGit -->
<g id="edge15" class="edge">
<title>resetAndScan&#45;&gt;importGit</title>
<path fill="none" stroke="#333333" stroke-width="1.5" d="M468.25,-575C508.88,-575 565.22,-575 606.55,-575"/>
<polygon fill="#333333" stroke="#333333" stroke-width="1.5" points="606.5,-579.2 618.5,-575 606.5,-570.8 606.5,-579.2"/>
</g>
<!-- executeQueryFunctions -->
<g id="node14" class="node">
<title>executeQueryFunctions</title>
<path fill="#ffe4c4" stroke="black" d="M477.16,-508C477.16,-508 353.41,-508 353.41,-508 347.41,-508 341.41,-502 341.41,-496 341.41,-496 341.41,-484 341.41,-484 341.41,-478 347.41,-472 353.41,-472 353.41,-472 477.16,-472 477.16,-472 483.16,-472 489.16,-478 489.16,-484 489.16,-484 489.16,-496 489.16,-496 489.16,-502 483.16,-508 477.16,-508"/>
<text xml:space="preserve" text-anchor="middle" x="415.28" y="-487" font-family="Helvetica,sans-Serif" font-size="10.00">executeQueryFunctions.sh</text>
</g>
<!-- prepareAnalysis&#45;&gt;executeQueryFunctions -->
<g id="edge16" class="edge">
<title>prepareAnalysis&#45;&gt;executeQueryFunctions</title>
<path fill="none" stroke="#333333" stroke-width="1.5" d="M288.62,-490C300.79,-490 313.95,-490 327.01,-490"/>
<polygon fill="#333333" stroke="#333333" stroke-width="1.5" points="326.81,-494.2 338.81,-490 326.81,-485.8 326.81,-494.2"/>
</g>
<!-- parseCsvFunctions -->
<g id="node16" class="node">
<title>parseCsvFunctions</title>
<path fill="#ffe4c4" stroke="black" d="M467.15,-454C467.15,-454 363.42,-454 363.42,-454 357.42,-454 351.42,-448 351.42,-442 351.42,-442 351.42,-430 351.42,-430 351.42,-424 357.42,-418 363.42,-418 363.42,-418 467.15,-418 467.15,-418 473.15,-418 479.15,-424 479.15,-430 479.15,-430 479.15,-442 479.15,-442 479.15,-448 473.15,-454 467.15,-454"/>
<text xml:space="preserve" text-anchor="middle" x="415.28" y="-433" font-family="Helvetica,sans-Serif" font-size="10.00">parseCsvFunctions.sh</text>
</g>
<!-- prepareAnalysis&#45;&gt;parseCsvFunctions -->
<g id="edge17" class="edge">
<title>prepareAnalysis&#45;&gt;parseCsvFunctions</title>
<path fill="none" stroke="#333333" stroke-width="1.5" d="M288.62,-473.36C304.49,-468.64 322.04,-463.42 338.87,-458.42"/>
<polygon fill="#333333" stroke="#333333" stroke-width="1.5" points="339.67,-462.56 349.98,-455.12 337.28,-454.51 339.67,-462.56"/>
</g>
<!-- executeQuery -->
<g id="node15" class="node">
<title>executeQuery</title>
<path fill="#ffdab9" stroke="black" d="M702.53,-508C702.53,-508 622.14,-508 622.14,-508 616.14,-508 610.14,-502 610.14,-496 610.14,-496 610.14,-484 610.14,-484 610.14,-478 616.14,-472 622.14,-472 622.14,-472 702.53,-472 702.53,-472 708.53,-472 714.53,-478 714.53,-484 714.53,-484 714.53,-496 714.53,-496 714.53,-502 708.53,-508 702.53,-508"/>
<text xml:space="preserve" text-anchor="middle" x="662.34" y="-487" font-family="Helvetica,sans-Serif" font-size="10.00">executeQuery.sh</text>
</g>
<!-- executeQueryFunctions&#45;&gt;executeQuery -->
<g id="edge18" class="edge">
<title>executeQueryFunctions&#45;&gt;executeQuery</title>
<path fill="none" stroke="#333333" stroke-width="1.5" d="M489.48,-490C523.26,-490 563.05,-490 595.83,-490"/>
<polygon fill="#333333" stroke="#333333" stroke-width="1.5" points="595.61,-494.2 607.61,-490 595.61,-485.8 595.61,-494.2"/>
</g>
<!-- csvReports -->
<g id="node18" class="node">
<title>csvReports</title>
<path fill="#ee82ee" stroke="black" d="M450.47,-265C450.47,-265 380.1,-265 380.1,-265 374.1,-265 368.1,-259 368.1,-253 368.1,-253 368.1,-241 368.1,-241 368.1,-235 374.1,-229 380.1,-229 380.1,-229 450.47,-229 450.47,-229 456.47,-229 462.47,-235 462.47,-241 462.47,-241 462.47,-253 462.47,-253 462.47,-259 456.47,-265 450.47,-265"/>
<text xml:space="preserve" text-anchor="middle" x="415.28" y="-244" font-family="Helvetica,sans-Serif" font-size="10.00">CsvReports.sh</text>
</g>
<!-- reportCompilation&#45;&gt;csvReports -->
<g id="edge19" class="edge">
<title>reportCompilation&#45;&gt;csvReports</title>
<path fill="none" stroke="#333333" stroke-width="1.5" d="M272.5,-247C296.31,-247 327.04,-247 353.79,-247"/>
<polygon fill="#333333" stroke="#333333" stroke-width="1.5" points="353.5,-251.2 365.5,-247 353.5,-242.8 353.5,-251.2"/>
</g>
<!-- pythonReports -->
<g id="node19" class="node">
<title>pythonReports</title>
<path fill="#dda0dd" stroke="black" d="M457.43,-319C457.43,-319 373.14,-319 373.14,-319 367.14,-319 361.14,-313 361.14,-307 361.14,-307 361.14,-295 361.14,-295 361.14,-289 367.14,-283 373.14,-283 373.14,-283 457.43,-283 457.43,-283 463.43,-283 469.43,-289 469.43,-295 469.43,-295 469.43,-307 469.43,-307 469.43,-313 463.43,-319 457.43,-319"/>
<text xml:space="preserve" text-anchor="middle" x="415.28" y="-298" font-family="Helvetica,sans-Serif" font-size="10.00">PythonReports.sh</text>
</g>
<!-- reportCompilation&#45;&gt;pythonReports -->
<g id="edge20" class="edge">
<title>reportCompilation&#45;&gt;pythonReports</title>
<path fill="none" stroke="#333333" stroke-width="1.5" d="M272.5,-258.85C294.35,-265.35 322.03,-273.57 347.11,-281.03"/>
<polygon fill="#333333" stroke="#333333" stroke-width="1.5" points="345.85,-285.04 358.55,-284.43 348.25,-276.99 345.85,-285.04"/>
</g>
<!-- visualizationReports -->
<g id="node20" class="node">
<title>visualizationReports</title>
<path fill="#da70d6" stroke="black" d="M469.93,-211C469.93,-211 360.64,-211 360.64,-211 354.64,-211 348.64,-205 348.64,-199 348.64,-199 348.64,-187 348.64,-187 348.64,-181 354.64,-175 360.64,-175 360.64,-175 469.93,-175 469.93,-175 475.93,-175 481.93,-181 481.93,-187 481.93,-187 481.93,-199 481.93,-199 481.93,-205 475.93,-211 469.93,-211"/>
<text xml:space="preserve" text-anchor="middle" x="415.28" y="-190" font-family="Helvetica,sans-Serif" font-size="10.00">VisualizationReports.sh</text>
</g>
<!-- reportCompilation&#45;&gt;visualizationReports -->
<g id="edge21" class="edge">
<title>reportCompilation&#45;&gt;visualizationReports</title>
<path fill="none" stroke="#333333" stroke-width="1.5" d="M272.5,-235.15C291.96,-229.36 316.04,-222.2 338.8,-215.44"/>
<polygon fill="#333333" stroke="#333333" stroke-width="1.5" points="339.89,-219.5 350.2,-212.05 337.5,-211.44 339.89,-219.5"/>
</g>
<!-- markdownReports -->
<g id="node21" class="node">
<title>markdownReports</title>
<path fill="#ee82ee" stroke="black" d="M464.93,-157C464.93,-157 365.64,-157 365.64,-157 359.64,-157 353.64,-151 353.64,-145 353.64,-145 353.64,-133 353.64,-133 353.64,-127 359.64,-121 365.64,-121 365.64,-121 464.93,-121 464.93,-121 470.93,-121 476.93,-127 476.93,-133 476.93,-133 476.93,-145 476.93,-145 476.93,-151 470.93,-157 464.93,-157"/>
<text xml:space="preserve" text-anchor="middle" x="415.28" y="-136" font-family="Helvetica,sans-Serif" font-size="10.00">MarkdownReports.sh</text>
</g>
<!-- reportCompilation&#45;&gt;markdownReports -->
<g id="edge22" class="edge">
<title>reportCompilation&#45;&gt;markdownReports</title>
<path fill="none" stroke="#333333" stroke-width="1.5" d="M254.69,-227.6C275.8,-209.77 309.13,-183.53 341.41,-166 343.1,-165.08 344.83,-164.18 346.58,-163.3"/>
<polygon fill="#333333" stroke="#333333" stroke-width="1.5" points="348.21,-167.18 357.35,-158.34 344.69,-159.55 348.21,-167.18"/>
</g>
<!-- anomalyCsv -->
<g id="node23" class="node">
<title>anomalyCsv</title>
<path fill="#dda0dd" stroke="black" d="M720.04,-272C720.04,-272 604.63,-272 604.63,-272 598.63,-272 592.63,-266 592.63,-260 592.63,-260 592.63,-248 592.63,-248 592.63,-242 598.63,-236 604.63,-236 604.63,-236 720.04,-236 720.04,-236 726.04,-236 732.04,-242 732.04,-248 732.04,-248 732.04,-260 732.04,-260 732.04,-266 726.04,-272 720.04,-272"/>
<text xml:space="preserve" text-anchor="middle" x="662.34" y="-251" font-family="Helvetica,sans-Serif" font-size="10.00">anomalyDetectionCsv.sh</text>
</g>
<!-- csvReports&#45;&gt;anomalyCsv -->
<g id="edge23" class="edge">
<title>csvReports&#45;&gt;anomalyCsv</title>
<path fill="none" stroke="#8b008b" stroke-width="1.5" stroke-dasharray="5,2" d="M462.95,-248.33C495.53,-249.26 539.91,-250.53 578.43,-251.63"/>
<polygon fill="#8b008b" stroke="#8b008b" stroke-width="1.5" points="578.21,-255.83 590.33,-251.97 578.45,-247.43 578.21,-255.83"/>
<text xml:space="preserve" text-anchor="middle" x="526.17" y="-264" font-family="Helvetica,sans-Serif" font-size="9.00">dynamic</text>
<text xml:space="preserve" text-anchor="middle" x="526.17" y="-253.2" font-family="Helvetica,sans-Serif" font-size="9.00">discovery</text>
</g>
<!-- moreDomains -->
<g id="node27" class="node">
<title>moreDomains</title>
<polygon fill="#e6d9ff" stroke="black" points="717.52,-108 601.15,-108 601.15,-18 723.52,-18 723.52,-102 717.52,-108"/>
<polyline fill="none" stroke="black" points="717.52,-108 717.52,-102"/>
<polyline fill="none" stroke="black" points="723.52,-102 717.52,-102"/>
<text xml:space="preserve" text-anchor="middle" x="662.34" y="-92.7" font-family="Helvetica,sans-Serif" font-size="9.00">... other domains</text>
<text xml:space="preserve" text-anchor="middle" x="662.34" y="-81.9" font-family="Helvetica,sans-Serif" font-size="9.00">(git&#45;history, archetypes,</text>
<text xml:space="preserve" text-anchor="middle" x="662.34" y="-71.1" font-family="Helvetica,sans-Serif" font-size="9.00">external&#45;dependencies,</text>
<text xml:space="preserve" text-anchor="middle" x="662.34" y="-60.3" font-family="Helvetica,sans-Serif" font-size="9.00">internal&#45;dependencies,</text>
<text xml:space="preserve" text-anchor="middle" x="662.34" y="-49.5" font-family="Helvetica,sans-Serif" font-size="9.00">cyclic&#45;dependencies,</text>
<text xml:space="preserve" text-anchor="middle" x="662.34" y="-38.7" font-family="Helvetica,sans-Serif" font-size="9.00">node&#45;embeddings,</text>
<text xml:space="preserve" text-anchor="middle" x="662.34" y="-27.9" font-family="Helvetica,sans-Serif" font-size="9.00">graph&#45;algorithms, etc.)</text>
</g>
<!-- csvReports&#45;&gt;moreDomains -->
<g id="edge24" class="edge">
<title>csvReports&#45;&gt;moreDomains</title>
<path fill="none" stroke="#9966bb" stroke-width="1.5" stroke-dasharray="1,5" d="M462.76,-236.4C473.15,-232.48 483.56,-227.16 491.93,-220 502.7,-210.79 500.18,-204.32 507.16,-192 527,-156.98 523.43,-141.12 553.17,-114 563.41,-104.66 575.67,-96.73 588.19,-90.1"/>
<polygon fill="#9966bb" stroke="#9966bb" stroke-width="1.5" points="589.8,-93.99 598.7,-84.91 586.08,-86.46 589.8,-93.99"/>
</g>
<!-- anomalyPython -->
<g id="node24" class="node">
<title>anomalyPython</title>
<path fill="#ee82ee" stroke="black" d="M726.99,-326C726.99,-326 597.68,-326 597.68,-326 591.68,-326 585.68,-320 585.68,-314 585.68,-314 585.68,-302 585.68,-302 585.68,-296 591.68,-290 597.68,-290 597.68,-290 726.99,-290 726.99,-290 732.99,-290 738.99,-296 738.99,-302 738.99,-302 738.99,-314 738.99,-314 738.99,-320 732.99,-326 726.99,-326"/>
<text xml:space="preserve" text-anchor="middle" x="662.34" y="-305" font-family="Helvetica,sans-Serif" font-size="10.00">anomalyDetectionPython.sh</text>
</g>
<!-- pythonReports&#45;&gt;anomalyPython -->
<g id="edge25" class="edge">
<title>pythonReports&#45;&gt;anomalyPython</title>
<path fill="none" stroke="#8b008b" stroke-width="1.5" stroke-dasharray="5,2" d="M469.76,-302.53C499.47,-303.38 537.21,-304.45 571.33,-305.43"/>
<polygon fill="#8b008b" stroke="#8b008b" stroke-width="1.5" points="570.81,-309.62 582.93,-305.76 571.05,-301.22 570.81,-309.62"/>
<text xml:space="preserve" text-anchor="middle" x="526.17" y="-318" font-family="Helvetica,sans-Serif" font-size="9.00">find</text>
<text xml:space="preserve" text-anchor="middle" x="526.17" y="-307.2" font-family="Helvetica,sans-Serif" font-size="9.00">*.sh</text>
</g>
<!-- pythonReports&#45;&gt;moreDomains -->
<g id="edge26" class="edge">
<title>pythonReports&#45;&gt;moreDomains</title>
<path fill="none" stroke="#9966bb" stroke-width="1.5" stroke-dasharray="1,5" d="M469.67,-300.48C496.56,-297.21 527.19,-288.28 545.17,-266 566.42,-239.68 534.31,-142.08 553.17,-114 561.72,-101.27 574.35,-91.63 587.98,-84.38"/>
<polygon fill="#9966bb" stroke="#9966bb" stroke-width="1.5" points="589.6,-88.26 598.65,-79.33 586.01,-80.66 589.6,-88.26"/>
</g>
<!-- anomalyVisualization -->
<g id="node25" class="node">
<title>anomalyVisualization</title>
<path fill="#da70d6" stroke="black" d="M739.5,-218C739.5,-218 585.17,-218 585.17,-218 579.17,-218 573.17,-212 573.17,-206 573.17,-206 573.17,-194 573.17,-194 573.17,-188 579.17,-182 585.17,-182 585.17,-182 739.5,-182 739.5,-182 745.5,-182 751.5,-188 751.5,-194 751.5,-194 751.5,-206 751.5,-206 751.5,-212 745.5,-218 739.5,-218"/>
<text xml:space="preserve" text-anchor="middle" x="662.34" y="-197" font-family="Helvetica,sans-Serif" font-size="10.00">anomalyDetectionVisualization.sh</text>
</g>
<!-- visualizationReports&#45;&gt;anomalyVisualization -->
<g id="edge27" class="edge">
<title>visualizationReports&#45;&gt;anomalyVisualization</title>
<path fill="none" stroke="#8b008b" stroke-width="1.5" stroke-dasharray="5,2" d="M482.28,-194.89C505.84,-195.56 532.97,-196.33 558.88,-197.07"/>
<polygon fill="#8b008b" stroke="#8b008b" stroke-width="1.5" points="558.73,-201.27 570.85,-197.42 558.97,-192.87 558.73,-201.27"/>
<text xml:space="preserve" text-anchor="middle" x="526.17" y="-210" font-family="Helvetica,sans-Serif" font-size="9.00">source</text>
<text xml:space="preserve" text-anchor="middle" x="526.17" y="-199.2" font-family="Helvetica,sans-Serif" font-size="9.00">each</text>
</g>
<!-- visualizationReports&#45;&gt;moreDomains -->
<g id="edge28" class="edge">
<title>visualizationReports&#45;&gt;moreDomains</title>
<path fill="none" stroke="#9966bb" stroke-width="1.5" stroke-dasharray="1,5" d="M482.15,-174.51C485.72,-172.03 489.03,-169.2 491.93,-166 510.7,-145.3 487.61,-124.97 507.16,-105 528.09,-83.62 558.75,-72.8 587.22,-67.44"/>
<polygon fill="#9966bb" stroke="#9966bb" stroke-width="1.5" points="587.56,-71.64 598.73,-65.58 586.22,-63.34 587.56,-71.64"/>
</g>
<!-- anomalyMarkdown -->
<g id="node26" class="node">
<title>anomalyMarkdown</title>
<path fill="#dda0dd" stroke="black" d="M734.49,-164C734.49,-164 590.18,-164 590.18,-164 584.18,-164 578.18,-158 578.18,-152 578.18,-152 578.18,-140 578.18,-140 578.18,-134 584.18,-128 590.18,-128 590.18,-128 734.49,-128 734.49,-128 740.49,-128 746.49,-134 746.49,-140 746.49,-140 746.49,-152 746.49,-152 746.49,-158 740.49,-164 734.49,-164"/>
<text xml:space="preserve" text-anchor="middle" x="662.34" y="-143" font-family="Helvetica,sans-Serif" font-size="10.00">anomalyDetectionMarkdown.sh</text>
</g>
<!-- markdownReports&#45;&gt;anomalyMarkdown -->
<g id="edge29" class="edge">
<title>markdownReports&#45;&gt;anomalyMarkdown</title>
<path fill="none" stroke="#8b008b" stroke-width="1.5" stroke-dasharray="5,2" d="M477.17,-140.74C503.36,-141.49 534.63,-142.38 563.91,-143.22"/>
<polygon fill="#8b008b" stroke="#8b008b" stroke-width="1.5" points="563.7,-147.41 575.82,-143.56 563.94,-139.02 563.7,-147.41"/>
</g>
<!-- markdownReports&#45;&gt;moreDomains -->
<g id="edge30" class="edge">
<title>markdownReports&#45;&gt;moreDomains</title>
<path fill="none" stroke="#9966bb" stroke-width="1.5" stroke-dasharray="1,5" d="M437.02,-120.66C454.45,-106.39 480.69,-87.49 507.16,-78 532.26,-69.01 561.04,-64.73 586.89,-62.86"/>
<polygon fill="#9966bb" stroke="#9966bb" stroke-width="1.5" points="586.9,-67.07 598.64,-62.19 586.42,-58.68 586.9,-67.07"/>
</g>
</g>
</svg>

