<?xml version="1.0" encoding="UTF-8" standalone="no"?>
<!DOCTYPE svg PUBLIC "-//W3C//DTD SVG 1.1//EN"
 "http://www.w3.org/Graphics/SVG/1.1/DTD/svg11.dtd">
<!-- Generated by graphviz version 15.0.0 (20260523.1842)
 -->
<!-- Title: GettingStartedFlow Pages: 1 -->
<svg width="1575pt" height="750pt"
 viewBox="0.00 0.00 1575.00 750.00" xmlns="http://www.w3.org/2000/svg" xmlns:xlink="http://www.w3.org/1999/xlink">
<g id="graph0" class="graph" transform="scale(1 1) rotate(0) translate(4 746.11)">
<title>GettingStartedFlow</title>
<polygon fill="white" stroke="none" points="-4,4 -4,-746.11 1570.88,-746.11 1570.88,4 -4,4"/>
<g id="clust1" class="cluster">
<title>cluster_prerequisites</title>
<path fill="#e3f2fd" stroke="#1976d2" stroke-width="2" d="M42.88,-336.11C42.88,-336.11 143.88,-336.11 143.88,-336.11 149.88,-336.11 155.88,-342.11 155.88,-348.11 155.88,-348.11 155.88,-722.11 155.88,-722.11 155.88,-728.11 149.88,-734.11 143.88,-734.11 143.88,-734.11 42.88,-734.11 42.88,-734.11 36.88,-734.11 30.88,-728.11 30.88,-722.11 30.88,-722.11 30.88,-348.11 30.88,-348.11 30.88,-342.11 36.88,-336.11 42.88,-336.11"/>
<text xml:space="preserve" text-anchor="middle" x="93.38" y="-718.71" font-family="Arial" font-size="12.00">Prerequisites</text>
</g>
<g id="clust2" class="cluster">
<title>cluster_setup</title>
<path fill="#e8f5e9" stroke="#388e3c" stroke-width="2" d="M250.5,-498.11C250.5,-498.11 886.85,-498.11 886.85,-498.11 892.85,-498.11 898.85,-504.11 898.85,-510.11 898.85,-510.11 898.85,-560.11 898.85,-560.11 898.85,-566.11 892.85,-572.11 886.85,-572.11 886.85,-572.11 250.5,-572.11 250.5,-572.11 244.5,-572.11 238.5,-566.11 238.5,-560.11 238.5,-560.11 238.5,-510.11 238.5,-510.11 238.5,-504.11 244.5,-498.11 250.5,-498.11"/>
<text xml:space="preserve" text-anchor="middle" x="568.67" y="-556.71" font-family="Arial" font-size="12.00">Setup Phase</text>
</g>
<g id="clust3" class="cluster">
<title>cluster_prepare</title>
<path fill="#fff3e0" stroke="#f57c00" stroke-width="2" d="M975.85,-390.11C975.85,-390.11 1219.85,-390.11 1219.85,-390.11 1225.85,-390.11 1231.85,-396.11 1231.85,-402.11 1231.85,-402.11 1231.85,-668.11 1231.85,-668.11 1231.85,-674.11 1225.85,-680.11 1219.85,-680.11 1219.85,-680.11 975.85,-680.11 975.85,-680.11 969.85,-680.11 963.85,-674.11 963.85,-668.11 963.85,-668.11 963.85,-402.11 963.85,-402.11 963.85,-396.11 969.85,-390.11 975.85,-390.11"/>
<text xml:space="preserve" text-anchor="middle" x="1097.85" y="-664.71" font-family="Arial" font-size="12.00">Prepare Code Phase</text>
</g>
<g id="clust4" class="cluster">
<title>cluster_analysis</title>
<path fill="#f3e5f5" stroke="#7b1fa2" stroke-width="2" d="M1264.85,-336.11C1264.85,-336.11 1546.88,-336.11 1546.88,-336.11 1552.88,-336.11 1558.88,-342.11 1558.88,-348.11 1558.88,-348.11 1558.88,-722.11 1558.88,-722.11 1558.88,-728.11 1552.88,-734.11 1546.88,-734.11 1546.88,-734.11 1264.85,-734.11 1264.85,-734.11 1258.85,-734.11 1252.85,-728.11 1252.85,-722.11 1252.85,-722.11 1252.85,-348.11 1252.85,-348.11 1252.85,-342.11 1258.85,-336.11 1264.85,-336.11"/>
<text xml:space="preserve" text-anchor="middle" x="1405.87" y="-718.71" font-family="Arial" font-size="12.00">Analysis Phase</text>
</g>
<g id="clust5" class="cluster">
<title>cluster_output</title>
<path fill="#fce4ec" stroke="#c2185b" stroke-width="2" d="M20,-200.11C20,-200.11 425,-200.11 425,-200.11 431,-200.11 437,-206.11 437,-212.11 437,-212.11 437,-316.11 437,-316.11 437,-322.11 431,-328.11 425,-328.11 425,-328.11 20,-328.11 20,-328.11 14,-328.11 8,-322.11 8,-316.11 8,-316.11 8,-212.11 8,-212.11 8,-206.11 14,-200.11 20,-200.11"/>
<text xml:space="preserve" text-anchor="middle" x="222.5" y="-312.71" font-family="Arial" font-size="12.00">Access Results</text>
</g>
<!-- neo4j -->
<g id="node1" class="node">
<title>neo4j</title>
<polygon fill="#4a90e2" stroke="black" points="120.38,-704.11 66.38,-704.11 66.38,-668.11 120.38,-668.11 120.38,-704.11"/>
<text xml:space="preserve" text-anchor="middle" x="93.38" y="-682.41" font-family="Arial" font-size="11.00" fill="white">Neo4j</text>
</g>
<!-- neo4j_password -->
<g id="node8" class="node">
<title>neo4j_password</title>
<polygon fill="#66bb6a" stroke="black" points="446.25,-542.11 246.5,-542.11 246.5,-506.11 446.25,-506.11 446.25,-542.11"/>
<text xml:space="preserve" text-anchor="middle" x="346.38" y="-520.41" font-family="Arial" font-size="11.00" fill="white">Export NEO4J_INITIAL_PASSWORD</text>
</g>
<!-- neo4j&#45;&gt;neo4j_password -->
<g id="edge1" class="edge">
<title>neo4j&#45;&gt;neo4j_password</title>
<path fill="none" stroke="#333333" d="M120.71,-679.07C135.85,-674.47 154.94,-667.72 170.75,-659.11 227.27,-628.31 284.81,-579.8 317.69,-550.08"/>
<polygon fill="#333333" stroke="#333333" points="319.75,-552.94 324.78,-543.61 315.03,-547.77 319.75,-552.94"/>
<text xml:space="preserve" text-anchor="middle" x="208.62" y="-649.62" font-family="Arial" font-size="10.00">check</text>
</g>
<!-- java -->
<g id="node2" class="node">
<title>java</title>
<polygon fill="#4a90e2" stroke="black" points="120.38,-650.11 66.38,-650.11 66.38,-614.11 120.38,-614.11 120.38,-650.11"/>
<text xml:space="preserve" text-anchor="middle" x="93.38" y="-628.41" font-family="Arial" font-size="11.00" fill="white">Java</text>
</g>
<!-- java&#45;&gt;neo4j_password -->
<g id="edge2" class="edge">
<title>java&#45;&gt;neo4j_password</title>
<path fill="none" stroke="#333333" d="M120.76,-623.47C135.58,-618.44 154.34,-611.8 170.75,-605.11 214.5,-587.27 263.19,-564.43 298.01,-547.56"/>
<polygon fill="#333333" stroke="#333333" points="299.53,-550.71 306.99,-543.19 296.47,-544.42 299.53,-550.71"/>
<text xml:space="preserve" text-anchor="middle" x="208.62" y="-599.58" font-family="Arial" font-size="10.00">check</text>
</g>
<!-- jqassistant -->
<g id="node3" class="node">
<title>jqassistant</title>
<polygon fill="#4a90e2" stroke="black" points="128.38,-596.11 58.38,-596.11 58.38,-560.11 128.38,-560.11 128.38,-596.11"/>
<text xml:space="preserve" text-anchor="middle" x="93.38" y="-574.41" font-family="Arial" font-size="11.00" fill="white">jQAssistant</text>
</g>
<!-- jqassistant&#45;&gt;neo4j_password -->
<g id="edge3" class="edge">
<title>jqassistant&#45;&gt;neo4j_password</title>
<path fill="none" stroke="#333333" d="M128.75,-570.71C159.56,-564.08 206.27,-554.03 248.44,-544.96"/>
<polygon fill="#333333" stroke="#333333" points="249.1,-548.4 258.14,-542.88 247.63,-541.56 249.1,-548.4"/>
<text xml:space="preserve" text-anchor="middle" x="208.62" y="-560.03" font-family="Arial" font-size="10.00">check</text>
</g>
<!-- bash -->
<g id="node4" class="node">
<title>bash</title>
<polygon fill="#4a90e2" stroke="black" points="127.25,-542.11 59.5,-542.11 59.5,-506.11 127.25,-506.11 127.25,-542.11"/>
<text xml:space="preserve" text-anchor="middle" x="93.38" y="-520.41" font-family="Arial" font-size="11.00" fill="white">Bash Shell</text>
</g>
<!-- bash&#45;&gt;neo4j_password -->
<g id="edge4" class="edge">
<title>bash&#45;&gt;neo4j_password</title>
<path fill="none" stroke="#333333" d="M127.71,-524.11C155.26,-524.11 196.02,-524.11 234.84,-524.11"/>
<polygon fill="#333333" stroke="#333333" points="234.75,-527.61 244.75,-524.11 234.75,-520.61 234.75,-527.61"/>
<text xml:space="preserve" text-anchor="middle" x="208.62" y="-526.61" font-family="Arial" font-size="10.00">check</text>
</g>
<!-- optional_python -->
<g id="node5" class="node">
<title>optional_python</title>
<polygon fill="#90caf9" stroke="black" stroke-dasharray="5,2" points="147.88,-488.11 38.88,-488.11 38.88,-452.11 147.88,-452.11 147.88,-488.11"/>
<text xml:space="preserve" text-anchor="middle" x="93.38" y="-473.16" font-family="Arial" font-size="11.00" fill="#333333">Optional:</text>
<text xml:space="preserve" text-anchor="middle" x="93.38" y="-459.66" font-family="Arial" font-size="11.00" fill="#333333">Python + Conda/uv</text>
</g>
<!-- optional_python&#45;&gt;neo4j_password -->
<g id="edge5" class="edge">
<title>optional_python&#45;&gt;neo4j_password</title>
<path fill="none" stroke="#333333" stroke-dasharray="5,2" d="M148.22,-481.69C177.47,-487.98 214.52,-495.96 248.59,-503.29"/>
<polygon fill="#333333" stroke="#333333" points="247.54,-506.64 258.05,-505.32 249.01,-499.8 247.54,-506.64"/>
<text xml:space="preserve" text-anchor="middle" x="208.62" y="-501.23" font-family="Arial" font-size="10.00">if needed</text>
</g>
<!-- optional_node -->
<g id="node6" class="node">
<title>optional_node</title>
<polygon fill="#90caf9" stroke="black" stroke-dasharray="5,2" points="136.62,-434.11 50.12,-434.11 50.12,-398.11 136.62,-398.11 136.62,-434.11"/>
<text xml:space="preserve" text-anchor="middle" x="93.38" y="-419.16" font-family="Arial" font-size="11.00" fill="#333333">Optional:</text>
<text xml:space="preserve" text-anchor="middle" x="93.38" y="-405.66" font-family="Arial" font-size="11.00" fill="#333333">Node.js + npm</text>
</g>
<!-- optional_node&#45;&gt;neo4j_password -->
<g id="edge6" class="edge">
<title>optional_node&#45;&gt;neo4j_password</title>
<path fill="none" stroke="#333333" stroke-dasharray="5,2" d="M137.06,-430.4C148.11,-434.32 159.94,-438.7 170.75,-443.11 214.5,-460.94 263.19,-483.78 298.01,-500.66"/>
<polygon fill="#333333" stroke="#333333" points="296.47,-503.8 306.99,-505.03 299.53,-497.51 296.47,-503.8"/>
<text xml:space="preserve" text-anchor="middle" x="208.62" y="-468.61" font-family="Arial" font-size="10.00">if needed</text>
</g>
<!-- optional_graphviz -->
<g id="node7" class="node">
<title>optional_graphviz</title>
<polygon fill="#90caf9" stroke="black" stroke-dasharray="5,2" points="123.88,-380.11 62.88,-380.11 62.88,-344.11 123.88,-344.11 123.88,-380.11"/>
<text xml:space="preserve" text-anchor="middle" x="93.38" y="-365.16" font-family="Arial" font-size="11.00" fill="#333333">Optional:</text>
<text xml:space="preserve" text-anchor="middle" x="93.38" y="-351.66" font-family="Arial" font-size="11.00" fill="#333333">GraphViz</text>
</g>
<!-- optional_graphviz&#45;&gt;neo4j_password -->
<g id="edge7" class="edge">
<title>optional_graphviz&#45;&gt;neo4j_password</title>
<path fill="none" stroke="#333333" stroke-dasharray="5,2" d="M124.33,-370.26C138.81,-374.81 156.18,-381.17 170.75,-389.11 227.27,-419.91 284.81,-468.42 317.69,-498.13"/>
<polygon fill="#333333" stroke="#333333" points="315.03,-500.45 324.78,-504.6 319.75,-495.28 315.03,-500.45"/>
<text xml:space="preserve" text-anchor="middle" x="208.62" y="-427.18" font-family="Arial" font-size="10.00">if needed</text>
</g>
<!-- init_script -->
<g id="node9" class="node">
<title>init_script</title>
<ellipse fill="#66bb6a" stroke="black" cx="560.55" cy="-524.11" rx="77.3" ry="18"/>
<text xml:space="preserve" text-anchor="middle" x="560.55" y="-520.41" font-family="Arial" font-size="11.00" fill="white">init.sh MyProjectName</text>
</g>
<!-- neo4j_password&#45;&gt;init_script -->
<g id="edge8" class="edge">
<title>neo4j_password&#45;&gt;init_script</title>
<path fill="none" stroke="#333333" d="M446.63,-524.11C454.91,-524.11 463.25,-524.11 471.44,-524.11"/>
<polygon fill="#333333" stroke="#333333" points="471.39,-527.61 481.39,-524.11 471.39,-520.61 471.39,-527.61"/>
</g>
<!-- cd_analysis -->
<g id="node10" class="node">
<title>cd_analysis</title>
<polygon fill="#66bb6a" stroke="black" points="890.85,-542.11 756.35,-542.11 756.35,-506.11 890.85,-506.11 890.85,-542.11"/>
<text xml:space="preserve" text-anchor="middle" x="823.6" y="-520.41" font-family="Arial" font-size="11.00" fill="white">cd temp/MyProjectName</text>
</g>
<!-- init_script&#45;&gt;cd_analysis -->
<g id="edge9" class="edge">
<title>init_script&#45;&gt;cd_analysis</title>
<path fill="none" stroke="#333333" d="M638.11,-524.11C671.77,-524.11 711.23,-524.11 745.01,-524.11"/>
<polygon fill="#333333" stroke="#333333" points="744.71,-527.61 754.71,-524.11 744.71,-520.61 744.71,-527.61"/>
<text xml:space="preserve" text-anchor="middle" x="697.1" y="-526.61" font-family="Arial" font-size="10.00">creates workspace</text>
</g>
<!-- prepare_java -->
<g id="node11" class="node">
<title>prepare_java</title>
<polygon fill="#ffb74d" stroke="black" points="1062.1,-650.11 982.35,-650.11 982.35,-614.11 1062.1,-614.11 1062.1,-650.11"/>
<text xml:space="preserve" text-anchor="middle" x="1022.22" y="-628.41" font-family="Arial" font-size="11.00" fill="white">Java Artifacts</text>
</g>
<!-- cd_analysis&#45;&gt;prepare_java -->
<g id="edge10" class="edge">
<title>cd_analysis&#45;&gt;prepare_java</title>
<path fill="none" stroke="#333333" d="M854.6,-542.58C882.51,-559.52 925.46,-584.96 963.85,-605.11 966.5,-606.5 969.23,-607.9 972,-609.29"/>
<polygon fill="#333333" stroke="#333333" points="970.24,-612.32 980.75,-613.59 973.32,-606.04 970.24,-612.32"/>
</g>
<!-- prepare_typescript -->
<g id="node13" class="node">
<title>prepare_typescript</title>
<polygon fill="#ffb74d" stroke="black" points="1070.35,-596.11 974.1,-596.11 974.1,-560.11 1070.35,-560.11 1070.35,-596.11"/>
<text xml:space="preserve" text-anchor="middle" x="1022.22" y="-574.41" font-family="Arial" font-size="11.00" fill="white">TypeScript Code</text>
</g>
<!-- cd_analysis&#45;&gt;prepare_typescript -->
<g id="edge11" class="edge">
<title>cd_analysis&#45;&gt;prepare_typescript</title>
<path fill="none" stroke="#333333" d="M891.17,-542.39C914.33,-548.75 940.12,-555.83 962.59,-562.01"/>
<polygon fill="#333333" stroke="#333333" points="961.64,-565.37 972.21,-564.65 963.49,-558.62 961.64,-565.37"/>
</g>
<!-- prepare_scip -->
<g id="node15" class="node">
<title>prepare_scip</title>
<polygon fill="#ffb74d" stroke="black" points="1069.22,-542.11 975.22,-542.11 975.22,-506.11 1069.22,-506.11 1069.22,-542.11"/>
<text xml:space="preserve" text-anchor="middle" x="1022.22" y="-527.16" font-family="Arial" font-size="11.00" fill="white">SCIP Indices</text>
<text xml:space="preserve" text-anchor="middle" x="1022.22" y="-513.66" font-family="Arial" font-size="11.00" fill="white">(Multi&#45;language)</text>
</g>
<!-- cd_analysis&#45;&gt;prepare_scip -->
<g id="edge12" class="edge">
<title>cd_analysis&#45;&gt;prepare_scip</title>
<path fill="none" stroke="#333333" d="M891.17,-524.11C914.6,-524.11 940.73,-524.11 963.39,-524.11"/>
<polygon fill="#333333" stroke="#333333" points="963.37,-527.61 973.37,-524.11 963.37,-520.61 963.37,-527.61"/>
</g>
<!-- prepare_git -->
<g id="node17" class="node">
<title>prepare_git</title>
<polygon fill="#ffb74d" stroke="black" points="1055.35,-488.11 989.1,-488.11 989.1,-452.11 1055.35,-452.11 1055.35,-488.11"/>
<text xml:space="preserve" text-anchor="middle" x="1022.22" y="-466.41" font-family="Arial" font-size="11.00" fill="white">Git History</text>
</g>
<!-- cd_analysis&#45;&gt;prepare_git -->
<g id="edge13" class="edge">
<title>cd_analysis&#45;&gt;prepare_git</title>
<path fill="none" stroke="#333333" d="M891.17,-505.83C919.8,-497.96 952.45,-489 977.88,-482.01"/>
<polygon fill="#333333" stroke="#333333" points="978.48,-485.48 987.19,-479.45 976.62,-478.73 978.48,-485.48"/>
</g>
<!-- download_alt -->
<g id="node19" class="node">
<title>download_alt</title>
<polygon fill="#ffd54f" stroke="black" stroke-dasharray="5,2" points="1072.6,-434.11 971.85,-434.11 971.85,-398.11 1072.6,-398.11 1072.6,-434.11"/>
<text xml:space="preserve" text-anchor="middle" x="1022.22" y="-419.16" font-family="Arial" font-size="11.00" fill="#333333">Alternative:</text>
<text xml:space="preserve" text-anchor="middle" x="1022.22" y="-405.66" font-family="Arial" font-size="11.00" fill="#333333">Download Scripts</text>
</g>
<!-- cd_analysis&#45;&gt;download_alt -->
<g id="edge14" class="edge">
<title>cd_analysis&#45;&gt;download_alt</title>
<path fill="none" stroke="#333333" stroke-dasharray="5,2" d="M853.93,-505.72C881.74,-488.61 924.94,-462.85 963.85,-443.11 966.21,-441.91 968.63,-440.7 971.09,-439.49"/>
<polygon fill="#333333" stroke="#333333" points="972.44,-442.72 979.9,-435.2 969.37,-436.43 972.44,-442.72"/>
<text xml:space="preserve" text-anchor="middle" x="931.35" y="-475.21" font-family="Arial" font-size="10.00">alternative</text>
</g>
<!-- artifacts_dir -->
<g id="node12" class="node">
<title>artifacts_dir</title>
<polygon fill="#ffb74d" stroke="black" points="1203.22,-650.11 1130.22,-650.11 1130.22,-614.11 1203.22,-614.11 1203.22,-650.11"/>
<text xml:space="preserve" text-anchor="middle" x="1166.72" y="-635.16" font-family="Arial" font-size="11.00" fill="white">Put JARs in</text>
<text xml:space="preserve" text-anchor="middle" x="1166.72" y="-621.66" font-family="Arial" font-size="11.00" fill="white">./artifacts</text>
</g>
<!-- prepare_java&#45;&gt;artifacts_dir -->
<g id="edge15" class="edge">
<title>prepare_java&#45;&gt;artifacts_dir</title>
<path fill="none" stroke="#333333" d="M1062.54,-632.11C1079.92,-632.11 1100.5,-632.11 1118.69,-632.11"/>
<polygon fill="#333333" stroke="#333333" points="1118.44,-635.61 1128.44,-632.11 1118.44,-628.61 1118.44,-635.61"/>
</g>
<!-- analyze_script -->
<g id="node20" class="node">
<title>analyze_script</title>
<ellipse fill="#ba68c8" stroke="black" cx="1302.62" cy="-524.11" rx="41.77" ry="18"/>
<text xml:space="preserve" text-anchor="middle" x="1302.62" y="-520.41" font-family="Arial" font-size="11.00" fill="white">analyze.sh</text>
</g>
<!-- artifacts_dir&#45;&gt;analyze_script -->
<g id="edge19" class="edge">
<title>artifacts_dir&#45;&gt;analyze_script</title>
<path fill="none" stroke="#333333" d="M1203.56,-620.43C1213.22,-616.39 1223.35,-611.29 1231.85,-605.11 1252.36,-590.18 1270.86,-568.1 1283.64,-550.76"/>
<polygon fill="#333333" stroke="#333333" points="1286.28,-553.09 1289.26,-542.93 1280.59,-549.02 1286.28,-553.09"/>
</g>
<!-- ts_option -->
<g id="node14" class="node">
<title>ts_option</title>
<polygon fill="#ffb74d" stroke="black" points="1218.6,-596.11 1114.85,-596.11 1114.85,-560.11 1218.6,-560.11 1218.6,-596.11"/>
<text xml:space="preserve" text-anchor="middle" x="1166.72" y="-581.16" font-family="Arial" font-size="11.00" fill="white">Symlink or copy to</text>
<text xml:space="preserve" text-anchor="middle" x="1166.72" y="-567.66" font-family="Arial" font-size="11.00" fill="white">./source</text>
</g>
<!-- prepare_typescript&#45;&gt;ts_option -->
<g id="edge16" class="edge">
<title>prepare_typescript&#45;&gt;ts_option</title>
<path fill="none" stroke="#333333" d="M1070.67,-578.11C1081.13,-578.11 1092.36,-578.11 1103.3,-578.11"/>
<polygon fill="#333333" stroke="#333333" points="1103.05,-581.61 1113.05,-578.11 1103.05,-574.61 1103.05,-581.61"/>
</g>
<!-- ts_option&#45;&gt;analyze_script -->
<g id="edge20" class="edge">
<title>ts_option&#45;&gt;analyze_script</title>
<path fill="none" stroke="#333333" d="M1213.43,-559.68C1228.79,-553.48 1245.82,-546.61 1260.78,-540.58"/>
<polygon fill="#333333" stroke="#333333" points="1261.89,-543.9 1269.85,-536.92 1259.27,-537.41 1261.89,-543.9"/>
</g>
<!-- scip_option -->
<g id="node16" class="node">
<title>scip_option</title>
<polygon fill="#ffb74d" stroke="black" points="1217.47,-542.11 1115.97,-542.11 1115.97,-506.11 1217.47,-506.11 1217.47,-542.11"/>
<text xml:space="preserve" text-anchor="middle" x="1166.72" y="-527.16" font-family="Arial" font-size="11.00" fill="white">Place .scip.json in</text>
<text xml:space="preserve" text-anchor="middle" x="1166.72" y="-513.66" font-family="Arial" font-size="11.00" fill="white">./indices</text>
</g>
<!-- prepare_scip&#45;&gt;scip_option -->
<g id="edge17" class="edge">
<title>prepare_scip&#45;&gt;scip_option</title>
<path fill="none" stroke="#333333" d="M1069.49,-524.11C1080.58,-524.11 1092.6,-524.11 1104.26,-524.11"/>
<polygon fill="#333333" stroke="#333333" points="1104.24,-527.61 1114.24,-524.11 1104.24,-520.61 1104.24,-527.61"/>
</g>
<!-- scip_option&#45;&gt;analyze_script -->
<g id="edge21" class="edge">
<title>scip_option&#45;&gt;analyze_script</title>
<path fill="none" stroke="#333333" d="M1217.96,-524.11C1228.2,-524.11 1239.01,-524.11 1249.32,-524.11"/>
<polygon fill="#333333" stroke="#333333" points="1249.19,-527.61 1259.19,-524.11 1249.19,-520.61 1249.19,-527.61"/>
</g>
<!-- git_option -->
<g id="node18" class="node">
<title>git_option</title>
<polygon fill="#ffb74d" stroke="black" points="1223.85,-488.36 1109.6,-488.36 1109.6,-439.86 1223.85,-439.86 1223.85,-488.36"/>
<text xml:space="preserve" text-anchor="middle" x="1166.72" y="-473.91" font-family="Arial" font-size="11.00" fill="white">Symlink or clone to</text>
<text xml:space="preserve" text-anchor="middle" x="1166.72" y="-460.41" font-family="Arial" font-size="11.00" fill="white">./source</text>
<text xml:space="preserve" text-anchor="middle" x="1166.72" y="-446.91" font-family="Arial" font-size="11.00" fill="white">(use &#45;&#45;bare for Java)</text>
</g>
<!-- prepare_git&#45;&gt;git_option -->
<g id="edge18" class="edge">
<title>prepare_git&#45;&gt;git_option</title>
<path fill="none" stroke="#333333" d="M1055.56,-468.75C1068.19,-468.22 1083.17,-467.58 1097.95,-466.96"/>
<polygon fill="#333333" stroke="#333333" points="1097.82,-470.47 1107.66,-466.55 1097.52,-463.48 1097.82,-470.47"/>
</g>
<!-- git_option&#45;&gt;analyze_script -->
<g id="edge22" class="edge">
<title>git_option&#45;&gt;analyze_script</title>
<path fill="none" stroke="#333333" d="M1222.57,-488.69C1235.86,-494.64 1249.82,-500.9 1262.23,-506.46"/>
<polygon fill="#333333" stroke="#333333" points="1260.76,-509.64 1271.32,-510.53 1263.62,-503.25 1260.76,-509.64"/>
</g>
<!-- download_alt&#45;&gt;analyze_script -->
<g id="edge23" class="edge">
<title>download_alt&#45;&gt;analyze_script</title>
<path fill="none" stroke="#333333" stroke-dasharray="5,2" d="M1072.73,-405.61C1118.65,-398.85 1186.52,-396.82 1231.85,-431.11 1253.71,-447.65 1236.3,-467.25 1252.85,-489.11 1256.8,-494.33 1261.74,-499.09 1266.96,-503.31"/>
<polygon fill="#333333" stroke="#333333" points="1264.52,-505.86 1274.64,-508.98 1268.67,-500.22 1264.52,-505.86"/>
</g>
<!-- report_csv -->
<g id="node21" class="node">
<title>report_csv</title>
<polygon fill="#ce93d8" stroke="black" points="1546.01,-380.11 1440.76,-380.11 1440.76,-344.11 1546.01,-344.11 1546.01,-380.11"/>
<text xml:space="preserve" text-anchor="middle" x="1493.38" y="-365.16" font-family="Arial" font-size="11.00" fill="white">&#45;&#45;report Csv</text>
<text xml:space="preserve" text-anchor="middle" x="1493.38" y="-351.66" font-family="Arial" font-size="11.00" fill="white">(no dependencies)</text>
</g>
<!-- analyze_script&#45;&gt;report_csv -->
<g id="edge24" class="edge">
<title>analyze_script&#45;&gt;report_csv</title>
<path fill="none" stroke="#333333" d="M1335.1,-512.54C1343.86,-509.55 1353.43,-506.51 1362.38,-504.11 1386.67,-497.6 1400.32,-511.1 1417.88,-493.11 1450.65,-459.54 1407.56,-426.5 1435.88,-389.11 1436.03,-388.91 1436.19,-388.71 1436.34,-388.51"/>
<polygon fill="#333333" stroke="#333333" points="1438.68,-391.12 1443.34,-381.6 1433.76,-386.14 1438.68,-391.12"/>
</g>
<!-- report_python -->
<g id="node22" class="node">
<title>report_python</title>
<polygon fill="#ce93d8" stroke="black" points="1543.01,-434.11 1443.76,-434.11 1443.76,-398.11 1543.01,-398.11 1543.01,-434.11"/>
<text xml:space="preserve" text-anchor="middle" x="1493.38" y="-419.16" font-family="Arial" font-size="11.00" fill="white">&#45;&#45;report Python</text>
<text xml:space="preserve" text-anchor="middle" x="1493.38" y="-405.66" font-family="Arial" font-size="11.00" fill="white">(requires Python)</text>
</g>
<!-- analyze_script&#45;&gt;report_python -->
<g id="edge25" class="edge">
<title>analyze_script&#45;&gt;report_python</title>
<path fill="none" stroke="#333333" d="M1341.54,-516.97C1348.47,-515.68 1355.64,-514.35 1362.38,-513.11 1387.03,-508.58 1399.19,-519.8 1417.88,-503.11 1438.65,-484.57 1417.77,-464.25 1435.88,-443.11 1436.23,-442.71 1436.58,-442.31 1436.94,-441.92"/>
<polygon fill="#333333" stroke="#333333" points="1439.05,-444.72 1444.23,-435.48 1434.41,-439.48 1439.05,-444.72"/>
</g>
<!-- report_viz -->
<g id="node23" class="node">
<title>report_viz</title>
<polygon fill="#ce93d8" stroke="black" points="1550.88,-488.11 1435.88,-488.11 1435.88,-452.11 1550.88,-452.11 1550.88,-488.11"/>
<text xml:space="preserve" text-anchor="middle" x="1493.38" y="-473.16" font-family="Arial" font-size="11.00" fill="white">&#45;&#45;report Visualization</text>
<text xml:space="preserve" text-anchor="middle" x="1493.38" y="-459.66" font-family="Arial" font-size="11.00" fill="white">(requires GraphViz)</text>
</g>
<!-- analyze_script&#45;&gt;report_viz -->
<g id="edge26" class="edge">
<title>analyze_script&#45;&gt;report_viz</title>
<path fill="none" stroke="#333333" d="M1344.47,-521.79C1371.74,-519.8 1404.89,-516.4 1417.88,-511.11 1427.27,-507.28 1427.26,-502.44 1435.88,-497.11 1437.69,-495.99 1439.54,-494.89 1441.43,-493.81"/>
<polygon fill="#333333" stroke="#333333" points="1442.65,-497.13 1449.76,-489.28 1439.3,-490.98 1442.65,-497.13"/>
</g>
<!-- report_markdown -->
<g id="node24" class="node">
<title>report_markdown</title>
<polygon fill="#ce93d8" stroke="black" points="1546.01,-542.11 1440.76,-542.11 1440.76,-506.11 1546.01,-506.11 1546.01,-542.11"/>
<text xml:space="preserve" text-anchor="middle" x="1493.38" y="-520.41" font-family="Arial" font-size="11.00" fill="white">&#45;&#45;report Markdown</text>
</g>
<!-- analyze_script&#45;&gt;report_markdown -->
<g id="edge27" class="edge">
<title>analyze_script&#45;&gt;report_markdown</title>
<path fill="none" stroke="#333333" d="M1344.58,-524.11C1369.26,-524.11 1401.21,-524.11 1429.09,-524.11"/>
<polygon fill="#333333" stroke="#333333" points="1428.84,-527.61 1438.84,-524.11 1428.84,-520.61 1428.84,-527.61"/>
</g>
<!-- report_all -->
<g id="node25" class="node">
<title>report_all</title>
<polygon fill="#ce93d8" stroke="black" points="1545.26,-596.11 1441.51,-596.11 1441.51,-560.11 1545.26,-560.11 1545.26,-596.11"/>
<text xml:space="preserve" text-anchor="middle" x="1493.38" y="-581.16" font-family="Arial" font-size="11.00" fill="white">&#45;&#45;report All</text>
<text xml:space="preserve" text-anchor="middle" x="1493.38" y="-567.66" font-family="Arial" font-size="11.00" fill="white">(all dependencies)</text>
</g>
<!-- analyze_script&#45;&gt;report_all -->
<g id="edge28" class="edge">
<title>analyze_script&#45;&gt;report_all</title>
<path fill="none" stroke="#333333" d="M1338.24,-534.01C1363.93,-541.36 1399.65,-551.58 1430.24,-560.33"/>
<polygon fill="#333333" stroke="#333333" points="1429.22,-563.68 1439.79,-563.06 1431.14,-556.95 1429.22,-563.68"/>
</g>
<!-- explore_only -->
<g id="node26" class="node">
<title>explore_only</title>
<polygon fill="#e1bee7" stroke="black" stroke-dasharray="5,2" points="1538.51,-650.11 1448.26,-650.11 1448.26,-614.11 1538.51,-614.11 1538.51,-650.11"/>
<text xml:space="preserve" text-anchor="middle" x="1493.38" y="-635.16" font-family="Arial" font-size="11.00" fill="#333333">&#45;&#45;explore</text>
<text xml:space="preserve" text-anchor="middle" x="1493.38" y="-621.66" font-family="Arial" font-size="11.00" fill="#333333">(manual Neo4j)</text>
</g>
<!-- analyze_script&#45;&gt;explore_only -->
<g id="edge29" class="edge">
<title>analyze_script&#45;&gt;explore_only</title>
<path fill="none" stroke="#333333" stroke-dasharray="5,2" d="M1326.6,-539.19C1352.65,-556.05 1396.61,-583.77 1435.88,-605.11 1438.06,-606.29 1440.29,-607.47 1442.55,-608.65"/>
<polygon fill="#333333" stroke="#333333" points="1440.75,-611.66 1451.26,-613.06 1443.92,-605.42 1440.75,-611.66"/>
</g>
<!-- domain_filter -->
<g id="node27" class="node">
<title>domain_filter</title>
<polygon fill="#e1bee7" stroke="black" stroke-dasharray="5,2" points="1544.51,-704.11 1442.26,-704.11 1442.26,-668.11 1544.51,-668.11 1544.51,-704.11"/>
<text xml:space="preserve" text-anchor="middle" x="1493.38" y="-689.16" font-family="Arial" font-size="11.00" fill="#333333">&#45;&#45;domain &lt;name&gt;</text>
<text xml:space="preserve" text-anchor="middle" x="1493.38" y="-675.66" font-family="Arial" font-size="11.00" fill="#333333">(optional)</text>
</g>
<!-- analyze_script&#45;&gt;domain_filter -->
<g id="edge30" class="edge">
<title>analyze_script&#45;&gt;domain_filter</title>
<path fill="none" stroke="#333333" stroke-dasharray="5,2" d="M1317.1,-541.35C1339.42,-569.03 1386.5,-623.81 1435.88,-659.11 1437.21,-660.06 1438.57,-660.99 1439.97,-661.9"/>
<polygon fill="#333333" stroke="#333333" points="1437.83,-664.7 1448.21,-666.83 1441.43,-658.69 1437.83,-664.7"/>
<text xml:space="preserve" text-anchor="middle" x="1390.13" y="-645.96" font-family="Arial" font-size="10.00">optional filter</text>
</g>
<!-- reports -->
<g id="node31" class="node">
<title>reports</title>
<polygon fill="#ec407a" stroke="black" points="170.75,-298.11 16,-298.11 16,-262.11 170.75,-262.11 170.75,-298.11"/>
<text xml:space="preserve" text-anchor="middle" x="93.38" y="-283.16" font-family="Arial" font-size="11.00" fill="white">Generated Reports</text>
<text xml:space="preserve" text-anchor="middle" x="93.38" y="-269.66" font-family="Arial" font-size="11.00" fill="white">(CSV/Python/Viz/Markdown)</text>
</g>
<!-- report_csv&#45;&gt;reports -->
<g id="edge31" class="edge">
<title>report_csv&#45;&gt;reports</title>
<path fill="none" stroke="#333333" d="M1440.46,-362.42C1345.57,-363.45 1137.87,-367.81 963.85,-386.11 825.71,-400.63 536.54,-485.84 483.25,-440.11 401.01,-369.54 528.49,-269.68 446.25,-199.11 376.18,-138.98 325.66,-168.62 238.5,-199.11 202.15,-211.82 204.42,-234.43 170.75,-253.11 168.27,-254.48 165.72,-255.81 163.1,-257.08"/>
<polygon fill="#333333" stroke="#333333" points="161.86,-253.8 154.2,-261.12 164.75,-260.18 161.86,-253.8"/>
</g>
<!-- report_python&#45;&gt;reports -->
<g id="edge32" class="edge">
<title>report_python&#45;&gt;reports</title>
<path fill="none" stroke="#333333" d="M1443.47,-401.72C1391.52,-387.54 1306.72,-367.5 1231.85,-364.11 967.89,-352.13 901.99,-382.11 637.85,-389.11 569.16,-390.93 534.29,-435.11 483.25,-389.11 444.96,-354.6 488.15,-190.14 446.25,-160.11 371.2,-106.32 325.78,-129.98 238.5,-160.11 225.22,-164.69 196.84,-187.63 188.75,-199.11 174.18,-219.79 188.48,-235.06 170.75,-253.11 170.26,-253.61 169.75,-254.1 169.24,-254.59"/>
<polygon fill="#333333" stroke="#333333" points="167.13,-251.79 161.42,-260.71 171.45,-257.3 167.13,-251.79"/>
</g>
<!-- report_viz&#45;&gt;reports -->
<g id="edge33" class="edge">
<title>report_viz&#45;&gt;reports</title>
<path fill="none" stroke="#333333" d="M1452.35,-451.63C1385.12,-420.76 1254.64,-361.63 1231.85,-357.11 1150.19,-340.92 544.96,-380.99 483.25,-325.11 462.28,-306.12 470.73,-226.86 465.25,-199.11 458.59,-165.37 473.39,-145.23 446.25,-124.11 373.38,-67.4 325.59,-93.44 238.5,-124.11 211.74,-133.53 203.5,-139.87 188.75,-164.11 167.77,-198.59 197.22,-222.64 170.75,-253.11 170.39,-253.52 170.03,-253.93 169.66,-254.32"/>
<polygon fill="#333333" stroke="#333333" points="167.42,-251.63 162.18,-260.83 172.02,-256.91 167.42,-251.63"/>
</g>
<!-- report_markdown&#45;&gt;reports -->
<g id="edge34" class="edge">
<title>report_markdown&#45;&gt;reports</title>
<path fill="none" stroke="#333333" d="M1451.48,-505.67C1446.15,-502.95 1440.83,-500.06 1435.88,-497.11 1339.7,-439.67 1336.74,-388.46 1231.85,-349.11 1074.3,-290 607.69,-348.38 483.25,-235.11 458.18,-212.29 472.97,-107.97 446.25,-87.11 373.47,-30.29 325.59,-56.44 238.5,-87.11 211.74,-96.53 202.79,-102.46 188.75,-127.11 160.75,-176.26 206.6,-209.35 170.75,-253.11 170.5,-253.41 170.24,-253.72 169.99,-254.02"/>
<polygon fill="#333333" stroke="#333333" points="167.68,-251.38 162.71,-260.74 172.43,-256.52 167.68,-251.38"/>
</g>
<!-- report_all&#45;&gt;reports -->
<g id="edge35" class="edge">
<title>report_all&#45;&gt;reports</title>
<path fill="none" stroke="#333333" d="M1449.06,-559.64C1444.46,-557.03 1439.97,-554.18 1435.88,-551.11 1326.9,-469.22 1346.62,-395.66 1231.85,-322.11 938.91,-134.38 773.47,-285.01 483.25,-93.11 461.94,-79.02 469.41,-59.89 446.25,-49.11 362.55,-10.13 325.97,-19.53 238.5,-49.11 212.14,-58.02 202.41,-62.87 188.75,-87.11 152.31,-151.76 216.8,-194.92 170.75,-253.11 170.59,-253.31 170.43,-253.51 170.27,-253.7"/>
<polygon fill="#333333" stroke="#333333" points="167.92,-251.1 163.15,-260.56 172.78,-256.15 167.92,-251.1"/>
</g>
<!-- neo4j_web -->
<g id="node28" class="node">
<title>neo4j_web</title>
<polygon fill="#ec407a" stroke="black" points="170.38,-244.11 16.38,-244.11 16.38,-208.11 170.38,-208.11 170.38,-244.11"/>
<text xml:space="preserve" text-anchor="middle" x="93.38" y="-229.16" font-family="Arial" font-size="11.00" fill="white">Neo4j Web UI</text>
<text xml:space="preserve" text-anchor="middle" x="93.38" y="-215.66" font-family="Arial" font-size="11.00" fill="white">http://localhost:7474/browser</text>
</g>
<!-- explore_only&#45;&gt;neo4j_web -->
<g id="edge36" class="edge">
<title>explore_only&#45;&gt;neo4j_web</title>
<path fill="none" stroke="#333333" stroke-dasharray="5,2" d="M1447.83,-615.01C1443.45,-612.15 1439.35,-608.86 1435.88,-605.11 1420.71,-588.67 1427.78,-578.17 1417.88,-558.11 1347.98,-416.38 1357.07,-351.49 1231.85,-255.11 1186.56,-220.25 580.91,76.14 238.5,-19.11 158.07,-41.48 117.5,-145.34 102.03,-196.9"/>
<polygon fill="#333333" stroke="#333333" points="98.68,-195.9 99.28,-206.48 105.41,-197.83 98.68,-195.9"/>
</g>
<!-- username -->
<g id="node29" class="node">
<title>username</title>
<polygon fill="#f48fb1" stroke="black" points="382.12,-244.11 310.62,-244.11 310.62,-208.11 382.12,-208.11 382.12,-244.11"/>
<text xml:space="preserve" text-anchor="middle" x="346.38" y="-222.41" font-family="Arial" font-size="11.00" fill="white">User: neo4j</text>
</g>
<!-- neo4j_web&#45;&gt;username -->
<g id="edge37" class="edge">
<title>neo4j_web&#45;&gt;username</title>
<path fill="none" stroke="#333333" d="M170.71,-226.11C212.61,-226.11 263.21,-226.11 299.13,-226.11"/>
<polygon fill="#333333" stroke="#333333" points="298.74,-229.61 308.74,-226.11 298.74,-222.61 298.74,-229.61"/>
</g>
<!-- password_use -->
<g id="node30" class="node">
<title>password_use</title>
<polygon fill="#f48fb1" stroke="black" points="429,-298.11 263.75,-298.11 263.75,-262.11 429,-262.11 429,-298.11"/>
<text xml:space="preserve" text-anchor="middle" x="346.38" y="-283.16" font-family="Arial" font-size="11.00" fill="white">Password:</text>
<text xml:space="preserve" text-anchor="middle" x="346.38" y="-269.66" font-family="Arial" font-size="11.00" fill="white">NEO4J_INITIAL_PASSWORD</text>
</g>
<!-- neo4j_web&#45;&gt;password_use -->
<g id="edge38" class="edge">
<title>neo4j_web&#45;&gt;password_use</title>
<path fill="none" stroke="#333333" d="M170.71,-242.53C196.44,-248.07 225.45,-254.31 252.33,-260.09"/>
<polygon fill="#333333" stroke="#333333" points="251.31,-263.45 261.82,-262.13 252.78,-256.61 251.31,-263.45"/>
</g>
</g>
</svg>
