<?xml version="1.0" encoding="UTF-8" standalone="no"?>
<!DOCTYPE svg PUBLIC "-//W3C//DTD SVG 1.1//EN"
 "http://www.w3.org/Graphics/SVG/1.1/DTD/svg11.dtd">
<!-- Generated by graphviz version 14.1.4 (0)
 -->
<!-- Title: GettingStartedFlow Pages: 1 -->
<svg width="1590pt" height="745pt"
 viewBox="0.00 0.00 1590.00 745.00" xmlns="http://www.w3.org/2000/svg" xmlns:xlink="http://www.w3.org/1999/xlink">
<g id="graph0" class="graph" transform="scale(1 1) rotate(0) translate(4 741.18)">
<title>GettingStartedFlow</title>
<polygon fill="white" stroke="none" points="-4,4 -4,-741.18 1586.33,-741.18 1586.33,4 -4,4"/>
<g id="clust1" class="cluster">
<title>cluster_prerequisites</title>
<path fill="#e3f2fd" stroke="#1976d2" stroke-width="2" d="M43.38,-331.18C43.38,-331.18 145.25,-331.18 145.25,-331.18 151.25,-331.18 157.25,-337.18 157.25,-343.18 157.25,-343.18 157.25,-717.18 157.25,-717.18 157.25,-723.18 151.25,-729.18 145.25,-729.18 145.25,-729.18 43.38,-729.18 43.38,-729.18 37.38,-729.18 31.38,-723.18 31.38,-717.18 31.38,-717.18 31.38,-343.18 31.38,-343.18 31.38,-337.18 37.38,-331.18 43.38,-331.18"/>
<text xml:space="preserve" text-anchor="middle" x="94.32" y="-714.38" font-family="Arial" font-size="12.00">Prerequisites</text>
</g>
<g id="clust2" class="cluster">
<title>cluster_setup</title>
<path fill="#e8f5e9" stroke="#388e3c" stroke-width="2" d="M253.78,-493.18C253.78,-493.18 894.52,-493.18 894.52,-493.18 900.52,-493.18 906.52,-499.18 906.52,-505.18 906.52,-505.18 906.52,-555.18 906.52,-555.18 906.52,-561.18 900.52,-567.18 894.52,-567.18 894.52,-567.18 253.78,-567.18 253.78,-567.18 247.78,-567.18 241.78,-561.18 241.78,-555.18 241.78,-555.18 241.78,-505.18 241.78,-505.18 241.78,-499.18 247.78,-493.18 253.78,-493.18"/>
<text xml:space="preserve" text-anchor="middle" x="574.15" y="-552.38" font-family="Arial" font-size="12.00">Setup Phase</text>
</g>
<g id="clust3" class="cluster">
<title>cluster_prepare</title>
<path fill="#fff3e0" stroke="#f57c00" stroke-width="2" d="M984.65,-401.18C984.65,-401.18 1230.89,-401.18 1230.89,-401.18 1236.89,-401.18 1242.89,-407.18 1242.89,-413.18 1242.89,-413.18 1242.89,-625.18 1242.89,-625.18 1242.89,-631.18 1236.89,-637.18 1230.89,-637.18 1230.89,-637.18 984.65,-637.18 984.65,-637.18 978.65,-637.18 972.65,-631.18 972.65,-625.18 972.65,-625.18 972.65,-413.18 972.65,-413.18 972.65,-407.18 978.65,-401.18 984.65,-401.18"/>
<text xml:space="preserve" text-anchor="middle" x="1107.77" y="-622.38" font-family="Arial" font-size="12.00">Prepare Code Phase</text>
</g>
<g id="clust4" class="cluster">
<title>cluster_analysis</title>
<path fill="#f3e5f5" stroke="#7b1fa2" stroke-width="2" d="M1275.89,-324.18C1275.89,-324.18 1562.33,-324.18 1562.33,-324.18 1568.33,-324.18 1574.33,-330.18 1574.33,-336.18 1574.33,-336.18 1574.33,-710.18 1574.33,-710.18 1574.33,-716.18 1568.33,-722.18 1562.33,-722.18 1562.33,-722.18 1275.89,-722.18 1275.89,-722.18 1269.89,-722.18 1263.89,-716.18 1263.89,-710.18 1263.89,-710.18 1263.89,-336.18 1263.89,-336.18 1263.89,-330.18 1269.89,-324.18 1275.89,-324.18"/>
<text xml:space="preserve" text-anchor="middle" x="1419.11" y="-707.38" font-family="Arial" font-size="12.00">Analysis Phase</text>
</g>
<g id="clust5" class="cluster">
<title>cluster_output</title>
<path fill="#fce4ec" stroke="#c2185b" stroke-width="2" d="M20,-195.18C20,-195.18 428.36,-195.18 428.36,-195.18 434.36,-195.18 440.36,-201.18 440.36,-207.18 440.36,-207.18 440.36,-311.18 440.36,-311.18 440.36,-317.18 434.36,-323.18 428.36,-323.18 428.36,-323.18 20,-323.18 20,-323.18 14,-323.18 8,-317.18 8,-311.18 8,-311.18 8,-207.18 8,-207.18 8,-201.18 14,-195.18 20,-195.18"/>
<text xml:space="preserve" text-anchor="middle" x="224.18" y="-308.38" font-family="Arial" font-size="12.00">Access Results</text>
</g>
<!-- neo4j -->
<g id="node1" class="node">
<title>neo4j</title>
<polygon fill="#4a90e2" stroke="black" points="121.32,-699.18 67.32,-699.18 67.32,-663.18 121.32,-663.18 121.32,-699.18"/>
<text xml:space="preserve" text-anchor="middle" x="94.32" y="-677.88" font-family="Arial" font-size="11.00" fill="white">Neo4j</text>
</g>
<!-- neo4j_password -->
<g id="node8" class="node">
<title>neo4j_password</title>
<polygon fill="#66bb6a" stroke="black" points="449.78,-537.18 249.78,-537.18 249.78,-501.18 449.78,-501.18 449.78,-537.18"/>
<text xml:space="preserve" text-anchor="middle" x="349.78" y="-515.88" font-family="Arial" font-size="11.00" fill="white">Export NEO4J_INITIAL_PASSWORD</text>
</g>
<!-- neo4j&#45;&gt;neo4j_password -->
<g id="edge1" class="edge">
<title>neo4j&#45;&gt;neo4j_password</title>
<path fill="none" stroke="#333333" d="M121.61,-674.27C136.99,-669.68 156.5,-662.89 172.64,-654.18 229.75,-623.35 287.97,-574.64 321.11,-544.93"/>
<polygon fill="#333333" stroke="#333333" points="323.19,-547.77 328.25,-538.47 318.49,-542.58 323.19,-547.77"/>
<text xml:space="preserve" text-anchor="middle" x="211.21" y="-645.21" font-family="Arial" font-size="10.00">check</text>
</g>
<!-- java -->
<g id="node2" class="node">
<title>java</title>
<polygon fill="#4a90e2" stroke="black" points="121.32,-645.18 67.32,-645.18 67.32,-609.18 121.32,-609.18 121.32,-645.18"/>
<text xml:space="preserve" text-anchor="middle" x="94.32" y="-623.88" font-family="Arial" font-size="11.00" fill="white">Java</text>
</g>
<!-- java&#45;&gt;neo4j_password -->
<g id="edge2" class="edge">
<title>java&#45;&gt;neo4j_password</title>
<path fill="none" stroke="#333333" d="M121.67,-618.67C136.73,-613.63 155.89,-606.94 172.64,-600.18 216.96,-582.3 266.3,-559.34 301.46,-542.43"/>
<polygon fill="#333333" stroke="#333333" points="302.59,-545.77 310.08,-538.27 299.55,-539.46 302.59,-545.77"/>
<text xml:space="preserve" text-anchor="middle" x="211.21" y="-595.16" font-family="Arial" font-size="10.00">check</text>
</g>
<!-- jqassistant -->
<g id="node3" class="node">
<title>jqassistant</title>
<polygon fill="#4a90e2" stroke="black" points="130.13,-591.18 58.5,-591.18 58.5,-555.18 130.13,-555.18 130.13,-591.18"/>
<text xml:space="preserve" text-anchor="middle" x="94.32" y="-569.88" font-family="Arial" font-size="11.00" fill="white">jQAssistant</text>
</g>
<!-- jqassistant&#45;&gt;neo4j_password -->
<g id="edge3" class="edge">
<title>jqassistant&#45;&gt;neo4j_password</title>
<path fill="none" stroke="#333333" d="M130.56,-565.67C161.65,-559.05 208.48,-549.07 250.79,-540.06"/>
<polygon fill="#333333" stroke="#333333" points="251.48,-543.49 260.53,-537.98 250.02,-536.64 251.48,-543.49"/>
<text xml:space="preserve" text-anchor="middle" x="211.21" y="-555.61" font-family="Arial" font-size="10.00">check</text>
</g>
<!-- bash -->
<g id="node4" class="node">
<title>bash</title>
<polygon fill="#4a90e2" stroke="black" points="128.61,-537.18 60.02,-537.18 60.02,-501.18 128.61,-501.18 128.61,-537.18"/>
<text xml:space="preserve" text-anchor="middle" x="94.32" y="-515.88" font-family="Arial" font-size="11.00" fill="white">Bash Shell</text>
</g>
<!-- bash&#45;&gt;neo4j_password -->
<g id="edge4" class="edge">
<title>bash&#45;&gt;neo4j_password</title>
<path fill="none" stroke="#333333" d="M128.98,-519.18C157.04,-519.18 198.68,-519.18 238.19,-519.18"/>
<polygon fill="#333333" stroke="#333333" points="238.03,-522.68 248.03,-519.18 238.03,-515.68 238.03,-522.68"/>
<text xml:space="preserve" text-anchor="middle" x="211.21" y="-522.18" font-family="Arial" font-size="10.00">check</text>
</g>
<!-- optional_python -->
<g id="node5" class="node">
<title>optional_python</title>
<polygon fill="#90caf9" stroke="black" stroke-dasharray="5,2" points="149.25,-483.18 39.38,-483.18 39.38,-447.18 149.25,-447.18 149.25,-483.18"/>
<text xml:space="preserve" text-anchor="middle" x="94.32" y="-468.48" font-family="Arial" font-size="11.00" fill="#333333">Optional:</text>
<text xml:space="preserve" text-anchor="middle" x="94.32" y="-455.28" font-family="Arial" font-size="11.00" fill="#333333">Python + Conda/uv</text>
</g>
<!-- optional_python&#45;&gt;neo4j_password -->
<g id="edge5" class="edge">
<title>optional_python&#45;&gt;neo4j_password</title>
<path fill="none" stroke="#333333" stroke-dasharray="5,2" d="M149.69,-476.76C179.23,-483.06 216.64,-491.03 251.05,-498.36"/>
<polygon fill="#333333" stroke="#333333" points="250.11,-501.74 260.62,-500.4 251.56,-494.89 250.11,-501.74"/>
<text xml:space="preserve" text-anchor="middle" x="211.21" y="-496.8" font-family="Arial" font-size="10.00">if needed</text>
</g>
<!-- optional_node -->
<g id="node6" class="node">
<title>optional_node</title>
<polygon fill="#90caf9" stroke="black" stroke-dasharray="5,2" points="137.93,-429.18 50.7,-429.18 50.7,-393.18 137.93,-393.18 137.93,-429.18"/>
<text xml:space="preserve" text-anchor="middle" x="94.32" y="-414.48" font-family="Arial" font-size="11.00" fill="#333333">Optional:</text>
<text xml:space="preserve" text-anchor="middle" x="94.32" y="-401.28" font-family="Arial" font-size="11.00" fill="#333333">Node.js + npm</text>
</g>
<!-- optional_node&#45;&gt;neo4j_password -->
<g id="edge6" class="edge">
<title>optional_node&#45;&gt;neo4j_password</title>
<path fill="none" stroke="#333333" stroke-dasharray="5,2" d="M138.13,-425.32C149.43,-429.27 161.56,-433.71 172.64,-438.18 216.96,-456.06 266.3,-479.02 301.46,-495.93"/>
<polygon fill="#333333" stroke="#333333" points="299.55,-498.9 310.08,-500.09 302.59,-492.59 299.55,-498.9"/>
<text xml:space="preserve" text-anchor="middle" x="211.21" y="-466.35" font-family="Arial" font-size="10.00">if needed</text>
</g>
<!-- optional_graphviz -->
<g id="node7" class="node">
<title>optional_graphviz</title>
<polygon fill="#90caf9" stroke="black" stroke-dasharray="5,2" points="125.24,-375.18 63.39,-375.18 63.39,-339.18 125.24,-339.18 125.24,-375.18"/>
<text xml:space="preserve" text-anchor="middle" x="94.32" y="-360.48" font-family="Arial" font-size="11.00" fill="#333333">Optional:</text>
<text xml:space="preserve" text-anchor="middle" x="94.32" y="-347.28" font-family="Arial" font-size="11.00" fill="#333333">GraphViz</text>
</g>
<!-- optional_graphviz&#45;&gt;neo4j_password -->
<g id="edge7" class="edge">
<title>optional_graphviz&#45;&gt;neo4j_password</title>
<path fill="none" stroke="#333333" stroke-dasharray="5,2" d="M125.63,-365.31C140.29,-369.85 157.87,-376.21 172.64,-384.18 229.75,-415.01 287.97,-463.72 321.11,-493.43"/>
<polygon fill="#333333" stroke="#333333" points="318.49,-495.78 328.25,-499.89 323.19,-490.59 318.49,-495.78"/>
<text xml:space="preserve" text-anchor="middle" x="211.21" y="-422.72" font-family="Arial" font-size="10.00">if needed</text>
</g>
<!-- init_script -->
<g id="node9" class="node">
<title>init_script</title>
<ellipse fill="#66bb6a" stroke="black" cx="564.75" cy="-519.18" rx="77.97" ry="18"/>
<text xml:space="preserve" text-anchor="middle" x="564.75" y="-515.88" font-family="Arial" font-size="11.00" fill="white">init.sh MyProjectName</text>
</g>
<!-- neo4j_password&#45;&gt;init_script -->
<g id="edge8" class="edge">
<title>neo4j_password&#45;&gt;init_script</title>
<path fill="none" stroke="#333333" d="M450.1,-519.18C458.52,-519.18 467.01,-519.18 475.34,-519.18"/>
<polygon fill="#333333" stroke="#333333" points="475.07,-522.68 485.07,-519.18 475.07,-515.68 475.07,-522.68"/>
</g>
<!-- cd_analysis -->
<g id="node10" class="node">
<title>cd_analysis</title>
<polygon fill="#66bb6a" stroke="black" points="898.52,-537.18 762.09,-537.18 762.09,-501.18 898.52,-501.18 898.52,-537.18"/>
<text xml:space="preserve" text-anchor="middle" x="830.3" y="-515.88" font-family="Arial" font-size="11.00" fill="white">cd temp/MyProjectName</text>
</g>
<!-- init_script&#45;&gt;cd_analysis -->
<g id="edge9" class="edge">
<title>init_script&#45;&gt;cd_analysis</title>
<path fill="none" stroke="#333333" d="M643.04,-519.18C676.89,-519.18 716.55,-519.18 750.55,-519.18"/>
<polygon fill="#333333" stroke="#333333" points="750.34,-522.68 760.34,-519.18 750.34,-515.68 750.34,-522.68"/>
<text xml:space="preserve" text-anchor="middle" x="702.41" y="-522.18" font-family="Arial" font-size="10.00">creates workspace</text>
</g>
<!-- prepare_java -->
<g id="node11" class="node">
<title>prepare_java</title>
<polygon fill="#ffb74d" stroke="black" points="1072.46,-607.18 990.44,-607.18 990.44,-571.18 1072.46,-571.18 1072.46,-607.18"/>
<text xml:space="preserve" text-anchor="middle" x="1031.45" y="-585.88" font-family="Arial" font-size="11.00" fill="white">Java Artifacts</text>
</g>
<!-- cd_analysis&#45;&gt;prepare_java -->
<g id="edge10" class="edge">
<title>cd_analysis&#45;&gt;prepare_java</title>
<path fill="none" stroke="#333333" d="M883.89,-537.66C913.42,-548.04 950.1,-560.94 979.38,-571.23"/>
<polygon fill="#333333" stroke="#333333" points="978.19,-574.52 988.78,-574.54 980.51,-567.92 978.19,-574.52"/>
</g>
<!-- prepare_typescript -->
<g id="node13" class="node">
<title>prepare_typescript</title>
<polygon fill="#ffb74d" stroke="black" points="1080.41,-553.18 982.49,-553.18 982.49,-517.18 1080.41,-517.18 1080.41,-553.18"/>
<text xml:space="preserve" text-anchor="middle" x="1031.45" y="-531.88" font-family="Arial" font-size="11.00" fill="white">TypeScript Code</text>
</g>
<!-- cd_analysis&#45;&gt;prepare_typescript -->
<g id="edge11" class="edge">
<title>cd_analysis&#45;&gt;prepare_typescript</title>
<path fill="none" stroke="#333333" d="M899,-524.62C922.24,-526.49 948.07,-528.56 970.63,-530.37"/>
<polygon fill="#333333" stroke="#333333" points="970.35,-533.86 980.6,-531.18 970.91,-526.89 970.35,-533.86"/>
</g>
<!-- prepare_git -->
<g id="node15" class="node">
<title>prepare_git</title>
<polygon fill="#ffb74d" stroke="black" points="1065.12,-499.18 997.78,-499.18 997.78,-463.18 1065.12,-463.18 1065.12,-499.18"/>
<text xml:space="preserve" text-anchor="middle" x="1031.45" y="-477.88" font-family="Arial" font-size="11.00" fill="white">Git History</text>
</g>
<!-- cd_analysis&#45;&gt;prepare_git -->
<g id="edge12" class="edge">
<title>cd_analysis&#45;&gt;prepare_git</title>
<path fill="none" stroke="#333333" d="M899,-506.26C927.75,-500.78 960.46,-494.53 986.06,-489.65"/>
<polygon fill="#333333" stroke="#333333" points="986.63,-493.11 995.8,-487.79 985.32,-486.23 986.63,-493.11"/>
</g>
<!-- download_alt -->
<g id="node17" class="node">
<title>download_alt</title>
<polygon fill="#ffd54f" stroke="black" stroke-dasharray="5,2" points="1082.25,-445.18 980.65,-445.18 980.65,-409.18 1082.25,-409.18 1082.25,-445.18"/>
<text xml:space="preserve" text-anchor="middle" x="1031.45" y="-430.48" font-family="Arial" font-size="11.00" fill="#333333">Alternative:</text>
<text xml:space="preserve" text-anchor="middle" x="1031.45" y="-417.28" font-family="Arial" font-size="11.00" fill="#333333">Download Scripts</text>
</g>
<!-- cd_analysis&#45;&gt;download_alt -->
<g id="edge13" class="edge">
<title>cd_analysis&#45;&gt;download_alt</title>
<path fill="none" stroke="#333333" stroke-dasharray="5,2" d="M868.95,-500.79C883.74,-493.64 900.88,-485.44 916.52,-478.18 936.5,-468.9 958.58,-458.95 977.94,-450.32"/>
<polygon fill="#333333" stroke="#333333" points="979.29,-453.55 987.01,-446.29 976.45,-447.16 979.29,-453.55"/>
<text xml:space="preserve" text-anchor="middle" x="939.58" y="-481.18" font-family="Arial" font-size="10.00">alternative</text>
</g>
<!-- artifacts_dir -->
<g id="node12" class="node">
<title>artifacts_dir</title>
<polygon fill="#ffb74d" stroke="black" points="1213.8,-607.18 1140.34,-607.18 1140.34,-571.18 1213.8,-571.18 1213.8,-607.18"/>
<text xml:space="preserve" text-anchor="middle" x="1177.07" y="-592.48" font-family="Arial" font-size="11.00" fill="white">Put JARs in</text>
<text xml:space="preserve" text-anchor="middle" x="1177.07" y="-579.28" font-family="Arial" font-size="11.00" fill="white">./artifacts</text>
</g>
<!-- prepare_java&#45;&gt;artifacts_dir -->
<g id="edge14" class="edge">
<title>prepare_java&#45;&gt;artifacts_dir</title>
<path fill="none" stroke="#333333" d="M1072.84,-589.18C1090.12,-589.18 1110.44,-589.18 1128.45,-589.18"/>
<polygon fill="#333333" stroke="#333333" points="1128.39,-592.68 1138.39,-589.18 1128.39,-585.68 1128.39,-592.68"/>
</g>
<!-- analyze_script -->
<g id="node18" class="node">
<title>analyze_script</title>
<ellipse fill="#ba68c8" stroke="black" cx="1314.32" cy="-512.18" rx="42.43" ry="18"/>
<text xml:space="preserve" text-anchor="middle" x="1314.32" y="-508.88" font-family="Arial" font-size="11.00" fill="white">analyze.sh</text>
</g>
<!-- artifacts_dir&#45;&gt;analyze_script -->
<g id="edge17" class="edge">
<title>artifacts_dir&#45;&gt;analyze_script</title>
<path fill="none" stroke="#333333" d="M1214.07,-575.86C1223.64,-571.87 1233.83,-567.2 1242.89,-562.18 1257.21,-554.25 1272.13,-543.99 1284.52,-534.83"/>
<polygon fill="#333333" stroke="#333333" points="1286.37,-537.82 1292.26,-529 1282.16,-532.22 1286.37,-537.82"/>
</g>
<!-- ts_option -->
<g id="node14" class="node">
<title>ts_option</title>
<polygon fill="#ffb74d" stroke="black" points="1230,-553.18 1124.14,-553.18 1124.14,-517.18 1230,-517.18 1230,-553.18"/>
<text xml:space="preserve" text-anchor="middle" x="1177.07" y="-538.48" font-family="Arial" font-size="11.00" fill="white">Symlink or copy to</text>
<text xml:space="preserve" text-anchor="middle" x="1177.07" y="-525.28" font-family="Arial" font-size="11.00" fill="white">./source</text>
</g>
<!-- prepare_typescript&#45;&gt;ts_option -->
<g id="edge15" class="edge">
<title>prepare_typescript&#45;&gt;ts_option</title>
<path fill="none" stroke="#333333" d="M1080.67,-535.18C1090.85,-535.18 1101.73,-535.18 1112.37,-535.18"/>
<polygon fill="#333333" stroke="#333333" points="1112.27,-538.68 1122.27,-535.18 1112.27,-531.68 1112.27,-538.68"/>
</g>
<!-- ts_option&#45;&gt;analyze_script -->
<g id="edge18" class="edge">
<title>ts_option&#45;&gt;analyze_script</title>
<path fill="none" stroke="#333333" d="M1230.36,-526.29C1241.17,-524.45 1252.53,-522.52 1263.26,-520.69"/>
<polygon fill="#333333" stroke="#333333" points="1263.83,-524.15 1273.1,-519.02 1262.66,-517.25 1263.83,-524.15"/>
</g>
<!-- git_option -->
<g id="node16" class="node">
<title>git_option</title>
<polygon fill="#ffb74d" stroke="black" points="1234.89,-498.98 1119.25,-498.98 1119.25,-451.38 1234.89,-451.38 1234.89,-498.98"/>
<text xml:space="preserve" text-anchor="middle" x="1177.07" y="-485.08" font-family="Arial" font-size="11.00" fill="white">Symlink or clone to</text>
<text xml:space="preserve" text-anchor="middle" x="1177.07" y="-471.88" font-family="Arial" font-size="11.00" fill="white">./source</text>
<text xml:space="preserve" text-anchor="middle" x="1177.07" y="-458.68" font-family="Arial" font-size="11.00" fill="white">(use &#45;&#45;bare for Java)</text>
</g>
<!-- prepare_git&#45;&gt;git_option -->
<g id="edge16" class="edge">
<title>prepare_git&#45;&gt;git_option</title>
<path fill="none" stroke="#333333" d="M1065.4,-479.8C1078,-479.28 1092.89,-478.66 1107.6,-478.04"/>
<polygon fill="#333333" stroke="#333333" points="1107.41,-481.55 1117.25,-477.64 1107.11,-474.56 1107.41,-481.55"/>
</g>
<!-- git_option&#45;&gt;analyze_script -->
<g id="edge19" class="edge">
<title>git_option&#45;&gt;analyze_script</title>
<path fill="none" stroke="#333333" d="M1235.04,-490.76C1245.75,-493.69 1256.82,-496.72 1267.15,-499.55"/>
<polygon fill="#333333" stroke="#333333" points="1265.99,-502.86 1276.56,-502.12 1267.84,-496.11 1265.99,-502.86"/>
</g>
<!-- download_alt&#45;&gt;analyze_script -->
<g id="edge20" class="edge">
<title>download_alt&#45;&gt;analyze_script</title>
<path fill="none" stroke="#333333" stroke-dasharray="5,2" d="M1082.37,-418.33C1127.72,-413 1194.7,-412.17 1242.89,-442.18 1258.62,-451.97 1251.29,-464.6 1263.89,-478.18 1268.19,-482.81 1273.22,-487.15 1278.4,-491.08"/>
<polygon fill="#333333" stroke="#333333" points="1276.34,-493.91 1286.52,-496.82 1280.37,-488.19 1276.34,-493.91"/>
</g>
<!-- report_csv -->
<g id="node19" class="node">
<title>report_csv</title>
<polygon fill="#ce93d8" stroke="black" points="1561.45,-368.18 1454.33,-368.18 1454.33,-332.18 1561.45,-332.18 1561.45,-368.18"/>
<text xml:space="preserve" text-anchor="middle" x="1507.89" y="-353.48" font-family="Arial" font-size="11.00" fill="white">&#45;&#45;report Csv</text>
<text xml:space="preserve" text-anchor="middle" x="1507.89" y="-340.28" font-family="Arial" font-size="11.00" fill="white">(no dependencies)</text>
</g>
<!-- analyze_script&#45;&gt;report_csv -->
<g id="edge21" class="edge">
<title>analyze_script&#45;&gt;report_csv</title>
<path fill="none" stroke="#333333" d="M1347.47,-500.49C1356.25,-497.54 1365.81,-494.54 1374.76,-492.18 1399.57,-485.63 1413.49,-499.51 1431.45,-481.18 1464.29,-447.68 1421.01,-414.49 1449.45,-377.18 1449.61,-376.98 1449.77,-376.78 1449.92,-376.58"/>
<polygon fill="#333333" stroke="#333333" points="1452.36,-379.09 1457.05,-369.59 1447.46,-374.09 1452.36,-379.09"/>
</g>
<!-- report_python -->
<g id="node20" class="node">
<title>report_python</title>
<polygon fill="#ce93d8" stroke="black" points="1558.08,-422.18 1457.71,-422.18 1457.71,-386.18 1558.08,-386.18 1558.08,-422.18"/>
<text xml:space="preserve" text-anchor="middle" x="1507.89" y="-407.48" font-family="Arial" font-size="11.00" fill="white">&#45;&#45;report Python</text>
<text xml:space="preserve" text-anchor="middle" x="1507.89" y="-394.28" font-family="Arial" font-size="11.00" fill="white">(requires Python)</text>
</g>
<!-- analyze_script&#45;&gt;report_python -->
<g id="edge22" class="edge">
<title>analyze_script&#45;&gt;report_python</title>
<path fill="none" stroke="#333333" d="M1353.68,-505.03C1360.69,-503.74 1367.94,-502.41 1374.76,-501.18 1399.94,-496.63 1412.33,-508.19 1431.45,-491.18 1452.26,-472.68 1431.28,-452.27 1449.45,-431.18 1449.71,-430.88 1449.97,-430.59 1450.24,-430.3"/>
<polygon fill="#333333" stroke="#333333" points="1452.54,-432.93 1457.69,-423.68 1447.89,-427.7 1452.54,-432.93"/>
</g>
<!-- report_viz -->
<g id="node21" class="node">
<title>report_viz</title>
<polygon fill="#ce93d8" stroke="black" points="1566.33,-476.18 1449.45,-476.18 1449.45,-440.18 1566.33,-440.18 1566.33,-476.18"/>
<text xml:space="preserve" text-anchor="middle" x="1507.89" y="-461.48" font-family="Arial" font-size="11.00" fill="white">&#45;&#45;report Visualization</text>
<text xml:space="preserve" text-anchor="middle" x="1507.89" y="-448.28" font-family="Arial" font-size="11.00" fill="white">(requires GraphViz)</text>
</g>
<!-- analyze_script&#45;&gt;report_viz -->
<g id="edge23" class="edge">
<title>analyze_script&#45;&gt;report_viz</title>
<path fill="none" stroke="#333333" d="M1356.85,-509.91C1384.56,-507.94 1418.25,-504.55 1431.45,-499.18 1440.84,-495.36 1440.82,-490.48 1449.45,-485.18 1451.29,-484.06 1453.17,-482.95 1455.09,-481.86"/>
<polygon fill="#333333" stroke="#333333" points="1456.42,-485.12 1463.57,-477.3 1453.11,-478.95 1456.42,-485.12"/>
</g>
<!-- report_markdown -->
<g id="node22" class="node">
<title>report_markdown</title>
<polygon fill="#ce93d8" stroke="black" points="1560.82,-530.18 1454.96,-530.18 1454.96,-494.18 1560.82,-494.18 1560.82,-530.18"/>
<text xml:space="preserve" text-anchor="middle" x="1507.89" y="-508.88" font-family="Arial" font-size="11.00" fill="white">&#45;&#45;report Markdown</text>
</g>
<!-- analyze_script&#45;&gt;report_markdown -->
<g id="edge24" class="edge">
<title>analyze_script&#45;&gt;report_markdown</title>
<path fill="none" stroke="#333333" d="M1356.89,-512.18C1382.13,-512.18 1414.87,-512.18 1443.31,-512.18"/>
<polygon fill="#333333" stroke="#333333" points="1443.28,-515.68 1453.28,-512.18 1443.28,-508.68 1443.28,-515.68"/>
</g>
<!-- report_all -->
<g id="node23" class="node">
<title>report_all</title>
<polygon fill="#ce93d8" stroke="black" points="1560.84,-584.18 1454.95,-584.18 1454.95,-548.18 1560.84,-548.18 1560.84,-584.18"/>
<text xml:space="preserve" text-anchor="middle" x="1507.89" y="-569.48" font-family="Arial" font-size="11.00" fill="white">&#45;&#45;report All</text>
<text xml:space="preserve" text-anchor="middle" x="1507.89" y="-556.28" font-family="Arial" font-size="11.00" fill="white">(all dependencies)</text>
</g>
<!-- analyze_script&#45;&gt;report_all -->
<g id="edge25" class="edge">
<title>analyze_script&#45;&gt;report_all</title>
<path fill="none" stroke="#333333" d="M1350.46,-522.08C1376.55,-529.44 1412.83,-539.67 1443.89,-548.42"/>
<polygon fill="#333333" stroke="#333333" points="1442.6,-551.69 1453.18,-551.04 1444.5,-544.96 1442.6,-551.69"/>
</g>
<!-- explore_only -->
<g id="node24" class="node">
<title>explore_only</title>
<polygon fill="#e1bee7" stroke="black" stroke-dasharray="5,2" points="1553.49,-638.18 1462.29,-638.18 1462.29,-602.18 1553.49,-602.18 1553.49,-638.18"/>
<text xml:space="preserve" text-anchor="middle" x="1507.89" y="-623.48" font-family="Arial" font-size="11.00" fill="#333333">&#45;&#45;explore</text>
<text xml:space="preserve" text-anchor="middle" x="1507.89" y="-610.28" font-family="Arial" font-size="11.00" fill="#333333">(manual Neo4j)</text>
</g>
<!-- analyze_script&#45;&gt;explore_only -->
<g id="edge26" class="edge">
<title>analyze_script&#45;&gt;explore_only</title>
<path fill="none" stroke="#333333" stroke-dasharray="5,2" d="M1338.64,-527.27C1365.06,-544.14 1409.64,-571.87 1449.45,-593.18 1451.66,-594.36 1453.94,-595.55 1456.24,-596.73"/>
<polygon fill="#333333" stroke="#333333" points="1454.59,-599.82 1465.1,-601.15 1457.72,-593.55 1454.59,-599.82"/>
</g>
<!-- domain_filter -->
<g id="node25" class="node">
<title>domain_filter</title>
<polygon fill="#e1bee7" stroke="black" stroke-dasharray="5,2" points="1559.3,-692.18 1456.48,-692.18 1456.48,-656.18 1559.3,-656.18 1559.3,-692.18"/>
<text xml:space="preserve" text-anchor="middle" x="1507.89" y="-677.48" font-family="Arial" font-size="11.00" fill="#333333">&#45;&#45;domain &lt;name&gt;</text>
<text xml:space="preserve" text-anchor="middle" x="1507.89" y="-664.28" font-family="Arial" font-size="11.00" fill="#333333">(optional)</text>
</g>
<!-- analyze_script&#45;&gt;domain_filter -->
<g id="edge27" class="edge">
<title>analyze_script&#45;&gt;domain_filter</title>
<path fill="none" stroke="#333333" stroke-dasharray="5,2" d="M1329.02,-529.45C1351.68,-557.16 1399.48,-611.99 1449.45,-647.18 1450.81,-648.13 1452.2,-649.06 1453.62,-649.98"/>
<polygon fill="#333333" stroke="#333333" points="1451.63,-652.87 1462.02,-654.93 1455.18,-646.84 1451.63,-652.87"/>
<text xml:space="preserve" text-anchor="middle" x="1403.11" y="-634.57" font-family="Arial" font-size="10.00">optional filter</text>
</g>
<!-- reports -->
<g id="node29" class="node">
<title>reports</title>
<polygon fill="#ec407a" stroke="black" points="172.01,-293.18 16.63,-293.18 16.63,-257.18 172.01,-257.18 172.01,-293.18"/>
<text xml:space="preserve" text-anchor="middle" x="94.32" y="-278.48" font-family="Arial" font-size="11.00" fill="white">Generated Reports</text>
<text xml:space="preserve" text-anchor="middle" x="94.32" y="-265.28" font-family="Arial" font-size="11.00" fill="white">(CSV/Python/Viz/Markdown)</text>
</g>
<!-- report_csv&#45;&gt;reports -->
<g id="edge28" class="edge">
<title>report_csv&#45;&gt;reports</title>
<path fill="none" stroke="#333333" d="M1453.91,-353.44C1327.91,-361.4 1017.54,-382.24 972.65,-397.18 939.84,-408.1 939.78,-428.71 906.52,-438.18 816.81,-463.73 557.23,-496.31 486.78,-435.18 404.93,-364.16 532.02,-264.75 449.78,-194.18 379.63,-133.98 329.19,-164.09 241.78,-194.18 204.91,-206.87 206.87,-229.5 172.64,-248.18 170.12,-249.55 167.53,-250.87 164.88,-252.15"/>
<polygon fill="#333333" stroke="#333333" points="163.54,-248.91 155.84,-256.19 166.39,-255.3 163.54,-248.91"/>
</g>
<!-- report_python&#45;&gt;reports -->
<g id="edge29" class="edge">
<title>report_python&#45;&gt;reports</title>
<path fill="none" stroke="#333333" d="M1457.51,-394.43C1404.66,-384.52 1318.24,-369.86 1242.89,-364.18 1188.09,-360.05 1174.15,-361.75 1119.25,-364.18 1053.9,-367.07 1037.41,-367.97 972.65,-377.18 942.99,-381.4 936.33,-387.28 906.52,-390.18 813.67,-399.22 555.39,-447.39 486.78,-384.18 448.87,-349.25 491.68,-185.21 449.78,-155.18 374.64,-101.33 329.37,-125.6 241.78,-155.18 228.24,-159.75 198.95,-182.55 190.64,-194.18 175.93,-214.76 190.4,-230.17 172.64,-248.18 172.04,-248.79 171.42,-249.38 170.8,-249.96"/>
<polygon fill="#333333" stroke="#333333" points="168.94,-246.97 163.17,-255.86 173.23,-252.51 168.94,-246.97"/>
</g>
<!-- report_viz&#45;&gt;reports -->
<g id="edge30" class="edge">
<title>report_viz&#45;&gt;reports</title>
<path fill="none" stroke="#333333" d="M1464.51,-439.71C1401.79,-412.79 1286.93,-365.21 1242.89,-358.18 1159.82,-344.93 548.93,-376.87 486.78,-320.18 465.89,-301.12 474.26,-221.93 468.78,-194.18 462.12,-160.45 476.92,-140.3 449.78,-119.18 376.83,-62.4 329.18,-89.06 241.78,-119.18 214.5,-128.58 205.8,-134.63 190.64,-159.18 169.43,-193.51 199.16,-217.77 172.64,-248.18 172.29,-248.58 171.93,-248.98 171.57,-249.37"/>
<polygon fill="#333333" stroke="#333333" points="169.52,-246.51 164.29,-255.73 174.12,-251.79 169.52,-246.51"/>
</g>
<!-- report_markdown&#45;&gt;reports -->
<g id="edge31" class="edge">
<title>report_markdown&#45;&gt;reports</title>
<path fill="none" stroke="#333333" d="M1465.74,-493.72C1460.2,-490.98 1454.64,-488.09 1449.45,-485.18 1353.81,-431.52 1346.71,-385.55 1242.89,-350.18 1081.85,-295.31 612.23,-345.1 486.78,-230.18 461.78,-207.28 476.5,-103.04 449.78,-82.18 376.92,-25.29 329.18,-52.06 241.78,-82.18 214.5,-91.58 205.09,-97.2 190.64,-122.18 162.31,-171.14 208.57,-204.49 172.64,-248.18 172.3,-248.59 171.95,-249 171.6,-249.4"/>
<polygon fill="#333333" stroke="#333333" points="169.51,-246.56 164.48,-255.89 174.23,-251.74 169.51,-246.56"/>
</g>
<!-- report_all&#45;&gt;reports -->
<g id="edge32" class="edge">
<title>report_all&#45;&gt;reports</title>
<path fill="none" stroke="#333333" d="M1463.27,-547.78C1458.46,-545.14 1453.75,-542.26 1449.45,-539.18 1395.62,-500.55 1299.24,-359.04 1242.89,-324.18 943.5,-138.98 780.98,-281.52 486.78,-88.18 465.71,-74.33 472.7,-55.69 449.78,-45.18 365.76,-6.63 329.73,-16.7 241.78,-45.18 215.09,-53.82 204.73,-57.92 190.64,-82.18 153.36,-146.35 218.8,-190.08 172.64,-248.18 172.4,-248.48 172.15,-248.78 171.9,-249.08"/>
<polygon fill="#333333" stroke="#333333" points="169.76,-246.28 164.93,-255.71 174.59,-251.36 169.76,-246.28"/>
</g>
<!-- neo4j_web -->
<g id="node26" class="node">
<title>neo4j_web</title>
<polygon fill="#ec407a" stroke="black" points="172.64,-239.18 16,-239.18 16,-203.18 172.64,-203.18 172.64,-239.18"/>
<text xml:space="preserve" text-anchor="middle" x="94.32" y="-224.48" font-family="Arial" font-size="11.00" fill="white">Neo4j Web UI</text>
<text xml:space="preserve" text-anchor="middle" x="94.32" y="-211.28" font-family="Arial" font-size="11.00" fill="white">http://localhost:7474/browser</text>
</g>
<!-- explore_only&#45;&gt;neo4j_web -->
<g id="edge33" class="edge">
<title>explore_only&#45;&gt;neo4j_web</title>
<path fill="none" stroke="#333333" stroke-dasharray="5,2" d="M1461.88,-603.35C1457.32,-600.43 1453.05,-597.06 1449.45,-593.18 1434.23,-576.79 1441.64,-566.1 1431.45,-546.18 1361.79,-409.96 1365.28,-349.99 1242.89,-258.18 1227.1,-246.33 596.25,74.5 241.78,-16.18 160.99,-36.85 119.3,-140.43 103.28,-191.96"/>
<polygon fill="#333333" stroke="#333333" points="99.93,-190.96 100.43,-201.55 106.64,-192.96 99.93,-190.96"/>
</g>
<!-- username -->
<g id="node27" class="node">
<title>username</title>
<polygon fill="#f48fb1" stroke="black" points="385.91,-239.18 313.66,-239.18 313.66,-203.18 385.91,-203.18 385.91,-239.18"/>
<text xml:space="preserve" text-anchor="middle" x="349.78" y="-217.88" font-family="Arial" font-size="11.00" fill="white">User: neo4j</text>
</g>
<!-- neo4j_web&#45;&gt;username -->
<g id="edge34" class="edge">
<title>neo4j_web&#45;&gt;username</title>
<path fill="none" stroke="#333333" d="M173.09,-221.18C215.24,-221.18 265.93,-221.18 302.01,-221.18"/>
<polygon fill="#333333" stroke="#333333" points="301.66,-224.68 311.66,-221.18 301.66,-217.68 301.66,-224.68"/>
</g>
<!-- password_use -->
<g id="node28" class="node">
<title>password_use</title>
<polygon fill="#f48fb1" stroke="black" points="432.36,-293.18 267.21,-293.18 267.21,-257.18 432.36,-257.18 432.36,-293.18"/>
<text xml:space="preserve" text-anchor="middle" x="349.78" y="-278.48" font-family="Arial" font-size="11.00" fill="white">Password:</text>
<text xml:space="preserve" text-anchor="middle" x="349.78" y="-265.28" font-family="Arial" font-size="11.00" fill="white">NEO4J_INITIAL_PASSWORD</text>
</g>
<!-- neo4j_web&#45;&gt;password_use -->
<g id="edge35" class="edge">
<title>neo4j_web&#45;&gt;password_use</title>
<path fill="none" stroke="#333333" d="M173.09,-237.75C199.18,-243.31 228.54,-249.56 255.69,-255.35"/>
<polygon fill="#333333" stroke="#333333" points="254.78,-258.73 265.29,-257.39 256.23,-251.88 254.78,-258.73"/>
</g>
</g>
</svg>

