<?xml version="1.0" encoding="UTF-8" standalone="no"?>
<!DOCTYPE svg PUBLIC "-//W3C//DTD SVG 1.1//EN"
 "http://www.w3.org/Graphics/SVG/1.1/DTD/svg11.dtd">
<!-- Generated by graphviz version 12.2.1 (0)
 -->
<!-- Title: JavaArtifactLongestPaths Pages: 1 -->
<svg width="1028pt" height="755pt"
 viewBox="0.00 0.00 1028.30 754.65" xmlns="http://www.w3.org/2000/svg" xmlns:xlink="http://www.w3.org/1999/xlink">
<g id="graph0" class="graph" transform="scale(1 1) rotate(0) translate(4 750.65)">
<title>JavaArtifactLongestPaths</title>
<polygon fill="white" stroke="none" points="-4,4 -4,-750.65 1024.3,-750.65 1024.3,4 -4,4"/>
<!-- axon&#45;eventsourcing&#45;4.10.3\n(level 4/6) -->
<g id="node1" class="node">
<title>axon&#45;eventsourcing&#45;4.10.3\n(level 4/6)</title>
<ellipse fill="#98dafe" stroke="#1178b2" cx="274" cy="-243.08" rx="117.43" ry="29.42"/>
<text text-anchor="middle" x="274" y="-247.28" font-family="Helvetica,Arial,sans-serif" font-size="14.00">axon&#45;eventsourcing&#45;4.10.3</text>
<text text-anchor="middle" x="274" y="-230.48" font-family="Helvetica,Arial,sans-serif" font-size="14.00">(level 4/6)</text>
</g>
<!-- axon&#45;messaging&#45;4.10.3\n(level 6/6) -->
<g id="node2" class="node">
<title>axon&#45;messaging&#45;4.10.3\n(level 6/6)</title>
<ellipse fill="#98dafe" stroke="#1178b2" cx="594" cy="-29.42" rx="103.69" ry="29.42"/>
<text text-anchor="middle" x="594" y="-33.62" font-family="Helvetica,Arial,sans-serif" font-size="14.00">axon&#45;messaging&#45;4.10.3</text>
<text text-anchor="middle" x="594" y="-16.82" font-family="Helvetica,Arial,sans-serif" font-size="14.00">(level 6/6)</text>
</g>
<!-- axon&#45;eventsourcing&#45;4.10.3\n(level 4/6)&#45;&gt;axon&#45;messaging&#45;4.10.3\n(level 6/6) -->
<g id="edge1" class="edge">
<title>axon&#45;eventsourcing&#45;4.10.3\n(level 4/6)&#45;&gt;axon&#45;messaging&#45;4.10.3\n(level 6/6)</title>
<path fill="none" stroke="#1178b2" stroke-width="5.3" d="M271.51,-213.3C270.55,-182.86 274.05,-135.39 301,-106.83 326.63,-79.67 414.06,-59.12 486.79,-46.21"/>
<polygon fill="#1178b2" stroke="#1178b2" stroke-width="5.3" points="487.27,-50.83 496.33,-44.56 485.69,-41.69 487.27,-50.83"/>
<text text-anchor="middle" x="308.5" y="-133.25" font-family="Helvetica,Arial,sans-serif" font-size="10.00">650</text>
</g>
<!-- axon&#45;modelling&#45;4.10.3\n(level 5/6) -->
<g id="node3" class="node">
<title>axon&#45;modelling&#45;4.10.3\n(level 5/6)</title>
<ellipse fill="#98dafe" stroke="#1178b2" cx="427" cy="-136.25" rx="102.04" ry="29.42"/>
<text text-anchor="middle" x="427" y="-140.45" font-family="Helvetica,Arial,sans-serif" font-size="14.00">axon&#45;modelling&#45;4.10.3</text>
<text text-anchor="middle" x="427" y="-123.65" font-family="Helvetica,Arial,sans-serif" font-size="14.00">(level 5/6)</text>
</g>
<!-- axon&#45;eventsourcing&#45;4.10.3\n(level 4/6)&#45;&gt;axon&#45;modelling&#45;4.10.3\n(level 5/6) -->
<g id="edge2" class="edge">
<title>axon&#45;eventsourcing&#45;4.10.3\n(level 4/6)&#45;&gt;axon&#45;modelling&#45;4.10.3\n(level 5/6)</title>
<path fill="none" stroke="red" stroke-width="1.52" d="M313.4,-215.08C333.18,-201.53 357.34,-184.98 378.27,-170.63"/>
<polygon fill="red" stroke="red" stroke-width="1.52" points="380.09,-173.63 386.36,-165.09 376.14,-167.85 380.09,-173.63"/>
<text text-anchor="middle" x="360.09" y="-186.66" font-family="Helvetica,Arial,sans-serif" font-size="10.00">80</text>
</g>
<!-- axon&#45;modelling&#45;4.10.3\n(level 5/6)&#45;&gt;axon&#45;messaging&#45;4.10.3\n(level 6/6) -->
<g id="edge19" class="edge">
<title>axon&#45;modelling&#45;4.10.3\n(level 5/6)&#45;&gt;axon&#45;messaging&#45;4.10.3\n(level 6/6)</title>
<path fill="none" stroke="red" stroke-width="5.92" d="M468.71,-109.06C489.83,-95.81 515.76,-79.53 538.54,-65.23"/>
<polygon fill="red" stroke="red" stroke-width="5.92" points="541.08,-69.75 546.79,-60.05 535.57,-60.98 541.08,-69.75"/>
<text text-anchor="middle" x="523.01" y="-79.83" font-family="Helvetica,Arial,sans-serif" font-size="10.00">744</text>
</g>
<!-- axon&#45;spring&#45;boot&#45;autoconfigure&#45;4.10.3\n(level 0/6) -->
<g id="node4" class="node">
<title>axon&#45;spring&#45;boot&#45;autoconfigure&#45;4.10.3\n(level 0/6)</title>
<ellipse fill="#98dafe" stroke="#1178b2" cx="366" cy="-717.23" rx="165.81" ry="29.42"/>
<text text-anchor="middle" x="366" y="-721.43" font-family="Helvetica,Arial,sans-serif" font-size="14.00">axon&#45;spring&#45;boot&#45;autoconfigure&#45;4.10.3</text>
<text text-anchor="middle" x="366" y="-704.63" font-family="Helvetica,Arial,sans-serif" font-size="14.00">(level 0/6)</text>
</g>
<!-- axon&#45;spring&#45;boot&#45;autoconfigure&#45;4.10.3\n(level 0/6)&#45;&gt;axon&#45;eventsourcing&#45;4.10.3\n(level 4/6) -->
<g id="edge7" class="edge">
<title>axon&#45;spring&#45;boot&#45;autoconfigure&#45;4.10.3\n(level 0/6)&#45;&gt;axon&#45;eventsourcing&#45;4.10.3\n(level 4/6)</title>
<path fill="none" stroke="#1178b2" stroke-width="1.33" d="M278.68,-691.96C242.14,-675.98 208,-650.58 208,-611.4 208,-611.4 208,-611.4 208,-348.91 208,-323.7 221.83,-299.61 236.83,-280.88"/>
<polygon fill="#1178b2" stroke="#1178b2" stroke-width="1.33" points="239.37,-283.3 243.17,-273.41 234.03,-278.77 239.37,-283.3"/>
<text text-anchor="middle" x="213" y="-453.74" font-family="Helvetica,Arial,sans-serif" font-size="10.00">52</text>
</g>
<!-- axon&#45;spring&#45;boot&#45;autoconfigure&#45;4.10.3\n(level 0/6)&#45;&gt;axon&#45;messaging&#45;4.10.3\n(level 6/6) -->
<g id="edge3" class="edge">
<title>axon&#45;spring&#45;boot&#45;autoconfigure&#45;4.10.3\n(level 0/6)&#45;&gt;axon&#45;messaging&#45;4.10.3\n(level 6/6)</title>
<path fill="none" stroke="#1178b2" stroke-width="3.53" d="M500.77,-699.85C596.09,-684.36 707,-656.62 707,-611.4 707,-611.4 707,-611.4 707,-135.25 707,-104.8 684.68,-80.71 659.88,-63.34"/>
<polygon fill="#1178b2" stroke="#1178b2" stroke-width="3.53" points="661.97,-60.52 651.67,-58.02 658.16,-66.4 661.97,-60.52"/>
<text text-anchor="middle" x="714.5" y="-346.91" font-family="Helvetica,Arial,sans-serif" font-size="10.00">384</text>
</g>
<!-- axon&#45;spring&#45;boot&#45;autoconfigure&#45;4.10.3\n(level 0/6)&#45;&gt;axon&#45;modelling&#45;4.10.3\n(level 5/6) -->
<g id="edge6" class="edge">
<title>axon&#45;spring&#45;boot&#45;autoconfigure&#45;4.10.3\n(level 0/6)&#45;&gt;axon&#45;modelling&#45;4.10.3\n(level 5/6)</title>
<path fill="none" stroke="#1178b2" stroke-width="1.23" d="M223.45,-701.83C120.68,-687.34 0,-659.98 0,-611.4 0,-611.4 0,-611.4 0,-348.91 0,-247.6 60.73,-215.21 157,-183.66 226.26,-160.97 248.36,-179.05 320,-165.66 328.05,-164.16 336.39,-162.37 344.7,-160.42"/>
<polygon fill="#1178b2" stroke="#1178b2" stroke-width="1.23" points="345.26,-163.89 354.16,-158.14 343.62,-157.08 345.26,-163.89"/>
<text text-anchor="middle" x="5" y="-400.33" font-family="Helvetica,Arial,sans-serif" font-size="10.00">36</text>
</g>
<!-- axon&#45;test&#45;4.10.3\n(level 1/6) -->
<g id="node5" class="node">
<title>axon&#45;test&#45;4.10.3\n(level 1/6)</title>
<ellipse fill="#98dafe" stroke="#1178b2" cx="104" cy="-349.91" rx="75.65" ry="29.42"/>
<text text-anchor="middle" x="104" y="-354.11" font-family="Helvetica,Arial,sans-serif" font-size="14.00">axon&#45;test&#45;4.10.3</text>
<text text-anchor="middle" x="104" y="-337.31" font-family="Helvetica,Arial,sans-serif" font-size="14.00">(level 1/6)</text>
</g>
<!-- axon&#45;spring&#45;boot&#45;autoconfigure&#45;4.10.3\n(level 0/6)&#45;&gt;axon&#45;test&#45;4.10.3\n(level 1/6) -->
<g id="edge4" class="edge">
<title>axon&#45;spring&#45;boot&#45;autoconfigure&#45;4.10.3\n(level 0/6)&#45;&gt;axon&#45;test&#45;4.10.3\n(level 1/6)</title>
<path fill="none" stroke="darkorange" stroke-width="1.01" d="M238.51,-698.17C222.02,-691.39 206.54,-682.21 194,-669.82 117.39,-594.08 104.7,-458.51 103.41,-391.16"/>
<polygon fill="darkorange" stroke="darkorange" stroke-width="1.01" points="106.91,-391.29 103.31,-381.33 99.91,-391.36 106.91,-391.29"/>
<text text-anchor="middle" x="133.01" y="-530.57" font-family="Helvetica,Arial,sans-serif" font-size="10.00">4</text>
</g>
<!-- axon&#45;configuration&#45;4.10.3\n(level 2/6) -->
<g id="node6" class="node">
<title>axon&#45;configuration&#45;4.10.3\n(level 2/6)</title>
<ellipse fill="#98dafe" stroke="#1178b2" cx="437" cy="-456.74" rx="115.23" ry="29.42"/>
<text text-anchor="middle" x="437" y="-460.94" font-family="Helvetica,Arial,sans-serif" font-size="14.00">axon&#45;configuration&#45;4.10.3</text>
<text text-anchor="middle" x="437" y="-444.14" font-family="Helvetica,Arial,sans-serif" font-size="14.00">(level 2/6)</text>
</g>
<!-- axon&#45;spring&#45;boot&#45;autoconfigure&#45;4.10.3\n(level 0/6)&#45;&gt;axon&#45;configuration&#45;4.10.3\n(level 2/6) -->
<g id="edge5" class="edge">
<title>axon&#45;spring&#45;boot&#45;autoconfigure&#45;4.10.3\n(level 0/6)&#45;&gt;axon&#45;configuration&#45;4.10.3\n(level 2/6)</title>
<path fill="none" stroke="#1178b2" stroke-width="1.49" d="M364.64,-687.46C364.09,-659.7 365.25,-616.74 375,-580.99 383.2,-550.93 399.07,-519.6 412.71,-496.05"/>
<polygon fill="#1178b2" stroke="#1178b2" stroke-width="1.49" points="415.54,-498.13 417.63,-487.75 409.52,-494.56 415.54,-498.13"/>
<text text-anchor="middle" x="380" y="-607.4" font-family="Helvetica,Arial,sans-serif" font-size="10.00">76</text>
</g>
<!-- axon&#45;server&#45;connector&#45;4.10.3\n(level 1/6) -->
<g id="node7" class="node">
<title>axon&#45;server&#45;connector&#45;4.10.3\n(level 1/6)</title>
<ellipse fill="#98dafe" stroke="#1178b2" cx="522" cy="-610.4" rx="128.41" ry="29.42"/>
<text text-anchor="middle" x="522" y="-614.6" font-family="Helvetica,Arial,sans-serif" font-size="14.00">axon&#45;server&#45;connector&#45;4.10.3</text>
<text text-anchor="middle" x="522" y="-597.8" font-family="Helvetica,Arial,sans-serif" font-size="14.00">(level 1/6)</text>
</g>
<!-- axon&#45;spring&#45;boot&#45;autoconfigure&#45;4.10.3\n(level 0/6)&#45;&gt;axon&#45;server&#45;connector&#45;4.10.3\n(level 1/6) -->
<g id="edge8" class="edge">
<title>axon&#45;spring&#45;boot&#45;autoconfigure&#45;4.10.3\n(level 0/6)&#45;&gt;axon&#45;server&#45;connector&#45;4.10.3\n(level 1/6)</title>
<path fill="none" stroke="red" stroke-width="1.57" d="M407.4,-688.42C427.01,-675.24 450.62,-659.37 471.29,-645.48"/>
<polygon fill="red" stroke="red" stroke-width="1.57" points="473.17,-648.43 479.52,-639.95 469.27,-642.62 473.17,-648.43"/>
<text text-anchor="middle" x="453.68" y="-660.82" font-family="Helvetica,Arial,sans-serif" font-size="10.00">88</text>
</g>
<!-- axon&#45;tracing&#45;opentelemetry&#45;4.10.3\n(level 1/6) -->
<g id="node8" class="node">
<title>axon&#45;tracing&#45;opentelemetry&#45;4.10.3\n(level 1/6)</title>
<ellipse fill="#98dafe" stroke="#1178b2" cx="871" cy="-533.57" rx="149.3" ry="29.42"/>
<text text-anchor="middle" x="871" y="-537.77" font-family="Helvetica,Arial,sans-serif" font-size="14.00">axon&#45;tracing&#45;opentelemetry&#45;4.10.3</text>
<text text-anchor="middle" x="871" y="-520.97" font-family="Helvetica,Arial,sans-serif" font-size="14.00">(level 1/6)</text>
</g>
<!-- axon&#45;spring&#45;boot&#45;autoconfigure&#45;4.10.3\n(level 0/6)&#45;&gt;axon&#45;tracing&#45;opentelemetry&#45;4.10.3\n(level 1/6) -->
<g id="edge9" class="edge">
<title>axon&#45;spring&#45;boot&#45;autoconfigure&#45;4.10.3\n(level 0/6)&#45;&gt;axon&#45;tracing&#45;opentelemetry&#45;4.10.3\n(level 1/6)</title>
<path fill="none" stroke="darkorange" stroke-width="1.01" d="M518.27,-705.34C597.51,-697.89 685.15,-686.34 721,-669.82 769.76,-647.35 813.85,-603.38 841.41,-571.67"/>
<polygon fill="darkorange" stroke="darkorange" stroke-width="1.01" points="843.92,-574.12 847.75,-564.24 838.6,-569.57 843.92,-574.12"/>
<text text-anchor="middle" x="744.14" y="-660.82" font-family="Helvetica,Arial,sans-serif" font-size="10.00">4</text>
</g>
<!-- axon&#45;test&#45;4.10.3\n(level 1/6)&#45;&gt;axon&#45;eventsourcing&#45;4.10.3\n(level 4/6) -->
<g id="edge25" class="edge">
<title>axon&#45;test&#45;4.10.3\n(level 1/6)&#45;&gt;axon&#45;eventsourcing&#45;4.10.3\n(level 4/6)</title>
<path fill="none" stroke="#1178b2" stroke-width="1.13" d="M137.07,-322.99C151.18,-312.4 168.05,-300.35 184,-290.49 192.48,-285.26 201.61,-280.06 210.69,-275.15"/>
<polygon fill="#1178b2" stroke="#1178b2" stroke-width="1.13" points="212.19,-278.32 219.38,-270.54 208.91,-272.14 212.19,-278.32"/>
<text text-anchor="middle" x="189" y="-293.49" font-family="Helvetica,Arial,sans-serif" font-size="10.00">22</text>
</g>
<!-- axon&#45;test&#45;4.10.3\n(level 1/6)&#45;&gt;axon&#45;messaging&#45;4.10.3\n(level 6/6) -->
<g id="edge23" class="edge">
<title>axon&#45;test&#45;4.10.3\n(level 1/6)&#45;&gt;axon&#45;messaging&#45;4.10.3\n(level 6/6)</title>
<path fill="none" stroke="#1178b2" stroke-width="3.77" d="M96.39,-320.32C90.37,-291.34 85.82,-246.24 105,-213.66 163.41,-114.43 216.41,-115.12 325,-76.83 374.5,-59.38 431.53,-48.34 480.3,-41.43"/>
<polygon fill="#1178b2" stroke="#1178b2" stroke-width="3.77" points="480.73,-44.9 490.17,-40.09 479.79,-37.97 480.73,-44.9"/>
<text text-anchor="middle" x="131.26" y="-186.66" font-family="Helvetica,Arial,sans-serif" font-size="10.00">420</text>
</g>
<!-- axon&#45;test&#45;4.10.3\n(level 1/6)&#45;&gt;axon&#45;modelling&#45;4.10.3\n(level 5/6) -->
<g id="edge24" class="edge">
<title>axon&#45;test&#45;4.10.3\n(level 1/6)&#45;&gt;axon&#45;modelling&#45;4.10.3\n(level 5/6)</title>
<path fill="none" stroke="#1178b2" stroke-width="1.64" d="M103.2,-320C103.98,-289.46 110.09,-241.9 138,-213.66 196.81,-154.17 239.13,-187.07 320,-165.66 326.84,-163.85 333.93,-161.97 341.06,-160.08"/>
<polygon fill="#1178b2" stroke="#1178b2" stroke-width="1.64" points="341.87,-163.49 350.64,-157.54 340.08,-156.72 341.87,-163.49"/>
<text text-anchor="middle" x="143" y="-240.08" font-family="Helvetica,Arial,sans-serif" font-size="10.00">98</text>
</g>
<!-- axon&#45;configuration&#45;4.10.3\n(level 2/6)&#45;&gt;axon&#45;eventsourcing&#45;4.10.3\n(level 4/6) -->
<g id="edge17" class="edge">
<title>axon&#45;configuration&#45;4.10.3\n(level 2/6)&#45;&gt;axon&#45;eventsourcing&#45;4.10.3\n(level 4/6)</title>
<path fill="none" stroke="#1178b2" stroke-width="1.4" d="M370.42,-432.38C345.07,-420.29 318.18,-402.99 301,-379.33 281.12,-351.94 274.96,-313.58 273.43,-284.7"/>
<polygon fill="#1178b2" stroke="#1178b2" stroke-width="1.4" points="276.94,-284.96 273.11,-275.09 269.95,-285.2 276.94,-284.96"/>
<text text-anchor="middle" x="306" y="-346.91" font-family="Helvetica,Arial,sans-serif" font-size="10.00">62</text>
</g>
<!-- axon&#45;configuration&#45;4.10.3\n(level 2/6)&#45;&gt;axon&#45;messaging&#45;4.10.3\n(level 6/6) -->
<g id="edge16" class="edge">
<title>axon&#45;configuration&#45;4.10.3\n(level 2/6)&#45;&gt;axon&#45;messaging&#45;4.10.3\n(level 6/6)</title>
<path fill="none" stroke="#1178b2" stroke-width="4.5" d="M529.73,-438.99C576.32,-424.67 623,-398.45 623,-350.91 623,-350.91 623,-350.91 623,-135.25 623,-114.55 617.68,-92.36 611.6,-73.75"/>
<polygon fill="#1178b2" stroke="#1178b2" stroke-width="4.5" points="615.4,-72.66 608.35,-64.54 607.97,-75.28 615.4,-72.66"/>
<text text-anchor="middle" x="630.5" y="-240.08" font-family="Helvetica,Arial,sans-serif" font-size="10.00">530</text>
</g>
<!-- axon&#45;configuration&#45;4.10.3\n(level 2/6)&#45;&gt;axon&#45;modelling&#45;4.10.3\n(level 5/6) -->
<g id="edge15" class="edge">
<title>axon&#45;configuration&#45;4.10.3\n(level 2/6)&#45;&gt;axon&#45;modelling&#45;4.10.3\n(level 5/6)</title>
<path fill="none" stroke="#1178b2" stroke-width="1.64" d="M481.21,-429.29C498.22,-416.53 515.76,-399.58 525,-379.33 535.85,-355.54 531.36,-345.86 525,-320.49 511.43,-266.35 478.46,-210.71 454.51,-175.17"/>
<polygon fill="#1178b2" stroke="#1178b2" stroke-width="1.64" points="457.65,-173.56 449.11,-167.3 451.88,-177.52 457.65,-173.56"/>
<text text-anchor="middle" x="524.62" y="-293.49" font-family="Helvetica,Arial,sans-serif" font-size="10.00">98</text>
</g>
<!-- axon&#45;disruptor&#45;4.10.3\n(level 3/6) -->
<g id="node9" class="node">
<title>axon&#45;disruptor&#45;4.10.3\n(level 3/6)</title>
<ellipse fill="#98dafe" stroke="#1178b2" cx="418" cy="-349.91" rx="97.64" ry="29.42"/>
<text text-anchor="middle" x="418" y="-354.11" font-family="Helvetica,Arial,sans-serif" font-size="14.00">axon&#45;disruptor&#45;4.10.3</text>
<text text-anchor="middle" x="418" y="-337.31" font-family="Helvetica,Arial,sans-serif" font-size="14.00">(level 3/6)</text>
</g>
<!-- axon&#45;configuration&#45;4.10.3\n(level 2/6)&#45;&gt;axon&#45;disruptor&#45;4.10.3\n(level 3/6) -->
<g id="edge18" class="edge">
<title>axon&#45;configuration&#45;4.10.3\n(level 2/6)&#45;&gt;axon&#45;disruptor&#45;4.10.3\n(level 3/6)</title>
<path fill="none" stroke="red" d="M431.81,-427.1C429.78,-415.89 427.41,-402.84 425.22,-390.74"/>
<polygon fill="red" stroke="red" points="428.68,-390.23 423.46,-381.01 421.8,-391.47 428.68,-390.23"/>
<text text-anchor="middle" x="430.57" y="-400.33" font-family="Helvetica,Arial,sans-serif" font-size="10.00">2</text>
</g>
<!-- axon&#45;server&#45;connector&#45;4.10.3\n(level 1/6)&#45;&gt;axon&#45;eventsourcing&#45;4.10.3\n(level 4/6) -->
<g id="edge12" class="edge">
<title>axon&#45;server&#45;connector&#45;4.10.3\n(level 1/6)&#45;&gt;axon&#45;eventsourcing&#45;4.10.3\n(level 4/6)</title>
<path fill="none" stroke="#1178b2" stroke-width="1.21" d="M456.36,-584.78C410.53,-564.56 350.99,-531.81 313,-486.16 265.38,-428.93 264.62,-336.92 268.92,-284.36"/>
<polygon fill="#1178b2" stroke="#1178b2" stroke-width="1.21" points="272.38,-284.93 269.83,-274.65 265.41,-284.28 272.38,-284.93"/>
<text text-anchor="middle" x="281.57" y="-400.33" font-family="Helvetica,Arial,sans-serif" font-size="10.00">34</text>
</g>
<!-- axon&#45;server&#45;connector&#45;4.10.3\n(level 1/6)&#45;&gt;axon&#45;messaging&#45;4.10.3\n(level 6/6) -->
<g id="edge10" class="edge">
<title>axon&#45;server&#45;connector&#45;4.10.3\n(level 1/6)&#45;&gt;axon&#45;messaging&#45;4.10.3\n(level 6/6)</title>
<path fill="none" stroke="#1178b2" stroke-width="6" d="M549.5,-581.43C554.39,-575.62 559.15,-569.33 563,-562.99 608.46,-488.21 614.75,-464.7 634,-379.33 660.65,-261.18 657.38,-226.22 637,-106.83 634.66,-93.11 634.2,-89.29 628,-76.83 627.22,-75.27 626.39,-73.7 625.52,-72.14"/>
<polygon fill="#1178b2" stroke="#1178b2" stroke-width="6" points="630.06,-69.5 620.28,-63.86 621.19,-75.12 630.06,-69.5"/>
<text text-anchor="middle" x="657.75" y="-293.49" font-family="Helvetica,Arial,sans-serif" font-size="10.00">756</text>
</g>
<!-- axon&#45;server&#45;connector&#45;4.10.3\n(level 1/6)&#45;&gt;axon&#45;modelling&#45;4.10.3\n(level 5/6) -->
<g id="edge13" class="edge">
<title>axon&#45;server&#45;connector&#45;4.10.3\n(level 1/6)&#45;&gt;axon&#45;modelling&#45;4.10.3\n(level 5/6)</title>
<path fill="none" stroke="#1178b2" d="M533.88,-580.62C543.36,-556.02 555.86,-519.43 561,-486.16 564.99,-460.32 563.3,-453.37 561,-427.33 552.39,-329.76 558.46,-297 507,-213.66 497.48,-198.25 484.11,-183.81 471.03,-171.74"/>
<polygon fill="#1178b2" stroke="#1178b2" points="473.44,-169.2 463.64,-165.16 468.78,-174.42 473.44,-169.2"/>
<text text-anchor="middle" x="559.72" y="-346.91" font-family="Helvetica,Arial,sans-serif" font-size="10.00">2</text>
</g>
<!-- axon&#45;server&#45;connector&#45;4.10.3\n(level 1/6)&#45;&gt;axon&#45;configuration&#45;4.10.3\n(level 2/6) -->
<g id="edge11" class="edge">
<title>axon&#45;server&#45;connector&#45;4.10.3\n(level 1/6)&#45;&gt;axon&#45;configuration&#45;4.10.3\n(level 2/6)</title>
<path fill="none" stroke="red" stroke-width="1.24" d="M506.01,-580.88C492.6,-556.94 473.31,-522.53 458.54,-496.17"/>
<polygon fill="red" stroke="red" stroke-width="1.24" points="461.78,-494.79 453.83,-487.78 455.67,-498.21 461.78,-494.79"/>
<text text-anchor="middle" x="499.51" y="-530.57" font-family="Helvetica,Arial,sans-serif" font-size="10.00">38</text>
</g>
<!-- axon&#45;tracing&#45;opentelemetry&#45;4.10.3\n(level 1/6)&#45;&gt;axon&#45;messaging&#45;4.10.3\n(level 6/6) -->
<g id="edge14" class="edge">
<title>axon&#45;tracing&#45;opentelemetry&#45;4.10.3\n(level 1/6)&#45;&gt;axon&#45;messaging&#45;4.10.3\n(level 6/6)</title>
<path fill="none" stroke="#1178b2" stroke-width="1.15" d="M848.63,-504.34C831.22,-479.48 810,-441.55 810,-404.33 810,-404.33 810,-404.33 810,-135.25 810,-81.92 756.05,-55.71 702.08,-42.83"/>
<polygon fill="#1178b2" stroke="#1178b2" stroke-width="1.15" points="703.16,-39.49 692.64,-40.74 701.64,-46.32 703.16,-39.49"/>
<text text-anchor="middle" x="815" y="-293.49" font-family="Helvetica,Arial,sans-serif" font-size="10.00">24</text>
</g>
<!-- axon&#45;disruptor&#45;4.10.3\n(level 3/6)&#45;&gt;axon&#45;eventsourcing&#45;4.10.3\n(level 4/6) -->
<g id="edge22" class="edge">
<title>axon&#45;disruptor&#45;4.10.3\n(level 3/6)&#45;&gt;axon&#45;eventsourcing&#45;4.10.3\n(level 4/6)</title>
<path fill="none" stroke="red" stroke-width="1.19" d="M381.29,-322.18C362.89,-308.79 340.4,-292.41 320.77,-278.13"/>
<polygon fill="red" stroke="red" stroke-width="1.19" points="323,-275.42 312.85,-272.36 318.88,-281.08 323,-275.42"/>
<text text-anchor="middle" x="355.32" y="-293.49" font-family="Helvetica,Arial,sans-serif" font-size="10.00">30</text>
</g>
<!-- axon&#45;disruptor&#45;4.10.3\n(level 3/6)&#45;&gt;axon&#45;messaging&#45;4.10.3\n(level 6/6) -->
<g id="edge20" class="edge">
<title>axon&#45;disruptor&#45;4.10.3\n(level 3/6)&#45;&gt;axon&#45;messaging&#45;4.10.3\n(level 6/6)</title>
<path fill="none" stroke="#1178b2" stroke-width="2.23" d="M488.62,-329.19C502.25,-322.6 515.29,-313.91 525,-302.49 581.27,-236.35 592.64,-130.44 594.35,-72.19"/>
<polygon fill="#1178b2" stroke="#1178b2" stroke-width="2.23" points="597.84,-72.58 594.53,-62.52 590.84,-72.45 597.84,-72.58"/>
<text text-anchor="middle" x="587.47" y="-186.66" font-family="Helvetica,Arial,sans-serif" font-size="10.00">188</text>
</g>
<!-- axon&#45;disruptor&#45;4.10.3\n(level 3/6)&#45;&gt;axon&#45;modelling&#45;4.10.3\n(level 5/6) -->
<g id="edge21" class="edge">
<title>axon&#45;disruptor&#45;4.10.3\n(level 3/6)&#45;&gt;axon&#45;modelling&#45;4.10.3\n(level 5/6)</title>
<path fill="none" stroke="#1178b2" stroke-width="1.27" d="M419.21,-320.36C420.78,-283.6 423.5,-219.46 425.28,-177.69"/>
<polygon fill="#1178b2" stroke="#1178b2" stroke-width="1.27" points="428.77,-178.08 425.7,-167.94 421.77,-177.78 428.77,-178.08"/>
<text text-anchor="middle" x="428.69" y="-240.08" font-family="Helvetica,Arial,sans-serif" font-size="10.00">42</text>
</g>
</g>
</svg>

