<?xml version="1.0" encoding="UTF-8" standalone="no"?>
<!DOCTYPE svg PUBLIC "-//W3C//DTD SVG 1.1//EN"
 "http://www.w3.org/Graphics/SVG/1.1/DTD/svg11.dtd">
<!-- Generated by graphviz version 12.2.1 (0)
 -->
<!-- Title: JavaArtifactLongestPaths Pages: 1 -->
<svg width="1031pt" height="755pt"
 viewBox="0.00 0.00 1031.30 754.65" xmlns="http://www.w3.org/2000/svg" xmlns:xlink="http://www.w3.org/1999/xlink">
<g id="graph0" class="graph" transform="scale(1 1) rotate(0) translate(4 750.65)">
<title>JavaArtifactLongestPaths</title>
<polygon fill="white" stroke="none" points="-4,4 -4,-750.65 1027.3,-750.65 1027.3,4 -4,4"/>
<!-- axon&#45;eventsourcing&#45;4.10.3\n(level 4/6) -->
<g id="node1" class="node">
<title>axon&#45;eventsourcing&#45;4.10.3\n(level 4/6)</title>
<ellipse fill="#98dafe" stroke="#1178b2" cx="229" cy="-243.08" rx="117.43" ry="29.42"/>
<text text-anchor="middle" x="229" y="-247.28" font-family="Helvetica,Arial,sans-serif" font-size="14.00">axon&#45;eventsourcing&#45;4.10.3</text>
<text text-anchor="middle" x="229" y="-230.48" font-family="Helvetica,Arial,sans-serif" font-size="14.00">(level 4/6)</text>
</g>
<!-- axon&#45;messaging&#45;4.10.3\n(level 6/6) -->
<g id="node2" class="node">
<title>axon&#45;messaging&#45;4.10.3\n(level 6/6)</title>
<ellipse fill="#98dafe" stroke="#1178b2" cx="471" cy="-29.42" rx="103.69" ry="29.42"/>
<text text-anchor="middle" x="471" y="-33.62" font-family="Helvetica,Arial,sans-serif" font-size="14.00">axon&#45;messaging&#45;4.10.3</text>
<text text-anchor="middle" x="471" y="-16.82" font-family="Helvetica,Arial,sans-serif" font-size="14.00">(level 6/6)</text>
</g>
<!-- axon&#45;eventsourcing&#45;4.10.3\n(level 4/6)&#45;&gt;axon&#45;messaging&#45;4.10.3\n(level 6/6) -->
<g id="edge1" class="edge">
<title>axon&#45;eventsourcing&#45;4.10.3\n(level 4/6)&#45;&gt;axon&#45;messaging&#45;4.10.3\n(level 6/6)</title>
<path fill="none" stroke="#1178b2" stroke-width="5.3" d="M224.96,-213.3C222.42,-183.32 223.4,-136.64 248,-106.83 275.43,-73.6 318.02,-54.78 358.66,-44.14"/>
<polygon fill="#1178b2" stroke="#1178b2" stroke-width="5.3" points="359.62,-48.67 368.27,-41.84 357.47,-39.65 359.62,-48.67"/>
<text text-anchor="middle" x="255.5" y="-133.25" font-family="Helvetica,Arial,sans-serif" font-size="10.00">650</text>
</g>
<!-- axon&#45;modelling&#45;4.10.3\n(level 5/6) -->
<g id="node3" class="node">
<title>axon&#45;modelling&#45;4.10.3\n(level 5/6)</title>
<ellipse fill="#98dafe" stroke="#1178b2" cx="374" cy="-136.25" rx="102.04" ry="29.42"/>
<text text-anchor="middle" x="374" y="-140.45" font-family="Helvetica,Arial,sans-serif" font-size="14.00">axon&#45;modelling&#45;4.10.3</text>
<text text-anchor="middle" x="374" y="-123.65" font-family="Helvetica,Arial,sans-serif" font-size="14.00">(level 5/6)</text>
</g>
<!-- axon&#45;eventsourcing&#45;4.10.3\n(level 4/6)&#45;&gt;axon&#45;modelling&#45;4.10.3\n(level 5/6) -->
<g id="edge2" class="edge">
<title>axon&#45;eventsourcing&#45;4.10.3\n(level 4/6)&#45;&gt;axon&#45;modelling&#45;4.10.3\n(level 5/6)</title>
<path fill="none" stroke="red" stroke-width="1.52" d="M266.72,-214.81C285.15,-201.48 307.52,-185.31 327.05,-171.19"/>
<polygon fill="red" stroke="red" stroke-width="1.52" points="329.05,-174.06 335.11,-165.37 324.95,-168.39 329.05,-174.06"/>
<text text-anchor="middle" x="310.85" y="-186.66" font-family="Helvetica,Arial,sans-serif" font-size="10.00">80</text>
</g>
<!-- axon&#45;modelling&#45;4.10.3\n(level 5/6)&#45;&gt;axon&#45;messaging&#45;4.10.3\n(level 6/6) -->
<g id="edge19" class="edge">
<title>axon&#45;modelling&#45;4.10.3\n(level 5/6)&#45;&gt;axon&#45;messaging&#45;4.10.3\n(level 6/6)</title>
<path fill="none" stroke="red" stroke-width="5.92" d="M399.74,-107.43C410.26,-96.06 422.64,-82.68 434.09,-70.3"/>
<polygon fill="red" stroke="red" stroke-width="5.92" points="437.78,-73.94 440.77,-63.09 430.18,-66.91 437.78,-73.94"/>
<text text-anchor="middle" x="432.91" y="-79.83" font-family="Helvetica,Arial,sans-serif" font-size="10.00">744</text>
</g>
<!-- axon&#45;spring&#45;boot&#45;autoconfigure&#45;4.10.3\n(level 0/6) -->
<g id="node4" class="node">
<title>axon&#45;spring&#45;boot&#45;autoconfigure&#45;4.10.3\n(level 0/6)</title>
<ellipse fill="#98dafe" stroke="#1178b2" cx="274" cy="-717.23" rx="165.81" ry="29.42"/>
<text text-anchor="middle" x="274" y="-721.43" font-family="Helvetica,Arial,sans-serif" font-size="14.00">axon&#45;spring&#45;boot&#45;autoconfigure&#45;4.10.3</text>
<text text-anchor="middle" x="274" y="-704.63" font-family="Helvetica,Arial,sans-serif" font-size="14.00">(level 0/6)</text>
</g>
<!-- axon&#45;spring&#45;boot&#45;autoconfigure&#45;4.10.3\n(level 0/6)&#45;&gt;axon&#45;eventsourcing&#45;4.10.3\n(level 4/6) -->
<g id="edge6" class="edge">
<title>axon&#45;spring&#45;boot&#45;autoconfigure&#45;4.10.3\n(level 0/6)&#45;&gt;axon&#45;eventsourcing&#45;4.10.3\n(level 4/6)</title>
<path fill="none" stroke="#1178b2" stroke-width="1.33" d="M248.5,-687.74C233.32,-667.81 217,-639.78 217,-611.4 217,-611.4 217,-611.4 217,-348.91 217,-327.62 219.47,-304.06 222.17,-284.67"/>
<polygon fill="#1178b2" stroke="#1178b2" stroke-width="1.33" points="225.62,-285.29 223.62,-274.89 218.69,-284.27 225.62,-285.29"/>
<text text-anchor="middle" x="222" y="-453.74" font-family="Helvetica,Arial,sans-serif" font-size="10.00">52</text>
</g>
<!-- axon&#45;spring&#45;boot&#45;autoconfigure&#45;4.10.3\n(level 0/6)&#45;&gt;axon&#45;messaging&#45;4.10.3\n(level 6/6) -->
<g id="edge4" class="edge">
<title>axon&#45;spring&#45;boot&#45;autoconfigure&#45;4.10.3\n(level 0/6)&#45;&gt;axon&#45;messaging&#45;4.10.3\n(level 6/6)</title>
<path fill="none" stroke="#1178b2" stroke-width="3.53" d="M163.74,-694.93C87.6,-676.96 0,-648.27 0,-611.4 0,-611.4 0,-611.4 0,-135.25 0,-63.11 213.17,-40.59 352.69,-33.57"/>
<polygon fill="#1178b2" stroke="#1178b2" stroke-width="3.53" points="352.48,-37.09 362.3,-33.12 352.15,-30.09 352.48,-37.09"/>
<text text-anchor="middle" x="7.5" y="-346.91" font-family="Helvetica,Arial,sans-serif" font-size="10.00">384</text>
</g>
<!-- axon&#45;spring&#45;boot&#45;autoconfigure&#45;4.10.3\n(level 0/6)&#45;&gt;axon&#45;modelling&#45;4.10.3\n(level 5/6) -->
<g id="edge5" class="edge">
<title>axon&#45;spring&#45;boot&#45;autoconfigure&#45;4.10.3\n(level 0/6)&#45;&gt;axon&#45;modelling&#45;4.10.3\n(level 5/6)</title>
<path fill="none" stroke="#1178b2" stroke-width="1.23" d="M278.53,-687.47C286.8,-635.45 305.13,-522.32 323,-427.33 335.99,-358.27 342.99,-341.73 355,-272.49 360.5,-240.79 365.51,-204.69 369,-177.76"/>
<polygon fill="#1178b2" stroke="#1178b2" stroke-width="1.23" points="372.46,-178.3 370.26,-167.94 365.52,-177.41 372.46,-178.3"/>
<text text-anchor="middle" x="333.88" y="-400.33" font-family="Helvetica,Arial,sans-serif" font-size="10.00">36</text>
</g>
<!-- axon&#45;configuration&#45;4.10.3\n(level 2/6) -->
<g id="node5" class="node">
<title>axon&#45;configuration&#45;4.10.3\n(level 2/6)</title>
<ellipse fill="#98dafe" stroke="#1178b2" cx="447" cy="-456.74" rx="115.23" ry="29.42"/>
<text text-anchor="middle" x="447" y="-460.94" font-family="Helvetica,Arial,sans-serif" font-size="14.00">axon&#45;configuration&#45;4.10.3</text>
<text text-anchor="middle" x="447" y="-444.14" font-family="Helvetica,Arial,sans-serif" font-size="14.00">(level 2/6)</text>
</g>
<!-- axon&#45;spring&#45;boot&#45;autoconfigure&#45;4.10.3\n(level 0/6)&#45;&gt;axon&#45;configuration&#45;4.10.3\n(level 2/6) -->
<g id="edge3" class="edge">
<title>axon&#45;spring&#45;boot&#45;autoconfigure&#45;4.10.3\n(level 0/6)&#45;&gt;axon&#45;configuration&#45;4.10.3\n(level 2/6)</title>
<path fill="none" stroke="#1178b2" stroke-width="1.49" d="M283.39,-687.38C293.35,-659 310.72,-615.08 333,-580.99 354.07,-548.75 383.75,-516.96 407.55,-493.74"/>
<polygon fill="#1178b2" stroke="#1178b2" stroke-width="1.49" points="409.94,-496.3 414.73,-486.85 405.09,-491.25 409.94,-496.3"/>
<text text-anchor="middle" x="338" y="-607.4" font-family="Helvetica,Arial,sans-serif" font-size="10.00">76</text>
</g>
<!-- axon&#45;test&#45;4.10.3\n(level 1/6) -->
<g id="node6" class="node">
<title>axon&#45;test&#45;4.10.3\n(level 1/6)</title>
<ellipse fill="#98dafe" stroke="#1178b2" cx="111" cy="-349.91" rx="75.65" ry="29.42"/>
<text text-anchor="middle" x="111" y="-354.11" font-family="Helvetica,Arial,sans-serif" font-size="14.00">axon&#45;test&#45;4.10.3</text>
<text text-anchor="middle" x="111" y="-337.31" font-family="Helvetica,Arial,sans-serif" font-size="14.00">(level 1/6)</text>
</g>
<!-- axon&#45;spring&#45;boot&#45;autoconfigure&#45;4.10.3\n(level 0/6)&#45;&gt;axon&#45;test&#45;4.10.3\n(level 1/6) -->
<g id="edge7" class="edge">
<title>axon&#45;spring&#45;boot&#45;autoconfigure&#45;4.10.3\n(level 0/6)&#45;&gt;axon&#45;test&#45;4.10.3\n(level 1/6)</title>
<path fill="none" stroke="darkorange" stroke-width="1.01" d="M222.46,-689.05C215.16,-683.46 208.34,-677.04 203,-669.82 139.49,-583.87 119.72,-455.08 113.64,-390.63"/>
<polygon fill="darkorange" stroke="darkorange" stroke-width="1.01" points="117.15,-390.55 112.79,-380.89 110.17,-391.16 117.15,-390.55"/>
<text text-anchor="middle" x="151.27" y="-530.57" font-family="Helvetica,Arial,sans-serif" font-size="10.00">4</text>
</g>
<!-- axon&#45;server&#45;connector&#45;4.10.3\n(level 1/6) -->
<g id="node7" class="node">
<title>axon&#45;server&#45;connector&#45;4.10.3\n(level 1/6)</title>
<ellipse fill="#98dafe" stroke="#1178b2" cx="480" cy="-610.4" rx="128.41" ry="29.42"/>
<text text-anchor="middle" x="480" y="-614.6" font-family="Helvetica,Arial,sans-serif" font-size="14.00">axon&#45;server&#45;connector&#45;4.10.3</text>
<text text-anchor="middle" x="480" y="-597.8" font-family="Helvetica,Arial,sans-serif" font-size="14.00">(level 1/6)</text>
</g>
<!-- axon&#45;spring&#45;boot&#45;autoconfigure&#45;4.10.3\n(level 0/6)&#45;&gt;axon&#45;server&#45;connector&#45;4.10.3\n(level 1/6) -->
<g id="edge8" class="edge">
<title>axon&#45;spring&#45;boot&#45;autoconfigure&#45;4.10.3\n(level 0/6)&#45;&gt;axon&#45;server&#45;connector&#45;4.10.3\n(level 1/6)</title>
<path fill="none" stroke="red" stroke-width="1.57" d="M327.59,-688.97C355.18,-674.92 388.97,-657.73 417.71,-643.1"/>
<polygon fill="red" stroke="red" stroke-width="1.57" points="419.02,-646.36 426.34,-638.71 415.84,-640.13 419.02,-646.36"/>
<text text-anchor="middle" x="388.18" y="-660.82" font-family="Helvetica,Arial,sans-serif" font-size="10.00">88</text>
</g>
<!-- axon&#45;tracing&#45;opentelemetry&#45;4.10.3\n(level 1/6) -->
<g id="node8" class="node">
<title>axon&#45;tracing&#45;opentelemetry&#45;4.10.3\n(level 1/6)</title>
<ellipse fill="#98dafe" stroke="#1178b2" cx="874" cy="-533.57" rx="149.3" ry="29.42"/>
<text text-anchor="middle" x="874" y="-537.77" font-family="Helvetica,Arial,sans-serif" font-size="14.00">axon&#45;tracing&#45;opentelemetry&#45;4.10.3</text>
<text text-anchor="middle" x="874" y="-520.97" font-family="Helvetica,Arial,sans-serif" font-size="14.00">(level 1/6)</text>
</g>
<!-- axon&#45;spring&#45;boot&#45;autoconfigure&#45;4.10.3\n(level 0/6)&#45;&gt;axon&#45;tracing&#45;opentelemetry&#45;4.10.3\n(level 1/6) -->
<g id="edge9" class="edge">
<title>axon&#45;spring&#45;boot&#45;autoconfigure&#45;4.10.3\n(level 0/6)&#45;&gt;axon&#45;tracing&#45;opentelemetry&#45;4.10.3\n(level 1/6)</title>
<path fill="none" stroke="darkorange" stroke-width="1.01" d="M388.83,-695.71C456.07,-682.44 542.2,-663.28 617,-639.82 682.96,-619.13 755.65,-588.6 806.84,-565.75"/>
<polygon fill="darkorange" stroke="darkorange" stroke-width="1.01" points="808.02,-569.05 815.71,-561.77 805.15,-562.67 808.02,-569.05"/>
<text text-anchor="middle" x="553.58" y="-660.82" font-family="Helvetica,Arial,sans-serif" font-size="10.00">4</text>
</g>
<!-- axon&#45;configuration&#45;4.10.3\n(level 2/6)&#45;&gt;axon&#45;eventsourcing&#45;4.10.3\n(level 4/6) -->
<g id="edge17" class="edge">
<title>axon&#45;configuration&#45;4.10.3\n(level 2/6)&#45;&gt;axon&#45;eventsourcing&#45;4.10.3\n(level 4/6)</title>
<path fill="none" stroke="#1178b2" stroke-width="1.4" d="M393.38,-430.3C382.8,-424.15 372.15,-417.08 363,-409.33 311.63,-365.78 311.88,-342.42 269,-290.49 266.42,-287.36 263.71,-284.14 260.98,-280.91"/>
<polygon fill="#1178b2" stroke="#1178b2" stroke-width="1.4" points="263.83,-278.85 254.68,-273.51 258.5,-283.39 263.83,-278.85"/>
<text text-anchor="middle" x="337.15" y="-346.91" font-family="Helvetica,Arial,sans-serif" font-size="10.00">62</text>
</g>
<!-- axon&#45;configuration&#45;4.10.3\n(level 2/6)&#45;&gt;axon&#45;messaging&#45;4.10.3\n(level 6/6) -->
<g id="edge15" class="edge">
<title>axon&#45;configuration&#45;4.10.3\n(level 2/6)&#45;&gt;axon&#45;messaging&#45;4.10.3\n(level 6/6)</title>
<path fill="none" stroke="#1178b2" stroke-width="4.5" d="M538,-438.33C583.5,-423.79 629,-397.58 629,-350.91 629,-350.91 629,-350.91 629,-135.25 629,-97.06 596.55,-71.95 561.06,-55.91"/>
<polygon fill="#1178b2" stroke="#1178b2" stroke-width="4.5" points="562.72,-52.34 551.97,-52.14 559.7,-59.61 562.72,-52.34"/>
<text text-anchor="middle" x="636.5" y="-240.08" font-family="Helvetica,Arial,sans-serif" font-size="10.00">530</text>
</g>
<!-- axon&#45;configuration&#45;4.10.3\n(level 2/6)&#45;&gt;axon&#45;modelling&#45;4.10.3\n(level 5/6) -->
<g id="edge16" class="edge">
<title>axon&#45;configuration&#45;4.10.3\n(level 2/6)&#45;&gt;axon&#45;modelling&#45;4.10.3\n(level 5/6)</title>
<path fill="none" stroke="#1178b2" stroke-width="1.64" d="M422.8,-427.61C412.55,-413.96 401.68,-396.77 396,-379.33 382.53,-337.95 395.23,-226.57 388,-183.66 387.68,-181.76 387.3,-179.82 386.88,-177.87"/>
<polygon fill="#1178b2" stroke="#1178b2" stroke-width="1.64" points="390.32,-177.2 384.49,-168.36 383.54,-178.91 390.32,-177.2"/>
<text text-anchor="middle" x="394.54" y="-293.49" font-family="Helvetica,Arial,sans-serif" font-size="10.00">98</text>
</g>
<!-- axon&#45;disruptor&#45;4.10.3\n(level 3/6) -->
<g id="node9" class="node">
<title>axon&#45;disruptor&#45;4.10.3\n(level 3/6)</title>
<ellipse fill="#98dafe" stroke="#1178b2" cx="503" cy="-349.91" rx="97.64" ry="29.42"/>
<text text-anchor="middle" x="503" y="-354.11" font-family="Helvetica,Arial,sans-serif" font-size="14.00">axon&#45;disruptor&#45;4.10.3</text>
<text text-anchor="middle" x="503" y="-337.31" font-family="Helvetica,Arial,sans-serif" font-size="14.00">(level 3/6)</text>
</g>
<!-- axon&#45;configuration&#45;4.10.3\n(level 2/6)&#45;&gt;axon&#45;disruptor&#45;4.10.3\n(level 3/6) -->
<g id="edge18" class="edge">
<title>axon&#45;configuration&#45;4.10.3\n(level 2/6)&#45;&gt;axon&#45;disruptor&#45;4.10.3\n(level 3/6)</title>
<path fill="none" stroke="red" d="M462.3,-427.1C468.59,-415.33 475.96,-401.53 482.69,-388.94"/>
<polygon fill="red" stroke="red" points="485.57,-390.96 487.2,-380.49 479.4,-387.66 485.57,-390.96"/>
<text text-anchor="middle" x="479.18" y="-400.33" font-family="Helvetica,Arial,sans-serif" font-size="10.00">2</text>
</g>
<!-- axon&#45;test&#45;4.10.3\n(level 1/6)&#45;&gt;axon&#45;eventsourcing&#45;4.10.3\n(level 4/6) -->
<g id="edge25" class="edge">
<title>axon&#45;test&#45;4.10.3\n(level 1/6)&#45;&gt;axon&#45;eventsourcing&#45;4.10.3\n(level 4/6)</title>
<path fill="none" stroke="#1178b2" stroke-width="1.13" d="M140.78,-322.46C155.52,-309.35 173.53,-293.36 189.42,-279.24"/>
<polygon fill="#1178b2" stroke="#1178b2" stroke-width="1.13" points="191.57,-282.02 196.72,-272.76 186.92,-276.78 191.57,-282.02"/>
<text text-anchor="middle" x="178.54" y="-293.49" font-family="Helvetica,Arial,sans-serif" font-size="10.00">22</text>
</g>
<!-- axon&#45;test&#45;4.10.3\n(level 1/6)&#45;&gt;axon&#45;messaging&#45;4.10.3\n(level 6/6) -->
<g id="edge24" class="edge">
<title>axon&#45;test&#45;4.10.3\n(level 1/6)&#45;&gt;axon&#45;messaging&#45;4.10.3\n(level 6/6)</title>
<path fill="none" stroke="#1178b2" stroke-width="3.77" d="M91.35,-321.05C87.83,-315.13 84.49,-308.76 82,-302.49 67.4,-265.72 58.09,-248.95 76,-213.66 129.25,-108.72 263.8,-63.64 361.08,-44.43"/>
<polygon fill="#1178b2" stroke="#1178b2" stroke-width="3.77" points="361.57,-47.9 370.75,-42.62 360.28,-41.02 361.57,-47.9"/>
<text text-anchor="middle" x="99.48" y="-186.66" font-family="Helvetica,Arial,sans-serif" font-size="10.00">420</text>
</g>
<!-- axon&#45;test&#45;4.10.3\n(level 1/6)&#45;&gt;axon&#45;modelling&#45;4.10.3\n(level 5/6) -->
<g id="edge23" class="edge">
<title>axon&#45;test&#45;4.10.3\n(level 1/6)&#45;&gt;axon&#45;modelling&#45;4.10.3\n(level 5/6)</title>
<path fill="none" stroke="#1178b2" stroke-width="1.64" d="M96.44,-320.75C83.35,-291.07 69.48,-244.43 93,-213.66 93.78,-212.65 206.14,-182.3 288.53,-160.17"/>
<polygon fill="#1178b2" stroke="#1178b2" stroke-width="1.64" points="289.3,-163.58 298.05,-157.61 287.48,-156.82 289.3,-163.58"/>
<text text-anchor="middle" x="98" y="-240.08" font-family="Helvetica,Arial,sans-serif" font-size="10.00">98</text>
</g>
<!-- axon&#45;server&#45;connector&#45;4.10.3\n(level 1/6)&#45;&gt;axon&#45;eventsourcing&#45;4.10.3\n(level 4/6) -->
<g id="edge13" class="edge">
<title>axon&#45;server&#45;connector&#45;4.10.3\n(level 1/6)&#45;&gt;axon&#45;eventsourcing&#45;4.10.3\n(level 4/6)</title>
<path fill="none" stroke="#1178b2" stroke-width="1.21" d="M433.09,-582.54C380.39,-549.43 297.47,-487.78 261,-409.33 242.38,-369.27 234.59,-318.89 231.34,-284.36"/>
<polygon fill="#1178b2" stroke="#1178b2" stroke-width="1.21" points="234.85,-284.34 230.52,-274.67 227.87,-284.93 234.85,-284.34"/>
<text text-anchor="middle" x="266" y="-400.33" font-family="Helvetica,Arial,sans-serif" font-size="10.00">34</text>
</g>
<!-- axon&#45;server&#45;connector&#45;4.10.3\n(level 1/6)&#45;&gt;axon&#45;messaging&#45;4.10.3\n(level 6/6) -->
<g id="edge10" class="edge">
<title>axon&#45;server&#45;connector&#45;4.10.3\n(level 1/6)&#45;&gt;axon&#45;messaging&#45;4.10.3\n(level 6/6)</title>
<path fill="none" stroke="#1178b2" stroke-width="6" d="M568.92,-588.79C633.65,-567.89 710,-528.29 710,-457.74 710,-457.74 710,-457.74 710,-135.25 710,-76.6 648.9,-50.46 588.49,-38.95"/>
<polygon fill="#1178b2" stroke="#1178b2" stroke-width="6" points="589.46,-33.79 578.72,-37.28 587.7,-44.14 589.46,-33.79"/>
<text text-anchor="middle" x="717.5" y="-293.49" font-family="Helvetica,Arial,sans-serif" font-size="10.00">756</text>
</g>
<!-- axon&#45;server&#45;connector&#45;4.10.3\n(level 1/6)&#45;&gt;axon&#45;modelling&#45;4.10.3\n(level 5/6) -->
<g id="edge12" class="edge">
<title>axon&#45;server&#45;connector&#45;4.10.3\n(level 1/6)&#45;&gt;axon&#45;modelling&#45;4.10.3\n(level 5/6)</title>
<path fill="none" stroke="#1178b2" d="M509.89,-581.56C579.51,-513.35 739.85,-334.64 648,-213.66 626.7,-185.61 544.09,-165.1 475.1,-152.43"/>
<polygon fill="#1178b2" stroke="#1178b2" points="476.1,-149.06 465.64,-150.73 474.87,-155.95 476.1,-149.06"/>
<text text-anchor="middle" x="676.27" y="-346.91" font-family="Helvetica,Arial,sans-serif" font-size="10.00">2</text>
</g>
<!-- axon&#45;server&#45;connector&#45;4.10.3\n(level 1/6)&#45;&gt;axon&#45;configuration&#45;4.10.3\n(level 2/6) -->
<g id="edge11" class="edge">
<title>axon&#45;server&#45;connector&#45;4.10.3\n(level 1/6)&#45;&gt;axon&#45;configuration&#45;4.10.3\n(level 2/6)</title>
<path fill="none" stroke="red" stroke-width="1.24" d="M473.79,-580.88C468.69,-557.44 461.41,-523.96 455.72,-497.82"/>
<polygon fill="red" stroke="red" stroke-width="1.24" points="459.18,-497.26 453.63,-488.23 452.34,-498.75 459.18,-497.26"/>
<text text-anchor="middle" x="474.33" y="-530.57" font-family="Helvetica,Arial,sans-serif" font-size="10.00">38</text>
</g>
<!-- axon&#45;tracing&#45;opentelemetry&#45;4.10.3\n(level 1/6)&#45;&gt;axon&#45;messaging&#45;4.10.3\n(level 6/6) -->
<g id="edge14" class="edge">
<title>axon&#45;tracing&#45;opentelemetry&#45;4.10.3\n(level 1/6)&#45;&gt;axon&#45;messaging&#45;4.10.3\n(level 6/6)</title>
<path fill="none" stroke="#1178b2" stroke-width="1.15" d="M850.9,-504.45C832.92,-479.67 811,-441.78 811,-404.33 811,-404.33 811,-404.33 811,-135.25 811,-85.73 677.65,-57.12 577.98,-42.65"/>
<polygon fill="#1178b2" stroke="#1178b2" stroke-width="1.15" points="578.73,-39.22 568.34,-41.28 577.75,-46.15 578.73,-39.22"/>
<text text-anchor="middle" x="816" y="-293.49" font-family="Helvetica,Arial,sans-serif" font-size="10.00">24</text>
</g>
<!-- axon&#45;disruptor&#45;4.10.3\n(level 3/6)&#45;&gt;axon&#45;eventsourcing&#45;4.10.3\n(level 4/6) -->
<g id="edge20" class="edge">
<title>axon&#45;disruptor&#45;4.10.3\n(level 3/6)&#45;&gt;axon&#45;eventsourcing&#45;4.10.3\n(level 4/6)</title>
<path fill="none" stroke="red" stroke-width="1.19" d="M441.69,-326.65C421.1,-319.08 398.02,-310.51 377,-302.49 352.16,-293.02 325.07,-282.41 300.94,-272.86"/>
<polygon fill="red" stroke="red" stroke-width="1.19" points="302.34,-269.65 291.76,-269.22 299.76,-276.16 302.34,-269.65"/>
<text text-anchor="middle" x="382" y="-293.49" font-family="Helvetica,Arial,sans-serif" font-size="10.00">30</text>
</g>
<!-- axon&#45;disruptor&#45;4.10.3\n(level 3/6)&#45;&gt;axon&#45;messaging&#45;4.10.3\n(level 6/6) -->
<g id="edge21" class="edge">
<title>axon&#45;disruptor&#45;4.10.3\n(level 3/6)&#45;&gt;axon&#45;messaging&#45;4.10.3\n(level 6/6)</title>
<path fill="none" stroke="#1178b2" stroke-width="2.23" d="M501.86,-320.12C499.83,-274.66 494.85,-183.53 485,-106.83 483.55,-95.51 481.52,-83.33 479.47,-72.09"/>
<polygon fill="#1178b2" stroke="#1178b2" stroke-width="2.23" points="482.91,-71.46 477.61,-62.29 476.03,-72.76 482.91,-71.46"/>
<text text-anchor="middle" x="501.43" y="-186.66" font-family="Helvetica,Arial,sans-serif" font-size="10.00">188</text>
</g>
<!-- axon&#45;disruptor&#45;4.10.3\n(level 3/6)&#45;&gt;axon&#45;modelling&#45;4.10.3\n(level 5/6) -->
<g id="edge22" class="edge">
<title>axon&#45;disruptor&#45;4.10.3\n(level 3/6)&#45;&gt;axon&#45;modelling&#45;4.10.3\n(level 5/6)</title>
<path fill="none" stroke="#1178b2" stroke-width="1.27" d="M493.74,-320.42C481.66,-285.89 458.19,-226.98 426,-183.66 423.24,-179.94 420.14,-176.3 416.86,-172.79"/>
<polygon fill="#1178b2" stroke="#1178b2" stroke-width="1.27" points="419.36,-170.34 409.82,-165.74 414.41,-175.29 419.36,-170.34"/>
<text text-anchor="middle" x="480.01" y="-240.08" font-family="Helvetica,Arial,sans-serif" font-size="10.00">42</text>
</g>
</g>
</svg>

