<?xml version="1.0" encoding="UTF-8" standalone="no"?>
<!DOCTYPE svg PUBLIC "-//W3C//DTD SVG 1.1//EN"
 "http://www.w3.org/Graphics/SVG/1.1/DTD/svg11.dtd">
<!-- Generated by graphviz version 12.2.1 (0)
 -->
<!-- Title: JavaArtifactLongestPaths Pages: 1 -->
<svg width="1033pt" height="755pt"
 viewBox="0.00 0.00 1033.30 754.65" xmlns="http://www.w3.org/2000/svg" xmlns:xlink="http://www.w3.org/1999/xlink">
<g id="graph0" class="graph" transform="scale(1 1) rotate(0) translate(4 750.65)">
<title>JavaArtifactLongestPaths</title>
<polygon fill="white" stroke="none" points="-4,4 -4,-750.65 1029.3,-750.65 1029.3,4 -4,4"/>
<!-- axon&#45;configuration&#45;4.10.3\n(level 2/6) -->
<g id="node1" class="node">
<title>axon&#45;configuration&#45;4.10.3\n(level 2/6)</title>
<ellipse fill="#98dafe" stroke="#1178b2" cx="339" cy="-456.74" rx="115.23" ry="29.42"/>
<text text-anchor="middle" x="339" y="-460.94" font-family="Helvetica,Arial,sans-serif" font-size="14.00">axon&#45;configuration&#45;4.10.3</text>
<text text-anchor="middle" x="339" y="-444.14" font-family="Helvetica,Arial,sans-serif" font-size="14.00">(level 2/6)</text>
</g>
<!-- axon&#45;eventsourcing&#45;4.10.3\n(level 4/6) -->
<g id="node2" class="node">
<title>axon&#45;eventsourcing&#45;4.10.3\n(level 4/6)</title>
<ellipse fill="#98dafe" stroke="#1178b2" cx="491" cy="-243.08" rx="117.43" ry="29.42"/>
<text text-anchor="middle" x="491" y="-247.28" font-family="Helvetica,Arial,sans-serif" font-size="14.00">axon&#45;eventsourcing&#45;4.10.3</text>
<text text-anchor="middle" x="491" y="-230.48" font-family="Helvetica,Arial,sans-serif" font-size="14.00">(level 4/6)</text>
</g>
<!-- axon&#45;configuration&#45;4.10.3\n(level 2/6)&#45;&gt;axon&#45;eventsourcing&#45;4.10.3\n(level 4/6) -->
<g id="edge1" class="edge">
<title>axon&#45;configuration&#45;4.10.3\n(level 2/6)&#45;&gt;axon&#45;eventsourcing&#45;4.10.3\n(level 4/6)</title>
<path fill="none" stroke="#1178b2" stroke-width="1.4" d="M347.93,-427.21C359.02,-392.91 378.03,-337.81 391,-320.49 403.32,-304.05 420.08,-289.37 436.36,-277.38"/>
<polygon fill="#1178b2" stroke="#1178b2" stroke-width="1.4" points="437.99,-280.51 444.12,-271.87 433.94,-274.81 437.99,-280.51"/>
<text text-anchor="middle" x="396" y="-346.91" font-family="Helvetica,Arial,sans-serif" font-size="10.00">62</text>
</g>
<!-- axon&#45;modelling&#45;4.10.3\n(level 5/6) -->
<g id="node3" class="node">
<title>axon&#45;modelling&#45;4.10.3\n(level 5/6)</title>
<ellipse fill="#98dafe" stroke="#1178b2" cx="346" cy="-136.25" rx="102.04" ry="29.42"/>
<text text-anchor="middle" x="346" y="-140.45" font-family="Helvetica,Arial,sans-serif" font-size="14.00">axon&#45;modelling&#45;4.10.3</text>
<text text-anchor="middle" x="346" y="-123.65" font-family="Helvetica,Arial,sans-serif" font-size="14.00">(level 5/6)</text>
</g>
<!-- axon&#45;configuration&#45;4.10.3\n(level 2/6)&#45;&gt;axon&#45;modelling&#45;4.10.3\n(level 5/6) -->
<g id="edge2" class="edge">
<title>axon&#45;configuration&#45;4.10.3\n(level 2/6)&#45;&gt;axon&#45;modelling&#45;4.10.3\n(level 5/6)</title>
<path fill="none" stroke="#1178b2" stroke-width="1.64" d="M338.21,-426.88C336.94,-378.89 334.55,-279.66 334,-195.66 333.97,-190.33 333.33,-188.95 334,-183.66 334.23,-181.86 334.51,-180.02 334.82,-178.17"/>
<polygon fill="#1178b2" stroke="#1178b2" stroke-width="1.64" points="338.24,-178.93 336.86,-168.43 331.39,-177.5 338.24,-178.93"/>
<text text-anchor="middle" x="340.36" y="-293.49" font-family="Helvetica,Arial,sans-serif" font-size="10.00">98</text>
</g>
<!-- axon&#45;messaging&#45;4.10.3\n(level 6/6) -->
<g id="node4" class="node">
<title>axon&#45;messaging&#45;4.10.3\n(level 6/6)</title>
<ellipse fill="#98dafe" stroke="#1178b2" cx="453" cy="-29.42" rx="103.69" ry="29.42"/>
<text text-anchor="middle" x="453" y="-33.62" font-family="Helvetica,Arial,sans-serif" font-size="14.00">axon&#45;messaging&#45;4.10.3</text>
<text text-anchor="middle" x="453" y="-16.82" font-family="Helvetica,Arial,sans-serif" font-size="14.00">(level 6/6)</text>
</g>
<!-- axon&#45;configuration&#45;4.10.3\n(level 2/6)&#45;&gt;axon&#45;messaging&#45;4.10.3\n(level 6/6) -->
<g id="edge3" class="edge">
<title>axon&#45;configuration&#45;4.10.3\n(level 2/6)&#45;&gt;axon&#45;messaging&#45;4.10.3\n(level 6/6)</title>
<path fill="none" stroke="#1178b2" stroke-width="4.5" d="M236.93,-442.88C152.37,-425.83 46,-386.67 46,-297.49 46,-297.49 46,-297.49 46,-135.25 46,-74.93 215.75,-48.8 335.99,-37.85"/>
<polygon fill="#1178b2" stroke="#1178b2" stroke-width="4.5" points="336.13,-41.79 345.75,-37 335.45,-33.95 336.13,-41.79"/>
<text text-anchor="middle" x="53.5" y="-240.08" font-family="Helvetica,Arial,sans-serif" font-size="10.00">530</text>
</g>
<!-- axon&#45;disruptor&#45;4.10.3\n(level 3/6) -->
<g id="node5" class="node">
<title>axon&#45;disruptor&#45;4.10.3\n(level 3/6)</title>
<ellipse fill="#98dafe" stroke="#1178b2" cx="210" cy="-349.91" rx="97.64" ry="29.42"/>
<text text-anchor="middle" x="210" y="-354.11" font-family="Helvetica,Arial,sans-serif" font-size="14.00">axon&#45;disruptor&#45;4.10.3</text>
<text text-anchor="middle" x="210" y="-337.31" font-family="Helvetica,Arial,sans-serif" font-size="14.00">(level 3/6)</text>
</g>
<!-- axon&#45;configuration&#45;4.10.3\n(level 2/6)&#45;&gt;axon&#45;disruptor&#45;4.10.3\n(level 3/6) -->
<g id="edge4" class="edge">
<title>axon&#45;configuration&#45;4.10.3\n(level 2/6)&#45;&gt;axon&#45;disruptor&#45;4.10.3\n(level 3/6)</title>
<path fill="none" stroke="red" d="M305.11,-428.2C288.83,-414.97 269.18,-399 251.97,-385.01"/>
<polygon fill="red" stroke="red" points="254.36,-382.45 244.4,-378.86 249.95,-387.88 254.36,-382.45"/>
<text text-anchor="middle" x="280.87" y="-400.33" font-family="Helvetica,Arial,sans-serif" font-size="10.00">2</text>
</g>
<!-- axon&#45;eventsourcing&#45;4.10.3\n(level 4/6)&#45;&gt;axon&#45;modelling&#45;4.10.3\n(level 5/6) -->
<g id="edge6" class="edge">
<title>axon&#45;eventsourcing&#45;4.10.3\n(level 4/6)&#45;&gt;axon&#45;modelling&#45;4.10.3\n(level 5/6)</title>
<path fill="none" stroke="red" stroke-width="1.52" d="M453.28,-214.81C434.85,-201.48 412.48,-185.31 392.95,-171.19"/>
<polygon fill="red" stroke="red" stroke-width="1.52" points="395.05,-168.39 384.89,-165.37 390.95,-174.06 395.05,-168.39"/>
<text text-anchor="middle" x="427.85" y="-186.66" font-family="Helvetica,Arial,sans-serif" font-size="10.00">80</text>
</g>
<!-- axon&#45;eventsourcing&#45;4.10.3\n(level 4/6)&#45;&gt;axon&#45;messaging&#45;4.10.3\n(level 6/6) -->
<g id="edge5" class="edge">
<title>axon&#45;eventsourcing&#45;4.10.3\n(level 4/6)&#45;&gt;axon&#45;messaging&#45;4.10.3\n(level 6/6)</title>
<path fill="none" stroke="#1178b2" stroke-width="5.3" d="M485.88,-213.53C479.49,-177.95 468.5,-116.73 461,-74.96"/>
<polygon fill="#1178b2" stroke="#1178b2" stroke-width="5.3" points="465.61,-74.41 459.28,-65.38 456.48,-76.05 465.61,-74.41"/>
<text text-anchor="middle" x="484.51" y="-133.25" font-family="Helvetica,Arial,sans-serif" font-size="10.00">650</text>
</g>
<!-- axon&#45;modelling&#45;4.10.3\n(level 5/6)&#45;&gt;axon&#45;messaging&#45;4.10.3\n(level 6/6) -->
<g id="edge18" class="edge">
<title>axon&#45;modelling&#45;4.10.3\n(level 5/6)&#45;&gt;axon&#45;messaging&#45;4.10.3\n(level 6/6)</title>
<path fill="none" stroke="red" stroke-width="5.92" d="M374.11,-107.7C386.06,-96 400.2,-82.14 413.19,-69.41"/>
<polygon fill="red" stroke="red" stroke-width="5.92" points="416.59,-73.34 420.11,-62.64 409.34,-65.94 416.59,-73.34"/>
<text text-anchor="middle" x="410.21" y="-79.83" font-family="Helvetica,Arial,sans-serif" font-size="10.00">744</text>
</g>
<!-- axon&#45;disruptor&#45;4.10.3\n(level 3/6)&#45;&gt;axon&#45;eventsourcing&#45;4.10.3\n(level 4/6) -->
<g id="edge25" class="edge">
<title>axon&#45;disruptor&#45;4.10.3\n(level 3/6)&#45;&gt;axon&#45;eventsourcing&#45;4.10.3\n(level 4/6)</title>
<path fill="none" stroke="red" stroke-width="1.19" d="M236.3,-321.35C248.33,-310.22 263.38,-298.21 279,-290.49 279.7,-290.15 337.37,-277.53 392.37,-265.54"/>
<polygon fill="red" stroke="red" stroke-width="1.19" points="392.9,-269.01 401.92,-263.46 391.41,-262.17 392.9,-269.01"/>
<text text-anchor="middle" x="284" y="-293.49" font-family="Helvetica,Arial,sans-serif" font-size="10.00">30</text>
</g>
<!-- axon&#45;disruptor&#45;4.10.3\n(level 3/6)&#45;&gt;axon&#45;modelling&#45;4.10.3\n(level 5/6) -->
<g id="edge24" class="edge">
<title>axon&#45;disruptor&#45;4.10.3\n(level 3/6)&#45;&gt;axon&#45;modelling&#45;4.10.3\n(level 5/6)</title>
<path fill="none" stroke="#1178b2" stroke-width="1.27" d="M218.46,-320.33C229.77,-285.46 252.4,-225.93 286,-183.66 289.41,-179.38 293.29,-175.26 297.4,-171.37"/>
<polygon fill="#1178b2" stroke="#1178b2" stroke-width="1.27" points="299.45,-174.23 304.65,-164.99 294.83,-168.97 299.45,-174.23"/>
<text text-anchor="middle" x="269.31" y="-240.08" font-family="Helvetica,Arial,sans-serif" font-size="10.00">42</text>
</g>
<!-- axon&#45;disruptor&#45;4.10.3\n(level 3/6)&#45;&gt;axon&#45;messaging&#45;4.10.3\n(level 6/6) -->
<g id="edge23" class="edge">
<title>axon&#45;disruptor&#45;4.10.3\n(level 3/6)&#45;&gt;axon&#45;messaging&#45;4.10.3\n(level 6/6)</title>
<path fill="none" stroke="#1178b2" stroke-width="2.23" d="M204,-320.33C195.42,-271.05 185.65,-169.34 235,-106.83 261.46,-73.31 303.62,-54.46 343.85,-43.87"/>
<polygon fill="#1178b2" stroke="#1178b2" stroke-width="2.23" points="344.65,-47.27 353.54,-41.51 342.99,-40.47 344.65,-47.27"/>
<text text-anchor="middle" x="209.59" y="-186.66" font-family="Helvetica,Arial,sans-serif" font-size="10.00">188</text>
</g>
<!-- axon&#45;server&#45;connector&#45;4.10.3\n(level 1/6) -->
<g id="node6" class="node">
<title>axon&#45;server&#45;connector&#45;4.10.3\n(level 1/6)</title>
<ellipse fill="#98dafe" stroke="#1178b2" cx="696" cy="-610.4" rx="128.41" ry="29.42"/>
<text text-anchor="middle" x="696" y="-614.6" font-family="Helvetica,Arial,sans-serif" font-size="14.00">axon&#45;server&#45;connector&#45;4.10.3</text>
<text text-anchor="middle" x="696" y="-597.8" font-family="Helvetica,Arial,sans-serif" font-size="14.00">(level 1/6)</text>
</g>
<!-- axon&#45;server&#45;connector&#45;4.10.3\n(level 1/6)&#45;&gt;axon&#45;configuration&#45;4.10.3\n(level 2/6) -->
<g id="edge8" class="edge">
<title>axon&#45;server&#45;connector&#45;4.10.3\n(level 1/6)&#45;&gt;axon&#45;configuration&#45;4.10.3\n(level 2/6)</title>
<path fill="none" stroke="red" stroke-width="1.24" d="M575.75,-599.63C535.49,-592.95 491.37,-581.75 454,-562.99 420.97,-546.4 390.46,-517.57 369.17,-494.27"/>
<polygon fill="red" stroke="red" stroke-width="1.24" points="372,-492.18 362.73,-487.04 366.78,-496.84 372,-492.18"/>
<text text-anchor="middle" x="459" y="-530.57" font-family="Helvetica,Arial,sans-serif" font-size="10.00">38</text>
</g>
<!-- axon&#45;server&#45;connector&#45;4.10.3\n(level 1/6)&#45;&gt;axon&#45;eventsourcing&#45;4.10.3\n(level 4/6) -->
<g id="edge9" class="edge">
<title>axon&#45;server&#45;connector&#45;4.10.3\n(level 1/6)&#45;&gt;axon&#45;eventsourcing&#45;4.10.3\n(level 4/6)</title>
<path fill="none" stroke="#1178b2" stroke-width="1.21" d="M670.96,-581.27C666.8,-575.52 662.9,-569.29 660,-562.99 608.33,-450.66 682.88,-385.7 604,-290.49 597.51,-282.66 589.49,-276.14 580.73,-270.7"/>
<polygon fill="#1178b2" stroke="#1178b2" stroke-width="1.21" points="582.62,-267.74 572.18,-265.91 579.2,-273.85 582.62,-267.74"/>
<text text-anchor="middle" x="647.92" y="-400.33" font-family="Helvetica,Arial,sans-serif" font-size="10.00">34</text>
</g>
<!-- axon&#45;server&#45;connector&#45;4.10.3\n(level 1/6)&#45;&gt;axon&#45;modelling&#45;4.10.3\n(level 5/6) -->
<g id="edge10" class="edge">
<title>axon&#45;server&#45;connector&#45;4.10.3\n(level 1/6)&#45;&gt;axon&#45;modelling&#45;4.10.3\n(level 5/6)</title>
<path fill="none" stroke="#1178b2" d="M689.34,-580.79C682.86,-550.43 674,-500.98 674,-457.74 674,-457.74 674,-457.74 674,-295.49 674,-251.17 653.11,-239.37 617,-213.66 601.68,-202.76 506.9,-177.36 433.69,-158.83"/>
<polygon fill="#1178b2" stroke="#1178b2" points="434.62,-155.45 424.07,-156.4 432.91,-162.24 434.62,-155.45"/>
<text text-anchor="middle" x="676.5" y="-346.91" font-family="Helvetica,Arial,sans-serif" font-size="10.00">2</text>
</g>
<!-- axon&#45;server&#45;connector&#45;4.10.3\n(level 1/6)&#45;&gt;axon&#45;messaging&#45;4.10.3\n(level 6/6) -->
<g id="edge7" class="edge">
<title>axon&#45;server&#45;connector&#45;4.10.3\n(level 1/6)&#45;&gt;axon&#45;messaging&#45;4.10.3\n(level 6/6)</title>
<path fill="none" stroke="#1178b2" stroke-width="6" d="M700.84,-580.71C705.55,-550.28 712,-500.76 712,-457.74 712,-457.74 712,-457.74 712,-135.25 712,-99.26 625.01,-69.78 551.86,-51.34"/>
<polygon fill="#1178b2" stroke="#1178b2" stroke-width="6" points="553.25,-46.28 542.29,-49 550.75,-56.48 553.25,-46.28"/>
<text text-anchor="middle" x="719.5" y="-293.49" font-family="Helvetica,Arial,sans-serif" font-size="10.00">756</text>
</g>
<!-- axon&#45;spring&#45;boot&#45;autoconfigure&#45;4.10.3\n(level 0/6) -->
<g id="node7" class="node">
<title>axon&#45;spring&#45;boot&#45;autoconfigure&#45;4.10.3\n(level 0/6)</title>
<ellipse fill="#98dafe" stroke="#1178b2" cx="486" cy="-717.23" rx="165.81" ry="29.42"/>
<text text-anchor="middle" x="486" y="-721.43" font-family="Helvetica,Arial,sans-serif" font-size="14.00">axon&#45;spring&#45;boot&#45;autoconfigure&#45;4.10.3</text>
<text text-anchor="middle" x="486" y="-704.63" font-family="Helvetica,Arial,sans-serif" font-size="14.00">(level 0/6)</text>
</g>
<!-- axon&#45;spring&#45;boot&#45;autoconfigure&#45;4.10.3\n(level 0/6)&#45;&gt;axon&#45;configuration&#45;4.10.3\n(level 2/6) -->
<g id="edge11" class="edge">
<title>axon&#45;spring&#45;boot&#45;autoconfigure&#45;4.10.3\n(level 0/6)&#45;&gt;axon&#45;configuration&#45;4.10.3\n(level 2/6)</title>
<path fill="none" stroke="#1178b2" stroke-width="1.49" d="M462.18,-687.82C438.21,-658.16 401.38,-609.55 377,-562.99 366.2,-542.37 357.19,-518 350.65,-497.9"/>
<polygon fill="#1178b2" stroke="#1178b2" stroke-width="1.49" points="354.03,-496.96 347.68,-488.47 347.35,-499.06 354.03,-496.96"/>
<text text-anchor="middle" x="429.1" y="-607.4" font-family="Helvetica,Arial,sans-serif" font-size="10.00">76</text>
</g>
<!-- axon&#45;spring&#45;boot&#45;autoconfigure&#45;4.10.3\n(level 0/6)&#45;&gt;axon&#45;eventsourcing&#45;4.10.3\n(level 4/6) -->
<g id="edge14" class="edge">
<title>axon&#45;spring&#45;boot&#45;autoconfigure&#45;4.10.3\n(level 0/6)&#45;&gt;axon&#45;eventsourcing&#45;4.10.3\n(level 4/6)</title>
<path fill="none" stroke="#1178b2" stroke-width="1.33" d="M503.49,-687.77C542.05,-621.1 626.68,-450.68 571,-320.49 564.19,-304.57 552.25,-290.38 539.64,-278.68"/>
<polygon fill="#1178b2" stroke="#1178b2" stroke-width="1.33" points="542.2,-276.27 532.37,-272.31 537.58,-281.53 542.2,-276.27"/>
<text text-anchor="middle" x="594.23" y="-453.74" font-family="Helvetica,Arial,sans-serif" font-size="10.00">52</text>
</g>
<!-- axon&#45;spring&#45;boot&#45;autoconfigure&#45;4.10.3\n(level 0/6)&#45;&gt;axon&#45;modelling&#45;4.10.3\n(level 5/6) -->
<g id="edge15" class="edge">
<title>axon&#45;spring&#45;boot&#45;autoconfigure&#45;4.10.3\n(level 0/6)&#45;&gt;axon&#45;modelling&#45;4.10.3\n(level 5/6)</title>
<path fill="none" stroke="#1178b2" stroke-width="1.23" d="M334.88,-704.86C220.87,-691.97 84,-665.27 84,-611.4 84,-611.4 84,-611.4 84,-402.33 84,-273.58 167.9,-256.59 274,-183.66 280.74,-179.03 287.91,-174.24 295.01,-169.59"/>
<polygon fill="#1178b2" stroke="#1178b2" stroke-width="1.23" points="296.57,-172.75 303.04,-164.36 292.75,-166.88 296.57,-172.75"/>
<text text-anchor="middle" x="89" y="-400.33" font-family="Helvetica,Arial,sans-serif" font-size="10.00">36</text>
</g>
<!-- axon&#45;spring&#45;boot&#45;autoconfigure&#45;4.10.3\n(level 0/6)&#45;&gt;axon&#45;messaging&#45;4.10.3\n(level 6/6) -->
<g id="edge12" class="edge">
<title>axon&#45;spring&#45;boot&#45;autoconfigure&#45;4.10.3\n(level 0/6)&#45;&gt;axon&#45;messaging&#45;4.10.3\n(level 6/6)</title>
<path fill="none" stroke="#1178b2" stroke-width="3.53" d="M322.82,-711.65C181.63,-703.08 0,-678.95 0,-611.4 0,-611.4 0,-611.4 0,-135.25 0,-66.46 200.78,-42.8 335,-34.67"/>
<polygon fill="#1178b2" stroke="#1178b2" stroke-width="3.53" points="335.09,-38.17 344.87,-34.1 334.69,-31.18 335.09,-38.17"/>
<text text-anchor="middle" x="7.5" y="-346.91" font-family="Helvetica,Arial,sans-serif" font-size="10.00">384</text>
</g>
<!-- axon&#45;spring&#45;boot&#45;autoconfigure&#45;4.10.3\n(level 0/6)&#45;&gt;axon&#45;server&#45;connector&#45;4.10.3\n(level 1/6) -->
<g id="edge13" class="edge">
<title>axon&#45;spring&#45;boot&#45;autoconfigure&#45;4.10.3\n(level 0/6)&#45;&gt;axon&#45;server&#45;connector&#45;4.10.3\n(level 1/6)</title>
<path fill="none" stroke="red" stroke-width="1.57" d="M540.35,-689.1C568.48,-675.06 602.98,-657.84 632.35,-643.18"/>
<polygon fill="red" stroke="red" stroke-width="1.57" points="633.82,-646.36 641.2,-638.76 630.69,-640.09 633.82,-646.36"/>
<text text-anchor="middle" x="602.3" y="-660.82" font-family="Helvetica,Arial,sans-serif" font-size="10.00">88</text>
</g>
<!-- axon&#45;test&#45;4.10.3\n(level 1/6) -->
<g id="node8" class="node">
<title>axon&#45;test&#45;4.10.3\n(level 1/6)</title>
<ellipse fill="#98dafe" stroke="#1178b2" cx="486" cy="-349.91" rx="75.65" ry="29.42"/>
<text text-anchor="middle" x="486" y="-354.11" font-family="Helvetica,Arial,sans-serif" font-size="14.00">axon&#45;test&#45;4.10.3</text>
<text text-anchor="middle" x="486" y="-337.31" font-family="Helvetica,Arial,sans-serif" font-size="14.00">(level 1/6)</text>
</g>
<!-- axon&#45;spring&#45;boot&#45;autoconfigure&#45;4.10.3\n(level 0/6)&#45;&gt;axon&#45;test&#45;4.10.3\n(level 1/6) -->
<g id="edge16" class="edge">
<title>axon&#45;spring&#45;boot&#45;autoconfigure&#45;4.10.3\n(level 0/6)&#45;&gt;axon&#45;test&#45;4.10.3\n(level 1/6)</title>
<path fill="none" stroke="darkorange" stroke-width="1.01" d="M486,-687.57C486,-622.82 486,-465.16 486,-390.87"/>
<polygon fill="darkorange" stroke="darkorange" stroke-width="1.01" points="489.5,-391.22 486,-381.22 482.5,-391.22 489.5,-391.22"/>
<text text-anchor="middle" x="488.5" y="-530.57" font-family="Helvetica,Arial,sans-serif" font-size="10.00">4</text>
</g>
<!-- axon&#45;tracing&#45;opentelemetry&#45;4.10.3\n(level 1/6) -->
<g id="node9" class="node">
<title>axon&#45;tracing&#45;opentelemetry&#45;4.10.3\n(level 1/6)</title>
<ellipse fill="#98dafe" stroke="#1178b2" cx="876" cy="-533.57" rx="149.3" ry="29.42"/>
<text text-anchor="middle" x="876" y="-537.77" font-family="Helvetica,Arial,sans-serif" font-size="14.00">axon&#45;tracing&#45;opentelemetry&#45;4.10.3</text>
<text text-anchor="middle" x="876" y="-520.97" font-family="Helvetica,Arial,sans-serif" font-size="14.00">(level 1/6)</text>
</g>
<!-- axon&#45;spring&#45;boot&#45;autoconfigure&#45;4.10.3\n(level 0/6)&#45;&gt;axon&#45;tracing&#45;opentelemetry&#45;4.10.3\n(level 1/6) -->
<g id="edge17" class="edge">
<title>axon&#45;spring&#45;boot&#45;autoconfigure&#45;4.10.3\n(level 0/6)&#45;&gt;axon&#45;tracing&#45;opentelemetry&#45;4.10.3\n(level 1/6)</title>
<path fill="none" stroke="darkorange" stroke-width="1.01" d="M620.28,-699.69C703.57,-687.01 800.68,-667.04 833,-639.82 852.63,-623.29 863.42,-596.4 869.27,-573.93"/>
<polygon fill="darkorange" stroke="darkorange" stroke-width="1.01" points="872.61,-575.02 871.49,-564.49 865.8,-573.42 872.61,-575.02"/>
<text text-anchor="middle" x="802.08" y="-660.82" font-family="Helvetica,Arial,sans-serif" font-size="10.00">4</text>
</g>
<!-- axon&#45;test&#45;4.10.3\n(level 1/6)&#45;&gt;axon&#45;eventsourcing&#45;4.10.3\n(level 4/6) -->
<g id="edge21" class="edge">
<title>axon&#45;test&#45;4.10.3\n(level 1/6)&#45;&gt;axon&#45;eventsourcing&#45;4.10.3\n(level 4/6)</title>
<path fill="none" stroke="#1178b2" stroke-width="1.13" d="M487.37,-320.26C487.9,-309.17 488.51,-296.27 489.08,-284.28"/>
<polygon fill="#1178b2" stroke="#1178b2" stroke-width="1.13" points="492.57,-284.55 489.55,-274.4 485.58,-284.22 492.57,-284.55"/>
<text text-anchor="middle" x="493.65" y="-293.49" font-family="Helvetica,Arial,sans-serif" font-size="10.00">22</text>
</g>
<!-- axon&#45;test&#45;4.10.3\n(level 1/6)&#45;&gt;axon&#45;modelling&#45;4.10.3\n(level 5/6) -->
<g id="edge20" class="edge">
<title>axon&#45;test&#45;4.10.3\n(level 1/6)&#45;&gt;axon&#45;modelling&#45;4.10.3\n(level 5/6)</title>
<path fill="none" stroke="#1178b2" stroke-width="1.64" d="M429.13,-330.17C401.96,-318.13 371.78,-299.58 355,-272.49 337.7,-244.56 336.59,-206.87 339.16,-178.37"/>
<polygon fill="#1178b2" stroke="#1178b2" stroke-width="1.64" points="342.64,-178.79 340.28,-168.46 335.68,-178 342.64,-178.79"/>
<text text-anchor="middle" x="360" y="-240.08" font-family="Helvetica,Arial,sans-serif" font-size="10.00">98</text>
</g>
<!-- axon&#45;test&#45;4.10.3\n(level 1/6)&#45;&gt;axon&#45;messaging&#45;4.10.3\n(level 6/6) -->
<g id="edge19" class="edge">
<title>axon&#45;test&#45;4.10.3\n(level 1/6)&#45;&gt;axon&#45;messaging&#45;4.10.3\n(level 6/6)</title>
<path fill="none" stroke="#1178b2" stroke-width="3.77" d="M543.63,-330.62C571,-318.7 601.13,-300.12 617,-272.49 630.02,-249.82 626.33,-238.09 617,-213.66 593.98,-153.43 541.05,-100.5 501.51,-67.21"/>
<polygon fill="#1178b2" stroke="#1178b2" stroke-width="3.77" points="503.82,-64.57 493.87,-60.93 499.37,-69.98 503.82,-64.57"/>
<text text-anchor="middle" x="616.37" y="-186.66" font-family="Helvetica,Arial,sans-serif" font-size="10.00">420</text>
</g>
<!-- axon&#45;tracing&#45;opentelemetry&#45;4.10.3\n(level 1/6)&#45;&gt;axon&#45;messaging&#45;4.10.3\n(level 6/6) -->
<g id="edge22" class="edge">
<title>axon&#45;tracing&#45;opentelemetry&#45;4.10.3\n(level 1/6)&#45;&gt;axon&#45;messaging&#45;4.10.3\n(level 6/6)</title>
<path fill="none" stroke="#1178b2" stroke-width="1.15" d="M852.9,-504.45C834.92,-479.67 813,-441.78 813,-404.33 813,-404.33 813,-404.33 813,-135.25 813,-82.41 668.24,-54.43 562.31,-41.03"/>
<polygon fill="#1178b2" stroke="#1178b2" stroke-width="1.15" points="562.98,-37.58 552.62,-39.83 562.12,-44.53 562.98,-37.58"/>
<text text-anchor="middle" x="818" y="-293.49" font-family="Helvetica,Arial,sans-serif" font-size="10.00">24</text>
</g>
</g>
</svg>

