<?xml version="1.0" encoding="UTF-8" standalone="no"?>
<!DOCTYPE svg PUBLIC "-//W3C//DTD SVG 1.1//EN"
 "http://www.w3.org/Graphics/SVG/1.1/DTD/svg11.dtd">
<!-- Generated by graphviz version 12.2.1 (0)
 -->
<!-- Title: JavaArtifactLongestPaths Pages: 1 -->
<svg width="896pt" height="755pt"
 viewBox="0.00 0.00 896.30 754.65" xmlns="http://www.w3.org/2000/svg" xmlns:xlink="http://www.w3.org/1999/xlink">
<g id="graph0" class="graph" transform="scale(1 1) rotate(0) translate(4 750.65)">
<title>JavaArtifactLongestPaths</title>
<polygon fill="white" stroke="none" points="-4,4 -4,-750.65 892.3,-750.65 892.3,4 -4,4"/>
<!-- axon&#45;eventsourcing&#45;4.10.3\n(level 4/6) -->
<g id="node1" class="node">
<title>axon&#45;eventsourcing&#45;4.10.3\n(level 4/6)</title>
<ellipse fill="#98dafe" stroke="#1178b2" cx="484" cy="-243.08" rx="117.43" ry="29.42"/>
<text text-anchor="middle" x="484" y="-247.28" font-family="Helvetica,Arial,sans-serif" font-size="14.00">axon&#45;eventsourcing&#45;4.10.3</text>
<text text-anchor="middle" x="484" y="-230.48" font-family="Helvetica,Arial,sans-serif" font-size="14.00">(level 4/6)</text>
</g>
<!-- axon&#45;messaging&#45;4.10.3\n(level 6/6) -->
<g id="node2" class="node">
<title>axon&#45;messaging&#45;4.10.3\n(level 6/6)</title>
<ellipse fill="#98dafe" stroke="#1178b2" cx="249" cy="-29.42" rx="103.69" ry="29.42"/>
<text text-anchor="middle" x="249" y="-33.62" font-family="Helvetica,Arial,sans-serif" font-size="14.00">axon&#45;messaging&#45;4.10.3</text>
<text text-anchor="middle" x="249" y="-16.82" font-family="Helvetica,Arial,sans-serif" font-size="14.00">(level 6/6)</text>
</g>
<!-- axon&#45;eventsourcing&#45;4.10.3\n(level 4/6)&#45;&gt;axon&#45;messaging&#45;4.10.3\n(level 6/6) -->
<g id="edge1" class="edge">
<title>axon&#45;eventsourcing&#45;4.10.3\n(level 4/6)&#45;&gt;axon&#45;messaging&#45;4.10.3\n(level 6/6)</title>
<path fill="none" stroke="#1178b2" stroke-width="5.3" d="M483.93,-213.17C482.33,-183.08 475.35,-136.3 449,-106.83 423.97,-78.83 387.53,-61.03 352.6,-49.74"/>
<polygon fill="#1178b2" stroke="#1178b2" stroke-width="5.3" points="354.18,-45.37 343.27,-46.95 351.52,-54.26 354.18,-45.37"/>
<text text-anchor="middle" x="484.47" y="-133.25" font-family="Helvetica,Arial,sans-serif" font-size="10.00">650</text>
</g>
<!-- axon&#45;modelling&#45;4.10.3\n(level 5/6) -->
<g id="node3" class="node">
<title>axon&#45;modelling&#45;4.10.3\n(level 5/6)</title>
<ellipse fill="#98dafe" stroke="#1178b2" cx="338" cy="-136.25" rx="102.04" ry="29.42"/>
<text text-anchor="middle" x="338" y="-140.45" font-family="Helvetica,Arial,sans-serif" font-size="14.00">axon&#45;modelling&#45;4.10.3</text>
<text text-anchor="middle" x="338" y="-123.65" font-family="Helvetica,Arial,sans-serif" font-size="14.00">(level 5/6)</text>
</g>
<!-- axon&#45;eventsourcing&#45;4.10.3\n(level 4/6)&#45;&gt;axon&#45;modelling&#45;4.10.3\n(level 5/6) -->
<g id="edge2" class="edge">
<title>axon&#45;eventsourcing&#45;4.10.3\n(level 4/6)&#45;&gt;axon&#45;modelling&#45;4.10.3\n(level 5/6)</title>
<path fill="none" stroke="red" stroke-width="1.52" d="M446.02,-214.81C427.46,-201.48 404.94,-185.31 385.27,-171.19"/>
<polygon fill="red" stroke="red" stroke-width="1.52" points="387.32,-168.35 377.15,-165.36 383.23,-174.03 387.32,-168.35"/>
<text text-anchor="middle" x="420.38" y="-186.66" font-family="Helvetica,Arial,sans-serif" font-size="10.00">80</text>
</g>
<!-- axon&#45;modelling&#45;4.10.3\n(level 5/6)&#45;&gt;axon&#45;messaging&#45;4.10.3\n(level 6/6) -->
<g id="edge19" class="edge">
<title>axon&#45;modelling&#45;4.10.3\n(level 5/6)&#45;&gt;axon&#45;messaging&#45;4.10.3\n(level 6/6)</title>
<path fill="none" stroke="red" stroke-width="5.92" d="M314.15,-107.15C304.6,-95.9 293.41,-82.73 283.03,-70.5"/>
<polygon fill="red" stroke="red" stroke-width="5.92" points="287.19,-67.4 276.77,-63.13 279.3,-74.1 287.19,-67.4"/>
<text text-anchor="middle" x="303.67" y="-79.83" font-family="Helvetica,Arial,sans-serif" font-size="10.00">744</text>
</g>
<!-- axon&#45;spring&#45;boot&#45;autoconfigure&#45;4.10.3\n(level 0/6) -->
<g id="node4" class="node">
<title>axon&#45;spring&#45;boot&#45;autoconfigure&#45;4.10.3\n(level 0/6)</title>
<ellipse fill="#98dafe" stroke="#1178b2" cx="432" cy="-717.23" rx="165.81" ry="29.42"/>
<text text-anchor="middle" x="432" y="-721.43" font-family="Helvetica,Arial,sans-serif" font-size="14.00">axon&#45;spring&#45;boot&#45;autoconfigure&#45;4.10.3</text>
<text text-anchor="middle" x="432" y="-704.63" font-family="Helvetica,Arial,sans-serif" font-size="14.00">(level 0/6)</text>
</g>
<!-- axon&#45;spring&#45;boot&#45;autoconfigure&#45;4.10.3\n(level 0/6)&#45;&gt;axon&#45;eventsourcing&#45;4.10.3\n(level 4/6) -->
<g id="edge5" class="edge">
<title>axon&#45;spring&#45;boot&#45;autoconfigure&#45;4.10.3\n(level 0/6)&#45;&gt;axon&#45;eventsourcing&#45;4.10.3\n(level 4/6)</title>
<path fill="none" stroke="#1178b2" stroke-width="1.33" d="M482.1,-688.83C507.9,-670.73 534,-644.29 534,-611.4 534,-611.4 534,-611.4 534,-348.91 534,-325.26 523.51,-301.28 512.13,-282.23"/>
<polygon fill="#1178b2" stroke="#1178b2" stroke-width="1.33" points="515.16,-280.47 506.86,-273.89 509.25,-284.21 515.16,-280.47"/>
<text text-anchor="middle" x="539" y="-453.74" font-family="Helvetica,Arial,sans-serif" font-size="10.00">52</text>
</g>
<!-- axon&#45;spring&#45;boot&#45;autoconfigure&#45;4.10.3\n(level 0/6)&#45;&gt;axon&#45;messaging&#45;4.10.3\n(level 6/6) -->
<g id="edge3" class="edge">
<title>axon&#45;spring&#45;boot&#45;autoconfigure&#45;4.10.3\n(level 0/6)&#45;&gt;axon&#45;messaging&#45;4.10.3\n(level 6/6)</title>
<path fill="none" stroke="#1178b2" stroke-width="3.53" d="M275.12,-707.34C151.55,-695.89 0,-669.91 0,-611.4 0,-611.4 0,-611.4 0,-135.25 0,-72.91 67.11,-47.05 131.64,-36.58"/>
<polygon fill="#1178b2" stroke="#1178b2" stroke-width="3.53" points="131.96,-40.07 141.36,-35.17 130.96,-33.15 131.96,-40.07"/>
<text text-anchor="middle" x="7.5" y="-346.91" font-family="Helvetica,Arial,sans-serif" font-size="10.00">384</text>
</g>
<!-- axon&#45;spring&#45;boot&#45;autoconfigure&#45;4.10.3\n(level 0/6)&#45;&gt;axon&#45;modelling&#45;4.10.3\n(level 5/6) -->
<g id="edge4" class="edge">
<title>axon&#45;spring&#45;boot&#45;autoconfigure&#45;4.10.3\n(level 0/6)&#45;&gt;axon&#45;modelling&#45;4.10.3\n(level 5/6)</title>
<path fill="none" stroke="#1178b2" stroke-width="1.23" d="M294.03,-700.63C195.75,-685.54 81,-657.95 81,-611.4 81,-611.4 81,-611.4 81,-242.08 81,-175.43 156.01,-150.2 224.98,-141.09"/>
<polygon fill="#1178b2" stroke="#1178b2" stroke-width="1.23" points="225.07,-144.6 234.58,-139.93 224.23,-137.65 225.07,-144.6"/>
<text text-anchor="middle" x="86" y="-400.33" font-family="Helvetica,Arial,sans-serif" font-size="10.00">36</text>
</g>
<!-- axon&#45;configuration&#45;4.10.3\n(level 2/6) -->
<g id="node5" class="node">
<title>axon&#45;configuration&#45;4.10.3\n(level 2/6)</title>
<ellipse fill="#98dafe" stroke="#1178b2" cx="326" cy="-456.74" rx="115.23" ry="29.42"/>
<text text-anchor="middle" x="326" y="-460.94" font-family="Helvetica,Arial,sans-serif" font-size="14.00">axon&#45;configuration&#45;4.10.3</text>
<text text-anchor="middle" x="326" y="-444.14" font-family="Helvetica,Arial,sans-serif" font-size="14.00">(level 2/6)</text>
</g>
<!-- axon&#45;spring&#45;boot&#45;autoconfigure&#45;4.10.3\n(level 0/6)&#45;&gt;axon&#45;configuration&#45;4.10.3\n(level 2/6) -->
<g id="edge6" class="edge">
<title>axon&#45;spring&#45;boot&#45;autoconfigure&#45;4.10.3\n(level 0/6)&#45;&gt;axon&#45;configuration&#45;4.10.3\n(level 2/6)</title>
<path fill="none" stroke="#1178b2" stroke-width="1.49" d="M429.38,-687.37C426.12,-659.37 419.16,-616.07 405,-580.99 392.66,-550.4 372.52,-519.14 355.67,-495.76"/>
<polygon fill="#1178b2" stroke="#1178b2" stroke-width="1.49" points="358.52,-493.73 349.78,-487.75 352.88,-497.88 358.52,-493.73"/>
<text text-anchor="middle" x="426.79" y="-607.4" font-family="Helvetica,Arial,sans-serif" font-size="10.00">76</text>
</g>
<!-- axon&#45;server&#45;connector&#45;4.10.3\n(level 1/6) -->
<g id="node6" class="node">
<title>axon&#45;server&#45;connector&#45;4.10.3\n(level 1/6)</title>
<ellipse fill="#98dafe" stroke="#1178b2" cx="268" cy="-610.4" rx="128.41" ry="29.42"/>
<text text-anchor="middle" x="268" y="-614.6" font-family="Helvetica,Arial,sans-serif" font-size="14.00">axon&#45;server&#45;connector&#45;4.10.3</text>
<text text-anchor="middle" x="268" y="-597.8" font-family="Helvetica,Arial,sans-serif" font-size="14.00">(level 1/6)</text>
</g>
<!-- axon&#45;spring&#45;boot&#45;autoconfigure&#45;4.10.3\n(level 0/6)&#45;&gt;axon&#45;server&#45;connector&#45;4.10.3\n(level 1/6) -->
<g id="edge7" class="edge">
<title>axon&#45;spring&#45;boot&#45;autoconfigure&#45;4.10.3\n(level 0/6)&#45;&gt;axon&#45;server&#45;connector&#45;4.10.3\n(level 1/6)</title>
<path fill="none" stroke="red" stroke-width="1.57" d="M388.48,-688.42C367.77,-675.18 342.82,-659.23 321.01,-645.29"/>
<polygon fill="red" stroke="red" stroke-width="1.57" points="322.9,-642.34 312.59,-639.9 319.13,-648.24 322.9,-642.34"/>
<text text-anchor="middle" x="359.92" y="-660.82" font-family="Helvetica,Arial,sans-serif" font-size="10.00">88</text>
</g>
<!-- axon&#45;tracing&#45;opentelemetry&#45;4.10.3\n(level 1/6) -->
<g id="node7" class="node">
<title>axon&#45;tracing&#45;opentelemetry&#45;4.10.3\n(level 1/6)</title>
<ellipse fill="#98dafe" stroke="#1178b2" cx="739" cy="-533.57" rx="149.3" ry="29.42"/>
<text text-anchor="middle" x="739" y="-537.77" font-family="Helvetica,Arial,sans-serif" font-size="14.00">axon&#45;tracing&#45;opentelemetry&#45;4.10.3</text>
<text text-anchor="middle" x="739" y="-520.97" font-family="Helvetica,Arial,sans-serif" font-size="14.00">(level 1/6)</text>
</g>
<!-- axon&#45;spring&#45;boot&#45;autoconfigure&#45;4.10.3\n(level 0/6)&#45;&gt;axon&#45;tracing&#45;opentelemetry&#45;4.10.3\n(level 1/6) -->
<g id="edge8" class="edge">
<title>axon&#45;spring&#45;boot&#45;autoconfigure&#45;4.10.3\n(level 0/6)&#45;&gt;axon&#45;tracing&#45;opentelemetry&#45;4.10.3\n(level 1/6)</title>
<path fill="none" stroke="darkorange" stroke-width="1.01" d="M534.47,-693.82C553.9,-687.51 573.58,-679.61 591,-669.82 636.76,-644.09 679.97,-601.73 707.75,-571.27"/>
<polygon fill="darkorange" stroke="darkorange" stroke-width="1.01" points="710.07,-573.94 714.15,-564.16 704.86,-569.26 710.07,-573.94"/>
<text text-anchor="middle" x="610.01" y="-660.82" font-family="Helvetica,Arial,sans-serif" font-size="10.00">4</text>
</g>
<!-- axon&#45;test&#45;4.10.3\n(level 1/6) -->
<g id="node8" class="node">
<title>axon&#45;test&#45;4.10.3\n(level 1/6)</title>
<ellipse fill="#98dafe" stroke="#1178b2" cx="638" cy="-349.91" rx="75.65" ry="29.42"/>
<text text-anchor="middle" x="638" y="-354.11" font-family="Helvetica,Arial,sans-serif" font-size="14.00">axon&#45;test&#45;4.10.3</text>
<text text-anchor="middle" x="638" y="-337.31" font-family="Helvetica,Arial,sans-serif" font-size="14.00">(level 1/6)</text>
</g>
<!-- axon&#45;spring&#45;boot&#45;autoconfigure&#45;4.10.3\n(level 0/6)&#45;&gt;axon&#45;test&#45;4.10.3\n(level 1/6) -->
<g id="edge9" class="edge">
<title>axon&#45;spring&#45;boot&#45;autoconfigure&#45;4.10.3\n(level 0/6)&#45;&gt;axon&#45;test&#45;4.10.3\n(level 1/6)</title>
<path fill="none" stroke="darkorange" stroke-width="1.01" d="M520.66,-691.93C530.98,-686.07 540.49,-678.81 548,-669.82 596.21,-612.15 561.49,-576.47 582,-504.16 593.22,-464.6 609.72,-420.62 621.91,-389.96"/>
<polygon fill="darkorange" stroke="darkorange" stroke-width="1.01" points="625.14,-391.31 625.62,-380.72 618.65,-388.7 625.14,-391.31"/>
<text text-anchor="middle" x="584.5" y="-530.57" font-family="Helvetica,Arial,sans-serif" font-size="10.00">4</text>
</g>
<!-- axon&#45;configuration&#45;4.10.3\n(level 2/6)&#45;&gt;axon&#45;eventsourcing&#45;4.10.3\n(level 4/6) -->
<g id="edge17" class="edge">
<title>axon&#45;configuration&#45;4.10.3\n(level 2/6)&#45;&gt;axon&#45;eventsourcing&#45;4.10.3\n(level 4/6)</title>
<path fill="none" stroke="#1178b2" stroke-width="1.4" d="M394.95,-432.73C406.43,-426.53 417.38,-418.82 426,-409.33 457.66,-374.43 472.25,-321.22 478.83,-284.66"/>
<polygon fill="#1178b2" stroke="#1178b2" stroke-width="1.4" points="482.24,-285.48 480.42,-275.04 475.33,-284.34 482.24,-285.48"/>
<text text-anchor="middle" x="475.4" y="-346.91" font-family="Helvetica,Arial,sans-serif" font-size="10.00">62</text>
</g>
<!-- axon&#45;configuration&#45;4.10.3\n(level 2/6)&#45;&gt;axon&#45;messaging&#45;4.10.3\n(level 6/6) -->
<g id="edge16" class="edge">
<title>axon&#45;configuration&#45;4.10.3\n(level 2/6)&#45;&gt;axon&#45;messaging&#45;4.10.3\n(level 6/6)</title>
<path fill="none" stroke="#1178b2" stroke-width="4.5" d="M240.06,-436.79C209.42,-425.44 178.05,-407.51 160,-379.33 97.07,-281.07 173.21,-140.63 219.08,-71.74"/>
<polygon fill="#1178b2" stroke="#1178b2" stroke-width="4.5" points="222.23,-74.11 224.62,-63.63 215.73,-69.67 222.23,-74.11"/>
<text text-anchor="middle" x="156.26" y="-240.08" font-family="Helvetica,Arial,sans-serif" font-size="10.00">530</text>
</g>
<!-- axon&#45;configuration&#45;4.10.3\n(level 2/6)&#45;&gt;axon&#45;modelling&#45;4.10.3\n(level 5/6) -->
<g id="edge15" class="edge">
<title>axon&#45;configuration&#45;4.10.3\n(level 2/6)&#45;&gt;axon&#45;modelling&#45;4.10.3\n(level 5/6)</title>
<path fill="none" stroke="#1178b2" stroke-width="1.64" d="M358.79,-428.31C372.1,-415.06 385.98,-397.99 393,-379.33 402.21,-354.85 405.53,-343.44 393,-320.49 385.91,-307.51 373.53,-314.58 365,-302.49 357.11,-291.31 360.56,-285.94 358,-272.49 352.01,-240.99 346.77,-205.07 343.16,-178.17"/>
<polygon fill="#1178b2" stroke="#1178b2" stroke-width="1.64" points="346.67,-178.04 341.89,-168.58 339.73,-178.95 346.67,-178.04"/>
<text text-anchor="middle" x="370" y="-293.49" font-family="Helvetica,Arial,sans-serif" font-size="10.00">98</text>
</g>
<!-- axon&#45;disruptor&#45;4.10.3\n(level 3/6) -->
<g id="node9" class="node">
<title>axon&#45;disruptor&#45;4.10.3\n(level 3/6)</title>
<ellipse fill="#98dafe" stroke="#1178b2" cx="286" cy="-349.91" rx="97.64" ry="29.42"/>
<text text-anchor="middle" x="286" y="-354.11" font-family="Helvetica,Arial,sans-serif" font-size="14.00">axon&#45;disruptor&#45;4.10.3</text>
<text text-anchor="middle" x="286" y="-337.31" font-family="Helvetica,Arial,sans-serif" font-size="14.00">(level 3/6)</text>
</g>
<!-- axon&#45;configuration&#45;4.10.3\n(level 2/6)&#45;&gt;axon&#45;disruptor&#45;4.10.3\n(level 3/6) -->
<g id="edge18" class="edge">
<title>axon&#45;configuration&#45;4.10.3\n(level 2/6)&#45;&gt;axon&#45;disruptor&#45;4.10.3\n(level 3/6)</title>
<path fill="none" stroke="red" d="M315.07,-427.1C310.7,-415.65 305.61,-402.3 300.91,-389.99"/>
<polygon fill="red" stroke="red" points="304.29,-389.03 297.46,-380.93 297.75,-391.53 304.29,-389.03"/>
<text text-anchor="middle" x="309.7" y="-400.33" font-family="Helvetica,Arial,sans-serif" font-size="10.00">2</text>
</g>
<!-- axon&#45;server&#45;connector&#45;4.10.3\n(level 1/6)&#45;&gt;axon&#45;eventsourcing&#45;4.10.3\n(level 4/6) -->
<g id="edge12" class="edge">
<title>axon&#45;server&#45;connector&#45;4.10.3\n(level 1/6)&#45;&gt;axon&#45;eventsourcing&#45;4.10.3\n(level 4/6)</title>
<path fill="none" stroke="#1178b2" stroke-width="1.21" d="M325.05,-583.84C365.44,-562.98 417.93,-529.84 450,-486.16 493.71,-426.61 493.7,-336.14 489.22,-284.31"/>
<polygon fill="#1178b2" stroke="#1178b2" stroke-width="1.21" points="492.71,-284.06 488.25,-274.45 485.74,-284.75 492.71,-284.06"/>
<text text-anchor="middle" x="490.26" y="-400.33" font-family="Helvetica,Arial,sans-serif" font-size="10.00">34</text>
</g>
<!-- axon&#45;server&#45;connector&#45;4.10.3\n(level 1/6)&#45;&gt;axon&#45;messaging&#45;4.10.3\n(level 6/6) -->
<g id="edge10" class="edge">
<title>axon&#45;server&#45;connector&#45;4.10.3\n(level 1/6)&#45;&gt;axon&#45;messaging&#45;4.10.3\n(level 6/6)</title>
<path fill="none" stroke="#1178b2" stroke-width="6" d="M205.32,-584.28C138.75,-552.97 43,-492.59 43,-404.33 43,-404.33 43,-404.33 43,-135.25 43,-86.27 89.82,-60.17 138.81,-46.26"/>
<polygon fill="#1178b2" stroke="#1178b2" stroke-width="6" points="140.12,-51.35 148.49,-43.77 137.5,-41.18 140.12,-51.35"/>
<text text-anchor="middle" x="50.5" y="-293.49" font-family="Helvetica,Arial,sans-serif" font-size="10.00">756</text>
</g>
<!-- axon&#45;server&#45;connector&#45;4.10.3\n(level 1/6)&#45;&gt;axon&#45;modelling&#45;4.10.3\n(level 5/6) -->
<g id="edge13" class="edge">
<title>axon&#45;server&#45;connector&#45;4.10.3\n(level 1/6)&#45;&gt;axon&#45;modelling&#45;4.10.3\n(level 5/6)</title>
<path fill="none" stroke="#1178b2" d="M245.94,-581.19C208.06,-529.11 138.04,-414.6 174,-320.49 197.66,-258.58 252.94,-204.36 292.79,-171.28"/>
<polygon fill="#1178b2" stroke="#1178b2" points="294.83,-174.13 300.37,-165.1 290.41,-168.7 294.83,-174.13"/>
<text text-anchor="middle" x="176.5" y="-346.91" font-family="Helvetica,Arial,sans-serif" font-size="10.00">2</text>
</g>
<!-- axon&#45;server&#45;connector&#45;4.10.3\n(level 1/6)&#45;&gt;axon&#45;configuration&#45;4.10.3\n(level 2/6) -->
<g id="edge11" class="edge">
<title>axon&#45;server&#45;connector&#45;4.10.3\n(level 1/6)&#45;&gt;axon&#45;configuration&#45;4.10.3\n(level 2/6)</title>
<path fill="none" stroke="red" stroke-width="1.24" d="M278.91,-580.88C287.91,-557.33 300.79,-523.66 310.81,-497.47"/>
<polygon fill="red" stroke="red" stroke-width="1.24" points="314.07,-498.74 314.37,-488.15 307.53,-496.24 314.07,-498.74"/>
<text text-anchor="middle" x="312.24" y="-530.57" font-family="Helvetica,Arial,sans-serif" font-size="10.00">38</text>
</g>
<!-- axon&#45;tracing&#45;opentelemetry&#45;4.10.3\n(level 1/6)&#45;&gt;axon&#45;messaging&#45;4.10.3\n(level 6/6) -->
<g id="edge14" class="edge">
<title>axon&#45;tracing&#45;opentelemetry&#45;4.10.3\n(level 1/6)&#45;&gt;axon&#45;messaging&#45;4.10.3\n(level 6/6)</title>
<path fill="none" stroke="#1178b2" stroke-width="1.15" d="M740.06,-503.8C740.92,-477.81 742,-438.51 742,-404.33 742,-404.33 742,-404.33 742,-135.25 742,-58.41 509.99,-37.66 364.29,-32.21"/>
<polygon fill="#1178b2" stroke="#1178b2" stroke-width="1.15" points="364.51,-28.71 354.39,-31.86 364.26,-35.71 364.51,-28.71"/>
<text text-anchor="middle" x="747" y="-293.49" font-family="Helvetica,Arial,sans-serif" font-size="10.00">24</text>
</g>
<!-- axon&#45;test&#45;4.10.3\n(level 1/6)&#45;&gt;axon&#45;eventsourcing&#45;4.10.3\n(level 4/6) -->
<g id="edge25" class="edge">
<title>axon&#45;test&#45;4.10.3\n(level 1/6)&#45;&gt;axon&#45;eventsourcing&#45;4.10.3\n(level 4/6)</title>
<path fill="none" stroke="#1178b2" stroke-width="1.13" d="M601.11,-323.8C580.8,-309.98 555.33,-292.64 533.33,-277.66"/>
<polygon fill="#1178b2" stroke="#1178b2" stroke-width="1.13" points="535.47,-274.88 525.24,-272.15 531.53,-280.67 535.47,-274.88"/>
<text text-anchor="middle" x="570.62" y="-293.49" font-family="Helvetica,Arial,sans-serif" font-size="10.00">22</text>
</g>
<!-- axon&#45;test&#45;4.10.3\n(level 1/6)&#45;&gt;axon&#45;messaging&#45;4.10.3\n(level 6/6) -->
<g id="edge23" class="edge">
<title>axon&#45;test&#45;4.10.3\n(level 1/6)&#45;&gt;axon&#45;messaging&#45;4.10.3\n(level 6/6)</title>
<path fill="none" stroke="#1178b2" stroke-width="3.77" d="M649.36,-320.56C658.96,-291.76 668.47,-246.82 650,-213.66 592.02,-109.56 456.28,-64.31 358.78,-44.82"/>
<polygon fill="#1178b2" stroke="#1178b2" stroke-width="3.77" points="359.56,-41.41 349.08,-42.98 358.25,-48.29 359.56,-41.41"/>
<text text-anchor="middle" x="645.59" y="-186.66" font-family="Helvetica,Arial,sans-serif" font-size="10.00">420</text>
</g>
<!-- axon&#45;test&#45;4.10.3\n(level 1/6)&#45;&gt;axon&#45;modelling&#45;4.10.3\n(level 5/6) -->
<g id="edge24" class="edge">
<title>axon&#45;test&#45;4.10.3\n(level 1/6)&#45;&gt;axon&#45;modelling&#45;4.10.3\n(level 5/6)</title>
<path fill="none" stroke="#1178b2" stroke-width="1.64" d="M640.14,-320.21C640.77,-289.84 636.82,-242.42 610,-213.66 606.67,-210.09 502.13,-181.37 423.65,-160.18"/>
<polygon fill="#1178b2" stroke="#1178b2" stroke-width="1.64" points="424.75,-156.85 414.19,-157.63 422.93,-163.61 424.75,-156.85"/>
<text text-anchor="middle" x="641.27" y="-240.08" font-family="Helvetica,Arial,sans-serif" font-size="10.00">98</text>
</g>
<!-- axon&#45;disruptor&#45;4.10.3\n(level 3/6)&#45;&gt;axon&#45;eventsourcing&#45;4.10.3\n(level 4/6) -->
<g id="edge21" class="edge">
<title>axon&#45;disruptor&#45;4.10.3\n(level 3/6)&#45;&gt;axon&#45;eventsourcing&#45;4.10.3\n(level 4/6)</title>
<path fill="none" stroke="red" stroke-width="1.19" d="M333.43,-323.8C360.85,-309.28 395.61,-290.88 424.81,-275.41"/>
<polygon fill="red" stroke="red" stroke-width="1.19" points="426.1,-278.69 433.3,-270.92 422.83,-272.51 426.1,-278.69"/>
<text text-anchor="middle" x="395.94" y="-293.49" font-family="Helvetica,Arial,sans-serif" font-size="10.00">30</text>
</g>
<!-- axon&#45;disruptor&#45;4.10.3\n(level 3/6)&#45;&gt;axon&#45;messaging&#45;4.10.3\n(level 6/6) -->
<g id="edge20" class="edge">
<title>axon&#45;disruptor&#45;4.10.3\n(level 3/6)&#45;&gt;axon&#45;messaging&#45;4.10.3\n(level 6/6)</title>
<path fill="none" stroke="#1178b2" stroke-width="2.23" d="M271.82,-320.57C251.03,-275.73 215.91,-185.43 227,-106.83 228.64,-95.24 231.6,-82.94 234.84,-71.67"/>
<polygon fill="#1178b2" stroke="#1178b2" stroke-width="2.23" points="238.14,-72.84 237.71,-62.26 231.45,-70.8 238.14,-72.84"/>
<text text-anchor="middle" x="237.88" y="-186.66" font-family="Helvetica,Arial,sans-serif" font-size="10.00">188</text>
</g>
<!-- axon&#45;disruptor&#45;4.10.3\n(level 3/6)&#45;&gt;axon&#45;modelling&#45;4.10.3\n(level 5/6) -->
<g id="edge22" class="edge">
<title>axon&#45;disruptor&#45;4.10.3\n(level 3/6)&#45;&gt;axon&#45;modelling&#45;4.10.3\n(level 5/6)</title>
<path fill="none" stroke="#1178b2" stroke-width="1.27" d="M291.44,-320.26C296.83,-292.77 305.61,-250.18 315,-213.66 318.08,-201.69 321.81,-188.77 325.36,-177.03"/>
<polygon fill="#1178b2" stroke="#1178b2" stroke-width="1.27" points="328.67,-178.18 328.25,-167.6 321.97,-176.13 328.67,-178.18"/>
<text text-anchor="middle" x="320" y="-240.08" font-family="Helvetica,Arial,sans-serif" font-size="10.00">42</text>
</g>
</g>
</svg>

