<?xml version="1.0" encoding="UTF-8" standalone="no"?>
<!DOCTYPE svg PUBLIC "-//W3C//DTD SVG 1.1//EN"
 "http://www.w3.org/Graphics/SVG/1.1/DTD/svg11.dtd">
<!-- Generated by graphviz version 12.2.1 (0)
 -->
<!-- Title: JavaArtifactLongestPaths Pages: 1 -->
<svg width="901pt" height="755pt"
 viewBox="0.00 0.00 901.00 754.65" xmlns="http://www.w3.org/2000/svg" xmlns:xlink="http://www.w3.org/1999/xlink">
<g id="graph0" class="graph" transform="scale(1 1) rotate(0) translate(4 750.65)">
<title>JavaArtifactLongestPaths</title>
<polygon fill="white" stroke="none" points="-4,4 -4,-750.65 897,-750.65 897,4 -4,4"/>
<!-- axon&#45;eventsourcing&#45;4.10.3\n(level 4/6) -->
<g id="node1" class="node">
<title>axon&#45;eventsourcing&#45;4.10.3\n(level 4/6)</title>
<ellipse fill="#98dafe" stroke="#1178b2" cx="389" cy="-243.08" rx="117.43" ry="29.42"/>
<text text-anchor="middle" x="389" y="-247.28" font-family="Helvetica,Arial,sans-serif" font-size="14.00">axon&#45;eventsourcing&#45;4.10.3</text>
<text text-anchor="middle" x="389" y="-230.48" font-family="Helvetica,Arial,sans-serif" font-size="14.00">(level 4/6)</text>
</g>
<!-- axon&#45;messaging&#45;4.10.3\n(level 6/6) -->
<g id="node2" class="node">
<title>axon&#45;messaging&#45;4.10.3\n(level 6/6)</title>
<ellipse fill="#98dafe" stroke="#1178b2" cx="389" cy="-29.42" rx="103.69" ry="29.42"/>
<text text-anchor="middle" x="389" y="-33.62" font-family="Helvetica,Arial,sans-serif" font-size="14.00">axon&#45;messaging&#45;4.10.3</text>
<text text-anchor="middle" x="389" y="-16.82" font-family="Helvetica,Arial,sans-serif" font-size="14.00">(level 6/6)</text>
</g>
<!-- axon&#45;eventsourcing&#45;4.10.3\n(level 4/6)&#45;&gt;axon&#45;messaging&#45;4.10.3\n(level 6/6) -->
<g id="edge1" class="edge">
<title>axon&#45;eventsourcing&#45;4.10.3\n(level 4/6)&#45;&gt;axon&#45;messaging&#45;4.10.3\n(level 6/6)</title>
<path fill="none" stroke="#1178b2" stroke-width="5.3" d="M389,-213.53C389,-178.03 389,-117 389,-75.24"/>
<polygon fill="#1178b2" stroke="#1178b2" stroke-width="5.3" points="393.64,-75.48 389,-65.48 384.36,-75.48 393.64,-75.48"/>
<text text-anchor="middle" x="396.5" y="-133.25" font-family="Helvetica,Arial,sans-serif" font-size="10.00">650</text>
</g>
<!-- axon&#45;modelling&#45;4.10.3\n(level 5/6) -->
<g id="node3" class="node">
<title>axon&#45;modelling&#45;4.10.3\n(level 5/6)</title>
<ellipse fill="#98dafe" stroke="#1178b2" cx="534" cy="-136.25" rx="102.04" ry="29.42"/>
<text text-anchor="middle" x="534" y="-140.45" font-family="Helvetica,Arial,sans-serif" font-size="14.00">axon&#45;modelling&#45;4.10.3</text>
<text text-anchor="middle" x="534" y="-123.65" font-family="Helvetica,Arial,sans-serif" font-size="14.00">(level 5/6)</text>
</g>
<!-- axon&#45;eventsourcing&#45;4.10.3\n(level 4/6)&#45;&gt;axon&#45;modelling&#45;4.10.3\n(level 5/6) -->
<g id="edge2" class="edge">
<title>axon&#45;eventsourcing&#45;4.10.3\n(level 4/6)&#45;&gt;axon&#45;modelling&#45;4.10.3\n(level 5/6)</title>
<path fill="none" stroke="red" stroke-width="1.52" d="M426.72,-214.81C445.15,-201.48 467.52,-185.31 487.05,-171.19"/>
<polygon fill="red" stroke="red" stroke-width="1.52" points="489.05,-174.06 495.11,-165.37 484.95,-168.39 489.05,-174.06"/>
<text text-anchor="middle" x="470.85" y="-186.66" font-family="Helvetica,Arial,sans-serif" font-size="10.00">80</text>
</g>
<!-- axon&#45;modelling&#45;4.10.3\n(level 5/6)&#45;&gt;axon&#45;messaging&#45;4.10.3\n(level 6/6) -->
<g id="edge19" class="edge">
<title>axon&#45;modelling&#45;4.10.3\n(level 5/6)&#45;&gt;axon&#45;messaging&#45;4.10.3\n(level 6/6)</title>
<path fill="none" stroke="red" stroke-width="5.92" d="M497.04,-108.52C479.55,-95.88 458.4,-80.59 439.46,-66.9"/>
<polygon fill="red" stroke="red" stroke-width="5.92" points="442.5,-62.71 431.36,-61.04 436.43,-71.1 442.5,-62.71"/>
<text text-anchor="middle" x="473.35" y="-79.83" font-family="Helvetica,Arial,sans-serif" font-size="10.00">744</text>
</g>
<!-- axon&#45;spring&#45;boot&#45;autoconfigure&#45;4.10.3\n(level 0/6) -->
<g id="node4" class="node">
<title>axon&#45;spring&#45;boot&#45;autoconfigure&#45;4.10.3\n(level 0/6)</title>
<ellipse fill="#98dafe" stroke="#1178b2" cx="382" cy="-717.23" rx="165.81" ry="29.42"/>
<text text-anchor="middle" x="382" y="-721.43" font-family="Helvetica,Arial,sans-serif" font-size="14.00">axon&#45;spring&#45;boot&#45;autoconfigure&#45;4.10.3</text>
<text text-anchor="middle" x="382" y="-704.63" font-family="Helvetica,Arial,sans-serif" font-size="14.00">(level 0/6)</text>
</g>
<!-- axon&#45;spring&#45;boot&#45;autoconfigure&#45;4.10.3\n(level 0/6)&#45;&gt;axon&#45;eventsourcing&#45;4.10.3\n(level 4/6) -->
<g id="edge5" class="edge">
<title>axon&#45;spring&#45;boot&#45;autoconfigure&#45;4.10.3\n(level 0/6)&#45;&gt;axon&#45;eventsourcing&#45;4.10.3\n(level 4/6)</title>
<path fill="none" stroke="#1178b2" stroke-width="1.33" d="M382,-687.76C382,-666.67 382,-637.25 382,-611.4 382,-611.4 382,-611.4 382,-348.91 382,-327.71 383.44,-304.16 385.02,-284.75"/>
<polygon fill="#1178b2" stroke="#1178b2" stroke-width="1.33" points="388.49,-285.23 385.86,-274.97 381.51,-284.64 388.49,-285.23"/>
<text text-anchor="middle" x="387" y="-453.74" font-family="Helvetica,Arial,sans-serif" font-size="10.00">52</text>
</g>
<!-- axon&#45;spring&#45;boot&#45;autoconfigure&#45;4.10.3\n(level 0/6)&#45;&gt;axon&#45;messaging&#45;4.10.3\n(level 6/6) -->
<g id="edge3" class="edge">
<title>axon&#45;spring&#45;boot&#45;autoconfigure&#45;4.10.3\n(level 0/6)&#45;&gt;axon&#45;messaging&#45;4.10.3\n(level 6/6)</title>
<path fill="none" stroke="#1178b2" stroke-width="3.53" d="M235.4,-703.18C127.68,-689.38 0,-662.29 0,-611.4 0,-611.4 0,-611.4 0,-135.25 0,-78.01 158.97,-51.11 273.66,-39.16"/>
<polygon fill="#1178b2" stroke="#1178b2" stroke-width="3.53" points="273.91,-42.65 283.51,-38.17 273.21,-35.68 273.91,-42.65"/>
<text text-anchor="middle" x="7.5" y="-346.91" font-family="Helvetica,Arial,sans-serif" font-size="10.00">384</text>
</g>
<!-- axon&#45;spring&#45;boot&#45;autoconfigure&#45;4.10.3\n(level 0/6)&#45;&gt;axon&#45;modelling&#45;4.10.3\n(level 5/6) -->
<g id="edge8" class="edge">
<title>axon&#45;spring&#45;boot&#45;autoconfigure&#45;4.10.3\n(level 0/6)&#45;&gt;axon&#45;modelling&#45;4.10.3\n(level 5/6)</title>
<path fill="none" stroke="#1178b2" stroke-width="1.23" d="M392.98,-687.43C419.12,-617.51 485.05,-432.78 515,-272.49 520.91,-240.86 525.89,-204.76 529.27,-177.81"/>
<polygon fill="#1178b2" stroke="#1178b2" stroke-width="1.23" points="532.74,-178.33 530.48,-167.98 525.79,-177.47 532.74,-178.33"/>
<text text-anchor="middle" x="490.86" y="-400.33" font-family="Helvetica,Arial,sans-serif" font-size="10.00">36</text>
</g>
<!-- axon&#45;configuration&#45;4.10.3\n(level 2/6) -->
<g id="node5" class="node">
<title>axon&#45;configuration&#45;4.10.3\n(level 2/6)</title>
<ellipse fill="#98dafe" stroke="#1178b2" cx="613" cy="-456.74" rx="115.23" ry="29.42"/>
<text text-anchor="middle" x="613" y="-460.94" font-family="Helvetica,Arial,sans-serif" font-size="14.00">axon&#45;configuration&#45;4.10.3</text>
<text text-anchor="middle" x="613" y="-444.14" font-family="Helvetica,Arial,sans-serif" font-size="14.00">(level 2/6)</text>
</g>
<!-- axon&#45;spring&#45;boot&#45;autoconfigure&#45;4.10.3\n(level 0/6)&#45;&gt;axon&#45;configuration&#45;4.10.3\n(level 2/6) -->
<g id="edge4" class="edge">
<title>axon&#45;spring&#45;boot&#45;autoconfigure&#45;4.10.3\n(level 0/6)&#45;&gt;axon&#45;configuration&#45;4.10.3\n(level 2/6)</title>
<path fill="none" stroke="#1178b2" stroke-width="1.49" d="M417.1,-688.2C423.14,-682.49 429.06,-676.25 434,-669.82 460.98,-634.73 452.29,-616.27 479,-580.99 504.37,-547.48 539.54,-515.53 567.48,-492.56"/>
<polygon fill="#1178b2" stroke="#1178b2" stroke-width="1.49" points="569.33,-495.56 574.9,-486.55 564.93,-490.12 569.33,-495.56"/>
<text text-anchor="middle" x="484" y="-607.4" font-family="Helvetica,Arial,sans-serif" font-size="10.00">76</text>
</g>
<!-- axon&#45;test&#45;4.10.3\n(level 1/6) -->
<g id="node6" class="node">
<title>axon&#45;test&#45;4.10.3\n(level 1/6)</title>
<ellipse fill="#98dafe" stroke="#1178b2" cx="271" cy="-349.91" rx="75.65" ry="29.42"/>
<text text-anchor="middle" x="271" y="-354.11" font-family="Helvetica,Arial,sans-serif" font-size="14.00">axon&#45;test&#45;4.10.3</text>
<text text-anchor="middle" x="271" y="-337.31" font-family="Helvetica,Arial,sans-serif" font-size="14.00">(level 1/6)</text>
</g>
<!-- axon&#45;spring&#45;boot&#45;autoconfigure&#45;4.10.3\n(level 0/6)&#45;&gt;axon&#45;test&#45;4.10.3\n(level 1/6) -->
<g id="edge6" class="edge">
<title>axon&#45;spring&#45;boot&#45;autoconfigure&#45;4.10.3\n(level 0/6)&#45;&gt;axon&#45;test&#45;4.10.3\n(level 1/6)</title>
<path fill="none" stroke="darkorange" stroke-width="1.01" d="M373.29,-687.57C353.55,-622.61 305.4,-464.12 282.92,-390.14"/>
<polygon fill="darkorange" stroke="darkorange" stroke-width="1.01" points="286.37,-389.46 280.11,-380.91 279.67,-391.49 286.37,-389.46"/>
<text text-anchor="middle" x="337.93" y="-530.57" font-family="Helvetica,Arial,sans-serif" font-size="10.00">4</text>
</g>
<!-- axon&#45;tracing&#45;opentelemetry&#45;4.10.3\n(level 1/6) -->
<g id="node7" class="node">
<title>axon&#45;tracing&#45;opentelemetry&#45;4.10.3\n(level 1/6)</title>
<ellipse fill="#98dafe" stroke="#1178b2" cx="164" cy="-533.57" rx="149.3" ry="29.42"/>
<text text-anchor="middle" x="164" y="-537.77" font-family="Helvetica,Arial,sans-serif" font-size="14.00">axon&#45;tracing&#45;opentelemetry&#45;4.10.3</text>
<text text-anchor="middle" x="164" y="-520.97" font-family="Helvetica,Arial,sans-serif" font-size="14.00">(level 1/6)</text>
</g>
<!-- axon&#45;spring&#45;boot&#45;autoconfigure&#45;4.10.3\n(level 0/6)&#45;&gt;axon&#45;tracing&#45;opentelemetry&#45;4.10.3\n(level 1/6) -->
<g id="edge7" class="edge">
<title>axon&#45;spring&#45;boot&#45;autoconfigure&#45;4.10.3\n(level 0/6)&#45;&gt;axon&#45;tracing&#45;opentelemetry&#45;4.10.3\n(level 1/6)</title>
<path fill="none" stroke="darkorange" stroke-width="1.01" d="M341.64,-688.4C333.37,-682.43 324.81,-676.03 317,-669.82 276.55,-637.64 232.55,-598.25 202.16,-570.3"/>
<polygon fill="darkorange" stroke="darkorange" stroke-width="1.01" points="204.81,-567.98 195.09,-563.77 200.06,-573.12 204.81,-567.98"/>
<text text-anchor="middle" x="319.5" y="-660.82" font-family="Helvetica,Arial,sans-serif" font-size="10.00">4</text>
</g>
<!-- axon&#45;server&#45;connector&#45;4.10.3\n(level 1/6) -->
<g id="node8" class="node">
<title>axon&#45;server&#45;connector&#45;4.10.3\n(level 1/6)</title>
<ellipse fill="#98dafe" stroke="#1178b2" cx="626" cy="-610.4" rx="128.41" ry="29.42"/>
<text text-anchor="middle" x="626" y="-614.6" font-family="Helvetica,Arial,sans-serif" font-size="14.00">axon&#45;server&#45;connector&#45;4.10.3</text>
<text text-anchor="middle" x="626" y="-597.8" font-family="Helvetica,Arial,sans-serif" font-size="14.00">(level 1/6)</text>
</g>
<!-- axon&#45;spring&#45;boot&#45;autoconfigure&#45;4.10.3\n(level 0/6)&#45;&gt;axon&#45;server&#45;connector&#45;4.10.3\n(level 1/6) -->
<g id="edge9" class="edge">
<title>axon&#45;spring&#45;boot&#45;autoconfigure&#45;4.10.3\n(level 0/6)&#45;&gt;axon&#45;server&#45;connector&#45;4.10.3\n(level 1/6)</title>
<path fill="none" stroke="red" stroke-width="1.57" d="M444.2,-689.51C478.22,-674.9 520.48,-656.74 555.69,-641.61"/>
<polygon fill="red" stroke="red" stroke-width="1.57" points="556.86,-644.92 564.67,-637.75 554.1,-638.48 556.86,-644.92"/>
<text text-anchor="middle" x="516.32" y="-660.82" font-family="Helvetica,Arial,sans-serif" font-size="10.00">88</text>
</g>
<!-- axon&#45;configuration&#45;4.10.3\n(level 2/6)&#45;&gt;axon&#45;eventsourcing&#45;4.10.3\n(level 4/6) -->
<g id="edge17" class="edge">
<title>axon&#45;configuration&#45;4.10.3\n(level 2/6)&#45;&gt;axon&#45;eventsourcing&#45;4.10.3\n(level 4/6)</title>
<path fill="none" stroke="#1178b2" stroke-width="1.4" d="M558.73,-430.37C548.03,-424.22 537.25,-417.13 528,-409.33 476.53,-365.91 478.38,-341.14 434,-290.49 431.17,-287.27 428.18,-283.97 425.15,-280.69"/>
<polygon fill="#1178b2" stroke="#1178b2" stroke-width="1.4" points="427.93,-278.54 418.52,-273.67 422.84,-283.34 427.93,-278.54"/>
<text text-anchor="middle" x="502.32" y="-346.91" font-family="Helvetica,Arial,sans-serif" font-size="10.00">62</text>
</g>
<!-- axon&#45;configuration&#45;4.10.3\n(level 2/6)&#45;&gt;axon&#45;messaging&#45;4.10.3\n(level 6/6) -->
<g id="edge15" class="edge">
<title>axon&#45;configuration&#45;4.10.3\n(level 2/6)&#45;&gt;axon&#45;messaging&#45;4.10.3\n(level 6/6)</title>
<path fill="none" stroke="#1178b2" stroke-width="4.5" d="M703.5,-438.19C748.75,-423.6 794,-397.39 794,-350.91 794,-350.91 794,-350.91 794,-135.25 794,-75.25 625.33,-49.03 505.69,-37.98"/>
<polygon fill="#1178b2" stroke="#1178b2" stroke-width="4.5" points="506.32,-34.08 496.01,-37.12 505.62,-41.93 506.32,-34.08"/>
<text text-anchor="middle" x="801.5" y="-240.08" font-family="Helvetica,Arial,sans-serif" font-size="10.00">530</text>
</g>
<!-- axon&#45;configuration&#45;4.10.3\n(level 2/6)&#45;&gt;axon&#45;modelling&#45;4.10.3\n(level 5/6) -->
<g id="edge16" class="edge">
<title>axon&#45;configuration&#45;4.10.3\n(level 2/6)&#45;&gt;axon&#45;modelling&#45;4.10.3\n(level 5/6)</title>
<path fill="none" stroke="#1178b2" stroke-width="1.64" d="M588.53,-427.61C578.12,-413.96 567.01,-396.77 561,-379.33 546.8,-338.13 555.79,-226.54 548,-183.66 547.65,-181.76 547.26,-179.83 546.82,-177.88"/>
<polygon fill="#1178b2" stroke="#1178b2" stroke-width="1.64" points="550.26,-177.19 544.38,-168.37 543.48,-178.93 550.26,-177.19"/>
<text text-anchor="middle" x="557.44" y="-293.49" font-family="Helvetica,Arial,sans-serif" font-size="10.00">98</text>
</g>
<!-- axon&#45;disruptor&#45;4.10.3\n(level 3/6) -->
<g id="node9" class="node">
<title>axon&#45;disruptor&#45;4.10.3\n(level 3/6)</title>
<ellipse fill="#98dafe" stroke="#1178b2" cx="668" cy="-349.91" rx="97.64" ry="29.42"/>
<text text-anchor="middle" x="668" y="-354.11" font-family="Helvetica,Arial,sans-serif" font-size="14.00">axon&#45;disruptor&#45;4.10.3</text>
<text text-anchor="middle" x="668" y="-337.31" font-family="Helvetica,Arial,sans-serif" font-size="14.00">(level 3/6)</text>
</g>
<!-- axon&#45;configuration&#45;4.10.3\n(level 2/6)&#45;&gt;axon&#45;disruptor&#45;4.10.3\n(level 3/6) -->
<g id="edge18" class="edge">
<title>axon&#45;configuration&#45;4.10.3\n(level 2/6)&#45;&gt;axon&#45;disruptor&#45;4.10.3\n(level 3/6)</title>
<path fill="none" stroke="red" d="M628.03,-427.1C634.14,-415.44 641.3,-401.81 647.85,-389.31"/>
<polygon fill="red" stroke="red" points="650.93,-390.98 652.48,-380.5 644.73,-387.73 650.93,-390.98"/>
<text text-anchor="middle" x="644.65" y="-400.33" font-family="Helvetica,Arial,sans-serif" font-size="10.00">2</text>
</g>
<!-- axon&#45;test&#45;4.10.3\n(level 1/6)&#45;&gt;axon&#45;eventsourcing&#45;4.10.3\n(level 4/6) -->
<g id="edge25" class="edge">
<title>axon&#45;test&#45;4.10.3\n(level 1/6)&#45;&gt;axon&#45;eventsourcing&#45;4.10.3\n(level 4/6)</title>
<path fill="none" stroke="#1178b2" stroke-width="1.13" d="M300.78,-322.46C315.52,-309.35 333.53,-293.36 349.42,-279.24"/>
<polygon fill="#1178b2" stroke="#1178b2" stroke-width="1.13" points="351.57,-282.02 356.72,-272.76 346.92,-276.78 351.57,-282.02"/>
<text text-anchor="middle" x="338.54" y="-293.49" font-family="Helvetica,Arial,sans-serif" font-size="10.00">22</text>
</g>
<!-- axon&#45;test&#45;4.10.3\n(level 1/6)&#45;&gt;axon&#45;messaging&#45;4.10.3\n(level 6/6) -->
<g id="edge23" class="edge">
<title>axon&#45;test&#45;4.10.3\n(level 1/6)&#45;&gt;axon&#45;messaging&#45;4.10.3\n(level 6/6)</title>
<path fill="none" stroke="#1178b2" stroke-width="3.77" d="M251.35,-321.05C247.83,-315.13 244.49,-308.76 242,-302.49 227.4,-265.72 222.51,-250.86 236,-213.66 257.35,-154.77 306.82,-101.55 343.77,-67.82"/>
<polygon fill="#1178b2" stroke="#1178b2" stroke-width="3.77" points="345.87,-70.64 351.01,-61.37 341.22,-65.41 345.87,-70.64"/>
<text text-anchor="middle" x="256.57" y="-186.66" font-family="Helvetica,Arial,sans-serif" font-size="10.00">420</text>
</g>
<!-- axon&#45;test&#45;4.10.3\n(level 1/6)&#45;&gt;axon&#45;modelling&#45;4.10.3\n(level 5/6) -->
<g id="edge24" class="edge">
<title>axon&#45;test&#45;4.10.3\n(level 1/6)&#45;&gt;axon&#45;modelling&#45;4.10.3\n(level 5/6)</title>
<path fill="none" stroke="#1178b2" stroke-width="1.64" d="M256.44,-320.75C243.35,-291.07 229.48,-244.43 253,-213.66 259.06,-205.74 364.54,-178.52 444.5,-158.82"/>
<polygon fill="#1178b2" stroke="#1178b2" stroke-width="1.64" points="445.3,-162.23 454.18,-156.44 443.63,-155.43 445.3,-162.23"/>
<text text-anchor="middle" x="258" y="-240.08" font-family="Helvetica,Arial,sans-serif" font-size="10.00">98</text>
</g>
<!-- axon&#45;tracing&#45;opentelemetry&#45;4.10.3\n(level 1/6)&#45;&gt;axon&#45;messaging&#45;4.10.3\n(level 6/6) -->
<g id="edge14" class="edge">
<title>axon&#45;tracing&#45;opentelemetry&#45;4.10.3\n(level 1/6)&#45;&gt;axon&#45;messaging&#45;4.10.3\n(level 6/6)</title>
<path fill="none" stroke="#1178b2" stroke-width="1.15" d="M162.59,-503.8C161.44,-477.82 160,-438.52 160,-404.33 160,-404.33 160,-404.33 160,-135.25 160,-78.15 219.58,-52.03 277.97,-40.13"/>
<polygon fill="#1178b2" stroke="#1178b2" stroke-width="1.15" points="278.34,-43.62 287.51,-38.33 277.04,-36.75 278.34,-43.62"/>
<text text-anchor="middle" x="165" y="-293.49" font-family="Helvetica,Arial,sans-serif" font-size="10.00">24</text>
</g>
<!-- axon&#45;server&#45;connector&#45;4.10.3\n(level 1/6)&#45;&gt;axon&#45;eventsourcing&#45;4.10.3\n(level 4/6) -->
<g id="edge12" class="edge">
<title>axon&#45;server&#45;connector&#45;4.10.3\n(level 1/6)&#45;&gt;axon&#45;eventsourcing&#45;4.10.3\n(level 4/6)</title>
<path fill="none" stroke="#1178b2" stroke-width="1.21" d="M585.84,-582.25C538.77,-547.98 462.58,-484.38 426,-409.33 415.43,-387.63 403.2,-325.8 395.78,-284.23"/>
<polygon fill="#1178b2" stroke="#1178b2" stroke-width="1.21" points="399.28,-283.88 394.1,-274.64 392.38,-285.09 399.28,-283.88"/>
<text text-anchor="middle" x="431" y="-400.33" font-family="Helvetica,Arial,sans-serif" font-size="10.00">34</text>
</g>
<!-- axon&#45;server&#45;connector&#45;4.10.3\n(level 1/6)&#45;&gt;axon&#45;messaging&#45;4.10.3\n(level 6/6) -->
<g id="edge10" class="edge">
<title>axon&#45;server&#45;connector&#45;4.10.3\n(level 1/6)&#45;&gt;axon&#45;messaging&#45;4.10.3\n(level 6/6)</title>
<path fill="none" stroke="#1178b2" stroke-width="6" d="M724.15,-591.16C794.91,-571.67 878,-532.8 878,-457.74 878,-457.74 878,-457.74 878,-135.25 878,-60 653.86,-38.59 509.07,-32.61"/>
<polygon fill="#1178b2" stroke="#1178b2" stroke-width="6" points="509.35,-27.37 499.15,-32.23 508.95,-37.86 509.35,-27.37"/>
<text text-anchor="middle" x="885.5" y="-293.49" font-family="Helvetica,Arial,sans-serif" font-size="10.00">756</text>
</g>
<!-- axon&#45;server&#45;connector&#45;4.10.3\n(level 1/6)&#45;&gt;axon&#45;modelling&#45;4.10.3\n(level 5/6) -->
<g id="edge13" class="edge">
<title>axon&#45;server&#45;connector&#45;4.10.3\n(level 1/6)&#45;&gt;axon&#45;modelling&#45;4.10.3\n(level 5/6)</title>
<path fill="none" stroke="#1178b2" d="M663.61,-581.86C707.48,-547.22 777.85,-483.24 808,-409.33 840.86,-328.78 865.76,-282.82 813,-213.66 791.17,-185.05 706.32,-164.52 635.87,-152"/>
<polygon fill="#1178b2" stroke="#1178b2" points="636.64,-148.58 626.19,-150.31 635.44,-155.47 636.64,-148.58"/>
<text text-anchor="middle" x="842.67" y="-346.91" font-family="Helvetica,Arial,sans-serif" font-size="10.00">2</text>
</g>
<!-- axon&#45;server&#45;connector&#45;4.10.3\n(level 1/6)&#45;&gt;axon&#45;configuration&#45;4.10.3\n(level 2/6) -->
<g id="edge11" class="edge">
<title>axon&#45;server&#45;connector&#45;4.10.3\n(level 1/6)&#45;&gt;axon&#45;configuration&#45;4.10.3\n(level 2/6)</title>
<path fill="none" stroke="red" stroke-width="1.24" d="M623.52,-580.52C621.53,-557.22 618.69,-524.18 616.47,-498.24"/>
<polygon fill="red" stroke="red" stroke-width="1.24" points="619.97,-498.05 615.63,-488.39 612.99,-498.65 619.97,-498.05"/>
<text text-anchor="middle" x="626.8" y="-530.57" font-family="Helvetica,Arial,sans-serif" font-size="10.00">38</text>
</g>
<!-- axon&#45;disruptor&#45;4.10.3\n(level 3/6)&#45;&gt;axon&#45;eventsourcing&#45;4.10.3\n(level 4/6) -->
<g id="edge21" class="edge">
<title>axon&#45;disruptor&#45;4.10.3\n(level 3/6)&#45;&gt;axon&#45;eventsourcing&#45;4.10.3\n(level 4/6)</title>
<path fill="none" stroke="red" stroke-width="1.19" d="M605.87,-326.92C584.62,-319.31 560.73,-310.63 539,-302.49 513.58,-292.97 485.86,-282.27 461.24,-272.65"/>
<polygon fill="red" stroke="red" stroke-width="1.19" points="462.79,-269.5 452.21,-269.11 460.24,-276.02 462.79,-269.5"/>
<text text-anchor="middle" x="544" y="-293.49" font-family="Helvetica,Arial,sans-serif" font-size="10.00">30</text>
</g>
<!-- axon&#45;disruptor&#45;4.10.3\n(level 3/6)&#45;&gt;axon&#45;messaging&#45;4.10.3\n(level 6/6) -->
<g id="edge20" class="edge">
<title>axon&#45;disruptor&#45;4.10.3\n(level 3/6)&#45;&gt;axon&#45;messaging&#45;4.10.3\n(level 6/6)</title>
<path fill="none" stroke="#1178b2" stroke-width="2.23" d="M674.58,-320.12C684.11,-270.51 695.51,-168.32 645,-106.83 610.87,-65.29 555.17,-45.7 504.42,-36.7"/>
<polygon fill="#1178b2" stroke="#1178b2" stroke-width="2.23" points="505.06,-33.26 494.63,-35.12 503.95,-40.17 505.06,-33.26"/>
<text text-anchor="middle" x="687.38" y="-186.66" font-family="Helvetica,Arial,sans-serif" font-size="10.00">188</text>
</g>
<!-- axon&#45;disruptor&#45;4.10.3\n(level 3/6)&#45;&gt;axon&#45;modelling&#45;4.10.3\n(level 5/6) -->
<g id="edge22" class="edge">
<title>axon&#45;disruptor&#45;4.10.3\n(level 3/6)&#45;&gt;axon&#45;modelling&#45;4.10.3\n(level 5/6)</title>
<path fill="none" stroke="#1178b2" stroke-width="1.27" d="M657.75,-320.46C644.49,-285.97 619.11,-227.09 586,-183.66 583.07,-179.82 579.79,-176.05 576.34,-172.41"/>
<polygon fill="#1178b2" stroke="#1178b2" stroke-width="1.27" points="579,-170.12 569.43,-165.58 574.08,-175.1 579,-170.12"/>
<text text-anchor="middle" x="642.44" y="-240.08" font-family="Helvetica,Arial,sans-serif" font-size="10.00">42</text>
</g>
</g>
</svg>

