<?xml version="1.0" encoding="UTF-8" standalone="no"?>
<!DOCTYPE svg PUBLIC "-//W3C//DTD SVG 1.1//EN"
 "http://www.w3.org/Graphics/SVG/1.1/DTD/svg11.dtd">
<!-- Generated by graphviz version 12.2.1 (0)
 -->
<!-- Title: JavaArtifactLongestPaths Pages: 1 -->
<svg width="937pt" height="755pt"
 viewBox="0.00 0.00 937.30 754.65" xmlns="http://www.w3.org/2000/svg" xmlns:xlink="http://www.w3.org/1999/xlink">
<g id="graph0" class="graph" transform="scale(1 1) rotate(0) translate(4 750.65)">
<title>JavaArtifactLongestPaths</title>
<polygon fill="white" stroke="none" points="-4,4 -4,-750.65 933.3,-750.65 933.3,4 -4,4"/>
<!-- axon&#45;server&#45;connector&#45;4.10.3\n(level 1/6) -->
<g id="node1" class="node">
<title>axon&#45;server&#45;connector&#45;4.10.3\n(level 1/6)</title>
<ellipse fill="#98dafe" stroke="#1178b2" cx="379" cy="-610.4" rx="128.41" ry="29.42"/>
<text text-anchor="middle" x="379" y="-614.6" font-family="Helvetica,Arial,sans-serif" font-size="14.00">axon&#45;server&#45;connector&#45;4.10.3</text>
<text text-anchor="middle" x="379" y="-597.8" font-family="Helvetica,Arial,sans-serif" font-size="14.00">(level 1/6)</text>
</g>
<!-- axon&#45;messaging&#45;4.10.3\n(level 6/6) -->
<g id="node2" class="node">
<title>axon&#45;messaging&#45;4.10.3\n(level 6/6)</title>
<ellipse fill="#98dafe" stroke="#1178b2" cx="275" cy="-29.42" rx="103.69" ry="29.42"/>
<text text-anchor="middle" x="275" y="-33.62" font-family="Helvetica,Arial,sans-serif" font-size="14.00">axon&#45;messaging&#45;4.10.3</text>
<text text-anchor="middle" x="275" y="-16.82" font-family="Helvetica,Arial,sans-serif" font-size="14.00">(level 6/6)</text>
</g>
<!-- axon&#45;server&#45;connector&#45;4.10.3\n(level 1/6)&#45;&gt;axon&#45;messaging&#45;4.10.3\n(level 6/6) -->
<g id="edge1" class="edge">
<title>axon&#45;server&#45;connector&#45;4.10.3\n(level 1/6)&#45;&gt;axon&#45;messaging&#45;4.10.3\n(level 6/6)</title>
<path fill="none" stroke="#1178b2" stroke-width="6" d="M292.03,-588.33C192.48,-561.6 43,-512.38 43,-457.74 43,-457.74 43,-457.74 43,-135.25 43,-78.67 101.01,-52.46 159.02,-40.4"/>
<polygon fill="#1178b2" stroke="#1178b2" stroke-width="6" points="159.72,-45.61 168.58,-38.61 157.79,-35.29 159.72,-45.61"/>
<text text-anchor="middle" x="50.5" y="-293.49" font-family="Helvetica,Arial,sans-serif" font-size="10.00">756</text>
</g>
<!-- axon&#45;configuration&#45;4.10.3\n(level 2/6) -->
<g id="node3" class="node">
<title>axon&#45;configuration&#45;4.10.3\n(level 2/6)</title>
<ellipse fill="#98dafe" stroke="#1178b2" cx="251" cy="-456.74" rx="115.23" ry="29.42"/>
<text text-anchor="middle" x="251" y="-460.94" font-family="Helvetica,Arial,sans-serif" font-size="14.00">axon&#45;configuration&#45;4.10.3</text>
<text text-anchor="middle" x="251" y="-444.14" font-family="Helvetica,Arial,sans-serif" font-size="14.00">(level 2/6)</text>
</g>
<!-- axon&#45;server&#45;connector&#45;4.10.3\n(level 1/6)&#45;&gt;axon&#45;configuration&#45;4.10.3\n(level 2/6) -->
<g id="edge2" class="edge">
<title>axon&#45;server&#45;connector&#45;4.10.3\n(level 1/6)&#45;&gt;axon&#45;configuration&#45;4.10.3\n(level 2/6)</title>
<path fill="none" stroke="red" stroke-width="1.24" d="M355.22,-581.23C334.66,-556.86 304.77,-521.45 282.27,-494.79"/>
<polygon fill="red" stroke="red" stroke-width="1.24" points="284.98,-492.58 275.86,-487.2 279.63,-497.09 284.98,-492.58"/>
<text text-anchor="middle" x="342.6" y="-530.57" font-family="Helvetica,Arial,sans-serif" font-size="10.00">38</text>
</g>
<!-- axon&#45;eventsourcing&#45;4.10.3\n(level 4/6) -->
<g id="node4" class="node">
<title>axon&#45;eventsourcing&#45;4.10.3\n(level 4/6)</title>
<ellipse fill="#98dafe" stroke="#1178b2" cx="486" cy="-243.08" rx="117.43" ry="29.42"/>
<text text-anchor="middle" x="486" y="-247.28" font-family="Helvetica,Arial,sans-serif" font-size="14.00">axon&#45;eventsourcing&#45;4.10.3</text>
<text text-anchor="middle" x="486" y="-230.48" font-family="Helvetica,Arial,sans-serif" font-size="14.00">(level 4/6)</text>
</g>
<!-- axon&#45;server&#45;connector&#45;4.10.3\n(level 1/6)&#45;&gt;axon&#45;eventsourcing&#45;4.10.3\n(level 4/6) -->
<g id="edge3" class="edge">
<title>axon&#45;server&#45;connector&#45;4.10.3\n(level 1/6)&#45;&gt;axon&#45;eventsourcing&#45;4.10.3\n(level 4/6)</title>
<path fill="none" stroke="#1178b2" stroke-width="1.21" d="M422.44,-582.52C428.87,-576.8 434.74,-570.26 439,-562.99 491.04,-474.04 492.53,-348.06 489.27,-284.34"/>
<polygon fill="#1178b2" stroke="#1178b2" stroke-width="1.21" points="492.78,-284.42 488.7,-274.65 485.79,-284.84 492.78,-284.42"/>
<text text-anchor="middle" x="491.47" y="-400.33" font-family="Helvetica,Arial,sans-serif" font-size="10.00">34</text>
</g>
<!-- axon&#45;modelling&#45;4.10.3\n(level 5/6) -->
<g id="node5" class="node">
<title>axon&#45;modelling&#45;4.10.3\n(level 5/6)</title>
<ellipse fill="#98dafe" stroke="#1178b2" cx="341" cy="-136.25" rx="102.04" ry="29.42"/>
<text text-anchor="middle" x="341" y="-140.45" font-family="Helvetica,Arial,sans-serif" font-size="14.00">axon&#45;modelling&#45;4.10.3</text>
<text text-anchor="middle" x="341" y="-123.65" font-family="Helvetica,Arial,sans-serif" font-size="14.00">(level 5/6)</text>
</g>
<!-- axon&#45;server&#45;connector&#45;4.10.3\n(level 1/6)&#45;&gt;axon&#45;modelling&#45;4.10.3\n(level 5/6) -->
<g id="edge4" class="edge">
<title>axon&#45;server&#45;connector&#45;4.10.3\n(level 1/6)&#45;&gt;axon&#45;modelling&#45;4.10.3\n(level 5/6)</title>
<path fill="none" stroke="#1178b2" d="M389.36,-580.77C406.92,-527.52 437.43,-410.52 403,-320.49 392.77,-293.74 372.07,-298.47 360,-272.49 346.1,-242.58 341.69,-205.23 340.57,-177.37"/>
<polygon fill="#1178b2" stroke="#1178b2" points="344.08,-177.48 340.31,-167.57 337.08,-177.66 344.08,-177.48"/>
<text text-anchor="middle" x="419.14" y="-346.91" font-family="Helvetica,Arial,sans-serif" font-size="10.00">2</text>
</g>
<!-- axon&#45;configuration&#45;4.10.3\n(level 2/6)&#45;&gt;axon&#45;messaging&#45;4.10.3\n(level 6/6) -->
<g id="edge5" class="edge">
<title>axon&#45;configuration&#45;4.10.3\n(level 2/6)&#45;&gt;axon&#45;messaging&#45;4.10.3\n(level 6/6)</title>
<path fill="none" stroke="#1178b2" stroke-width="4.5" d="M172.63,-434.94C144.73,-423.35 116.23,-405.73 100,-379.33 86.31,-357.05 93.75,-345.88 100,-320.49 125.63,-216.39 156.25,-198.42 212,-106.83 220.46,-92.93 222.85,-89.56 233,-76.83 234.8,-74.57 236.68,-72.28 238.61,-69.99"/>
<polygon fill="#1178b2" stroke="#1178b2" stroke-width="4.5" points="241.49,-72.67 245.07,-62.54 235.54,-67.51 241.49,-72.67"/>
<text text-anchor="middle" x="149.1" y="-240.08" font-family="Helvetica,Arial,sans-serif" font-size="10.00">530</text>
</g>
<!-- axon&#45;configuration&#45;4.10.3\n(level 2/6)&#45;&gt;axon&#45;eventsourcing&#45;4.10.3\n(level 4/6) -->
<g id="edge7" class="edge">
<title>axon&#45;configuration&#45;4.10.3\n(level 2/6)&#45;&gt;axon&#45;eventsourcing&#45;4.10.3\n(level 4/6)</title>
<path fill="none" stroke="#1178b2" stroke-width="1.4" d="M315.18,-431.88C326.65,-425.71 337.84,-418.23 347,-409.33 378.87,-378.32 365.03,-355.05 393,-320.49 405.52,-305.02 421.6,-290.49 436.85,-278.33"/>
<polygon fill="#1178b2" stroke="#1178b2" stroke-width="1.4" points="438.76,-281.28 444.52,-272.38 434.48,-275.74 438.76,-281.28"/>
<text text-anchor="middle" x="398" y="-346.91" font-family="Helvetica,Arial,sans-serif" font-size="10.00">62</text>
</g>
<!-- axon&#45;configuration&#45;4.10.3\n(level 2/6)&#45;&gt;axon&#45;modelling&#45;4.10.3\n(level 5/6) -->
<g id="edge6" class="edge">
<title>axon&#45;configuration&#45;4.10.3\n(level 2/6)&#45;&gt;axon&#45;modelling&#45;4.10.3\n(level 5/6)</title>
<path fill="none" stroke="#1178b2" stroke-width="1.64" d="M281.87,-427.96C294.39,-414.64 307.43,-397.61 314,-379.33 322.84,-354.72 314.73,-346.63 314,-320.49 313.63,-307.16 312.13,-303.81 313,-290.49 316.12,-242.71 316.94,-230.48 327,-183.66 327.41,-181.77 327.85,-179.85 328.33,-177.91"/>
<polygon fill="#1178b2" stroke="#1178b2" stroke-width="1.64" points="331.66,-178.99 330.88,-168.42 324.9,-177.17 331.66,-178.99"/>
<text text-anchor="middle" x="318" y="-293.49" font-family="Helvetica,Arial,sans-serif" font-size="10.00">98</text>
</g>
<!-- axon&#45;disruptor&#45;4.10.3\n(level 3/6) -->
<g id="node6" class="node">
<title>axon&#45;disruptor&#45;4.10.3\n(level 3/6)</title>
<ellipse fill="#98dafe" stroke="#1178b2" cx="207" cy="-349.91" rx="97.64" ry="29.42"/>
<text text-anchor="middle" x="207" y="-354.11" font-family="Helvetica,Arial,sans-serif" font-size="14.00">axon&#45;disruptor&#45;4.10.3</text>
<text text-anchor="middle" x="207" y="-337.31" font-family="Helvetica,Arial,sans-serif" font-size="14.00">(level 3/6)</text>
</g>
<!-- axon&#45;configuration&#45;4.10.3\n(level 2/6)&#45;&gt;axon&#45;disruptor&#45;4.10.3\n(level 3/6) -->
<g id="edge8" class="edge">
<title>axon&#45;configuration&#45;4.10.3\n(level 2/6)&#45;&gt;axon&#45;disruptor&#45;4.10.3\n(level 3/6)</title>
<path fill="none" stroke="red" d="M238.98,-427.1C234.17,-415.65 228.57,-402.3 223.4,-389.99"/>
<polygon fill="red" stroke="red" points="226.69,-388.78 219.59,-380.92 220.24,-391.49 226.69,-388.78"/>
<text text-anchor="middle" x="232.82" y="-400.33" font-family="Helvetica,Arial,sans-serif" font-size="10.00">2</text>
</g>
<!-- axon&#45;eventsourcing&#45;4.10.3\n(level 4/6)&#45;&gt;axon&#45;messaging&#45;4.10.3\n(level 6/6) -->
<g id="edge12" class="edge">
<title>axon&#45;eventsourcing&#45;4.10.3\n(level 4/6)&#45;&gt;axon&#45;messaging&#45;4.10.3\n(level 6/6)</title>
<path fill="none" stroke="#1178b2" stroke-width="5.3" d="M485.92,-213.4C484.36,-183.5 477.57,-136.89 452,-106.83 430.95,-82.08 400.4,-65.11 370.59,-53.58"/>
<polygon fill="#1178b2" stroke="#1178b2" stroke-width="5.3" points="372.5,-49.34 361.52,-50.32 369.37,-58.06 372.5,-49.34"/>
<text text-anchor="middle" x="486.65" y="-133.25" font-family="Helvetica,Arial,sans-serif" font-size="10.00">650</text>
</g>
<!-- axon&#45;eventsourcing&#45;4.10.3\n(level 4/6)&#45;&gt;axon&#45;modelling&#45;4.10.3\n(level 5/6) -->
<g id="edge13" class="edge">
<title>axon&#45;eventsourcing&#45;4.10.3\n(level 4/6)&#45;&gt;axon&#45;modelling&#45;4.10.3\n(level 5/6)</title>
<path fill="none" stroke="red" stroke-width="1.52" d="M448.28,-214.81C429.85,-201.48 407.48,-185.31 387.95,-171.19"/>
<polygon fill="red" stroke="red" stroke-width="1.52" points="390.05,-168.39 379.89,-165.37 385.95,-174.06 390.05,-168.39"/>
<text text-anchor="middle" x="422.85" y="-186.66" font-family="Helvetica,Arial,sans-serif" font-size="10.00">80</text>
</g>
<!-- axon&#45;modelling&#45;4.10.3\n(level 5/6)&#45;&gt;axon&#45;messaging&#45;4.10.3\n(level 6/6) -->
<g id="edge14" class="edge">
<title>axon&#45;modelling&#45;4.10.3\n(level 5/6)&#45;&gt;axon&#45;messaging&#45;4.10.3\n(level 6/6)</title>
<path fill="none" stroke="red" stroke-width="5.92" d="M323.14,-106.88C316.46,-96.27 308.73,-83.99 301.44,-72.42"/>
<polygon fill="red" stroke="red" stroke-width="5.92" points="306.01,-69.96 296.3,-64.25 297.25,-75.48 306.01,-69.96"/>
<text text-anchor="middle" x="317.48" y="-79.83" font-family="Helvetica,Arial,sans-serif" font-size="10.00">744</text>
</g>
<!-- axon&#45;disruptor&#45;4.10.3\n(level 3/6)&#45;&gt;axon&#45;messaging&#45;4.10.3\n(level 6/6) -->
<g id="edge9" class="edge">
<title>axon&#45;disruptor&#45;4.10.3\n(level 3/6)&#45;&gt;axon&#45;messaging&#45;4.10.3\n(level 6/6)</title>
<path fill="none" stroke="#1178b2" stroke-width="2.23" d="M205.76,-320.15C204.64,-273.96 205.98,-180.93 230,-106.83 234.17,-93.98 240.76,-80.96 247.64,-69.4"/>
<polygon fill="#1178b2" stroke="#1178b2" stroke-width="2.23" points="250.4,-71.58 252.73,-61.24 244.46,-67.87 250.4,-71.58"/>
<text text-anchor="middle" x="220.37" y="-186.66" font-family="Helvetica,Arial,sans-serif" font-size="10.00">188</text>
</g>
<!-- axon&#45;disruptor&#45;4.10.3\n(level 3/6)&#45;&gt;axon&#45;eventsourcing&#45;4.10.3\n(level 4/6) -->
<g id="edge11" class="edge">
<title>axon&#45;disruptor&#45;4.10.3\n(level 3/6)&#45;&gt;axon&#45;eventsourcing&#45;4.10.3\n(level 4/6)</title>
<path fill="none" stroke="red" stroke-width="1.19" d="M264.45,-325.69C291.79,-314.78 324.99,-301.73 355,-290.49 372.03,-284.12 390.38,-277.47 407.81,-271.27"/>
<polygon fill="red" stroke="red" stroke-width="1.19" points="408.57,-274.72 416.82,-268.08 406.23,-268.12 408.57,-274.72"/>
<text text-anchor="middle" x="360" y="-293.49" font-family="Helvetica,Arial,sans-serif" font-size="10.00">30</text>
</g>
<!-- axon&#45;disruptor&#45;4.10.3\n(level 3/6)&#45;&gt;axon&#45;modelling&#45;4.10.3\n(level 5/6) -->
<g id="edge10" class="edge">
<title>axon&#45;disruptor&#45;4.10.3\n(level 3/6)&#45;&gt;axon&#45;modelling&#45;4.10.3\n(level 5/6)</title>
<path fill="none" stroke="#1178b2" stroke-width="1.27" d="M217.25,-320.46C230.51,-285.97 255.89,-227.09 289,-183.66 291.93,-179.82 295.21,-176.05 298.66,-172.41"/>
<polygon fill="#1178b2" stroke="#1178b2" stroke-width="1.27" points="300.92,-175.1 305.57,-165.58 296,-170.12 300.92,-175.1"/>
<text text-anchor="middle" x="273.6" y="-240.08" font-family="Helvetica,Arial,sans-serif" font-size="10.00">42</text>
</g>
<!-- axon&#45;spring&#45;boot&#45;autoconfigure&#45;4.10.3\n(level 0/6) -->
<g id="node7" class="node">
<title>axon&#45;spring&#45;boot&#45;autoconfigure&#45;4.10.3\n(level 0/6)</title>
<ellipse fill="#98dafe" stroke="#1178b2" cx="535" cy="-717.23" rx="165.81" ry="29.42"/>
<text text-anchor="middle" x="535" y="-721.43" font-family="Helvetica,Arial,sans-serif" font-size="14.00">axon&#45;spring&#45;boot&#45;autoconfigure&#45;4.10.3</text>
<text text-anchor="middle" x="535" y="-704.63" font-family="Helvetica,Arial,sans-serif" font-size="14.00">(level 0/6)</text>
</g>
<!-- axon&#45;spring&#45;boot&#45;autoconfigure&#45;4.10.3\n(level 0/6)&#45;&gt;axon&#45;server&#45;connector&#45;4.10.3\n(level 1/6) -->
<g id="edge16" class="edge">
<title>axon&#45;spring&#45;boot&#45;autoconfigure&#45;4.10.3\n(level 0/6)&#45;&gt;axon&#45;server&#45;connector&#45;4.10.3\n(level 1/6)</title>
<path fill="none" stroke="red" stroke-width="1.57" d="M493.6,-688.42C473.99,-675.24 450.38,-659.37 429.71,-645.48"/>
<polygon fill="red" stroke="red" stroke-width="1.57" points="431.73,-642.62 421.48,-639.95 427.83,-648.43 431.73,-642.62"/>
<text text-anchor="middle" x="466.68" y="-660.82" font-family="Helvetica,Arial,sans-serif" font-size="10.00">88</text>
</g>
<!-- axon&#45;spring&#45;boot&#45;autoconfigure&#45;4.10.3\n(level 0/6)&#45;&gt;axon&#45;messaging&#45;4.10.3\n(level 6/6) -->
<g id="edge15" class="edge">
<title>axon&#45;spring&#45;boot&#45;autoconfigure&#45;4.10.3\n(level 0/6)&#45;&gt;axon&#45;messaging&#45;4.10.3\n(level 6/6)</title>
<path fill="none" stroke="#1178b2" stroke-width="3.53" d="M369.39,-715.14C212.26,-709.48 0,-687.71 0,-611.4 0,-611.4 0,-611.4 0,-135.25 0,-98.35 26.55,-94.39 59,-76.83 90.51,-59.78 127.78,-48.99 162.41,-42.17"/>
<polygon fill="#1178b2" stroke="#1178b2" stroke-width="3.53" points="162.61,-45.69 171.82,-40.44 161.35,-38.8 162.61,-45.69"/>
<text text-anchor="middle" x="7.5" y="-346.91" font-family="Helvetica,Arial,sans-serif" font-size="10.00">384</text>
</g>
<!-- axon&#45;spring&#45;boot&#45;autoconfigure&#45;4.10.3\n(level 0/6)&#45;&gt;axon&#45;configuration&#45;4.10.3\n(level 2/6) -->
<g id="edge17" class="edge">
<title>axon&#45;spring&#45;boot&#45;autoconfigure&#45;4.10.3\n(level 0/6)&#45;&gt;axon&#45;configuration&#45;4.10.3\n(level 2/6)</title>
<path fill="none" stroke="#1178b2" stroke-width="1.49" d="M402.8,-699.14C331.47,-686.91 253.67,-667.64 232,-639.82 200.53,-599.43 216.19,-537.77 232.13,-497.6"/>
<polygon fill="#1178b2" stroke="#1178b2" stroke-width="1.49" points="235.32,-499.04 235.94,-488.46 228.86,-496.34 235.32,-499.04"/>
<text text-anchor="middle" x="237" y="-607.4" font-family="Helvetica,Arial,sans-serif" font-size="10.00">76</text>
</g>
<!-- axon&#45;spring&#45;boot&#45;autoconfigure&#45;4.10.3\n(level 0/6)&#45;&gt;axon&#45;eventsourcing&#45;4.10.3\n(level 4/6) -->
<g id="edge18" class="edge">
<title>axon&#45;spring&#45;boot&#45;autoconfigure&#45;4.10.3\n(level 0/6)&#45;&gt;axon&#45;eventsourcing&#45;4.10.3\n(level 4/6)</title>
<path fill="none" stroke="#1178b2" stroke-width="1.33" d="M545.07,-687.56C546.7,-681.76 548.14,-675.65 549,-669.82 566.68,-550.01 572.47,-516.14 549,-397.33 540.98,-356.73 522.09,-313.38 507.07,-283.18"/>
<polygon fill="#1178b2" stroke="#1178b2" stroke-width="1.33" points="510.29,-281.8 502.65,-274.47 504.05,-284.97 510.29,-281.8"/>
<text text-anchor="middle" x="567.69" y="-453.74" font-family="Helvetica,Arial,sans-serif" font-size="10.00">52</text>
</g>
<!-- axon&#45;spring&#45;boot&#45;autoconfigure&#45;4.10.3\n(level 0/6)&#45;&gt;axon&#45;modelling&#45;4.10.3\n(level 5/6) -->
<g id="edge19" class="edge">
<title>axon&#45;spring&#45;boot&#45;autoconfigure&#45;4.10.3\n(level 0/6)&#45;&gt;axon&#45;modelling&#45;4.10.3\n(level 5/6)</title>
<path fill="none" stroke="#1178b2" stroke-width="1.23" d="M535,-687.76C535,-666.67 535,-637.25 535,-611.4 535,-611.4 535,-611.4 535,-402.33 535,-358 560.9,-352.08 592,-320.49 601.61,-310.74 610.76,-314.68 617,-302.49 627.91,-281.2 674.98,-291.47 612,-213.66 608.93,-209.87 504.3,-181.09 425.97,-159.96"/>
<polygon fill="#1178b2" stroke="#1178b2" stroke-width="1.23" points="426.98,-156.61 416.41,-157.39 425.16,-163.37 426.98,-156.61"/>
<text text-anchor="middle" x="540" y="-400.33" font-family="Helvetica,Arial,sans-serif" font-size="10.00">36</text>
</g>
<!-- axon&#45;test&#45;4.10.3\n(level 1/6) -->
<g id="node8" class="node">
<title>axon&#45;test&#45;4.10.3\n(level 1/6)</title>
<ellipse fill="#98dafe" stroke="#1178b2" cx="677" cy="-349.91" rx="75.65" ry="29.42"/>
<text text-anchor="middle" x="677" y="-354.11" font-family="Helvetica,Arial,sans-serif" font-size="14.00">axon&#45;test&#45;4.10.3</text>
<text text-anchor="middle" x="677" y="-337.31" font-family="Helvetica,Arial,sans-serif" font-size="14.00">(level 1/6)</text>
</g>
<!-- axon&#45;spring&#45;boot&#45;autoconfigure&#45;4.10.3\n(level 0/6)&#45;&gt;axon&#45;test&#45;4.10.3\n(level 1/6) -->
<g id="edge20" class="edge">
<title>axon&#45;spring&#45;boot&#45;autoconfigure&#45;4.10.3\n(level 0/6)&#45;&gt;axon&#45;test&#45;4.10.3\n(level 1/6)</title>
<path fill="none" stroke="darkorange" stroke-width="1.01" d="M579.15,-688.42C585.24,-682.92 590.83,-676.69 595,-669.82 633.84,-605.86 606.26,-576.6 625,-504.16 635.21,-464.67 650.57,-420.69 661.94,-390"/>
<polygon fill="darkorange" stroke="darkorange" stroke-width="1.01" points="665.17,-391.36 665.4,-380.77 658.62,-388.9 665.17,-391.36"/>
<text text-anchor="middle" x="627.5" y="-530.57" font-family="Helvetica,Arial,sans-serif" font-size="10.00">4</text>
</g>
<!-- axon&#45;tracing&#45;opentelemetry&#45;4.10.3\n(level 1/6) -->
<g id="node9" class="node">
<title>axon&#45;tracing&#45;opentelemetry&#45;4.10.3\n(level 1/6)</title>
<ellipse fill="#98dafe" stroke="#1178b2" cx="780" cy="-533.57" rx="149.3" ry="29.42"/>
<text text-anchor="middle" x="780" y="-537.77" font-family="Helvetica,Arial,sans-serif" font-size="14.00">axon&#45;tracing&#45;opentelemetry&#45;4.10.3</text>
<text text-anchor="middle" x="780" y="-520.97" font-family="Helvetica,Arial,sans-serif" font-size="14.00">(level 1/6)</text>
</g>
<!-- axon&#45;spring&#45;boot&#45;autoconfigure&#45;4.10.3\n(level 0/6)&#45;&gt;axon&#45;tracing&#45;opentelemetry&#45;4.10.3\n(level 1/6) -->
<g id="edge21" class="edge">
<title>axon&#45;spring&#45;boot&#45;autoconfigure&#45;4.10.3\n(level 0/6)&#45;&gt;axon&#45;tracing&#45;opentelemetry&#45;4.10.3\n(level 1/6)</title>
<path fill="none" stroke="darkorange" stroke-width="1.01" d="M599.17,-689.7C611.11,-683.78 623.22,-677.08 634,-669.82 676.38,-641.27 718.53,-600.57 746.56,-571.28"/>
<polygon fill="darkorange" stroke="darkorange" stroke-width="1.01" points="749.05,-573.74 753.38,-564.07 743.97,-568.93 749.05,-573.74"/>
<text text-anchor="middle" x="652.18" y="-660.82" font-family="Helvetica,Arial,sans-serif" font-size="10.00">4</text>
</g>
<!-- axon&#45;test&#45;4.10.3\n(level 1/6)&#45;&gt;axon&#45;messaging&#45;4.10.3\n(level 6/6) -->
<g id="edge22" class="edge">
<title>axon&#45;test&#45;4.10.3\n(level 1/6)&#45;&gt;axon&#45;messaging&#45;4.10.3\n(level 6/6)</title>
<path fill="none" stroke="#1178b2" stroke-width="3.77" d="M690.56,-320.73C692.81,-314.83 694.81,-308.56 696,-302.49 700.57,-279.26 722.87,-278.24 695,-213.66 687.4,-196.06 679.76,-194.59 664,-183.66 572.04,-119.91 449.78,-77.37 367.05,-53.61"/>
<polygon fill="#1178b2" stroke="#1178b2" stroke-width="3.77" points="368.15,-50.29 357.57,-50.94 366.25,-57.02 368.15,-50.29"/>
<text text-anchor="middle" x="689.38" y="-186.66" font-family="Helvetica,Arial,sans-serif" font-size="10.00">420</text>
</g>
<!-- axon&#45;test&#45;4.10.3\n(level 1/6)&#45;&gt;axon&#45;eventsourcing&#45;4.10.3\n(level 4/6) -->
<g id="edge23" class="edge">
<title>axon&#45;test&#45;4.10.3\n(level 1/6)&#45;&gt;axon&#45;eventsourcing&#45;4.10.3\n(level 4/6)</title>
<path fill="none" stroke="#1178b2" stroke-width="1.13" d="M639.6,-324C622.87,-313.23 602.72,-300.76 584,-290.49 574.03,-285.03 563.32,-279.56 552.76,-274.39"/>
<polygon fill="#1178b2" stroke="#1178b2" stroke-width="1.13" points="554.36,-271.28 543.83,-270.08 551.31,-277.58 554.36,-271.28"/>
<text text-anchor="middle" x="609.88" y="-293.49" font-family="Helvetica,Arial,sans-serif" font-size="10.00">22</text>
</g>
<!-- axon&#45;test&#45;4.10.3\n(level 1/6)&#45;&gt;axon&#45;modelling&#45;4.10.3\n(level 5/6) -->
<g id="edge24" class="edge">
<title>axon&#45;test&#45;4.10.3\n(level 1/6)&#45;&gt;axon&#45;modelling&#45;4.10.3\n(level 5/6)</title>
<path fill="none" stroke="#1178b2" stroke-width="1.64" d="M680.81,-320.05C683.95,-282.59 682.92,-217.97 645,-183.66 612.4,-154.17 491.29,-173.33 448,-165.66 440.05,-164.25 431.83,-162.54 423.65,-160.67"/>
<polygon fill="#1178b2" stroke="#1178b2" stroke-width="1.64" points="424.66,-157.31 414.12,-158.39 423.04,-164.12 424.66,-157.31"/>
<text text-anchor="middle" x="685.98" y="-240.08" font-family="Helvetica,Arial,sans-serif" font-size="10.00">98</text>
</g>
<!-- axon&#45;tracing&#45;opentelemetry&#45;4.10.3\n(level 1/6)&#45;&gt;axon&#45;messaging&#45;4.10.3\n(level 6/6) -->
<g id="edge25" class="edge">
<title>axon&#45;tracing&#45;opentelemetry&#45;4.10.3\n(level 1/6)&#45;&gt;axon&#45;messaging&#45;4.10.3\n(level 6/6)</title>
<path fill="none" stroke="#1178b2" stroke-width="1.15" d="M780.35,-503.79C780.64,-477.8 781,-438.5 781,-404.33 781,-404.33 781,-404.33 781,-135.25 781,-55.95 539.74,-36.18 390.4,-31.54"/>
<polygon fill="#1178b2" stroke="#1178b2" stroke-width="1.15" points="390.76,-28.05 380.66,-31.26 390.56,-35.05 390.76,-28.05"/>
<text text-anchor="middle" x="786" y="-293.49" font-family="Helvetica,Arial,sans-serif" font-size="10.00">24</text>
</g>
</g>
</svg>

