<?xml version="1.0" encoding="UTF-8" standalone="no"?>
<!DOCTYPE svg PUBLIC "-//W3C//DTD SVG 1.1//EN"
 "http://www.w3.org/Graphics/SVG/1.1/DTD/svg11.dtd">
<!-- Generated by graphviz version 12.2.1 (0)
 -->
<!-- Title: JavaArtifactLongestPaths Pages: 1 -->
<svg width="1034pt" height="755pt"
 viewBox="0.00 0.00 1034.30 754.65" xmlns="http://www.w3.org/2000/svg" xmlns:xlink="http://www.w3.org/1999/xlink">
<g id="graph0" class="graph" transform="scale(1 1) rotate(0) translate(4 750.65)">
<title>JavaArtifactLongestPaths</title>
<polygon fill="white" stroke="none" points="-4,4 -4,-750.65 1030.3,-750.65 1030.3,4 -4,4"/>
<!-- axon&#45;server&#45;connector&#45;4.10.3\n(level 1/6) -->
<g id="node1" class="node">
<title>axon&#45;server&#45;connector&#45;4.10.3\n(level 1/6)</title>
<ellipse fill="#98dafe" stroke="#1178b2" cx="232" cy="-610.4" rx="128.41" ry="29.42"/>
<text text-anchor="middle" x="232" y="-614.6" font-family="Helvetica,Arial,sans-serif" font-size="14.00">axon&#45;server&#45;connector&#45;4.10.3</text>
<text text-anchor="middle" x="232" y="-597.8" font-family="Helvetica,Arial,sans-serif" font-size="14.00">(level 1/6)</text>
</g>
<!-- axon&#45;messaging&#45;4.10.3\n(level 6/6) -->
<g id="node2" class="node">
<title>axon&#45;messaging&#45;4.10.3\n(level 6/6)</title>
<ellipse fill="#98dafe" stroke="#1178b2" cx="539" cy="-29.42" rx="103.69" ry="29.42"/>
<text text-anchor="middle" x="539" y="-33.62" font-family="Helvetica,Arial,sans-serif" font-size="14.00">axon&#45;messaging&#45;4.10.3</text>
<text text-anchor="middle" x="539" y="-16.82" font-family="Helvetica,Arial,sans-serif" font-size="14.00">(level 6/6)</text>
</g>
<!-- axon&#45;server&#45;connector&#45;4.10.3\n(level 1/6)&#45;&gt;axon&#45;messaging&#45;4.10.3\n(level 6/6) -->
<g id="edge1" class="edge">
<title>axon&#45;server&#45;connector&#45;4.10.3\n(level 1/6)&#45;&gt;axon&#45;messaging&#45;4.10.3\n(level 6/6)</title>
<path fill="none" stroke="#1178b2" stroke-width="6" d="M121,-595.28C97.46,-588.37 74.01,-578.13 55,-562.99 13.72,-530.1 0,-510.52 0,-457.74 0,-457.74 0,-457.74 0,-135.25 0,-50.46 260.26,-32.89 419.09,-30.06"/>
<polygon fill="#1178b2" stroke="#1178b2" stroke-width="6" points="418.7,-35.31 428.62,-29.91 418.54,-24.81 418.7,-35.31"/>
<text text-anchor="middle" x="7.5" y="-293.49" font-family="Helvetica,Arial,sans-serif" font-size="10.00">756</text>
</g>
<!-- axon&#45;eventsourcing&#45;4.10.3\n(level 4/6) -->
<g id="node3" class="node">
<title>axon&#45;eventsourcing&#45;4.10.3\n(level 4/6)</title>
<ellipse fill="#98dafe" stroke="#1178b2" cx="406" cy="-243.08" rx="117.43" ry="29.42"/>
<text text-anchor="middle" x="406" y="-247.28" font-family="Helvetica,Arial,sans-serif" font-size="14.00">axon&#45;eventsourcing&#45;4.10.3</text>
<text text-anchor="middle" x="406" y="-230.48" font-family="Helvetica,Arial,sans-serif" font-size="14.00">(level 4/6)</text>
</g>
<!-- axon&#45;server&#45;connector&#45;4.10.3\n(level 1/6)&#45;&gt;axon&#45;eventsourcing&#45;4.10.3\n(level 4/6) -->
<g id="edge2" class="edge">
<title>axon&#45;server&#45;connector&#45;4.10.3\n(level 1/6)&#45;&gt;axon&#45;eventsourcing&#45;4.10.3\n(level 4/6)</title>
<path fill="none" stroke="#1178b2" stroke-width="1.21" d="M271.43,-581.95C301.23,-559.35 341.11,-524.83 366,-486.16 405.91,-424.15 410.14,-335.3 408.69,-284.27"/>
<polygon fill="#1178b2" stroke="#1178b2" stroke-width="1.21" points="412.2,-284.45 408.32,-274.59 405.2,-284.72 412.2,-284.45"/>
<text text-anchor="middle" x="404.67" y="-400.33" font-family="Helvetica,Arial,sans-serif" font-size="10.00">34</text>
</g>
<!-- axon&#45;configuration&#45;4.10.3\n(level 2/6) -->
<g id="node4" class="node">
<title>axon&#45;configuration&#45;4.10.3\n(level 2/6)</title>
<ellipse fill="#98dafe" stroke="#1178b2" cx="242" cy="-456.74" rx="115.23" ry="29.42"/>
<text text-anchor="middle" x="242" y="-460.94" font-family="Helvetica,Arial,sans-serif" font-size="14.00">axon&#45;configuration&#45;4.10.3</text>
<text text-anchor="middle" x="242" y="-444.14" font-family="Helvetica,Arial,sans-serif" font-size="14.00">(level 2/6)</text>
</g>
<!-- axon&#45;server&#45;connector&#45;4.10.3\n(level 1/6)&#45;&gt;axon&#45;configuration&#45;4.10.3\n(level 2/6) -->
<g id="edge3" class="edge">
<title>axon&#45;server&#45;connector&#45;4.10.3\n(level 1/6)&#45;&gt;axon&#45;configuration&#45;4.10.3\n(level 2/6)</title>
<path fill="none" stroke="red" stroke-width="1.24" d="M233.9,-580.52C235.44,-557.22 237.62,-524.18 239.33,-498.24"/>
<polygon fill="red" stroke="red" stroke-width="1.24" points="242.81,-498.6 239.98,-488.39 235.83,-498.14 242.81,-498.6"/>
<text text-anchor="middle" x="243.77" y="-530.57" font-family="Helvetica,Arial,sans-serif" font-size="10.00">38</text>
</g>
<!-- axon&#45;modelling&#45;4.10.3\n(level 5/6) -->
<g id="node5" class="node">
<title>axon&#45;modelling&#45;4.10.3\n(level 5/6)</title>
<ellipse fill="#98dafe" stroke="#1178b2" cx="406" cy="-136.25" rx="102.04" ry="29.42"/>
<text text-anchor="middle" x="406" y="-140.45" font-family="Helvetica,Arial,sans-serif" font-size="14.00">axon&#45;modelling&#45;4.10.3</text>
<text text-anchor="middle" x="406" y="-123.65" font-family="Helvetica,Arial,sans-serif" font-size="14.00">(level 5/6)</text>
</g>
<!-- axon&#45;server&#45;connector&#45;4.10.3\n(level 1/6)&#45;&gt;axon&#45;modelling&#45;4.10.3\n(level 5/6) -->
<g id="edge4" class="edge">
<title>axon&#45;server&#45;connector&#45;4.10.3\n(level 1/6)&#45;&gt;axon&#45;modelling&#45;4.10.3\n(level 5/6)</title>
<path fill="none" stroke="#1178b2" d="M163,-585.19C110.07,-561.7 46,-520.34 46,-457.74 46,-457.74 46,-457.74 46,-295.49 46,-257.59 42.43,-239.67 70,-213.66 103.01,-182.53 214.87,-161.46 300.55,-149.46"/>
<polygon fill="#1178b2" stroke="#1178b2" points="300.99,-152.94 310.42,-148.11 300.04,-146 300.99,-152.94"/>
<text text-anchor="middle" x="48.5" y="-346.91" font-family="Helvetica,Arial,sans-serif" font-size="10.00">2</text>
</g>
<!-- axon&#45;eventsourcing&#45;4.10.3\n(level 4/6)&#45;&gt;axon&#45;messaging&#45;4.10.3\n(level 6/6) -->
<g id="edge12" class="edge">
<title>axon&#45;eventsourcing&#45;4.10.3\n(level 4/6)&#45;&gt;axon&#45;messaging&#45;4.10.3\n(level 6/6)</title>
<path fill="none" stroke="#1178b2" stroke-width="5.3" d="M460.56,-216.56C481.41,-204.1 503.42,-187.11 517,-165.66 533.97,-138.87 539.23,-103.3 540.38,-75.36"/>
<polygon fill="#1178b2" stroke="#1178b2" stroke-width="5.3" points="545.01,-75.47 540.53,-65.4 535.74,-75.33 545.01,-75.47"/>
<text text-anchor="middle" x="544.69" y="-133.25" font-family="Helvetica,Arial,sans-serif" font-size="10.00">650</text>
</g>
<!-- axon&#45;eventsourcing&#45;4.10.3\n(level 4/6)&#45;&gt;axon&#45;modelling&#45;4.10.3\n(level 5/6) -->
<g id="edge13" class="edge">
<title>axon&#45;eventsourcing&#45;4.10.3\n(level 4/6)&#45;&gt;axon&#45;modelling&#45;4.10.3\n(level 5/6)</title>
<path fill="none" stroke="red" stroke-width="1.52" d="M406,-213.43C406,-202.45 406,-189.71 406,-177.82"/>
<polygon fill="red" stroke="red" stroke-width="1.52" points="409.5,-178.16 406,-168.16 402.5,-178.16 409.5,-178.16"/>
<text text-anchor="middle" x="411" y="-186.66" font-family="Helvetica,Arial,sans-serif" font-size="10.00">80</text>
</g>
<!-- axon&#45;configuration&#45;4.10.3\n(level 2/6)&#45;&gt;axon&#45;messaging&#45;4.10.3\n(level 6/6) -->
<g id="edge6" class="edge">
<title>axon&#45;configuration&#45;4.10.3\n(level 2/6)&#45;&gt;axon&#45;messaging&#45;4.10.3\n(level 6/6)</title>
<path fill="none" stroke="#1178b2" stroke-width="4.5" d="M178.24,-431.86C157.1,-419.92 137.13,-402.87 130,-379.33 92.92,-256.85 120.27,-183.14 223,-106.83 279.91,-64.56 357.05,-45.37 420.86,-36.79"/>
<polygon fill="#1178b2" stroke="#1178b2" stroke-width="4.5" points="421.24,-40.71 430.68,-35.58 420.28,-32.9 421.24,-40.71"/>
<text text-anchor="middle" x="136.28" y="-240.08" font-family="Helvetica,Arial,sans-serif" font-size="10.00">530</text>
</g>
<!-- axon&#45;configuration&#45;4.10.3\n(level 2/6)&#45;&gt;axon&#45;eventsourcing&#45;4.10.3\n(level 4/6) -->
<g id="edge5" class="edge">
<title>axon&#45;configuration&#45;4.10.3\n(level 2/6)&#45;&gt;axon&#45;eventsourcing&#45;4.10.3\n(level 4/6)</title>
<path fill="none" stroke="#1178b2" stroke-width="1.4" d="M294.25,-430.13C315.82,-417.38 339.56,-400.2 356,-379.33 377.89,-351.54 390.85,-313.22 398.07,-284.46"/>
<polygon fill="#1178b2" stroke="#1178b2" stroke-width="1.4" points="401.45,-285.38 400.33,-274.84 394.63,-283.77 401.45,-285.38"/>
<text text-anchor="middle" x="391.59" y="-346.91" font-family="Helvetica,Arial,sans-serif" font-size="10.00">62</text>
</g>
<!-- axon&#45;configuration&#45;4.10.3\n(level 2/6)&#45;&gt;axon&#45;modelling&#45;4.10.3\n(level 5/6) -->
<g id="edge7" class="edge">
<title>axon&#45;configuration&#45;4.10.3\n(level 2/6)&#45;&gt;axon&#45;modelling&#45;4.10.3\n(level 5/6)</title>
<path fill="none" stroke="#1178b2" stroke-width="1.64" d="M191.13,-430.03C172.07,-417.54 152.51,-400.58 142,-379.33 130.41,-355.89 132.21,-344.74 142,-320.49 174.68,-239.52 206.98,-226.64 283,-183.66 296.7,-175.92 311.93,-168.98 326.89,-162.98"/>
<polygon fill="#1178b2" stroke="#1178b2" stroke-width="1.64" points="327.87,-166.35 335.93,-159.47 325.34,-159.82 327.87,-166.35"/>
<text text-anchor="middle" x="160.67" y="-293.49" font-family="Helvetica,Arial,sans-serif" font-size="10.00">98</text>
</g>
<!-- axon&#45;disruptor&#45;4.10.3\n(level 3/6) -->
<g id="node6" class="node">
<title>axon&#45;disruptor&#45;4.10.3\n(level 3/6)</title>
<ellipse fill="#98dafe" stroke="#1178b2" cx="249" cy="-349.91" rx="97.64" ry="29.42"/>
<text text-anchor="middle" x="249" y="-354.11" font-family="Helvetica,Arial,sans-serif" font-size="14.00">axon&#45;disruptor&#45;4.10.3</text>
<text text-anchor="middle" x="249" y="-337.31" font-family="Helvetica,Arial,sans-serif" font-size="14.00">(level 3/6)</text>
</g>
<!-- axon&#45;configuration&#45;4.10.3\n(level 2/6)&#45;&gt;axon&#45;disruptor&#45;4.10.3\n(level 3/6) -->
<g id="edge8" class="edge">
<title>axon&#45;configuration&#45;4.10.3\n(level 2/6)&#45;&gt;axon&#45;disruptor&#45;4.10.3\n(level 3/6)</title>
<path fill="none" stroke="red" d="M243.91,-427.1C244.66,-415.89 245.53,-402.84 246.34,-390.74"/>
<polygon fill="red" stroke="red" points="249.81,-391.24 246.99,-381.03 242.83,-390.78 249.81,-391.24"/>
<text text-anchor="middle" x="248.21" y="-400.33" font-family="Helvetica,Arial,sans-serif" font-size="10.00">2</text>
</g>
<!-- axon&#45;modelling&#45;4.10.3\n(level 5/6)&#45;&gt;axon&#45;messaging&#45;4.10.3\n(level 6/6) -->
<g id="edge14" class="edge">
<title>axon&#45;modelling&#45;4.10.3\n(level 5/6)&#45;&gt;axon&#45;messaging&#45;4.10.3\n(level 6/6)</title>
<path fill="none" stroke="red" stroke-width="5.92" d="M440.25,-108.25C456,-95.84 474.93,-80.92 491.98,-67.48"/>
<polygon fill="red" stroke="red" stroke-width="5.92" points="495.16,-71.56 499.81,-61.3 488.75,-63.43 495.16,-71.56"/>
<text text-anchor="middle" x="483.99" y="-79.83" font-family="Helvetica,Arial,sans-serif" font-size="10.00">744</text>
</g>
<!-- axon&#45;disruptor&#45;4.10.3\n(level 3/6)&#45;&gt;axon&#45;messaging&#45;4.10.3\n(level 6/6) -->
<g id="edge9" class="edge">
<title>axon&#45;disruptor&#45;4.10.3\n(level 3/6)&#45;&gt;axon&#45;messaging&#45;4.10.3\n(level 6/6)</title>
<path fill="none" stroke="#1178b2" stroke-width="2.23" d="M183.8,-327.6C168.97,-318.66 158.87,-306.52 164,-290.49 194.57,-195 213.83,-165.69 295,-106.83 336.23,-76.94 389.5,-58.49 435.74,-47.24"/>
<polygon fill="#1178b2" stroke="#1178b2" stroke-width="2.23" points="436.35,-50.69 445.3,-45.01 434.77,-43.87 436.35,-50.69"/>
<text text-anchor="middle" x="218.89" y="-186.66" font-family="Helvetica,Arial,sans-serif" font-size="10.00">188</text>
</g>
<!-- axon&#45;disruptor&#45;4.10.3\n(level 3/6)&#45;&gt;axon&#45;eventsourcing&#45;4.10.3\n(level 4/6) -->
<g id="edge11" class="edge">
<title>axon&#45;disruptor&#45;4.10.3\n(level 3/6)&#45;&gt;axon&#45;eventsourcing&#45;4.10.3\n(level 4/6)</title>
<path fill="none" stroke="red" stroke-width="1.19" d="M288.21,-322.73C308.69,-309.05 333.98,-292.17 355.86,-277.56"/>
<polygon fill="red" stroke="red" stroke-width="1.19" points="357.78,-280.49 364.15,-272.02 353.89,-274.66 357.78,-280.49"/>
<text text-anchor="middle" x="337.21" y="-293.49" font-family="Helvetica,Arial,sans-serif" font-size="10.00">30</text>
</g>
<!-- axon&#45;disruptor&#45;4.10.3\n(level 3/6)&#45;&gt;axon&#45;modelling&#45;4.10.3\n(level 5/6) -->
<g id="edge10" class="edge">
<title>axon&#45;disruptor&#45;4.10.3\n(level 3/6)&#45;&gt;axon&#45;modelling&#45;4.10.3\n(level 5/6)</title>
<path fill="none" stroke="#1178b2" stroke-width="1.27" d="M246.53,-320.12C245.49,-290.77 248.13,-245.19 270,-213.66 284.86,-192.24 307.77,-176.13 330.58,-164.35"/>
<polygon fill="#1178b2" stroke="#1178b2" stroke-width="1.27" points="331.85,-167.63 339.3,-160.09 328.78,-161.34 331.85,-167.63"/>
<text text-anchor="middle" x="275" y="-240.08" font-family="Helvetica,Arial,sans-serif" font-size="10.00">42</text>
</g>
<!-- axon&#45;spring&#45;boot&#45;autoconfigure&#45;4.10.3\n(level 0/6) -->
<g id="node7" class="node">
<title>axon&#45;spring&#45;boot&#45;autoconfigure&#45;4.10.3\n(level 0/6)</title>
<ellipse fill="#98dafe" stroke="#1178b2" cx="530" cy="-717.23" rx="165.81" ry="29.42"/>
<text text-anchor="middle" x="530" y="-721.43" font-family="Helvetica,Arial,sans-serif" font-size="14.00">axon&#45;spring&#45;boot&#45;autoconfigure&#45;4.10.3</text>
<text text-anchor="middle" x="530" y="-704.63" font-family="Helvetica,Arial,sans-serif" font-size="14.00">(level 0/6)</text>
</g>
<!-- axon&#45;spring&#45;boot&#45;autoconfigure&#45;4.10.3\n(level 0/6)&#45;&gt;axon&#45;server&#45;connector&#45;4.10.3\n(level 1/6) -->
<g id="edge15" class="edge">
<title>axon&#45;spring&#45;boot&#45;autoconfigure&#45;4.10.3\n(level 0/6)&#45;&gt;axon&#45;server&#45;connector&#45;4.10.3\n(level 1/6)</title>
<path fill="none" stroke="red" stroke-width="1.57" d="M441.29,-692.03C418.54,-685.32 394.23,-677.7 372,-669.82 348.53,-661.5 323.31,-651.37 300.82,-641.88"/>
<polygon fill="red" stroke="red" stroke-width="1.57" points="302.44,-638.77 291.87,-638.07 299.7,-645.21 302.44,-638.77"/>
<text text-anchor="middle" x="377" y="-660.82" font-family="Helvetica,Arial,sans-serif" font-size="10.00">88</text>
</g>
<!-- axon&#45;spring&#45;boot&#45;autoconfigure&#45;4.10.3\n(level 0/6)&#45;&gt;axon&#45;messaging&#45;4.10.3\n(level 6/6) -->
<g id="edge17" class="edge">
<title>axon&#45;spring&#45;boot&#45;autoconfigure&#45;4.10.3\n(level 0/6)&#45;&gt;axon&#45;messaging&#45;4.10.3\n(level 6/6)</title>
<path fill="none" stroke="#1178b2" stroke-width="3.53" d="M635.39,-694.18C676.07,-678.94 713,-653.51 713,-611.4 713,-611.4 713,-611.4 713,-135.25 713,-93.53 675.84,-67.98 635.87,-52.56"/>
<polygon fill="#1178b2" stroke="#1178b2" stroke-width="3.53" points="637.3,-49.36 626.7,-49.31 634.96,-55.95 637.3,-49.36"/>
<text text-anchor="middle" x="720.5" y="-346.91" font-family="Helvetica,Arial,sans-serif" font-size="10.00">384</text>
</g>
<!-- axon&#45;spring&#45;boot&#45;autoconfigure&#45;4.10.3\n(level 0/6)&#45;&gt;axon&#45;eventsourcing&#45;4.10.3\n(level 4/6) -->
<g id="edge18" class="edge">
<title>axon&#45;spring&#45;boot&#45;autoconfigure&#45;4.10.3\n(level 0/6)&#45;&gt;axon&#45;eventsourcing&#45;4.10.3\n(level 4/6)</title>
<path fill="none" stroke="#1178b2" stroke-width="1.33" d="M527.24,-687.45C524.56,-660.06 520.29,-617.68 516,-580.99 512,-546.79 514.46,-537.54 506,-504.16 485.5,-423.29 447.24,-333.35 424.45,-283.26"/>
<polygon fill="#1178b2" stroke="#1178b2" stroke-width="1.33" points="427.75,-282.06 420.4,-274.43 421.39,-284.97 427.75,-282.06"/>
<text text-anchor="middle" x="505.85" y="-453.74" font-family="Helvetica,Arial,sans-serif" font-size="10.00">52</text>
</g>
<!-- axon&#45;spring&#45;boot&#45;autoconfigure&#45;4.10.3\n(level 0/6)&#45;&gt;axon&#45;configuration&#45;4.10.3\n(level 2/6) -->
<g id="edge16" class="edge">
<title>axon&#45;spring&#45;boot&#45;autoconfigure&#45;4.10.3\n(level 0/6)&#45;&gt;axon&#45;configuration&#45;4.10.3\n(level 2/6)</title>
<path fill="none" stroke="#1178b2" stroke-width="1.49" d="M492.77,-688.28C485.14,-682.31 477.23,-675.96 470,-669.82 400.4,-610.74 323.42,-537.32 279.07,-494.19"/>
<polygon fill="#1178b2" stroke="#1178b2" stroke-width="1.49" points="281.6,-491.77 272,-487.3 276.72,-496.78 281.6,-491.77"/>
<text text-anchor="middle" x="439.39" y="-607.4" font-family="Helvetica,Arial,sans-serif" font-size="10.00">76</text>
</g>
<!-- axon&#45;spring&#45;boot&#45;autoconfigure&#45;4.10.3\n(level 0/6)&#45;&gt;axon&#45;modelling&#45;4.10.3\n(level 5/6) -->
<g id="edge19" class="edge">
<title>axon&#45;spring&#45;boot&#45;autoconfigure&#45;4.10.3\n(level 0/6)&#45;&gt;axon&#45;modelling&#45;4.10.3\n(level 5/6)</title>
<path fill="none" stroke="#1178b2" stroke-width="1.23" d="M602.91,-690.37C635.63,-673.67 667,-648.09 667,-611.4 667,-611.4 667,-611.4 667,-402.33 667,-308.04 638.72,-278.21 570,-213.66 546.35,-191.45 515.08,-174.72 486.19,-162.66"/>
<polygon fill="#1178b2" stroke="#1178b2" stroke-width="1.23" points="487.57,-159.45 476.99,-158.97 484.96,-165.94 487.57,-159.45"/>
<text text-anchor="middle" x="672" y="-400.33" font-family="Helvetica,Arial,sans-serif" font-size="10.00">36</text>
</g>
<!-- axon&#45;test&#45;4.10.3\n(level 1/6) -->
<g id="node8" class="node">
<title>axon&#45;test&#45;4.10.3\n(level 1/6)</title>
<ellipse fill="#98dafe" stroke="#1178b2" cx="563" cy="-349.91" rx="75.65" ry="29.42"/>
<text text-anchor="middle" x="563" y="-354.11" font-family="Helvetica,Arial,sans-serif" font-size="14.00">axon&#45;test&#45;4.10.3</text>
<text text-anchor="middle" x="563" y="-337.31" font-family="Helvetica,Arial,sans-serif" font-size="14.00">(level 1/6)</text>
</g>
<!-- axon&#45;spring&#45;boot&#45;autoconfigure&#45;4.10.3\n(level 0/6)&#45;&gt;axon&#45;test&#45;4.10.3\n(level 1/6) -->
<g id="edge20" class="edge">
<title>axon&#45;spring&#45;boot&#45;autoconfigure&#45;4.10.3\n(level 0/6)&#45;&gt;axon&#45;test&#45;4.10.3\n(level 1/6)</title>
<path fill="none" stroke="darkorange" stroke-width="1.01" d="M520.76,-687.5C505.27,-634.58 478.51,-518.77 508,-427.33 512.68,-412.82 521.24,-398.75 530.24,-386.71"/>
<polygon fill="darkorange" stroke="darkorange" stroke-width="1.01" points="532.77,-389.16 536.21,-379.13 527.27,-384.83 532.77,-389.16"/>
<text text-anchor="middle" x="499.04" y="-530.57" font-family="Helvetica,Arial,sans-serif" font-size="10.00">4</text>
</g>
<!-- axon&#45;tracing&#45;opentelemetry&#45;4.10.3\n(level 1/6) -->
<g id="node9" class="node">
<title>axon&#45;tracing&#45;opentelemetry&#45;4.10.3\n(level 1/6)</title>
<ellipse fill="#98dafe" stroke="#1178b2" cx="877" cy="-533.57" rx="149.3" ry="29.42"/>
<text text-anchor="middle" x="877" y="-537.77" font-family="Helvetica,Arial,sans-serif" font-size="14.00">axon&#45;tracing&#45;opentelemetry&#45;4.10.3</text>
<text text-anchor="middle" x="877" y="-520.97" font-family="Helvetica,Arial,sans-serif" font-size="14.00">(level 1/6)</text>
</g>
<!-- axon&#45;spring&#45;boot&#45;autoconfigure&#45;4.10.3\n(level 0/6)&#45;&gt;axon&#45;tracing&#45;opentelemetry&#45;4.10.3\n(level 1/6) -->
<g id="edge21" class="edge">
<title>axon&#45;spring&#45;boot&#45;autoconfigure&#45;4.10.3\n(level 0/6)&#45;&gt;axon&#45;tracing&#45;opentelemetry&#45;4.10.3\n(level 1/6)</title>
<path fill="none" stroke="darkorange" stroke-width="1.01" d="M653.25,-697.24C678.5,-690.61 704.28,-681.72 727,-669.82 774.13,-645.13 818.09,-602.19 846.07,-571.32"/>
<polygon fill="darkorange" stroke="darkorange" stroke-width="1.01" points="848.47,-573.88 852.52,-564.09 843.25,-569.23 848.47,-573.88"/>
<text text-anchor="middle" x="749.71" y="-660.82" font-family="Helvetica,Arial,sans-serif" font-size="10.00">4</text>
</g>
<!-- axon&#45;test&#45;4.10.3\n(level 1/6)&#45;&gt;axon&#45;messaging&#45;4.10.3\n(level 6/6) -->
<g id="edge22" class="edge">
<title>axon&#45;test&#45;4.10.3\n(level 1/6)&#45;&gt;axon&#45;messaging&#45;4.10.3\n(level 6/6)</title>
<path fill="none" stroke="#1178b2" stroke-width="3.77" d="M592.77,-322.44C624.49,-290.84 668,-235.73 651,-183.66 636.66,-139.75 604.44,-97.97 578.22,-69.17"/>
<polygon fill="#1178b2" stroke="#1178b2" stroke-width="3.77" points="581.08,-67.1 571.69,-62.19 575.97,-71.88 581.08,-67.1"/>
<text text-anchor="middle" x="661.21" y="-186.66" font-family="Helvetica,Arial,sans-serif" font-size="10.00">420</text>
</g>
<!-- axon&#45;test&#45;4.10.3\n(level 1/6)&#45;&gt;axon&#45;eventsourcing&#45;4.10.3\n(level 4/6) -->
<g id="edge24" class="edge">
<title>axon&#45;test&#45;4.10.3\n(level 1/6)&#45;&gt;axon&#45;eventsourcing&#45;4.10.3\n(level 4/6)</title>
<path fill="none" stroke="#1178b2" stroke-width="1.13" d="M525.79,-324.07C504.93,-310.13 478.62,-292.57 455.97,-277.45"/>
<polygon fill="#1178b2" stroke="#1178b2" stroke-width="1.13" points="458.2,-274.73 447.94,-272.08 454.31,-280.55 458.2,-274.73"/>
<text text-anchor="middle" x="494.21" y="-293.49" font-family="Helvetica,Arial,sans-serif" font-size="10.00">22</text>
</g>
<!-- axon&#45;test&#45;4.10.3\n(level 1/6)&#45;&gt;axon&#45;modelling&#45;4.10.3\n(level 5/6) -->
<g id="edge23" class="edge">
<title>axon&#45;test&#45;4.10.3\n(level 1/6)&#45;&gt;axon&#45;modelling&#45;4.10.3\n(level 5/6)</title>
<path fill="none" stroke="#1178b2" stroke-width="1.64" d="M562.76,-320.12C561.15,-290.77 554.78,-245.2 532,-213.66 517.71,-193.88 496.58,-178.23 475.69,-166.38"/>
<polygon fill="#1178b2" stroke="#1178b2" stroke-width="1.64" points="477.48,-163.37 467.01,-161.71 474.16,-169.53 477.48,-163.37"/>
<text text-anchor="middle" x="561.08" y="-240.08" font-family="Helvetica,Arial,sans-serif" font-size="10.00">98</text>
</g>
<!-- axon&#45;tracing&#45;opentelemetry&#45;4.10.3\n(level 1/6)&#45;&gt;axon&#45;messaging&#45;4.10.3\n(level 6/6) -->
<g id="edge25" class="edge">
<title>axon&#45;tracing&#45;opentelemetry&#45;4.10.3\n(level 1/6)&#45;&gt;axon&#45;messaging&#45;4.10.3\n(level 6/6)</title>
<path fill="none" stroke="#1178b2" stroke-width="1.15" d="M854.63,-504.34C837.22,-479.48 816,-441.55 816,-404.33 816,-404.33 816,-404.33 816,-135.25 816,-95.78 716.37,-65.94 636.61,-48.39"/>
<polygon fill="#1178b2" stroke="#1178b2" stroke-width="1.15" points="637.72,-45.04 627.21,-46.36 636.24,-51.89 637.72,-45.04"/>
<text text-anchor="middle" x="821" y="-293.49" font-family="Helvetica,Arial,sans-serif" font-size="10.00">24</text>
</g>
</g>
</svg>

